<svg width="100" height="100" viewBox="0 0 100 100" fill="none" xmlns="http://www.w3.org/2000/svg">
<path d="M26.0523 87.783C22.3015 87.7786 19.2623 84.7394 19.258 80.9886V44.3194H10.9277V89.3189C10.9321 93.0696 13.9713 96.1089 17.7221 96.1121H82.3149C86.0646 96.1089 89.1038 93.0696 89.1082 89.3189V87.7819L26.0523 87.783Z" fill="white"/>
<path d="M13.088 34.8785V23.3875H11.5521C7.80138 23.3929 4.76324 26.4311 4.75781 30.1819V40.4319H37.2457V34.8785H13.088Z" fill="white"/>
<path d="M50.0831 23.3915C49.2967 23.3904 48.5884 22.9175 48.288 22.1908C47.9864 21.4651 48.1535 20.6288 48.7088 20.0735L65.8162 2.96618C69.7698 -0.987424 76.179 -0.987424 80.1326 2.96618C84.0863 6.91978 84.0863 13.3291 80.1326 17.2827L74.7863 22.7711C74.0357 23.5325 72.8112 23.5444 72.0465 22.7982C71.2807 22.0519 71.2612 20.8273 72.002 20.0583L77.3668 14.5526C79.8072 12.1218 79.8148 8.17257 77.3841 5.73207C74.9534 3.29158 71.0052 3.28398 68.5647 5.71472L51.4584 22.822C51.094 23.1865 50.5994 23.3915 50.0831 23.3915V23.3915Z" fill="#E1680F"/>
<path d="M27.1688 23.265C26.6536 23.2661 26.159 23.0611 25.7945 22.6966L24.379 21.28C20.4482 17.3221 20.4601 10.9312 24.404 6.98741C28.3478 3.04357 34.7386 3.03272 38.6955 6.96354L51.6453 19.9123C52.4046 20.6715 52.4046 21.9026 51.6453 22.6619C50.886 23.4212 49.656 23.4212 48.8968 22.6619L35.947 9.71208C33.5119 7.27701 29.5626 7.27701 27.1276 9.71208C24.6925 12.1472 24.6925 16.0964 27.1276 18.5315L28.5441 19.9481C29.0995 20.5034 29.2654 21.3397 28.965 22.0653C28.6645 22.7921 27.9552 23.2661 27.1688 23.2661V23.265Z" fill="#E1680F"/>
<path d="M56.1186 79.9996C55.9652 79.9996 55.8126 79.9721 55.6698 79.9171L51.6666 78.3882L47.6641 79.9171C47.1098 80.1286 46.4837 79.9248 46.1594 79.4269L43.817 75.8325L39.6823 74.7098C39.1104 74.5546 38.7235 74.0208 38.753 73.427L38.9662 69.1378L36.2791 65.7937C35.907 65.3311 35.907 64.671 36.2791 64.2077L38.9662 60.8636L38.753 56.5744C38.7235 55.9814 39.1104 55.4468 39.6823 55.2917L43.817 54.1697L46.1594 50.5738C46.4837 50.0766 47.1098 49.8721 47.6641 50.0844L51.6666 51.6118L55.6698 50.0829C56.2234 49.8714 56.8501 50.0752 57.1737 50.5731L59.5161 54.169L63.6509 55.291C64.2235 55.4461 64.6104 55.9799 64.5808 56.5737L64.367 60.8629L67.0548 64.207C67.4262 64.6696 67.4262 65.3304 67.0548 65.793L64.367 69.1371L64.5808 73.4263C64.6104 74.0201 64.2235 74.5539 63.6509 74.709L59.5161 75.8325L57.1737 79.4276C56.9409 79.7852 56.5442 80.0003 56.1186 79.9996V79.9996ZM51.6666 75.7718C51.8199 75.7718 51.9719 75.8 52.1154 75.855L55.6184 77.1928L57.6675 74.0461C57.8371 73.7866 58.0952 73.5983 58.3935 73.5172L62.0119 72.5356L61.8255 68.7824C61.81 68.4721 61.9085 68.1682 62.1026 67.9263L64.4542 65.0004L62.1026 62.0737C61.9085 61.8325 61.81 61.5279 61.8255 61.2176L62.0119 57.4644L58.3935 56.4828C58.0952 56.4017 57.8371 56.2134 57.6675 55.9539L55.6184 52.8072L52.1154 54.1457C51.8263 54.2557 51.5069 54.2557 51.2178 54.1457L47.7154 52.8072L45.6656 55.9539C45.4968 56.2134 45.2379 56.4017 44.9397 56.4828L41.3213 57.4644L41.5084 61.2176C41.5238 61.5279 41.4247 61.8325 41.2305 62.0737L38.879 65.0004L41.2305 67.9263C41.4247 68.1682 41.5238 68.4721 41.5084 68.7824L41.3213 72.5356L44.9397 73.5172C45.2379 73.5983 45.4968 73.7866 45.6656 74.0461L47.7154 77.1928L51.2178 75.855C51.3613 75.8 51.5132 75.7718 51.6666 75.7718Z" fill="#E1680F"/>
<path d="M2.81384 44.3194H7.04077V89.3189C7.04728 95.2151 11.8263 99.9931 17.7225 99.9996H82.3154C88.2116 99.9931 92.9896 95.2151 92.9961 89.3189V44.3194H97.223C98.2969 44.3194 99.1668 43.4495 99.1668 42.3757V30.1819C99.1602 24.2857 94.3823 19.5066 88.4861 19.5001H11.5519C5.65566 19.5066 0.876625 24.2857 0.870117 30.1819V42.3757C0.870117 43.4495 1.7411 44.3194 2.81384 44.3194V44.3194ZM89.1087 89.3189C89.1043 93.0697 86.0651 96.1089 82.3154 96.1122H17.7225C13.9718 96.1089 10.9325 93.0697 10.9282 89.3189V44.3194H89.1087V89.3189ZM63.3468 23.3876H88.4861C92.2357 23.393 95.275 26.4311 95.2793 30.1819V40.432H63.3468V23.3876ZM41.1329 23.3876H59.4594V40.432H41.1329V23.3876ZM4.75755 30.1819C4.76298 26.4311 7.80112 23.393 11.5519 23.3876H37.2454V40.432H4.75755V30.1819Z" fill="#504C58"/>
</svg>
