<svg width="100" height="100" viewBox="0 0 100 100" fill="none" xmlns="http://www.w3.org/2000/svg">
<g clip-path="url(#clip0)">
<path d="M23.3467 16.5707H30.0511V77.9945H23.3467V16.5707Z" fill="white"/>
<path d="M35.6599 3.12872H28.9555C25.8591 3.13222 23.3502 5.64113 23.3467 8.73842V13.442H30.0511V8.73755C30.0546 5.64113 32.5635 3.13222 35.6599 3.12872Z" fill="white"/>
<path d="M35.6599 92.4012C32.5635 92.3977 30.0546 89.8888 30.0511 86.7924V81.1233H23.3467V91.262C23.3502 94.3584 25.8591 96.8682 28.9555 96.8717H70.9253C73.5826 96.8682 75.875 95.0026 76.418 92.4021L35.6599 92.4012Z" fill="white"/>
<path d="M70.9251 0H28.9553C24.1322 0.00523782 20.223 3.91439 20.2178 8.73842V91.262C20.223 96.086 24.1322 99.9943 28.9553 100H70.9251C75.7491 99.9943 79.6583 96.086 79.6635 91.262V8.73755C79.6574 3.91439 75.7491 0.00523782 70.9251 0V0ZM23.3465 16.5707H76.5348V77.9946H23.3465V16.5707ZM28.9553 3.12872H70.9251C74.0215 3.13221 76.5313 5.64113 76.5348 8.73842V13.442H23.3465V8.73755C23.35 5.64113 25.8589 3.13221 28.9553 3.12872ZM70.9251 96.8708H28.9553C25.8589 96.8673 23.35 94.3584 23.3465 91.262V81.1233H76.5348V91.262C76.5313 94.3584 74.0215 96.8673 70.9251 96.8708V96.8708Z" fill="#504C58"/>
<path d="M56.2692 87.4995H43.6103C42.746 87.4995 42.0459 88.2004 42.0459 89.0638C42.0459 89.9281 42.746 90.6282 43.6103 90.6282H56.2692C57.1334 90.6282 57.8336 89.9281 57.8336 89.0638C57.8336 88.2004 57.1334 87.4995 56.2692 87.4995Z" fill="#504C58"/>
<path d="M67.3082 45.7922C67.8609 46.263 68.6797 46.2426 69.2017 45.7206C69.7033 45.219 69.7442 44.4411 69.3246 43.8986L69.3041 43.8782C69.2938 43.8577 69.2734 43.8372 69.2631 43.827L65.824 39.7328C65.6807 39.5588 65.5886 39.3439 65.5784 39.1085L65.0769 31.4012C65.0154 30.6847 64.4218 30.132 63.6848 30.132C62.9684 30.132 62.3849 30.6643 62.3031 31.3603V31.3705C62.3031 31.4012 62.3031 31.4319 62.2928 31.4626L61.7401 39.9273C61.7299 39.9785 61.7299 40.0399 61.7299 40.0911V40.1115C61.7299 40.1218 61.7299 40.132 61.7299 40.1423C61.7299 40.1627 61.7299 40.173 61.7299 40.1832C61.7196 40.695 61.9141 41.2067 62.3031 41.5957C62.3849 41.6776 62.4668 41.7492 62.5589 41.8106L67.3082 45.7922Z" fill="#E1680F"/>
<path d="M63.8078 23.6837C56.7044 23.6837 50.6655 28.2794 48.4854 34.6458C49.8978 34.8096 51.2694 35.1167 52.5898 35.5773C54.3195 31.0634 58.7003 27.8495 63.8078 27.8495C70.4301 27.8495 75.8241 33.2436 75.8241 39.8659C75.8241 45.8639 71.4127 50.8383 65.6604 51.739C65.7525 52.5169 65.8037 53.3152 65.8037 54.1136C65.8037 54.7277 65.773 55.3316 65.7218 55.9355C73.7464 54.9836 80.0002 48.1464 80.0002 39.8659C79.99 30.9406 72.733 23.6837 63.8078 23.6837Z" fill="#E1680F"/>
<path d="M61.0235 51.7288L58.9355 51.7185C58.608 50.0092 57.9427 48.3511 56.9294 46.8567L58.4135 45.3828C58.9458 44.8506 58.956 43.9806 58.4237 43.4483L56.9294 41.9539C56.3971 41.4217 55.5271 41.4115 54.9949 41.9437L53.5107 43.4176C52.0164 42.3941 50.3685 41.7185 48.6592 41.3808L48.6694 39.2927C48.6694 38.5353 48.0655 37.9212 47.3081 37.9212L45.1996 37.9109C44.4422 37.9109 43.828 38.5148 43.828 39.2723L43.8178 41.35C42.0983 41.6673 40.4299 42.3326 38.9253 43.346L37.4719 41.8925C36.9396 41.3603 36.0696 41.35 35.5374 41.8925L34.043 43.3869C33.5107 43.9191 33.5005 44.7891 34.0328 45.3214L35.4657 46.7646C34.4319 48.259 33.7462 49.9376 33.4084 51.6571L31.3818 51.6469C30.6244 51.6469 30.0102 52.2508 30.0102 53.0082L30 55.1167C30 55.8741 30.6039 56.4882 31.3613 56.4882L33.3777 56.4985C33.695 58.2282 34.3705 59.9171 35.3941 61.4217L33.9713 62.8342C33.4391 63.3664 33.4289 64.2364 33.9611 64.7687L35.4555 66.263C35.9877 66.7953 36.8577 66.8055 37.39 66.263L38.8332 64.871C40.3378 65.9048 42.0164 66.5906 43.7462 66.9181L43.7359 68.9345C43.7359 69.6919 44.3398 70.306 45.0972 70.306L47.2057 70.3163C47.9632 70.3163 48.5773 69.7124 48.5773 68.955L48.5875 66.9284C50.3173 66.6008 51.9857 65.9253 53.4903 64.8915L54.9232 66.3347C55.4555 66.8669 56.3255 66.8772 56.8577 66.3449L58.3521 64.8506C58.8843 64.3183 58.8946 63.4483 58.3623 62.9161L56.9089 61.4626C57.9324 59.9683 58.608 58.2999 58.9253 56.5803L61.0031 56.5906C61.7605 56.5906 62.3746 55.9867 62.3746 55.2293L62.3849 53.1208C62.3951 52.3429 61.781 51.7288 61.0235 51.7288ZM51.1771 59.1085C48.4135 61.8516 43.9509 61.8413 41.2078 59.0778C38.4647 56.3142 38.4749 51.8516 41.2385 49.1085C44.002 46.3654 48.4647 46.3756 51.2078 49.1392C53.9509 51.9028 53.9304 56.3654 51.1771 59.1085Z" fill="#E1680F"/>
</g>
<defs>
<clipPath id="clip0">
<rect width="100" height="100" fill="white"/>
</clipPath>
</defs>
</svg>
