<svg width="71" height="71" viewBox="0 0 71 71" fill="none" xmlns="http://www.w3.org/2000/svg">
<path d="M70.1289 0L70.1289 70C70.1289 70 43.1289 72.5 20.1289 50C-2.87109 27.5 0.128906 0 0.128906 0L70.1289 0Z" fill="#46434C"/>
<g clip-path="url(#clip0)">
<path d="M16.25 16.5L53.7499 16.5C54.44 16.5 54.9999 15.94 54.9999 15.25C54.9999 14.56 54.4398 14.0001 53.7499 14.0001L16.25 14.0001C15.5599 14.0001 15 14.5601 15 15.25C15 15.94 15.56 16.5 16.25 16.5Z" fill="#D4E1F4"/>
<path d="M53.7499 24.5L16.25 24.5C15.5599 24.5 15 25.06 15 25.75C15 26.4399 15.56 26.9999 16.25 26.9999L53.7499 26.9999C54.44 26.9999 54.9999 26.4399 54.9999 25.75C54.9999 25.06 54.44 24.5 53.7499 24.5Z" fill="#D4E1F4"/>
<path d="M54.2499 35L29.25 35C28.5599 35 28 35.56 28 36.25C28 36.94 28.56 37.4999 29.25 37.4999L54.2499 37.4999C54.94 37.4999 55.4999 36.9399 55.4999 36.25C55.5 35.5599 54.94 35 54.2499 35Z" fill="#D4E1F4"/>
</g>
<defs>
<clipPath id="clip0">
<rect width="40" height="40" fill="white" transform="translate(15 4)"/>
</clipPath>
</defs>
</svg>
