<svg width="438" height="334" viewBox="0 0 438 334" fill="none" xmlns="http://www.w3.org/2000/svg">
<g clip-path="url(#clip0)">
<path opacity="0.1" d="M250.074 52.8201C222.481 51.8615 196.201 42.9616 171.103 33.2224C146.004 23.4832 121.153 12.696 94.2209 7.53239C76.8987 4.21356 57.0909 3.74492 43.1326 13.024C29.7029 21.9708 25.3627 37.372 23.0264 51.6783C21.2742 62.44 20.2424 73.7683 25.0515 83.8441C28.3898 90.8396 34.3201 96.7189 38.4215 103.416C52.6869 126.729 42.6039 155.495 27.1491 178.241C19.9013 188.922 11.4854 199.117 5.88755 210.475C0.289716 221.833 -2.29816 234.866 2.59622 246.462C7.45222 257.965 19.0188 266.588 31.5489 272.659C56.9929 285.014 86.9731 288.521 116.224 290.519C180.951 294.945 246.028 293.028 310.925 291.111C334.945 290.4 359.067 289.68 382.699 285.969C395.818 283.911 409.367 280.639 418.891 272.762C430.982 262.737 433.979 245.764 425.879 233.191C412.287 212.107 374.718 206.871 365.207 184.244C359.975 171.787 365.347 157.915 372.945 146.361C389.248 121.582 416.572 99.8418 418.013 71.5188C419.002 52.066 405.867 32.5834 385.556 23.3767C364.264 13.7312 334.745 14.9454 319.047 30.9133C302.854 47.337 274.426 53.6722 250.074 52.8201Z" fill="#FA8A37"/>
<path opacity="0.1" d="M247.187 321.3C334.539 321.3 405.351 316.039 405.351 309.55C405.351 303.06 334.539 297.8 247.187 297.8C159.836 297.8 89.0239 303.06 89.0239 309.55C89.0239 316.039 159.836 321.3 247.187 321.3Z" fill="#FA8A37"/>
<path d="M124.892 271.492C124.892 271.492 133.845 270.06 139.217 276.387C139.217 276.387 135.278 279.489 126.802 275.194L124.892 271.492Z" fill="#FA8A37"/>
<path d="M123.929 271.377C123.929 271.377 118.22 278.415 121.021 286.224C121.021 286.224 125.677 284.358 126.184 274.875L123.929 271.377Z" fill="#FA8A37"/>
<path d="M118.812 259.801C118.812 259.801 122.393 253.241 136.718 262.426C136.718 262.426 134.808 266.84 128.481 266.482C122.155 266.124 120.475 263.282 118.812 259.801Z" fill="#FA8A37"/>
<path d="M117.879 259.329C117.879 259.329 110.448 258.477 109.727 275.48C109.727 275.48 114.438 276.455 117.785 271.079C121.132 265.702 119.75 262.686 117.879 259.329Z" fill="#FA8A37"/>
<path d="M113.551 245.772C113.551 245.772 117.729 234.201 132.89 242.432C132.89 242.432 129.428 253.049 115.103 249.709L113.551 245.772Z" fill="#FA8A37"/>
<path d="M108.891 228.475C108.891 228.475 116.774 216.78 130.741 227.623C130.741 227.623 125.847 238.598 110.085 232.633L108.891 228.475Z" fill="#FA8A37"/>
<path d="M107.22 212.009C107.22 212.009 116.416 201.273 130.264 212.009C130.264 212.009 121.549 221.433 107.22 214.752V212.009Z" fill="#FA8A37"/>
<path d="M105.788 196.024C105.788 196.024 115.103 184.81 128.354 195.427C128.354 195.427 117.849 205.328 105.788 198.648V196.024Z" fill="#FA8A37"/>
<path d="M106.624 181.828C106.624 181.828 116.429 167.39 128.832 177.176C128.832 177.176 118.327 189.582 106.624 184.572V181.828Z" fill="#FA8A37"/>
<path d="M108.891 165.243C108.891 165.243 119.281 150.928 131.338 161.902C131.338 161.902 119.042 174.313 108.891 167.867V165.243Z" fill="#FA8A37"/>
<path d="M112.357 150.421C112.357 150.421 124.653 136.971 135.38 142.326C135.38 142.326 122.564 156.611 111.82 153.987L112.357 150.421Z" fill="#FA8A37"/>
<path d="M116.655 136.374C116.655 136.374 130.861 119.912 139.098 125.4C139.098 125.4 128.644 138.181 115.649 139.459L116.655 136.374Z" fill="#FA8A37"/>
<path d="M122.858 120.079C122.858 120.079 135.278 106.624 144.35 109.964C144.35 109.964 133.726 123.921 121.191 124.279L122.858 120.079Z" fill="#FA8A37"/>
<path d="M128.473 104.835C128.473 104.835 142.201 91.9473 148.17 94.2138C148.17 94.2138 138.262 108.533 127.876 107.698L128.473 104.835Z" fill="#FA8A37"/>
<path d="M133.964 90.7373C133.964 90.7373 145.782 75.3489 152.229 76.5418C152.229 76.5418 145.066 90.2602 133.964 92.3051V90.7373Z" fill="#FA8A37"/>
<path d="M139.925 71.7787C139.925 71.7787 150.37 59.9774 156.011 60.0073C156.011 60.0073 147.765 75.7706 139.494 75.6258L139.925 71.7787Z" fill="#FA8A37"/>
<path d="M143.455 59.1424L153.542 34.5643C153.542 34.5643 154.049 56.7821 142.171 63.701L143.455 59.1424Z" fill="#FA8A37"/>
<path d="M147.552 32.038C147.552 32.038 149.223 11.52 148.149 9.84998C148.149 9.84998 155.363 26.8914 147.479 41.104L147.552 32.038Z" fill="#FA8A37"/>
<path d="M113.159 245.495C113.159 245.495 102.696 239.015 95.9219 254.868C95.9219 254.868 105.233 261.041 114.387 249.538L113.159 245.495Z" fill="#FA8A37"/>
<path d="M108.58 227.815C108.58 227.815 95.7474 221.965 89.5186 238.517C89.5186 238.517 99.4352 245.333 109.748 231.998L108.58 227.815Z" fill="#FA8A37"/>
<path d="M106.623 213.01C106.623 213.01 97.4315 202.274 83.6011 213.01C83.6011 213.01 92.3155 222.434 106.623 215.754V213.01Z" fill="#FA8A37"/>
<path d="M105.476 196.024C105.476 196.024 96.1651 184.81 82.9102 195.427C82.9102 195.427 93.4194 205.328 105.476 198.648V196.024Z" fill="#FA8A37"/>
<path d="M106.623 182.237C106.623 182.237 100.092 166.048 85.8945 173.022C85.8945 173.022 93.5686 187.358 106.048 184.917L106.623 182.237Z" fill="#FA8A37"/>
<path d="M109.714 165.162C109.714 165.162 103.225 148.712 88.8237 156.343C88.8237 156.343 97.6404 171.42 109.075 167.705L109.714 165.162Z" fill="#FA8A37"/>
<path d="M113.739 150.506C113.739 150.506 111.181 132.472 99.2432 130.857C99.2432 130.857 101.771 149.875 112.127 153.757L113.739 150.506Z" fill="#FA8A37"/>
<path d="M116.958 136.404C116.958 136.404 115.96 114.676 106.09 113.922C106.09 113.922 106.423 130.414 115.845 139.484L116.958 136.404Z" fill="#FA8A37"/>
<path d="M123.881 119.456C123.881 119.456 120.935 101.388 111.518 99.1771C111.518 99.1771 112.686 116.679 122.952 123.887L123.881 119.456Z" fill="#FA8A37"/>
<path d="M129.59 104.963C129.59 104.963 129.488 86.1446 123.737 83.3754C123.737 83.3754 120.164 100.417 127.923 107.365L129.59 104.963Z" fill="#FA8A37"/>
<path d="M134.404 90.5455C134.404 90.5455 133.598 71.1651 127.638 68.4342C127.638 68.4342 125.595 83.7715 133.508 91.8151L134.404 90.5455Z" fill="#FA8A37"/>
<path d="M140.756 73.3209C140.756 73.3209 140.717 57.5575 136.467 53.8638C136.467 53.8638 132.233 71.131 138.535 76.4948L140.756 73.3209Z" fill="#FA8A37"/>
<path d="M142.952 58.3585L138.816 32.1189C138.816 32.1189 133.193 53.6167 143.152 63.0875L142.952 58.3585Z" fill="#FA8A37"/>
<path d="M143.762 32.2893C143.762 32.2893 133.137 14.6514 133.355 12.6917C133.355 12.6917 134.485 31.1774 147.85 40.384L143.762 32.2893Z" fill="#FA8A37"/>
<path d="M145.007 27.0789C145.007 27.0789 134.979 2.02791 130.443 -0.00854492C130.443 -0.00854492 144.768 7.26816 145.842 26.3546L145.007 27.0789Z" fill="#FA8A37"/>
<path d="M139.438 75.7749L138.756 75.5619C147.219 47.9888 149.33 30.402 144.7 25.9968L145.194 25.4771C150.101 30.1294 148.11 47.5202 139.438 75.7749Z" fill="#444053"/>
<path d="M116.139 140.324L115.125 139.966C116.02 137.439 116.992 134.875 118.007 132.348C126.84 110.335 134.357 89.8852 139.179 74.1687L140.061 73.7427C135.231 89.4592 127.846 110.718 119.004 132.749C117.994 135.262 117.03 137.81 116.139 140.324Z" fill="#444053"/>
<path d="M137.49 292.133C137.354 291.98 123.634 276.549 114.076 250.194C108.47 234.769 105.348 218.553 104.824 202.15C104.172 181.645 108.474 158.746 115.854 137.951L116.655 138.888C100.096 185.565 106.675 225.565 115.402 249.649C124.862 275.761 138.424 291.026 138.556 291.179L137.49 292.133Z" fill="#444053"/>
<path d="M77.713 288.768C77.713 288.768 61.4908 287.792 63.4051 299.15C63.4051 299.15 63.0256 301.157 64.8461 302.069C64.8461 302.069 64.8717 301.217 66.5088 301.511C67.0903 301.608 67.6814 301.637 68.2696 301.596C69.0659 301.542 69.8231 301.231 70.4269 300.71C70.4269 300.71 74.9844 298.827 76.758 291.379C76.758 291.379 78.0711 289.756 78.0157 289.339L75.2786 290.506C75.2786 290.506 76.2166 292.479 75.479 294.119C75.479 294.119 75.3895 290.578 74.8651 290.659C74.7585 290.659 73.4411 291.345 73.4411 291.345C73.4411 291.345 75.0527 294.783 73.8376 297.28C73.8376 297.28 74.298 293.045 72.9423 291.592L71.0152 292.717C71.0152 292.717 72.8954 296.266 71.6206 299.163C71.6206 299.163 71.9446 294.72 70.6102 292.99L68.8622 294.353C68.8622 294.353 70.6273 297.851 69.5529 300.254C69.5529 300.254 69.4122 295.082 68.4828 294.69C68.4828 294.69 66.9565 296.036 66.722 296.59C66.722 296.59 67.9328 299.146 67.1824 300.471C67.1824 300.471 66.722 297.024 66.3297 297.007C66.3297 297.007 64.8077 299.291 64.65 300.842C64.7237 299.396 65.1749 297.995 65.9588 296.777C65.0816 296.943 64.2723 297.362 63.631 297.983C63.631 297.983 63.8655 296.368 66.334 296.228C66.334 296.228 67.613 294.494 67.9285 294.387C67.9285 294.387 65.4728 294.183 63.9849 294.843C63.9849 294.843 65.2937 293.322 68.3804 293.991L70.0858 292.585C70.0858 292.585 66.8541 292.159 65.4813 292.632C65.4813 292.632 67.0588 291.286 70.5505 292.266L72.4264 291.145C72.4264 291.145 69.6723 290.553 68.0266 290.766C68.0266 290.766 69.7618 289.833 72.9764 290.843L74.3194 290.242C74.3194 290.242 72.2985 289.846 71.7102 289.782C71.1218 289.718 71.0834 289.556 71.0834 289.556C72.3633 289.343 73.6772 289.491 74.8779 289.982C74.8779 289.982 77.7599 288.947 77.713 288.768Z" fill="#FA8A37"/>
<path d="M30.5598 294.038C30.5598 294.038 14.3589 293.062 16.2561 304.42C16.2561 304.42 15.8724 306.427 17.6928 307.339C17.6928 307.339 17.7227 306.487 19.3598 306.781C19.9411 306.88 20.5324 306.909 21.1206 306.866C21.9159 306.813 22.672 306.502 23.2736 305.98C23.2736 305.98 27.8355 304.097 29.609 296.649C29.609 296.649 30.9179 295.026 30.888 294.609L28.1509 295.776C28.1509 295.776 29.0889 297.749 28.3513 299.389C28.3513 299.389 28.2618 295.848 27.7374 295.929C27.6308 295.929 26.3134 296.615 26.3134 296.615C26.3134 296.615 27.925 300.053 26.7099 302.55C26.7099 302.55 27.1704 298.315 25.8103 296.862L23.8833 297.987C23.8833 297.987 25.7634 301.536 24.4887 304.433C24.4887 304.433 24.817 299.99 23.4783 298.26L21.7345 299.623C21.7345 299.623 23.4996 303.121 22.4252 305.524C22.4252 305.524 22.2845 300.352 21.3551 299.96C21.3551 299.96 19.8288 301.306 19.5943 301.86C19.5943 301.86 20.8051 304.416 20.0548 305.741C20.0548 305.741 19.5943 302.294 19.2021 302.277C19.2021 302.277 17.6843 304.561 17.5223 306.112C17.5985 304.666 18.0511 303.265 18.8354 302.047C17.9571 302.214 17.1465 302.633 16.5034 303.253C16.5034 303.253 16.7421 301.638 19.2106 301.498C19.2106 301.498 20.4896 299.764 20.8051 299.661C20.8051 299.661 18.3494 299.453 16.8615 300.113C16.8615 300.113 18.1703 298.592 21.257 299.261L22.9624 297.855C22.9624 297.855 19.7307 297.429 18.3579 297.902C18.3579 297.902 19.9354 296.556 23.4271 297.536L25.303 296.415C25.303 296.415 22.5446 295.823 20.9032 296.036C20.9032 296.036 22.6384 295.103 25.853 296.113L27.1959 295.512C27.1959 295.512 25.1751 295.116 24.5825 295.052C23.9899 294.988 23.96 294.826 23.96 294.826C25.24 294.616 26.5531 294.763 27.7545 295.252C27.7545 295.252 30.5939 294.217 30.5598 294.038Z" fill="#FA8A37"/>
<path d="M56.8397 306.41C56.8397 306.41 40.6388 305.434 42.5318 316.792C42.5318 316.792 42.1523 318.799 43.9728 319.711C43.9728 319.711 44.0026 318.859 45.6355 319.153C46.2184 319.251 46.8109 319.279 47.4006 319.238C48.1954 319.184 48.951 318.873 49.5536 318.352C49.5536 318.352 54.1112 316.469 55.8847 309.021C55.8847 309.021 57.1979 307.398 57.1638 306.981L54.4267 308.148C54.4267 308.148 55.3603 310.121 54.627 311.761C54.627 311.761 54.5375 308.221 54.0088 308.301C53.9023 308.301 52.5891 308.987 52.5891 308.987C52.5891 308.987 54.1964 312.421 52.9814 314.922C52.9814 314.922 53.4418 310.687 52.0861 309.235L50.159 310.359C50.159 310.359 52.0392 313.908 50.7644 316.805C50.7644 316.805 51.0927 312.362 49.754 310.632L48.006 311.995C48.006 311.995 49.7753 315.493 48.6966 317.896C48.6966 317.896 48.556 312.724 47.6308 312.332C47.6308 312.332 46.1002 313.678 45.87 314.232C45.87 314.232 47.0808 316.788 46.3262 318.113C46.3262 318.113 45.8657 314.667 45.4735 314.649C45.4735 314.649 43.9515 316.933 43.7937 318.484C43.8674 317.038 44.3187 315.637 45.1026 314.419C44.2254 314.585 43.4161 315.004 42.7748 315.625C42.7748 315.625 43.0093 314.01 45.482 313.87C45.482 313.87 46.7355 312.136 47.0723 312.029C47.0723 312.029 44.6166 311.825 43.1286 312.485C43.1286 312.485 44.4418 310.964 47.5242 311.654L49.2296 310.248C49.2296 310.248 45.9979 309.822 44.6251 310.295C44.6251 310.295 46.2068 308.949 49.6943 309.929L51.5744 308.808C51.5744 308.808 48.8331 308.229 47.1874 308.442C47.1874 308.442 48.9183 307.509 52.1372 308.519L53.4759 307.918C53.4759 307.918 51.4593 307.522 50.8667 307.458C50.2741 307.394 50.2443 307.232 50.2443 307.232C51.5241 307.019 52.838 307.167 54.0387 307.658C54.0387 307.658 56.8866 306.589 56.8397 306.41Z" fill="#FA8A37"/>
<path opacity="0.1" d="M44.1942 322.842C50.5352 322.842 55.6755 321.974 55.6755 320.904C55.6755 319.833 50.5352 318.965 44.1942 318.965C37.8533 318.965 32.7129 319.833 32.7129 320.904C32.7129 321.974 37.8533 322.842 44.1942 322.842Z" fill="#FA8A37"/>
<path opacity="0.1" d="M408.365 322.842C414.706 322.842 419.846 321.974 419.846 320.904C419.846 319.833 414.706 318.965 408.365 318.965C402.024 318.965 396.884 319.833 396.884 320.904C396.884 321.974 402.024 322.842 408.365 322.842Z" fill="#FA8A37"/>
<path opacity="0.1" d="M298.416 334C304.757 334 309.898 333.132 309.898 332.062C309.898 330.991 304.757 330.123 298.416 330.123C292.075 330.123 286.935 330.991 286.935 332.062C286.935 333.132 292.075 334 298.416 334Z" fill="#FA8A37"/>
<path opacity="0.1" d="M426.523 306.039C432.864 306.039 438.004 305.171 438.004 304.101C438.004 303.03 432.864 302.162 426.523 302.162C420.182 302.162 415.042 303.03 415.042 304.101C415.042 305.171 420.182 306.039 426.523 306.039Z" fill="#FA8A37"/>
<path opacity="0.1" d="M66.5389 304.829C72.8799 304.829 78.0203 303.961 78.0203 302.891C78.0203 301.82 72.8799 300.952 66.5389 300.952C60.198 300.952 55.0576 301.82 55.0576 302.891C55.0576 303.961 60.198 304.829 66.5389 304.829Z" fill="#FA8A37"/>
<path opacity="0.1" d="M19.3729 310.27C25.7139 310.27 30.8542 309.402 30.8542 308.331C30.8542 307.261 25.7139 306.393 19.3729 306.393C13.032 306.393 7.8916 307.261 7.8916 308.331C7.8916 309.402 13.032 310.27 19.3729 310.27Z" fill="#FA8A37"/>
<path d="M308.793 33.9722H133.248C130.94 33.9722 129.07 35.8415 129.07 38.1473V303.048C129.07 305.354 130.94 307.224 133.248 307.224H308.793C311.101 307.224 312.971 305.354 312.971 303.048V38.1473C312.971 35.8415 311.101 33.9722 308.793 33.9722Z" fill="#A3A0A8"/>
<path opacity="0.1" d="M285.963 57.4596H158.355C151.477 57.4596 145.902 63.0312 145.902 69.9041V98.734C145.902 105.607 151.477 111.179 158.355 111.179H285.963C292.841 111.179 298.416 105.607 298.416 98.734V69.9041C298.416 63.0312 292.841 57.4596 285.963 57.4596Z" fill="black"/>
<path d="M292.737 58.5077H151.231C148.829 58.5077 146.882 60.4533 146.882 62.8533V106.117C146.882 108.517 148.829 110.463 151.231 110.463H292.737C295.139 110.463 297.086 108.517 297.086 106.117V62.8533C297.086 60.4533 295.139 58.5077 292.737 58.5077Z" fill="#E0E0E0"/>
<path opacity="0.8" d="M155.814 134.054H176.943C179.208 134.054 181.044 135.889 181.044 138.151V162.631C181.044 164.893 179.208 166.728 176.943 166.728H155.814C153.549 166.728 151.714 164.893 151.714 162.631V138.151C151.714 135.889 153.549 134.054 155.814 134.054Z" fill="#C4C4C4" stroke="#F2F2F2"/>
<path opacity="0.8" d="M192.885 134.054H214.014C216.279 134.054 218.114 135.889 218.114 138.151V162.631C218.114 164.893 216.279 166.728 214.014 166.728H192.885C190.62 166.728 188.785 164.893 188.785 162.631V138.151C188.785 135.889 190.62 134.054 192.885 134.054Z" fill="#C4C4C4" stroke="#F2F2F2"/>
<path opacity="0.8" d="M229.955 134.054H251.084C253.349 134.054 255.184 135.889 255.184 138.151V162.631C255.184 164.893 253.349 166.728 251.084 166.728H229.955C227.69 166.728 225.854 164.893 225.854 162.631V138.151C225.854 135.889 227.69 134.054 229.955 134.054Z" fill="#C4C4C4" stroke="#F2F2F2"/>
<path opacity="0.1" d="M280.459 134.27H274.72C267.93 134.27 262.425 139.771 262.425 146.557V155.657C262.425 162.443 267.93 167.944 274.72 167.944H280.459C287.25 167.944 292.755 162.443 292.755 155.657V146.557C292.755 139.771 287.25 134.27 280.459 134.27Z" fill="black"/>
<path d="M288.154 133.554H267.025C264.484 133.554 262.425 135.612 262.425 138.151V162.631C262.425 165.17 264.484 167.228 267.025 167.228H288.154C290.695 167.228 292.755 165.17 292.755 162.631V138.151C292.755 135.612 290.695 133.554 288.154 133.554Z" fill="#FA8A37"/>
<path opacity="0.8" d="M155.814 171.098H176.943C179.208 171.098 181.044 172.933 181.044 175.195V199.675C181.044 201.937 179.208 203.772 176.943 203.772H155.814C153.549 203.772 151.714 201.937 151.714 199.675V175.195C151.714 172.933 153.549 171.098 155.814 171.098Z" fill="#C4C4C4" stroke="#F2F2F2"/>
<path opacity="0.8" d="M192.885 171.098H214.014C216.279 171.098 218.114 172.933 218.114 175.195V199.675C218.114 201.937 216.279 203.772 214.014 203.772H192.885C190.62 203.772 188.785 201.937 188.785 199.675V175.195C188.785 172.933 190.62 171.098 192.885 171.098Z" fill="#C4C4C4" stroke="#F2F2F2"/>
<path opacity="0.8" d="M229.955 171.098H251.084C253.349 171.098 255.184 172.932 255.184 175.195V199.675C255.184 201.937 253.349 203.772 251.084 203.772H229.955C227.69 203.772 225.854 201.937 225.854 199.675V175.195C225.854 172.932 227.69 171.098 229.955 171.098Z" fill="#C4C4C4" stroke="#F2F2F2"/>
<path opacity="0.8" d="M155.814 211.989H176.943C179.208 211.989 181.044 213.823 181.044 216.086V240.566C181.044 242.828 179.208 244.663 176.943 244.663H155.814C153.549 244.663 151.714 242.828 151.714 240.566V216.086C151.714 213.823 153.549 211.989 155.814 211.989Z" fill="#C4C4C4" stroke="#F2F2F2"/>
<path opacity="0.8" d="M192.885 211.989H214.014C216.279 211.989 218.114 213.823 218.114 216.086V240.566C218.114 242.828 216.279 244.663 214.014 244.663H192.885C190.62 244.663 188.785 242.828 188.785 240.566V216.086C188.785 213.823 190.62 211.989 192.885 211.989Z" fill="#C4C4C4" stroke="#F2F2F2"/>
<path opacity="0.8" d="M229.955 211.989H251.084C253.349 211.989 255.184 213.823 255.184 216.086V240.566C255.184 242.828 253.349 244.663 251.084 244.663H229.955C227.69 244.663 225.854 242.828 225.854 240.566V216.086C225.854 213.823 227.69 211.989 229.955 211.989Z" fill="#C4C4C4" stroke="#F2F2F2"/>
<path opacity="0.8" d="M229.955 252.88H251.084C253.349 252.88 255.184 254.714 255.184 256.977V281.457C255.184 283.719 253.349 285.554 251.084 285.554H229.955C227.69 285.554 225.854 283.719 225.854 281.457V256.977C225.854 254.714 227.69 252.88 229.955 252.88Z" fill="#C4C4C4" stroke="#F2F2F2"/>
<path opacity="0.1" d="M280.459 171.314H274.72C267.93 171.314 262.425 176.815 262.425 183.6V192.701C262.425 199.486 267.93 204.988 274.72 204.988H280.459C287.25 204.988 292.755 199.486 292.755 192.701V183.6C292.755 176.815 287.25 171.314 280.459 171.314Z" fill="black"/>
<path d="M287.937 170.598H267.242C264.582 170.598 262.425 172.753 262.425 175.412V199.458C262.425 202.116 264.582 204.272 267.242 204.272H287.937C290.598 204.272 292.755 202.116 292.755 199.458V175.412C292.755 172.753 290.598 170.598 287.937 170.598Z" fill="#E1680F"/>
<path opacity="0.8" d="M155.494 252.88H214.333C216.422 252.88 218.114 254.571 218.114 256.657V281.776C218.114 283.862 216.422 285.554 214.333 285.554H155.494C153.406 285.554 151.714 283.862 151.714 281.776V256.657C151.714 254.571 153.406 252.88 155.494 252.88Z" fill="#C4C4C4" stroke="#F2F2F2"/>
<path opacity="0.8" d="M264.505 211.989H287.779C290.249 211.989 292.25 213.989 292.25 216.456V281.091C292.25 283.558 290.249 285.558 287.779 285.558H264.505C262.036 285.558 260.034 283.558 260.034 281.091V216.456C260.034 213.989 262.036 211.989 264.505 211.989Z" fill="#C4C4C4" stroke="#F2F2F2"/>
<path d="M290.342 101.388H277.065V102.824H290.342V101.388Z" fill="#FA8A37"/>
<path d="M270.905 101.388H257.628V102.824H270.905V101.388Z" fill="#FA8A37"/>
<path d="M251.464 101.388H238.188V102.824H251.464V101.388Z" fill="#FA8A37"/>
<path d="M232.027 101.388H218.75V102.824H232.027V101.388Z" fill="#FA8A37"/>
<path d="M375.123 202.171C376.492 197.57 375.123 192.969 375.123 192.969V188.628C375.123 188.628 376.688 180.141 369.705 174.696L365.074 170.615C365.074 170.615 362.478 168.387 361.723 168.246C361.583 168.216 361.44 168.195 361.297 168.182L361.161 168.101C360.763 167.421 360.423 166.709 360.146 165.971C360.446 166.01 360.75 165.979 361.036 165.882C361.323 165.784 361.582 165.622 361.796 165.409C361.963 165.216 362.095 164.996 362.184 164.757C362.452 164.156 362.499 163.428 362.725 162.789C362.924 162.27 363.212 161.792 363.578 161.374C363.531 161.451 363.48 161.523 363.437 161.604C364.094 160.786 364.951 160.088 365.569 159.227C365.692 159.056 365.804 158.878 365.906 158.694C365.88 158.733 365.846 158.767 365.816 158.805C366.669 157.438 366.929 155.78 367.176 154.183C367.295 153.639 367.304 153.077 367.202 152.53C367.082 152.166 366.928 151.816 366.741 151.482C365.735 149.407 365.752 146.795 364.145 145.138C362.934 143.898 361.101 143.519 359.374 143.306C357.648 143.093 355.831 142.969 354.348 142.066C353.933 141.752 353.475 141.501 352.988 141.321C352.743 141.235 352.475 141.238 352.232 141.328C351.988 141.418 351.784 141.59 351.653 141.815C351.623 141.948 351.561 142.072 351.474 142.177C351.397 142.221 351.311 142.246 351.222 142.251C351.133 142.257 351.045 142.241 350.963 142.207L348.665 141.593L348.69 141.708H348.631L348.716 142.07C348.761 142.063 348.807 142.071 348.847 142.093C348.887 142.116 348.917 142.151 348.933 142.194L348.562 142.765C347.851 142.752 347.149 142.607 346.49 142.339C346.486 142.376 346.486 142.413 346.49 142.45H346.456C346.414 143.097 347.151 143.519 347.377 144.128C347.468 144.395 347.468 144.684 347.377 144.95C347.285 145.198 347.139 145.422 346.951 145.607C346.136 146.412 345.092 146.254 344.154 146.761C344.073 146.796 344 146.848 343.942 146.913C343.883 146.979 343.839 147.056 343.813 147.14C343.776 147.203 343.765 147.278 343.783 147.349C343.82 147.447 343.887 147.53 343.975 147.588C344.248 147.808 344.547 147.994 344.866 148.141C344.772 148.227 344.683 148.312 344.597 148.401C343.407 149.61 342.535 151.095 342.059 152.723C341.583 154.351 341.518 156.071 341.869 157.731C342.221 159.39 342.979 160.936 344.075 162.231C345.17 163.527 346.57 164.53 348.149 165.153C348.183 165.332 348.208 165.515 348.234 165.707C348.234 165.728 348.234 165.741 348.234 165.762L348.26 166.009L345.164 167.326C344.698 167.322 344.241 167.186 343.849 166.934C343.456 166.681 343.144 166.322 342.947 165.899C342.227 164.412 339.682 165.899 339.682 165.899C339.682 165.899 331.918 165.319 329.023 166.751C329.023 166.751 324.389 164.808 323.737 164.676C323.084 164.544 322.108 164.028 321.652 164.16C321.196 164.293 320.607 163.308 320.279 163.381C319.951 163.453 319.823 162.733 318.778 162.473C317.734 162.213 317.341 162.542 316.169 161.374C314.997 160.207 305.464 155.606 305.464 155.606L301.183 152.087L296.617 148.457L296.536 148.606C296.506 148.499 296.476 148.389 296.447 148.269C295.992 146.461 295.423 144.684 294.741 142.948C294.447 142.245 294.315 141.359 293.918 141.828C293.675 142.109 293.262 141.491 292.639 141.074C292.507 140.982 292.357 140.922 292.198 140.896C292.04 140.871 291.878 140.881 291.724 140.926C291.57 140.97 291.428 141.049 291.308 141.156C291.189 141.262 291.094 141.394 291.032 141.542C287.476 147.115 286.202 147.507 288.261 149.556C290.098 151.375 291.318 152.964 292.814 153.467L292.993 153.522C292.961 153.531 292.927 153.531 292.895 153.522L301.575 163.892C301.575 163.892 307.838 169.337 312.149 171.084C316.459 172.83 316.126 173.354 316.126 173.354C316.126 173.354 329.181 179.962 331.202 179.834C333.223 179.707 332.835 193.378 331.986 195.598C331.138 197.817 329.769 213.743 329.769 213.743C329.769 213.743 328.46 217.113 329.833 219.443C329.833 219.443 330.136 223.908 329.863 224.981C328.674 226.813 326.977 229.923 326.7 233.123C326.7 233.293 326.666 233.451 326.648 233.617C326.561 233.718 326.458 233.803 326.342 233.869L326.631 233.783C326.508 235.117 326.222 236.43 325.779 237.694C325.089 239.47 324.723 241.354 324.7 243.258V253.551L323.847 259.942C323.847 259.942 322.803 264.778 323.847 265.907C324.288 266.469 324.493 267.181 324.419 267.892C324.375 268.717 324.609 269.533 325.084 270.21C325.265 270.407 325.398 270.645 325.472 270.903C325.546 271.161 325.559 271.432 325.51 271.696C325.165 272.817 326.022 284.742 326.022 284.742C326.022 284.742 325.77 288.026 325.425 288.201C325.08 288.376 326.022 292.001 326.022 292.001C326.022 292.001 322.496 294.941 323.396 296.496L324.295 297.876L324.056 298.111L323.911 298.26C323.639 298.103 323.322 298.043 323.012 298.089C321.904 299.222 320.718 300.277 319.465 301.246C317.874 302.392 313.547 304.054 313.547 304.054L310.136 304.331H310.072C310.072 304.331 308.44 304.177 309.356 306.704C310.273 309.23 318.467 308.455 318.467 308.455L323.251 307.701C323.251 307.701 331.777 307.743 334.22 307.202C335.239 306.977 335.499 306.431 335.414 305.882L335.388 305.856C335.271 305.332 335.032 304.843 334.689 304.429C334.672 304.402 334.652 304.376 334.63 304.352L334.783 302.605C338.403 300.522 333.76 296.424 333.76 296.424C333.76 296.424 335.35 292.968 336.164 291.848C336.979 290.727 336.979 274.219 336.979 274.219C336.979 274.219 337.405 268.254 336.284 266.874C336.264 266.424 336.368 265.978 336.582 265.582C336.797 265.187 337.115 264.857 337.503 264.628C338.309 264.079 340.743 256.508 342.653 250.224L343.856 257.629C343.856 257.629 343.595 261.173 344.376 262.209C344.522 262.404 344.627 262.627 344.683 262.865C344.738 263.102 344.744 263.349 344.7 263.589C344.515 264.582 344.575 265.606 344.874 266.571C344.966 266.985 345.189 267.359 345.51 267.636C346.205 267.981 346.247 269.213 346.507 269.472C346.767 269.732 348.379 269.106 348.464 270.056C348.513 270.89 348.513 271.727 348.464 272.561L348.989 287.941C348.989 287.941 348.136 289.219 347.944 292.628C347.872 294.08 347.599 294.907 347.317 295.38C347.161 295.634 347.09 295.93 347.113 296.227C347.136 296.524 347.252 296.806 347.445 297.033L347.595 297.207L346.951 297.702C346.692 297.903 346.511 298.187 346.438 298.506C346.365 298.825 346.404 299.159 346.55 299.453C346.342 299.633 346.194 299.872 346.123 300.137C346.052 300.403 346.063 300.684 346.154 300.944C346.18 301.029 346.217 301.111 346.264 301.187C345.775 301.263 345.321 301.488 344.964 301.83C344.321 302.713 343.546 303.492 342.666 304.139C341.389 305.117 340.167 306.164 339.004 307.275C338.456 308.02 337.72 308.608 336.872 308.979C336.664 309.063 336.449 309.127 336.228 309.171C334.523 309.52 335.056 311.301 336.446 311.595C337.836 311.889 342.449 313.299 346.038 312.477C346.038 312.477 347.104 312.903 348.669 312.11C350.234 311.318 353.725 310.346 353.725 310.346C353.725 310.346 355.682 310.346 355.947 309.571C356.015 309.324 356.053 309.069 356.057 308.813L356.113 308.757L356.062 308.71C356.066 308.13 356.022 307.55 355.929 306.976C355.878 306.678 355.823 306.414 355.772 306.201C355.605 305.554 355.294 304.714 355.162 304.361C355.184 304.332 355.204 304.303 355.222 304.271C355.968 302.993 354.727 299.96 354.727 299.96C355.135 299.314 355.63 298.727 356.198 298.217C356.893 297.697 358.722 284.218 358.722 284.218C358.722 284.218 358.632 280.762 359.575 279.207C360.517 277.652 358.27 268.237 358.27 268.237C358.27 268.237 357.311 266.077 357.66 265.297C358.01 264.518 357.311 261.667 357.311 261.667V258.259C357.309 257.853 357.241 257.451 357.11 257.066C356.842 256.265 356.445 254.727 356.876 253.624C357.486 252.069 358.876 242.479 358.876 242.479C358.876 242.479 357.788 238.248 359.383 234.878C359.507 234.609 359.65 234.349 359.809 234.099C360.99 232.245 360.636 228.952 360.052 226.298C359.967 225.872 359.869 225.488 359.771 225.118C359.732 224.956 359.69 224.803 359.647 224.649L359.835 224.572C359.835 224.572 359.835 224.321 359.894 223.891C360.538 223.763 361.149 223.505 361.689 223.132C362.228 222.759 362.686 222.279 363.032 221.722C363.032 221.722 367.014 217.249 370.536 215.37C374.057 213.491 374.322 210.769 374.322 210.769C373.802 209.861 375.255 206.168 375.255 206.168L375.123 202.171ZM363.638 208.136L359.869 212.503V212.477C358.888 211.114 360.781 208.068 360.781 208.068L363.915 201.081C363.889 201.975 363.778 202.785 363.488 203.139C362.636 204.306 365.057 206.253 365.057 206.253C363.766 206.257 363.638 208.136 363.638 208.136Z" fill="url(#paint0_linear)"/>
<path d="M297.282 150.881L295.223 154.873C294.571 154.817 293.929 154.683 293.309 154.472C292.327 154.179 291.418 153.682 290.643 153.012C289.868 152.342 289.243 151.516 288.811 150.587C286.974 146.531 290.013 143.911 291.429 143.136C292.844 142.36 294.162 141.478 295.223 144.022C295.89 145.747 296.446 147.513 296.89 149.309C297.138 150.242 297.282 150.881 297.282 150.881Z" fill="#CC818C"/>
<path d="M362.678 171.646L359.391 176.537C359.391 176.537 343.86 183.941 346.827 175.259C348.132 171.424 348.285 168.625 348.051 166.687C348.051 166.666 348.051 166.653 348.051 166.632C347.744 164.207 346.831 163.155 346.831 163.155C346.831 163.155 361.971 155.41 359.715 160.705C359.255 161.806 359.072 163.003 359.182 164.19C359.368 165.901 359.924 167.551 360.811 169.026C361.344 169.959 361.97 170.837 362.678 171.646Z" fill="#CC818C"/>
<path d="M357.95 268.531C357.95 268.531 360.184 277.904 359.229 279.433C358.274 280.963 358.377 284.414 358.377 284.414C358.377 284.414 356.573 297.808 355.887 298.319C355.323 298.818 354.831 299.391 354.425 300.024C354.425 300.024 355.652 303.057 354.915 304.309C354.801 304.5 354.629 304.649 354.425 304.736C353.273 305.221 349.019 303.065 346.597 301.753C346.402 301.647 346.236 301.495 346.112 301.31C345.988 301.125 345.911 300.914 345.887 300.693C345.862 300.472 345.892 300.249 345.972 300.042C346.053 299.835 346.182 299.65 346.35 299.504C346.204 299.213 346.164 298.882 346.235 298.565C346.307 298.248 346.486 297.965 346.742 297.766L347.381 297.271L347.232 297.097C347.041 296.871 346.925 296.59 346.903 296.295C346.88 296 346.95 295.705 347.104 295.452C347.381 294.988 347.65 294.174 347.722 292.721C347.897 289.373 348.754 288.086 348.754 288.086L348.238 272.8C348.287 271.971 348.287 271.14 348.238 270.312C348.153 269.37 346.563 269.992 346.307 269.732C346.051 269.472 346.004 268.254 345.318 267.909C345.002 267.631 344.783 267.259 344.695 266.848C344.392 265.884 344.332 264.859 344.521 263.866C344.565 263.627 344.559 263.383 344.504 263.147C344.449 262.91 344.346 262.688 344.201 262.494C343.429 261.463 343.685 257.948 343.685 257.948L342.5 250.586C340.611 256.832 338.211 264.356 337.414 264.901C337.031 265.13 336.717 265.458 336.506 265.85C336.294 266.242 336.192 266.684 336.211 267.129C337.328 268.505 336.898 274.432 336.898 274.432C336.898 274.432 336.898 290.825 336.092 291.946C335.286 293.066 333.726 296.513 333.726 296.513C333.726 296.513 338.33 300.607 334.706 302.674H334.668C330.972 304.736 323.327 298.984 323.327 298.984L324.125 298.187L324.359 297.953L323.455 296.607C322.568 295.06 326.047 292.142 326.047 292.142C326.047 292.142 325.118 288.533 325.459 288.363C325.8 288.193 326.047 284.929 326.047 284.929C326.047 284.929 325.195 273.081 325.544 271.965C325.591 271.702 325.577 271.432 325.503 271.176C325.429 270.92 325.297 270.684 325.118 270.486C324.649 269.814 324.417 269.004 324.461 268.186C324.536 267.48 324.332 266.772 323.894 266.213C322.863 265.097 323.894 260.291 323.894 260.291L324.747 253.935V243.842C324.759 241.894 325.124 239.964 325.826 238.146C326.347 236.672 326.662 235.134 326.764 233.575C327.045 230.32 328.797 227.159 329.974 225.356C330.596 224.402 331.061 223.831 331.061 223.831L358.552 222.758C358.552 222.758 358.978 223.98 359.438 225.68C359.532 226.051 359.626 226.443 359.715 226.852C360.291 229.493 360.636 232.765 359.472 234.606C359.315 234.855 359.172 235.114 359.046 235.381C357.473 238.73 358.547 242.935 358.547 242.935C358.547 242.935 357.174 252.461 356.573 254.012C356.147 255.107 356.539 256.636 356.808 257.42C356.933 257.804 356.998 258.205 357 258.609V262.004C357 262.004 357.69 264.837 357.345 265.613C357 266.388 357.95 268.531 357.95 268.531Z" fill="#444053"/>
<path opacity="0.1" d="M359.217 234.878C359.057 235.125 358.915 235.383 358.79 235.649L357.243 235.564C357.392 234.768 356.339 227.299 356.339 227.299L359.455 227.125C360.031 229.762 360.381 233.034 359.217 234.878Z" fill="black"/>
<path d="M359.473 234.618C359.315 234.868 359.172 235.127 359.046 235.394L357.499 235.304C357.648 234.512 356.595 227.039 356.595 227.039L359.711 226.865C360.291 229.506 360.636 232.778 359.473 234.618Z" fill="#444053"/>
<path opacity="0.05" d="M359.473 234.618C359.315 234.868 359.172 235.127 359.046 235.394L357.499 235.304C357.648 234.512 356.595 227.039 356.595 227.039L359.711 226.865C360.291 229.506 360.636 232.778 359.473 234.618Z" fill="black"/>
<path opacity="0.1" d="M354.919 304.327C354.805 304.517 354.634 304.667 354.429 304.753C353.278 305.238 349.023 303.083 346.601 301.77C346.299 301.603 346.07 301.33 345.958 301.003C347.339 300.752 348.243 302.282 348.243 302.282C348.473 302.137 348.73 302.04 348.998 301.997C349.266 301.953 349.541 301.964 349.805 302.028C350.069 302.092 350.318 302.208 350.536 302.369C350.755 302.53 350.939 302.734 351.078 302.968C352.259 304.706 354.791 303.973 354.791 303.973L354.919 304.327Z" fill="black"/>
<path d="M355.631 309.588C355.375 310.364 353.44 310.364 353.44 310.364C353.44 310.364 349.982 311.352 348.435 312.123C346.887 312.894 345.838 312.489 345.838 312.489C342.295 313.303 337.738 311.889 336.365 311.608C334.992 311.326 334.455 309.55 336.152 309.205C336.369 309.16 336.582 309.094 336.787 309.009C337.637 308.641 338.373 308.053 338.919 307.305C340.067 306.201 341.276 305.162 342.538 304.19C343.407 303.545 344.172 302.771 344.806 301.894C346.827 300.113 348.264 302.559 348.264 302.559C348.495 302.414 348.752 302.318 349.02 302.275C349.289 302.231 349.563 302.242 349.827 302.306C350.091 302.371 350.34 302.487 350.559 302.649C350.777 302.811 350.961 303.015 351.099 303.249C352.28 304.987 354.813 304.25 354.813 304.25C354.813 304.25 355.269 305.413 355.482 306.248C355.533 306.461 355.589 306.725 355.64 307.023C355.755 307.888 355.827 309.009 355.631 309.588Z" fill="#FF748F"/>
<path d="M349.722 304.16C349.851 304.16 349.956 304.055 349.956 303.926C349.956 303.797 349.851 303.692 349.722 303.692C349.592 303.692 349.487 303.797 349.487 303.926C349.487 304.055 349.592 304.16 349.722 304.16Z" fill="#575988"/>
<path d="M347.706 306.048C347.835 306.048 347.94 305.943 347.94 305.813C347.94 305.684 347.835 305.579 347.706 305.579C347.576 305.579 347.471 305.684 347.471 305.813C347.471 305.943 347.576 306.048 347.706 306.048Z" fill="#575988"/>
<path d="M345.655 307.743C345.784 307.743 345.889 307.638 345.889 307.509C345.889 307.38 345.784 307.275 345.655 307.275C345.525 307.275 345.42 307.38 345.42 307.509C345.42 307.638 345.525 307.743 345.655 307.743Z" fill="#575988"/>
<path d="M346.716 306.985C346.846 306.985 346.951 306.88 346.951 306.751C346.951 306.621 346.846 306.516 346.716 306.516C346.587 306.516 346.482 306.621 346.482 306.751C346.482 306.88 346.587 306.985 346.716 306.985Z" fill="#575988"/>
<path d="M348.758 305.047C348.888 305.047 348.993 304.942 348.993 304.812C348.993 304.683 348.888 304.578 348.758 304.578C348.629 304.578 348.524 304.683 348.524 304.812C348.524 304.942 348.629 305.047 348.758 305.047Z" fill="#575988"/>
<path d="M355.631 309.588C355.375 310.364 353.44 310.364 353.44 310.364C353.44 310.364 349.982 311.352 348.435 312.123C346.887 312.894 345.838 312.489 345.838 312.489C342.295 313.303 337.738 311.889 336.365 311.608C334.992 311.326 334.455 309.55 336.152 309.205C336.369 309.16 336.582 309.094 336.787 309.009C338.286 309.524 339.851 309.821 341.434 309.891C344.934 310.04 347.706 309.891 347.706 309.891L351.248 308.753C351.919 308.347 352.664 308.077 353.44 307.961C354.224 307.801 354.966 307.479 355.618 307.015C355.755 307.888 355.827 309.009 355.631 309.588Z" fill="#DCE6F2"/>
<path opacity="0.5" d="M346.814 311.808C346.617 311.809 346.42 311.79 346.226 311.752L346.277 311.501C347.002 311.612 347.743 311.508 348.409 311.203C348.724 311.079 349.04 310.93 349.347 310.777C349.654 310.623 350.084 310.432 350.468 310.291L350.818 310.172C351.01 310.104 351.206 310.04 351.393 309.959C351.5 309.916 351.606 309.865 351.709 309.814C351.96 309.682 352.227 309.581 352.502 309.511C352.643 309.485 352.785 309.467 352.928 309.456C353.06 309.447 353.191 309.432 353.32 309.409C353.578 309.344 353.828 309.251 354.066 309.132C354.321 309.001 354.59 308.901 354.868 308.834L355.056 308.804C355.258 308.799 355.453 308.727 355.61 308.6L355.802 308.774C355.606 308.946 355.358 309.046 355.098 309.06L354.919 309.09C354.661 309.153 354.41 309.246 354.173 309.366C353.917 309.493 353.649 309.592 353.372 309.66C353.231 309.688 353.088 309.705 352.945 309.712C352.811 309.721 352.677 309.739 352.544 309.763C352.288 309.829 352.041 309.925 351.807 310.048L351.483 310.197C351.287 310.278 351.082 310.346 350.886 310.415L350.545 310.534C350.17 310.67 349.803 310.845 349.445 311.011C349.087 311.177 348.814 311.309 348.49 311.437C347.959 311.663 347.391 311.789 346.814 311.808Z" fill="#575988"/>
<path opacity="0.1" d="M347.642 269.153C347.642 269.153 349.424 266.597 352.476 266.597C355.529 266.597 356.833 266.252 356.833 266.252C356.833 266.252 354.881 267.41 353.529 267.56C352.178 267.709 347.642 269.153 347.642 269.153Z" fill="black"/>
<path opacity="0.1" d="M348.673 269.754C348.673 269.754 350.285 268.637 351.206 268.595C352.127 268.552 352.911 268.467 352.911 268.467C352.479 268.77 352.001 269.002 351.496 269.153C350.741 269.366 348.673 269.754 348.673 269.754Z" fill="black"/>
<path opacity="0.1" d="M349.036 270.525C349.036 270.525 351.462 270.717 351.483 271.377L349.036 270.525Z" fill="black"/>
<path opacity="0.1" d="M326.41 234.312C326.538 234.333 328.708 232.058 328.857 231.159C328.976 230.59 329.314 230.091 329.8 229.77C329.8 229.77 331.198 230.328 329.953 232.041C328.708 233.754 326.41 234.312 326.41 234.312Z" fill="black"/>
<path opacity="0.1" d="M359.694 160.697C359.2 161.864 358.765 161.975 358.842 163.087C358.266 163.696 357.604 164.217 356.876 164.633C355.341 165.545 353.67 167.33 351.76 167.33C350.48 167.331 349.212 167.091 348.021 166.623C347.714 164.199 346.802 163.147 346.802 163.147C346.802 163.147 361.945 155.401 359.694 160.697Z" fill="black"/>
<path d="M362.013 156.577C362.013 158.599 361.413 160.576 360.289 162.258C359.164 163.939 357.566 165.25 355.697 166.024C353.827 166.798 351.77 167 349.785 166.605C347.8 166.211 345.977 165.237 344.546 163.807C343.115 162.377 342.14 160.555 341.745 158.572C341.351 156.588 341.553 154.533 342.328 152.664C343.102 150.796 344.414 149.199 346.096 148.075C347.779 146.952 349.757 146.352 351.781 146.352C354.495 146.352 357.097 147.429 359.016 149.347C360.935 151.265 362.013 153.865 362.013 156.577Z" fill="#CC818C"/>
<path opacity="0.1" d="M362.678 171.646L359.391 176.537C359.391 176.537 343.86 183.941 346.827 175.259C348.132 171.424 348.285 168.625 348.051 166.687H348.076C348.26 167.329 348.364 167.992 348.387 168.659C348.434 169.997 348.468 171.689 351.798 172.247C357.341 173.175 360.299 169.716 360.82 169.039C361.351 169.967 361.973 170.841 362.678 171.646Z" fill="black"/>
<path opacity="0.1" d="M297.282 150.881L295.223 154.873C294.571 154.817 293.928 154.683 293.309 154.472L293.13 154.259C293.983 154.583 296.801 149.236 296.801 149.236L296.89 149.309C297.137 150.242 297.282 150.881 297.282 150.881Z" fill="black"/>
<path opacity="0.1" d="M359.438 225.693C352.804 228.573 329.859 226.119 329.859 226.119C329.927 225.875 329.966 225.623 329.974 225.369C330.596 224.415 331.061 223.844 331.061 223.844L358.552 222.77C358.552 222.77 358.999 223.993 359.438 225.693Z" fill="black"/>
<path d="M348.059 166.925L344.998 168.233C344.536 168.229 344.085 168.094 343.698 167.843C343.31 167.591 343.003 167.235 342.811 166.815C342.099 165.336 339.588 166.815 339.588 166.815C339.588 166.815 331.914 166.235 329.083 167.667C329.083 167.667 324.508 165.733 323.864 165.605C323.221 165.477 322.253 164.961 321.801 165.089C321.349 165.217 320.773 164.237 320.449 164.318C320.125 164.399 319.998 163.675 318.966 163.415C317.934 163.155 317.55 163.479 316.408 162.32C315.265 161.161 305.839 156.59 305.839 156.59L301.575 153.113L297.065 149.509C297.065 149.509 294.23 154.852 293.39 154.528L301.959 164.834C301.959 164.834 308.145 170.24 312.4 171.978C316.655 173.716 316.331 174.232 316.331 174.232C316.331 174.232 329.219 180.801 331.215 180.674C333.21 180.546 332.835 194.115 331.982 196.305C331.129 198.495 329.795 214.335 329.795 214.335C329.795 214.335 328.516 217.683 329.859 220.001C329.859 220.001 330.179 224.768 329.859 225.603C329.859 225.603 352.945 228.07 359.498 225.152C359.498 225.152 360.466 214.463 359.498 213.112C358.53 211.762 360.402 208.749 360.402 208.749L364.524 199.543L374.578 189.433C374.578 189.433 376.121 180.997 369.227 175.591L364.652 171.531C364.652 171.531 362.094 169.32 361.344 169.179C360.594 169.039 360.871 169.179 360.871 169.179C360.871 169.179 357.886 173.529 351.764 172.498C348.447 171.94 348.413 170.248 348.353 168.915C348.336 168.242 348.237 167.574 348.059 166.925Z" fill="#67647E"/>
<path opacity="0.1" d="M360.657 201.588C360.657 201.588 346.477 202.167 343.646 206.619C343.646 206.619 347.322 204.877 350.604 205.392C353.887 205.908 360.657 201.588 360.657 201.588Z" fill="black"/>
<path opacity="0.1" d="M344.999 217.104C344.999 217.104 351.701 217.556 353.12 216.137C354.54 214.718 354.544 213.883 354.544 213.883L344.999 217.104Z" fill="black"/>
<path opacity="0.1" d="M362.013 187.933C362.013 187.933 356.339 194.631 363.237 197.528L362.013 187.933Z" fill="black"/>
<path opacity="0.1" d="M328.439 174.995C328.439 174.995 330.502 179.2 331.534 179.477L328.439 174.995Z" fill="black"/>
<path opacity="0.1" d="M321.481 173.188C321.481 173.188 326.636 177.828 327.604 178.275C327.604 178.275 322.253 173.188 321.481 173.188Z" fill="black"/>
<path opacity="0.1" d="M342.035 168.749C342.035 168.749 337.073 176.153 340.296 180.678C340.296 180.661 338.492 175.314 342.035 168.749Z" fill="black"/>
<path d="M354.544 224.832L353.026 226.26L352.813 226.455L351.057 228.117C350.933 228.211 350.809 228.304 350.682 228.39C343.532 233.502 342.099 225.731 342.099 225.731C342.099 225.731 338.944 227.793 338.493 226.119C338.041 224.445 345.838 222.063 347.019 222.191C347.123 222.201 347.227 222.201 347.331 222.191C347.894 222.097 348.437 221.905 348.934 221.624L349.279 221.441C349.676 221.218 350.062 220.974 350.434 220.713L354.544 224.832Z" fill="#CC818C"/>
<path opacity="0.1" d="M362.252 156.577C362.256 158.351 361.798 160.094 360.924 161.638C360.049 163.181 358.788 164.47 357.264 165.379C357.121 165.14 356.996 164.891 356.889 164.633C356.522 163.781 356.296 162.861 355.925 162.005C355.52 161.07 354.941 160.22 354.22 159.5C354.098 159.357 353.941 159.248 353.764 159.184C353.598 159.162 353.429 159.173 353.268 159.218C353.107 159.262 352.956 159.339 352.826 159.444C352.392 159.738 351.908 159.95 351.398 160.071C351.142 160.129 350.876 160.121 350.625 160.046C350.374 159.971 350.147 159.833 349.965 159.645C349.564 159.167 349.62 158.469 349.735 157.859C349.987 156.526 350.404 155.214 350.409 153.859C350.413 152.504 349.893 151.047 348.703 150.374C347.663 149.782 346.371 149.948 345.216 149.616C345.037 149.569 344.862 149.509 344.691 149.437C346.112 147.98 347.935 146.979 349.927 146.563C351.92 146.147 353.991 146.335 355.877 147.101C357.762 147.868 359.376 149.179 360.511 150.867C361.647 152.555 362.253 154.543 362.252 156.577Z" fill="black"/>
<path d="M343.992 147.801C343.809 147.899 343.604 148.078 343.66 148.282C343.695 148.38 343.761 148.463 343.847 148.521C344.325 148.906 344.876 149.188 345.467 149.351C346.623 149.667 347.919 149.518 348.959 150.11C350.136 150.779 350.664 152.24 350.664 153.595C350.664 154.95 350.238 156.262 349.995 157.591C349.88 158.204 349.82 158.903 350.221 159.38C350.403 159.568 350.631 159.705 350.882 159.78C351.132 159.855 351.398 159.864 351.654 159.806C352.164 159.688 352.648 159.478 353.082 159.184C353.213 159.079 353.364 159.001 353.526 158.956C353.688 158.91 353.857 158.898 354.024 158.92C354.199 158.987 354.356 159.095 354.48 159.235C355.202 159.957 355.78 160.808 356.185 161.745C356.561 162.597 356.782 163.513 357.149 164.373C357.468 165.251 358.068 166 358.854 166.504C359.673 166.955 360.807 166.93 361.438 166.231C362.069 165.532 362.018 164.574 362.316 163.734C362.828 162.273 364.256 161.357 365.151 160.096C366.153 158.677 366.43 156.897 366.703 155.18C366.825 154.639 366.833 154.079 366.729 153.535C366.612 153.175 366.461 152.827 366.277 152.496C365.279 150.434 365.301 147.839 363.719 146.194C362.525 144.959 360.713 144.584 359.008 144.371C357.303 144.158 355.512 144.039 354.05 143.14C353.64 142.83 353.187 142.58 352.707 142.398C352.463 142.313 352.198 142.316 351.956 142.406C351.714 142.496 351.512 142.669 351.385 142.893C351.355 143.024 351.295 143.146 351.21 143.251C351.134 143.295 351.048 143.32 350.96 143.325C350.872 143.331 350.784 143.315 350.703 143.28L348.435 142.671L348.695 143.813C347.87 143.847 347.048 143.702 346.286 143.387C346.243 144.034 346.972 144.452 347.198 145.057C347.28 145.332 347.283 145.624 347.208 145.901C347.132 146.178 346.982 146.429 346.772 146.625C345.949 147.451 344.922 147.294 343.992 147.801Z" fill="#585268"/>
<path opacity="0.1" d="M334.8 301.651L334.707 302.678H334.668C330.972 304.74 323.328 298.988 323.328 298.988L324.125 298.192C324.256 298.337 324.354 298.508 324.415 298.693C324.475 298.879 324.495 299.075 324.474 299.27L326.035 299.355L327.902 301.37C327.902 301.37 332.954 301.954 334.323 301.63L334.8 301.651Z" fill="black"/>
<path d="M334.152 307.249C331.748 307.786 323.327 307.748 323.327 307.748L318.604 308.493C318.604 308.493 310.503 309.269 309.604 306.755C308.704 304.241 310.311 304.399 310.311 304.399H310.375L313.748 304.126C313.748 304.126 318.011 302.473 319.593 301.336C320.831 300.373 322 299.325 323.093 298.2C323.093 298.2 324.5 297.927 324.474 299.555L326.035 299.64L327.902 301.66C327.902 301.66 332.954 302.243 334.323 301.915H334.8L334.583 304.408L334.643 304.48C334.967 304.872 336.301 306.772 334.152 307.249Z" fill="#FF748F"/>
<path d="M325.434 301.238C325.563 301.238 325.668 301.133 325.668 301.003C325.668 300.874 325.563 300.769 325.434 300.769C325.304 300.769 325.199 300.874 325.199 301.003C325.199 301.133 325.304 301.238 325.434 301.238Z" fill="#575988"/>
<path d="M319.375 303.862C319.505 303.862 319.61 303.757 319.61 303.628C319.61 303.498 319.505 303.394 319.375 303.394C319.246 303.394 319.141 303.498 319.141 303.628C319.141 303.757 319.246 303.862 319.375 303.862Z" fill="#575988"/>
<path d="M316.255 304.808C316.384 304.808 316.489 304.703 316.489 304.574C316.489 304.444 316.384 304.339 316.255 304.339C316.125 304.339 316.02 304.444 316.02 304.574C316.02 304.703 316.125 304.808 316.255 304.808Z" fill="#575988"/>
<path d="M320.965 303.359C321.095 303.359 321.2 303.255 321.2 303.125C321.2 302.996 321.095 302.891 320.965 302.891C320.836 302.891 320.731 302.996 320.731 303.125C320.731 303.255 320.836 303.359 320.965 303.359Z" fill="#575988"/>
<path d="M317.811 304.335C317.94 304.335 318.045 304.23 318.045 304.101C318.045 303.971 317.94 303.866 317.811 303.866C317.681 303.866 317.576 303.971 317.576 304.101C317.576 304.23 317.681 304.335 317.811 304.335Z" fill="#575988"/>
<path d="M322.573 302.614C322.702 302.614 322.807 302.509 322.807 302.38C322.807 302.25 322.702 302.145 322.573 302.145C322.443 302.145 322.338 302.25 322.338 302.38C322.338 302.509 322.443 302.614 322.573 302.614Z" fill="#575988"/>
<path d="M324.163 301.924C324.293 301.924 324.398 301.819 324.398 301.689C324.398 301.56 324.293 301.455 324.163 301.455C324.034 301.455 323.929 301.56 323.929 301.689C323.929 301.819 324.034 301.924 324.163 301.924Z" fill="#575988"/>
<path d="M334.152 307.249C331.748 307.786 323.327 307.748 323.327 307.748L318.604 308.493C318.604 308.493 310.503 309.269 309.604 306.755C308.704 304.241 310.311 304.399 310.311 304.399H310.375C310.891 305.068 311.927 305.826 313.961 305.864L319.785 306.099L325.817 305.673C325.817 305.673 331.471 305.507 332.391 305.311C333.165 305.103 333.918 304.826 334.643 304.484C334.967 304.872 336.301 306.772 334.152 307.249Z" fill="#DCE6F2"/>
<path opacity="0.5" d="M319.06 307.926C318.738 307.931 318.416 307.891 318.105 307.807L318.173 307.56C318.968 307.731 319.793 307.694 320.569 307.454C320.855 307.377 321.136 307.296 321.422 307.211C321.938 307.047 322.463 306.915 322.995 306.815C323.854 306.703 324.723 306.677 325.587 306.738H325.771C328.354 306.874 330.944 306.758 333.504 306.393C334.112 306.351 334.691 306.118 335.159 305.728L335.342 305.911C334.837 306.34 334.208 306.598 333.547 306.648C330.969 307.016 328.362 307.131 325.762 306.993H325.574C324.721 306.934 323.864 306.959 323.016 307.07C322.496 307.167 321.982 307.297 321.477 307.458C321.192 307.543 320.906 307.628 320.625 307.701C320.114 307.839 319.589 307.915 319.06 307.926Z" fill="#575988"/>
<path opacity="0.1" d="M354.544 224.832L353.026 226.26L349.257 221.437C349.654 221.213 350.04 220.97 350.413 220.708L354.544 224.832Z" fill="black"/>
<path d="M371.632 185.318L374.616 189.437V193.753C374.616 193.753 375.967 198.324 374.616 202.896L374.761 206.888C374.761 206.888 373.324 210.556 373.84 211.459C373.84 211.459 373.584 214.164 370.105 216.03C366.626 217.897 362.678 222.319 362.678 222.319C362.678 222.319 361.195 225.152 357.2 224.509L353.397 226.119L349.019 220.517L354.945 217.296C354.945 217.296 357.008 214.531 358.232 214.659L363.258 208.796C363.258 208.796 363.386 206.93 364.674 206.93C364.674 206.93 362.29 205 363.126 203.842C363.962 202.683 363.258 197.528 363.258 197.528L371.632 185.318Z" fill="#67647E"/>
<path opacity="0.1" d="M366.089 204.097C366.089 204.097 372.855 203.969 373.691 205.708C374.527 207.446 368.132 203.13 366.089 204.097Z" fill="black"/>
<path opacity="0.1" d="M352.843 226.119C352.844 226.232 352.834 226.345 352.813 226.456C352.735 226.974 352.481 227.45 352.092 227.802C351.704 228.155 351.205 228.362 350.681 228.39H350.562C349.958 228.39 349.379 228.15 348.952 227.723C348.525 227.297 348.285 226.718 348.285 226.115C348.286 225.864 348.329 225.614 348.413 225.378C347.339 224.526 347.279 222.958 347.309 222.182C347.873 222.089 348.415 221.897 348.912 221.616C349.192 222.421 349.569 223.189 350.033 223.904C350.207 223.863 350.384 223.841 350.562 223.84C350.862 223.84 351.158 223.899 351.435 224.013C351.712 224.128 351.963 224.296 352.175 224.507C352.387 224.719 352.555 224.97 352.669 225.247C352.784 225.523 352.843 225.82 352.843 226.119Z" fill="black"/>
<path d="M349.117 221.104C349.117 221.104 347.59 221.45 347.59 221.727C347.59 222.003 347.245 224.517 348.921 225.561C350.596 226.605 350.426 224.121 350.426 224.121C350.426 224.121 348.985 221.914 349.117 221.104Z" fill="#575988"/>
<path d="M350.818 228.394C352.075 228.394 353.094 227.375 353.094 226.119C353.094 224.863 352.075 223.844 350.818 223.844C349.56 223.844 348.541 224.863 348.541 226.119C348.541 227.375 349.56 228.394 350.818 228.394Z" fill="#E4AAB4"/>
<path d="M350.818 228.07C351.896 228.07 352.77 227.197 352.77 226.119C352.77 225.041 351.896 224.168 350.818 224.168C349.739 224.168 348.865 225.041 348.865 226.119C348.865 227.197 349.739 228.07 350.818 228.07Z" fill="#DCE6F2"/>
<path opacity="0.1" d="M341.95 227.001C341.95 227.001 346.763 230.989 352.945 228.458V230.392C352.945 230.392 348.823 233.225 345.088 231.508C341.353 229.791 341.95 227.001 341.95 227.001Z" fill="black"/>
<path opacity="0.1" d="M341.95 226.485C341.95 226.485 346.763 230.477 352.945 227.942V229.877C352.945 229.877 348.823 232.71 345.088 230.993C341.353 229.276 341.95 226.485 341.95 226.485Z" fill="black"/>
<path d="M341.95 226.485C341.95 226.485 346.763 230.477 352.945 227.942V229.877C352.945 229.877 348.823 232.71 345.088 230.993C341.353 229.276 341.95 226.485 341.95 226.485Z" fill="#444053"/>
<path opacity="0.05" d="M342.078 226.485C342.078 226.485 346.891 230.477 353.078 227.942V229.877C353.078 229.877 348.955 232.71 345.216 230.993C341.477 229.276 342.078 226.485 342.078 226.485Z" fill="black"/>
<path opacity="0.1" d="M326.828 298.192C326.828 298.192 333.274 299.376 334.216 299.632C335.158 299.887 333.96 300.339 333.96 300.339C333.96 300.339 328.077 299.287 326.828 298.192Z" fill="black"/>
<path opacity="0.1" d="M326.678 294.779C326.785 294.779 331.061 293.578 331.982 291.52L326.678 294.779Z" fill="black"/>
<path opacity="0.1" d="M332.916 270.141C332.916 270.141 334.646 272.416 335.763 272.352C336.88 272.289 333.93 270.056 332.916 270.141Z" fill="black"/>
<path opacity="0.1" d="M333.875 273.933C333.875 273.933 334.604 275.539 335.678 275.024L333.875 273.933Z" fill="black"/>
<path opacity="0.05" d="M337.951 238.572L342.521 250.616C342.521 250.616 343.165 242.866 341.805 240.549C341.418 239.886 340.85 239.348 340.167 238.997C339.484 238.647 338.715 238.499 337.951 238.572Z" fill="black"/>
<g opacity="0.1">
<path opacity="0.1" d="M349.181 143.14L349.142 142.965L348.409 142.769L348.49 143.127C348.72 143.144 348.951 143.148 349.181 143.14Z" fill="black"/>
<path opacity="0.1" d="M347.164 146.045L347.241 145.977C347.451 145.781 347.602 145.531 347.677 145.254C347.753 144.977 347.749 144.685 347.667 144.409C347.578 144.196 347.454 143.998 347.3 143.826C346.939 143.755 346.585 143.651 346.243 143.515C346.2 144.158 346.925 144.576 347.151 145.181C347.256 145.459 347.26 145.764 347.164 146.045Z" fill="black"/>
<path opacity="0.1" d="M359.353 165.843C358.558 165.343 357.951 164.594 357.626 163.713C357.264 162.861 357.038 161.941 356.667 161.089C356.262 160.152 355.683 159.301 354.962 158.579C354.839 158.438 354.682 158.329 354.506 158.264C354.34 158.242 354.171 158.254 354.01 158.299C353.849 158.343 353.698 158.42 353.568 158.524C353.134 158.818 352.65 159.03 352.139 159.15C351.884 159.208 351.618 159.199 351.367 159.124C351.117 159.05 350.889 158.912 350.707 158.724C350.306 158.247 350.362 157.544 350.477 156.935C350.728 155.606 351.146 154.289 351.15 152.939C351.155 151.588 350.634 150.123 349.445 149.454C348.405 148.861 347.113 149.028 345.958 148.695C345.365 148.532 344.812 148.25 344.333 147.865C344.303 147.84 344.274 147.813 344.248 147.784C344.151 147.821 344.057 147.865 343.966 147.916C343.779 148.014 343.579 148.193 343.63 148.397C343.668 148.494 343.735 148.577 343.822 148.636C344.298 149.021 344.85 149.304 345.442 149.466C346.597 149.782 347.889 149.633 348.929 150.225C350.106 150.894 350.634 152.355 350.634 153.71C350.634 155.065 350.208 156.377 349.961 157.706C349.846 158.319 349.79 159.018 350.191 159.495C350.373 159.683 350.601 159.821 350.852 159.896C351.102 159.97 351.368 159.979 351.624 159.921C352.134 159.803 352.618 159.593 353.052 159.299C353.182 159.194 353.332 159.116 353.493 159.071C353.655 159.025 353.824 159.013 353.99 159.035C354.166 159.101 354.322 159.209 354.446 159.35C355.166 160.073 355.744 160.924 356.151 161.86C356.526 162.712 356.748 163.628 357.115 164.488C357.434 165.366 358.033 166.115 358.82 166.619C359.634 167.07 360.773 167.045 361.378 166.346C361.546 166.156 361.676 165.937 361.762 165.698C361.418 165.954 361.007 166.105 360.579 166.13C360.151 166.156 359.725 166.056 359.353 165.843Z" fill="black"/>
<path opacity="0.1" d="M363.037 162.567C363.68 161.753 364.529 161.059 365.134 160.207C365.254 160.036 365.364 159.857 365.467 159.678C364.687 160.671 363.616 161.459 363.037 162.567Z" fill="black"/>
</g>
</g>
<defs>
<linearGradient id="paint0_linear" x1="331.504" y1="312.736" x2="331.504" y2="140.882" gradientUnits="userSpaceOnUse">
<stop stop-color="#808080" stop-opacity="0.25"/>
<stop offset="0.54" stop-color="#808080" stop-opacity="0.12"/>
<stop offset="1" stop-color="#808080" stop-opacity="0.1"/>
</linearGradient>
<clipPath id="clip0">
<rect width="438" height="334" fill="white"/>
</clipPath>
</defs>
</svg>
