<svg xmlns="http://www.w3.org/2000/svg" width="20" height="18" viewBox="0 0 20 18">
    <path fill="#239DFF" fill-rule="nonzero" stroke="#239DFF" stroke-width=".6" d="M10 16.983c-.256 0-.503-.093-.696-.261a208.49 208.49 0 0 0-2.047-1.757l-.003-.003c-1.813-1.542-3.38-2.874-4.469-4.186C1.567 9.309 1 7.918 1 6.399c0-1.476.507-2.838 1.428-3.835A4.845 4.845 0 0 1 6.028 1c1.04 0 1.991.328 2.829.974A5.78 5.78 0 0 1 10 3.166a5.78 5.78 0 0 1 1.144-1.192A4.533 4.533 0 0 1 13.972 1c1.39 0 2.668.556 3.6 1.564C18.493 3.561 19 4.923 19 6.4c0 1.52-.567 2.91-1.785 4.377-1.09 1.312-2.656 2.644-4.469 4.186-.62.527-1.321 1.124-2.05 1.76-.193.168-.44.261-.696.261zM6.028 2.053a3.8 3.8 0 0 0-2.825 1.224c-.74.802-1.149 1.91-1.149 3.122 0 1.278.476 2.42 1.543 3.705 1.031 1.242 2.565 2.547 4.341 4.057l.003.003c.621.528 1.325 1.127 2.057 1.766.737-.64 1.442-1.24 2.064-1.769 1.776-1.51 3.31-2.815 4.341-4.057C17.47 8.82 17.946 7.677 17.946 6.4c0-1.211-.408-2.32-1.149-3.122a3.8 3.8 0 0 0-2.825-1.225c-.8 0-1.535.254-2.184.755-.578.446-.98 1.01-1.216 1.405a.66.66 0 0 1-.572.324.66.66 0 0 1-.572-.324c-.236-.395-.638-.959-1.216-1.405a3.501 3.501 0 0 0-2.184-.755z"/>
</svg>
