<svg width="150" height="160" viewBox="0 0 150 160" fill="none" xmlns="http://www.w3.org/2000/svg">
<g filter="url(#filter0_d)">
<path d="M75 40L109.641 60V100L75 120L40.359 100V60L75 40Z" fill="url(#paint0_radial)"/>
<path d="M41.359 60.5774L75 41.1547L108.641 60.5774V99.4226L75 118.845L41.359 99.4226V60.5774Z" stroke="#FE9C55" stroke-width="2"/>
</g>
<path d="M63.3256 67.784C63.7363 67.784 63.9416 67.9893 63.9416 68.4V70.948C63.9416 71.3587 63.7363 71.564 63.3256 71.564C62.915 71.564 62.7096 71.3587 62.7096 70.948V69.016H54.0576V79.46H58.0896V77.472C58.0896 77.0613 58.295 76.856 58.7056 76.856C59.1163 76.856 59.3216 77.0613 59.3216 77.472V82.624C59.3216 83.0347 59.1163 83.24 58.7056 83.24C58.295 83.24 58.0896 83.0347 58.0896 82.624V80.692H54.0576V86.768H56.1296C56.5403 86.768 56.7456 86.9733 56.7456 87.384C56.7456 87.7947 56.5403 88 56.1296 88H46.7496C46.339 88 46.1336 87.7947 46.1336 87.384C46.1336 86.9733 46.339 86.768 46.7496 86.768H48.6816V69.016H46.6376C46.227 69.016 46.0216 68.8107 46.0216 68.4C46.0216 67.9893 46.227 67.784 46.6376 67.784H63.3256ZM49.9136 69.016V79.46H52.8256V69.016H49.9136ZM49.9136 80.692V86.768H52.8256V80.692H49.9136ZM67.6713 67.812C68.2127 67.812 68.6793 68.008 69.0713 68.4C69.4633 68.792 69.6593 69.2587 69.6593 69.8C69.6593 70.3973 69.4633 70.9013 69.0713 71.312C68.698 71.704 68.2313 71.9 67.6713 71.9C67.1113 71.9 66.6353 71.704 66.2433 71.312C65.8513 70.9013 65.6553 70.3973 65.6553 69.8C65.6553 69.2587 65.8513 68.792 66.2433 68.4C66.654 68.008 67.13 67.812 67.6713 67.812ZM68.4553 69.8C68.4553 69.5573 68.39 69.3707 68.2593 69.24C68.11 69.072 67.914 68.988 67.6713 68.988C67.41 68.988 67.214 69.072 67.0833 69.24C66.934 69.4453 66.8593 69.632 66.8593 69.8C66.8593 70.3973 67.13 70.696 67.6713 70.696C68.194 70.696 68.4553 70.3973 68.4553 69.8ZM70.3873 86.796C70.7793 86.796 70.9753 87.0013 70.9753 87.412C70.9753 87.5613 70.9193 87.692 70.8073 87.804C70.6767 87.9347 70.5367 88 70.3873 88H65.0113C64.862 88 64.722 87.9347 64.5913 87.804C64.4607 87.692 64.3953 87.5613 64.3953 87.412C64.3953 87.0013 64.6007 86.796 65.0113 86.796H65.7953V76.94H65.0113C64.6007 76.94 64.3953 76.7347 64.3953 76.324C64.3953 76.1747 64.4607 76.044 64.5913 75.932C64.722 75.8013 64.862 75.736 65.0113 75.736H68.9873C69.1367 75.736 69.2767 75.8013 69.4073 75.932C69.5193 76.044 69.5753 76.1747 69.5753 76.324V86.796H70.3873ZM68.3993 76.94H66.9993V86.796H68.3993V76.94ZM75.8198 67.812C76.3611 67.812 76.8278 68.008 77.2198 68.4C77.6118 68.792 77.8078 69.2587 77.8078 69.8C77.8078 70.3973 77.6118 70.9013 77.2198 71.312C76.8464 71.704 76.3798 71.9 75.8198 71.9C75.2598 71.9 74.7838 71.704 74.3918 71.312C73.9998 70.9013 73.8038 70.3973 73.8038 69.8C73.8038 69.2587 73.9998 68.792 74.3918 68.4C74.8024 68.008 75.2784 67.812 75.8198 67.812ZM76.6038 69.8C76.6038 69.5573 76.5384 69.3707 76.4078 69.24C76.2584 69.072 76.0624 68.988 75.8198 68.988C75.5584 68.988 75.3624 69.072 75.2318 69.24C75.0824 69.4453 75.0078 69.632 75.0078 69.8C75.0078 70.3973 75.2784 70.696 75.8198 70.696C76.3424 70.696 76.6038 70.3973 76.6038 69.8ZM78.5358 86.796C78.9278 86.796 79.1238 87.0013 79.1238 87.412C79.1238 87.5613 79.0678 87.692 78.9558 87.804C78.8251 87.9347 78.6851 88 78.5358 88H73.1598C73.0104 88 72.8704 87.9347 72.7398 87.804C72.6091 87.692 72.5438 87.5613 72.5438 87.412C72.5438 87.0013 72.7491 86.796 73.1598 86.796H73.9438V76.94H73.1598C72.7491 76.94 72.5438 76.7347 72.5438 76.324C72.5438 76.1747 72.6091 76.044 72.7398 75.932C72.8704 75.8013 73.0104 75.736 73.1598 75.736H77.1358C77.2851 75.736 77.4251 75.8013 77.5558 75.932C77.6678 76.044 77.7238 76.1747 77.7238 76.324V86.796H78.5358ZM76.5478 76.94H75.1478V86.796H76.5478V76.94ZM103.428 86.74C103.839 86.74 104.044 86.9453 104.044 87.356C104.044 87.7853 103.839 88 103.428 88H92.4802C92.0509 88 91.8362 87.7853 91.8362 87.356C91.8362 86.9453 92.0509 86.74 92.4802 86.74H94.7482L90.4922 80.16L84.7802 86.74H86.9082C87.3189 86.74 87.5242 86.9453 87.5242 87.356C87.5242 87.7853 87.3189 88 86.9082 88H81.3362C80.9069 88 80.6922 87.7853 80.6922 87.356C80.6922 86.9453 80.9069 86.74 81.3362 86.74H83.1282L89.7922 79.096L83.2682 69.044H81.3362C80.9069 69.044 80.6922 68.8293 80.6922 68.4C80.6922 67.9893 80.9069 67.784 81.3362 67.784H92.2562C92.6669 67.784 92.8722 67.9893 92.8722 68.4C92.8722 68.8293 92.6669 69.044 92.2562 69.044H89.8762L93.5722 74.728L98.5282 69.044H96.4562C96.0269 69.044 95.8122 68.8293 95.8122 68.4C95.8122 67.9893 96.0269 67.784 96.4562 67.784H102.056C102.467 67.784 102.672 67.9893 102.672 68.4C102.672 68.8293 102.467 69.044 102.056 69.044H100.152L94.2722 75.82L101.384 86.74H103.428ZM92.7042 75.708L88.3922 69.044H84.7522L90.6322 78.088L92.7042 75.708ZM93.4322 76.8L91.3602 79.18L96.2602 86.74H99.8722L93.4322 76.8Z" fill="#FE9C55"/>
<defs>
<filter id="filter0_d" x="0.359375" y="0" width="149.282" height="160" filterUnits="userSpaceOnUse" color-interpolation-filters="sRGB">
<feFlood flood-opacity="0" result="BackgroundImageFix"/>
<feColorMatrix in="SourceAlpha" type="matrix" values="0 0 0 0 0 0 0 0 0 0 0 0 0 0 0 0 0 0 127 0"/>
<feOffset/>
<feGaussianBlur stdDeviation="20"/>
<feColorMatrix type="matrix" values="0 0 0 0 0 0 0 0 0 0 0 0 0 0 0 0 0 0 0.7 0"/>
<feBlend mode="normal" in2="BackgroundImageFix" result="effect1_dropShadow"/>
<feBlend mode="normal" in="SourceGraphic" in2="effect1_dropShadow" result="shape"/>
</filter>
<radialGradient id="paint0_radial" cx="0" cy="0" r="1" gradientUnits="userSpaceOnUse" gradientTransform="translate(75 66.3333) rotate(90) scale(31.6667)">
<stop stop-color="#7C7A82"/>
<stop offset="1" stop-color="#504C58"/>
</radialGradient>
</defs>
</svg>
