<svg width="60" height="60" viewBox="0 0 60 60" fill="none" xmlns="http://www.w3.org/2000/svg">
<g clip-path="url(#clip0)">
<path d="M54.95 25.1489C53.6114 25.1489 52.5264 26.2341 52.5264 27.5726V30.0137C52.5227 36.3815 50.0395 42.3667 45.5343 46.8667C41.0323 51.3634 35.0499 53.8394 28.6873 53.8394C28.6826 53.8394 28.6779 53.8394 28.6732 53.8394C15.5281 53.8319 4.83985 43.1316 4.84735 29.9863C4.85098 23.6187 7.33418 17.6335 11.8396 13.1332C16.3416 8.63651 22.3241 6.16058 28.6866 6.16058C28.6913 6.16058 28.6959 6.16058 28.7006 6.16058C32.0606 6.16245 35.3206 6.8569 38.3897 8.22437C39.6127 8.76929 41.045 8.21956 41.59 6.99694C42.1347 5.77433 41.5853 4.34159 40.3625 3.79667C36.6693 2.15101 32.7466 1.31546 28.7033 1.31323C28.6972 1.31323 28.6925 1.31323 28.6865 1.31323C21.0307 1.31323 13.8309 4.29308 8.41383 9.70386C2.9925 15.1189 0.00445785 22.3211 4.72559e-06 29.9837C-0.00433121 37.6462 2.97528 44.8518 8.39051 50.2731C13.8057 55.6945 21.0079 58.6825 28.6704 58.687C28.6764 58.687 28.6812 58.687 28.6873 58.687C36.343 58.687 43.5428 55.7072 48.9599 50.2963C54.3812 44.8812 57.3693 37.679 57.3737 30.0151V27.5727C57.3737 26.2341 56.2887 25.1489 54.95 25.1489Z" fill="#FA8A37"/>
<path d="M59.2901 4.66439C58.3435 3.71799 56.809 3.71799 55.8625 4.66439L28.6868 31.8399L22.5217 25.6748C21.5753 24.7283 20.0406 24.7283 19.0942 25.6748C18.1476 26.6213 18.1476 28.1559 19.0942 29.1024L26.9732 36.9814C27.4464 37.4548 28.0667 37.6913 28.687 37.6913C29.3073 37.6913 29.9276 37.4548 30.4009 36.9814L59.2901 8.09201C60.2366 7.14549 60.2366 5.61092 59.2901 4.66439Z" fill="#FA8A37"/>
</g>
<defs>
<clipPath id="clip0">
<rect width="60" height="60" fill="white"/>
</clipPath>
</defs>
</svg>
