<svg width="100" height="100" viewBox="0 0 100 100" fill="none" xmlns="http://www.w3.org/2000/svg">
<g clip-path="url(#clip0)">
<path d="M23.3467 16.5707H30.0511V77.9946H23.3467V16.5707Z" fill="white"/>
<path d="M35.6599 3.12871H28.9555C25.8591 3.1322 23.3502 5.64111 23.3467 8.73841V13.442H30.0511V8.73754C30.0546 5.64111 32.5635 3.1322 35.6599 3.12871Z" fill="white"/>
<path d="M35.6599 92.4012C32.5635 92.3977 30.0546 89.8888 30.0511 86.7924V81.1233H23.3467V91.262C23.3502 94.3584 25.8591 96.8682 28.9555 96.8717H70.9253C73.5826 96.8682 75.875 95.0026 76.418 92.4021L35.6599 92.4012Z" fill="white"/>
<path d="M48.1263 54.152C47.668 54.1529 47.2324 53.9521 46.9356 53.6038L44.2041 50.4053C43.6428 49.7479 43.7205 48.7606 44.3778 48.1993C45.0352 47.638 46.0225 47.7156 46.5829 48.373L48.3228 50.4096L53.4995 46.1984C53.9325 45.8431 54.5226 45.7471 55.0464 45.9461C55.571 46.1443 55.9482 46.6087 56.0363 47.1622C56.1245 47.7156 55.9097 48.2735 55.4741 48.6262L49.1137 53.8011C48.8343 54.0281 48.486 54.152 48.1263 54.152Z" fill="#E1680F"/>
<path d="M49.9407 63.856C42.2883 63.856 36.085 57.6527 36.085 50.0002C36.085 42.3478 42.2883 36.1444 49.9407 36.1444C57.5932 36.1444 63.7965 42.3478 63.7965 50.0002C63.7878 57.6483 57.5897 63.8473 49.9407 63.856ZM49.9407 39.2732C44.0159 39.2732 39.2137 44.0754 39.2137 50.0002C39.2137 55.9242 44.0159 60.7273 49.9407 60.7273C55.8647 60.7273 60.6678 55.9242 60.6678 50.0002C60.6608 44.078 55.8621 39.2793 49.9407 39.2732Z" fill="#E1680F"/>
<path d="M70.9251 0H28.9553C24.1322 0.00523782 20.223 3.91439 20.2178 8.73842V91.262C20.223 96.086 24.1322 99.9943 28.9553 100H70.9251C75.7491 99.9943 79.6583 96.086 79.6635 91.262V8.73755C79.6574 3.91439 75.7491 0.00523782 70.9251 0V0ZM23.3465 16.5707H76.5348V77.9946H23.3465V16.5707ZM28.9553 3.12872H70.9251C74.0215 3.13221 76.5313 5.64113 76.5348 8.73842V13.442H23.3465V8.73755C23.35 5.64113 25.8589 3.13221 28.9553 3.12872ZM70.9251 96.8708H28.9553C25.8589 96.8673 23.35 94.3584 23.3465 91.262V81.1233H76.5348V91.262C76.5313 94.3584 74.0215 96.8673 70.9251 96.8708V96.8708Z" fill="#504C58"/>
<path d="M56.2692 87.4995H43.6103C42.746 87.4995 42.0459 88.2005 42.0459 89.0638C42.0459 89.9281 42.746 90.6282 43.6103 90.6282H56.2692C57.1334 90.6282 57.8336 89.9281 57.8336 89.0638C57.8336 88.2005 57.1334 87.4995 56.2692 87.4995Z" fill="#504C58"/>
<path d="M70.8357 48.4358H68.4892C67.6249 48.4358 66.9248 49.136 66.9248 50.0002C66.9248 50.8636 67.6249 51.5646 68.4892 51.5646H70.8357C71.6991 51.5646 72.4001 50.8636 72.4001 50.0002C72.4001 49.136 71.6991 48.4358 70.8357 48.4358Z" fill="#E1680F"/>
<path d="M31.3914 51.5646C32.2547 51.5646 32.9557 50.8636 32.9557 50.0002C32.9557 49.136 32.2547 48.4358 31.3914 48.4358H29.0448C28.1806 48.4358 27.4805 49.136 27.4805 50.0002C27.4805 50.8636 28.1806 51.5646 29.0448 51.5646H31.3914Z" fill="#E1680F"/>
<path d="M70.2061 55.3288L66.9307 54.2C66.1136 53.9181 65.224 54.3519 64.9421 55.169C64.661 55.9861 65.0948 56.8766 65.911 57.1577L69.1864 58.2864C69.7154 58.4724 70.3038 58.3598 70.7281 57.9931C71.1524 57.6256 71.347 57.0599 71.2388 56.5091C71.1314 55.9591 70.7368 55.5086 70.2061 55.3288Z" fill="#E1680F"/>
<path d="M33.9691 42.8418L30.6946 41.7131C30.1647 41.528 29.5772 41.6397 29.1529 42.0064C28.7287 42.3739 28.534 42.9396 28.6414 43.4904C28.7496 44.0404 29.1433 44.4917 29.675 44.6716L32.9495 45.7994C33.7666 46.0814 34.657 45.6475 34.939 44.8304C35.2201 44.0133 34.7862 43.1229 33.9691 42.8418Z" fill="#E1680F"/>
<path d="M66.5851 46.3896C66.7431 46.3896 66.8994 46.366 67.0504 46.3189L70.3572 45.2905C70.8941 45.1273 71.3018 44.689 71.4266 44.1426C71.5515 43.5952 71.3734 43.0234 70.9613 42.6437C70.5484 42.2639 69.9635 42.1339 69.4293 42.3032L66.1216 43.3316C65.3822 43.5603 64.9213 44.2953 65.0374 45.0601C65.1535 45.8256 65.8117 46.3905 66.5851 46.3896Z" fill="#E1680F"/>
<path d="M32.83 53.6806L29.5223 54.709C28.9854 54.8722 28.5778 55.3105 28.4529 55.8578C28.329 56.4043 28.5062 56.9761 28.9191 57.3558C29.332 57.7364 29.916 57.8656 30.4511 57.6963L33.7588 56.6688C34.5838 56.4121 35.0447 55.5357 34.7881 54.7098C34.5314 53.8849 33.6549 53.424 32.83 53.6806Z" fill="#E1680F"/>
</g>
<defs>
<clipPath id="clip0">
<rect width="100" height="100" fill="white"/>
</clipPath>
</defs>
</svg>
