<svg width="25" height="25" viewBox="0 0 25 25" fill="none" xmlns="http://www.w3.org/2000/svg">
<path d="M24.9463 18.8424C24.8756 18.6332 24.4257 18.325 23.597 17.9185C23.3725 17.7904 23.0526 17.6163 22.6387 17.3954C22.2243 17.1746 21.8483 16.971 21.5112 16.785C21.1733 16.5991 20.8569 16.419 20.5612 16.2449C20.5139 16.21 20.3659 16.1084 20.1174 15.9395C19.8686 15.7711 19.6587 15.6461 19.4868 15.5646C19.3152 15.4836 19.1464 15.4428 18.9807 15.4428C18.744 15.4428 18.4483 15.6085 18.0934 15.9395C17.7384 16.271 17.4128 16.631 17.117 17.0208C16.8211 17.4103 16.5074 17.7703 16.1763 18.1016C15.8447 18.433 15.5723 18.5985 15.3595 18.5985C15.2526 18.5985 15.1194 18.5693 14.9598 18.5116C14.8002 18.4535 14.6788 18.4037 14.5955 18.3636C14.5129 18.3226 14.3711 18.2416 14.1698 18.1191C13.968 17.9971 13.8558 17.9302 13.8322 17.9185C12.2106 17.035 10.8199 16.0237 9.65973 14.8851C8.49996 13.7457 7.46998 12.3803 6.57041 10.7878C6.5586 10.7646 6.49037 10.6541 6.36618 10.4566C6.2418 10.2589 6.15891 10.1197 6.11749 10.0381C6.07607 9.9568 6.02576 9.8376 5.96668 9.68072C5.9076 9.52385 5.87793 9.39317 5.87793 9.28844C5.87793 9.07936 6.04665 8.81189 6.38403 8.48642C6.72135 8.16113 7.08839 7.853 7.48478 7.56263C7.88149 7.27227 8.24816 6.95254 8.5856 6.60398C8.92291 6.25524 9.09157 5.96482 9.09157 5.73241C9.09157 5.56979 9.05015 5.404 8.96738 5.23552C8.88454 5.06668 8.7573 4.86065 8.5856 4.61645C8.41383 4.37237 8.31028 4.22722 8.27471 4.18051C8.09735 3.89015 7.91408 3.57927 7.72446 3.24799C7.53485 2.91678 7.32788 2.54758 7.10288 2.14083C6.87806 1.73426 6.70064 1.42033 6.57029 1.19952C6.15623 0.386075 5.84261 -0.0557883 5.62949 -0.12528C5.54659 -0.160148 5.42221 -0.177734 5.25666 -0.177734C4.93688 -0.177734 4.51972 -0.119723 4.00485 -0.00333381C3.4898 0.112872 3.08451 0.234757 2.78855 0.36281C2.1967 0.606763 1.56939 1.31572 0.906454 2.48945C0.302782 3.58177 0.000976562 4.66292 0.000976562 5.7321C0.000976562 6.04567 0.0216856 6.35075 0.0631037 6.6474C0.104522 6.94374 0.178527 7.27795 0.285182 7.64996C0.39165 8.02184 0.477534 8.2981 0.542459 8.47799C0.607447 8.65801 0.728779 8.98049 0.906392 9.44556C1.08376 9.91051 1.19041 10.1951 1.22592 10.2997C1.64016 11.4388 2.1314 12.4557 2.6995 13.3508C3.6342 14.8384 4.90977 16.3758 6.52545 17.9624C8.14119 19.5489 9.70662 20.8013 11.2218 21.7195C12.1332 22.2773 13.1692 22.7595 14.3291 23.1666C14.4357 23.2013 14.7256 23.3058 15.1989 23.4805C15.6724 23.6548 16.0009 23.774 16.1843 23.8379C16.3677 23.9019 16.6491 23.9863 17.0275 24.091C17.4067 24.1957 17.7468 24.2684 18.0486 24.3094C18.3506 24.3495 18.6613 24.3702 18.9807 24.3702C20.0695 24.3702 21.1707 24.0737 22.2833 23.481C23.4785 22.8303 24.2004 22.2142 24.4489 21.6326C24.5796 21.3423 24.7035 20.9442 24.8218 20.4385C24.9405 19.933 24.9995 19.5234 24.9995 19.2095C24.9999 19.0463 24.982 18.9244 24.9463 18.8424Z" fill="#FA8A37"/>
</svg>
