<svg width="132" height="132" viewBox="0 0 132 100" fill="none" xmlns="http://www.w3.org/2000/svg">
<g filter="url(#filter0_d)">
<path d="M66 0L91.9808 15V45L66 60L40.0192 45V15L66 0Z" fill="url(#paint0_radial)"/>
<path d="M41.0192 15.5773L66 1.1547L90.9808 15.5773V44.4226L66 58.8453L41.0192 44.4226V15.5773Z" stroke="#FA8A37" stroke-width="2"/>
</g>
<path d="M58.1612 23.56C58.4545 23.56 58.6012 23.7067 58.6012 24V25.82C58.6012 26.1133 58.4545 26.26 58.1612 26.26C57.8678 26.26 57.7212 26.1133 57.7212 25.82V24.44H51.5412V31.9H54.4212V30.48C54.4212 30.1867 54.5678 30.04 54.8612 30.04C55.1545 30.04 55.3012 30.1867 55.3012 30.48V34.16C55.3012 34.4533 55.1545 34.6 54.8612 34.6C54.5678 34.6 54.4212 34.4533 54.4212 34.16V32.78H51.5412V37.12H53.0212C53.3145 37.12 53.4612 37.2667 53.4612 37.56C53.4612 37.8533 53.3145 38 53.0212 38H46.3212C46.0278 38 45.8812 37.8533 45.8812 37.56C45.8812 37.2667 46.0278 37.12 46.3212 37.12H47.7012V24.44H46.2412C45.9478 24.44 45.8012 24.2933 45.8012 24C45.8012 23.7067 45.9478 23.56 46.2412 23.56H58.1612ZM48.5812 24.44V31.9H50.6612V24.44H48.5812ZM48.5812 32.78V37.12H50.6612V32.78H48.5812ZM61.2652 23.58C61.6519 23.58 61.9852 23.72 62.2652 24C62.5452 24.28 62.6852 24.6133 62.6852 25C62.6852 25.4267 62.5452 25.7867 62.2652 26.08C61.9986 26.36 61.6652 26.5 61.2652 26.5C60.8652 26.5 60.5252 26.36 60.2452 26.08C59.9652 25.7867 59.8252 25.4267 59.8252 25C59.8252 24.6133 59.9652 24.28 60.2452 24C60.5386 23.72 60.8786 23.58 61.2652 23.58ZM61.8252 25C61.8252 24.8267 61.7786 24.6933 61.6852 24.6C61.5786 24.48 61.4386 24.42 61.2652 24.42C61.0786 24.42 60.9386 24.48 60.8452 24.6C60.7386 24.7467 60.6852 24.88 60.6852 25C60.6852 25.4267 60.8786 25.64 61.2652 25.64C61.6386 25.64 61.8252 25.4267 61.8252 25ZM63.2052 37.14C63.4852 37.14 63.6252 37.2867 63.6252 37.58C63.6252 37.6867 63.5852 37.78 63.5052 37.86C63.4119 37.9533 63.3119 38 63.2052 38H59.3652C59.2586 38 59.1586 37.9533 59.0652 37.86C58.9719 37.78 58.9252 37.6867 58.9252 37.58C58.9252 37.2867 59.0719 37.14 59.3652 37.14H59.9252V30.1H59.3652C59.0719 30.1 58.9252 29.9533 58.9252 29.66C58.9252 29.5533 58.9719 29.46 59.0652 29.38C59.1586 29.2867 59.2586 29.24 59.3652 29.24H62.2052C62.3119 29.24 62.4119 29.2867 62.5052 29.38C62.5852 29.46 62.6252 29.5533 62.6252 29.66V37.14H63.2052ZM61.7852 30.1H60.7852V37.14H61.7852V30.1ZM67.0855 23.58C67.4722 23.58 67.8055 23.72 68.0855 24C68.3655 24.28 68.5055 24.6133 68.5055 25C68.5055 25.4267 68.3655 25.7867 68.0855 26.08C67.8189 26.36 67.4855 26.5 67.0855 26.5C66.6855 26.5 66.3455 26.36 66.0655 26.08C65.7855 25.7867 65.6455 25.4267 65.6455 25C65.6455 24.6133 65.7855 24.28 66.0655 24C66.3589 23.72 66.6989 23.58 67.0855 23.58ZM67.6455 25C67.6455 24.8267 67.5989 24.6933 67.5055 24.6C67.3989 24.48 67.2589 24.42 67.0855 24.42C66.8989 24.42 66.7589 24.48 66.6655 24.6C66.5589 24.7467 66.5055 24.88 66.5055 25C66.5055 25.4267 66.6989 25.64 67.0855 25.64C67.4589 25.64 67.6455 25.4267 67.6455 25ZM69.0255 37.14C69.3055 37.14 69.4455 37.2867 69.4455 37.58C69.4455 37.6867 69.4055 37.78 69.3255 37.86C69.2322 37.9533 69.1322 38 69.0255 38H65.1855C65.0789 38 64.9789 37.9533 64.8855 37.86C64.7922 37.78 64.7455 37.6867 64.7455 37.58C64.7455 37.2867 64.8922 37.14 65.1855 37.14H65.7455V30.1H65.1855C64.8922 30.1 64.7455 29.9533 64.7455 29.66C64.7455 29.5533 64.7922 29.46 64.8855 29.38C64.9789 29.2867 65.0789 29.24 65.1855 29.24H68.0255C68.1322 29.24 68.2322 29.2867 68.3255 29.38C68.4055 29.46 68.4455 29.5533 68.4455 29.66V37.14H69.0255ZM67.6055 30.1H66.6055V37.14H67.6055V30.1ZM86.8059 37.1C87.0992 37.1 87.2459 37.2467 87.2459 37.54C87.2459 37.8467 87.0992 38 86.8059 38H78.9859C78.6792 38 78.5259 37.8467 78.5259 37.54C78.5259 37.2467 78.6792 37.1 78.9859 37.1H80.6059L77.5659 32.4L73.4859 37.1H75.0059C75.2992 37.1 75.4459 37.2467 75.4459 37.54C75.4459 37.8467 75.2992 38 75.0059 38H71.0259C70.7192 38 70.5659 37.8467 70.5659 37.54C70.5659 37.2467 70.7192 37.1 71.0259 37.1H72.3059L77.0659 31.64L72.4059 24.46H71.0259C70.7192 24.46 70.5659 24.3067 70.5659 24C70.5659 23.7067 70.7192 23.56 71.0259 23.56H78.8259C79.1192 23.56 79.2659 23.7067 79.2659 24C79.2659 24.3067 79.1192 24.46 78.8259 24.46H77.1259L79.7659 28.52L83.3059 24.46H81.8259C81.5192 24.46 81.3659 24.3067 81.3659 24C81.3659 23.7067 81.5192 23.56 81.8259 23.56H85.8259C86.1192 23.56 86.2659 23.7067 86.2659 24C86.2659 24.3067 86.1192 24.46 85.8259 24.46H84.4659L80.2659 29.3L85.3459 37.1H86.8059ZM79.1459 29.22L76.0659 24.46H73.4659L77.6659 30.92L79.1459 29.22ZM79.6659 30L78.1859 31.7L81.6859 37.1H84.2659L79.6659 30Z" fill="#FA8A37"/>
<defs>
<filter id="filter0_d" x="0.019043" y="-40" width="131.962" height="140" filterUnits="userSpaceOnUse" color-interpolation-filters="sRGB">
<feFlood flood-opacity="0" result="BackgroundImageFix"/>
<feColorMatrix in="SourceAlpha" type="matrix" values="0 0 0 0 0 0 0 0 0 0 0 0 0 0 0 0 0 0 127 0"/>
<feOffset/>
<feGaussianBlur stdDeviation="20"/>
<feColorMatrix type="matrix" values="0 0 0 0 0 0 0 0 0 0 0 0 0 0 0 0 0 0 0.7 0"/>
<feBlend mode="normal" in2="BackgroundImageFix" result="effect1_dropShadow"/>
<feBlend mode="normal" in="SourceGraphic" in2="effect1_dropShadow" result="shape"/>
</filter>
<radialGradient id="paint0_radial" cx="0" cy="0" r="1" gradientUnits="userSpaceOnUse" gradientTransform="translate(66 19.75) rotate(90) scale(23.75)">
<stop stop-color="#7C7A82"/>
<stop offset="1" stop-color="#504C58"/>
</radialGradient>
</defs>
</svg>
