<svg width="243" height="164" viewBox="0 0 243 164" fill="none" xmlns="http://www.w3.org/2000/svg">
<g clip-path="url(#clip0)">
<path opacity="0.1" d="M163.707 164C180.341 164 193.825 163.047 193.825 161.872C193.825 160.696 180.341 159.743 163.707 159.743C147.074 159.743 133.589 160.696 133.589 161.872C133.589 163.047 147.074 164 163.707 164Z" fill="#E1680F"/>
<path opacity="0.1" d="M243 96.6446C242.995 104.897 241.206 113.051 237.756 120.543C234.306 128.034 229.277 134.686 223.016 140.038C216.755 145.39 209.412 149.315 201.493 151.543C193.574 153.771 185.267 154.248 177.146 152.942H87.066C83.5868 153.421 80.079 153.661 76.5672 153.661C74.0461 153.661 71.5554 153.54 69.095 153.299C50.1647 151.455 32.5983 142.599 19.8231 128.461C7.04798 114.322 -0.0193618 95.9151 3.98408e-05 76.8304C3.98408e-05 34.397 34.2813 0 76.5672 0C110.624 0 139.482 22.3128 149.427 53.1641C159.686 44.4064 172.721 39.607 186.19 39.6283C217.561 39.6283 243 65.1548 243 96.6446Z" fill="#E1680F"/>
<path opacity="0.1" d="M221.173 141.566C215.007 146.396 207.916 149.9 200.34 151.857C192.765 153.814 184.869 154.183 177.146 152.941H87.0658C83.5865 153.42 80.0788 153.661 76.5669 153.661C74.0458 153.661 71.5551 153.54 69.0947 153.299C54.1765 151.831 40.0153 146.003 28.3658 136.537C16.7162 127.072 8.09029 114.384 3.55664 100.048C10.891 84.3218 29.7337 73.1313 51.8258 73.1313C73.3537 73.1313 91.8061 83.7599 99.5074 98.8557C103.3 98.1637 107.146 97.8168 111.001 97.8193C133.314 97.8193 152.311 109.242 159.484 125.204C165.426 123.396 171.603 122.485 177.812 122.499C196.01 122.507 212.004 130.099 221.173 141.566Z" fill="#E1680F"/>
<path d="M74.5946 143.281C74.5946 148.734 72.5097 151.694 69.095 153.299C56.2322 152.053 43.897 147.543 33.2505 140.193C33.5235 138.339 34.0465 136.532 34.8052 134.819L44.5171 137.85L35.8678 132.742C37.0375 130.738 38.5321 128.944 40.29 127.434L56.6067 132.525L43.8235 124.991C46.4558 123.543 49.3692 122.685 52.3635 122.475C55.3577 122.265 58.3618 122.709 61.1691 123.775C63.9764 124.841 66.5203 126.504 68.6259 128.65C70.7315 130.797 72.3488 133.376 73.3666 136.209L73.4111 136.337C73.4451 136.432 73.479 136.528 73.5108 136.626C73.6254 136.965 73.7307 137.308 73.8269 137.654C73.8629 137.778 73.8968 137.901 73.9265 138.027C73.9562 138.152 73.988 138.265 74.0156 138.384C74.0432 138.503 74.0665 138.597 74.0877 138.695C74.1026 138.759 74.1174 138.823 74.1302 138.886C74.1535 138.989 74.1747 139.099 74.1938 139.195C74.2235 139.344 74.2532 139.495 74.2786 139.644C74.3041 139.793 74.3316 139.955 74.355 140.11C74.3783 140.266 74.4059 140.455 74.4271 140.629C74.4483 140.804 74.4653 140.94 74.4801 141.096C74.4801 141.144 74.4907 141.191 74.495 141.24C74.5098 141.376 74.5204 141.513 74.531 141.649C74.5321 141.667 74.5321 141.684 74.531 141.702C74.5437 141.872 74.5543 142.043 74.5628 142.213C74.5713 142.383 74.5777 142.549 74.5819 142.711C74.583 142.727 74.583 142.744 74.5819 142.76C74.5925 142.93 74.5946 143.105 74.5946 143.281Z" fill="#E1680F"/>
<path opacity="0.1" d="M74.5947 143.281C74.5947 148.734 72.5098 151.694 69.095 153.299C60.7769 152.495 52.6477 150.321 45.0347 146.863L45.3825 146.631C46.9541 145.586 48.5788 144.518 50.4283 144.162C52.0551 143.85 53.7328 144.113 55.385 144.02C58.2613 143.843 60.9689 142.598 62.9802 140.527C64.1616 139.301 65.1012 137.797 66.5116 136.86C68.043 135.852 69.9858 135.634 71.8013 135.886C72.3288 135.963 72.8514 136.07 73.3666 136.207L73.4112 136.335C73.4451 136.43 73.479 136.526 73.5109 136.624C73.6254 136.963 73.7307 137.306 73.8269 137.652C73.8629 137.775 73.8969 137.899 73.9266 138.024C73.9563 138.15 73.9881 138.263 74.0156 138.382C74.0432 138.501 74.0665 138.595 74.0878 138.693C74.1026 138.757 74.1175 138.82 74.1302 138.884C74.1535 138.986 74.1747 139.097 74.1938 139.193C74.2235 139.342 74.2532 139.493 74.2786 139.642C74.3041 139.791 74.3317 139.953 74.355 140.108C74.3783 140.263 74.4059 140.453 74.4271 140.627C74.4483 140.802 74.4653 140.938 74.4801 141.093C74.4801 141.142 74.4907 141.189 74.495 141.238C74.5098 141.374 74.5204 141.511 74.531 141.647C74.5321 141.665 74.5321 141.682 74.531 141.7C74.5438 141.87 74.5544 142.041 74.5629 142.211C74.5713 142.381 74.5777 142.547 74.5819 142.709C74.5831 142.725 74.5831 142.741 74.5819 142.758C74.5926 142.93 74.5947 143.105 74.5947 143.281Z" fill="black"/>
<path d="M198.417 146.821C198.419 147.376 198.362 147.929 198.247 148.472C198.226 148.574 198.203 148.674 198.179 148.772C197.577 151.196 195.878 152.969 193.851 153.082C193.783 153.082 193.715 153.082 193.638 153.082C191.494 153.082 189.681 151.226 189.083 148.67C189.066 148.602 189.051 148.534 189.036 148.457C188.922 147.914 188.865 147.361 188.866 146.806C188.866 143.343 191.002 140.538 193.638 140.538C196.275 140.538 198.417 143.358 198.417 146.821Z" fill="#3F3D56"/>
<path opacity="0.1" d="M198.417 146.821C198.419 147.376 198.362 147.929 198.248 148.472C198.226 148.574 198.203 148.674 198.18 148.772C198.108 148.772 198.038 148.772 197.968 148.772C197.442 148.744 196.92 148.673 196.407 148.559C195.951 148.701 195.486 148.807 195.015 148.879C194.654 148.933 194.29 148.967 193.925 148.981C193.802 148.981 193.679 148.981 193.556 148.981C193.119 148.981 192.683 148.952 192.25 148.894C191.549 148.8 190.861 148.628 190.199 148.383C189.836 148.504 189.466 148.603 189.091 148.681C189.074 148.613 189.06 148.545 189.045 148.468C188.93 147.925 188.873 147.371 188.875 146.816C188.875 143.354 191.011 140.549 193.647 140.549C196.284 140.549 198.417 143.358 198.417 146.821Z" fill="black"/>
<path d="M208.598 135.145C208.6 133.621 208.244 132.118 207.558 130.759L201.946 132.51L206.873 129.605C206.047 128.407 204.964 127.41 203.702 126.689C202.441 125.967 201.034 125.539 199.586 125.436C199.355 125.085 199.102 124.749 198.829 124.431L190.769 126.949L197.38 123.048C196.115 122.074 194.631 121.428 193.058 121.167C191.485 120.906 189.873 121.037 188.363 121.551C186.853 122.064 185.492 122.943 184.402 124.109C183.311 125.276 182.523 126.694 182.109 128.239L189.013 136.213L181.523 130.778C179.626 132.128 178.276 134.117 177.718 136.383C177.16 138.648 177.432 141.04 178.484 143.121C179.536 145.203 181.298 146.836 183.45 147.722C185.601 148.609 187.998 148.691 190.205 147.953C192.2 148.689 194.382 148.75 196.415 148.125C197.832 148.437 199.301 148.425 200.714 148.092C202.126 147.759 203.447 147.112 204.577 146.199C205.708 145.287 206.62 144.131 207.247 142.818C207.875 141.505 208.2 140.068 208.201 138.612C208.201 138.399 208.201 138.186 208.18 137.973C208.458 137.056 208.598 136.103 208.598 135.145Z" fill="#E1680F"/>
<path opacity="0.1" d="M208.43 136.95C205.466 136.386 202.427 136.347 199.45 136.835C196.08 137.395 192.635 138.625 189.339 137.727C187.405 137.199 185.734 135.977 183.844 135.298C182.021 134.66 180.056 134.542 178.17 134.958C177.452 136.683 177.243 138.58 177.57 140.421C177.896 142.262 178.744 143.97 180.012 145.34C181.28 146.711 182.915 147.686 184.72 148.149C186.526 148.612 188.426 148.544 190.194 147.953C192.19 148.689 194.371 148.75 196.404 148.125C197.822 148.439 199.293 148.429 200.707 148.096C202.12 147.764 203.442 147.117 204.574 146.204C205.706 145.292 206.619 144.136 207.247 142.822C207.875 141.508 208.201 140.069 208.201 138.612C208.201 138.399 208.201 138.186 208.18 137.974C208.282 137.637 208.365 137.295 208.43 136.95Z" fill="black"/>
<path d="M151.336 53.2961H150.428C150.16 53.2961 149.942 53.5143 149.942 53.7835V68.3494C149.942 68.6186 150.16 68.8368 150.428 68.8368H151.336C151.604 68.8368 151.822 68.6186 151.822 68.3494V53.7835C151.822 53.5143 151.604 53.2961 151.336 53.2961Z" fill="#3A3768"/>
<path d="M88.0611 41.1204H87.9784C87.7101 41.1204 87.4927 41.3386 87.4927 41.6077V45.7493C87.4927 46.0185 87.7101 46.2367 87.9784 46.2367H88.0611C88.3293 46.2367 88.5468 46.0185 88.5468 45.7493V41.6077C88.5468 41.3386 88.3293 41.1204 88.0611 41.1204Z" fill="#3A3768"/>
<path d="M88.1562 50.4888H87.9398C87.6716 50.4888 87.4541 50.707 87.4541 50.9761V58.9061C87.4541 59.1752 87.6716 59.3934 87.9398 59.3934H88.1562C88.4244 59.3934 88.6419 59.1752 88.6419 58.9061V50.9761C88.6419 50.707 88.4244 50.4888 88.1562 50.4888Z" fill="#3A3768"/>
<path d="M88.1179 62.5093H87.9588C87.6906 62.5093 87.4731 62.7275 87.4731 62.9967V71.0032C87.4731 71.2724 87.6906 71.4906 87.9588 71.4906H88.1179C88.3862 71.4906 88.6036 71.2724 88.6036 71.0032V62.9967C88.6036 62.7275 88.3862 62.5093 88.1179 62.5093Z" fill="#3A3768"/>
<path d="M142.686 24.2134H96.36C91.7928 24.2134 88.0903 27.9286 88.0903 32.5115V144.12C88.0903 148.703 91.7928 152.418 96.36 152.418H142.686C147.254 152.418 150.956 148.703 150.956 144.12V32.5115C150.956 27.9286 147.254 24.2134 142.686 24.2134Z" fill="#3F3D56"/>
<path d="M121.417 28.042H114.28C113.827 28.042 113.459 28.4107 113.459 28.8656V29.0061C113.459 29.461 113.827 29.8297 114.28 29.8297H121.417C121.871 29.8297 122.238 29.461 122.238 29.0061V28.8656C122.238 28.4107 121.871 28.042 121.417 28.042Z" fill="#E6E8EC"/>
<path d="M124.575 29.951C125.134 29.951 125.587 29.4965 125.587 28.9358C125.587 28.3752 125.134 27.9207 124.575 27.9207C124.016 27.9207 123.563 28.3752 123.563 28.9358C123.563 29.4965 124.016 29.951 124.575 29.951Z" fill="#E6E8EC"/>
<path d="M142.073 27.5525H134.883V28.423C134.883 29.5169 134.45 30.566 133.679 31.3395C132.908 32.113 131.863 32.5475 130.773 32.5475H107.828C106.738 32.5475 105.692 32.113 104.921 31.3395C104.151 30.566 103.717 29.5169 103.717 28.423V27.5525H96.9643C96.3087 27.5525 95.6596 27.6821 95.054 27.9339C94.4483 28.1857 93.8981 28.5548 93.4346 29.02C92.9712 29.4852 92.6036 30.0376 92.3529 30.6454C92.1022 31.2532 91.9734 31.9046 91.9736 32.5624V144.069C91.9734 144.727 92.1022 145.378 92.3529 145.986C92.6036 146.594 92.9712 147.146 93.4346 147.611C93.8981 148.076 94.4483 148.445 95.054 148.697C95.6596 148.949 96.3087 149.079 96.9643 149.079H142.073C143.397 149.079 144.667 148.551 145.604 147.611C146.54 146.672 147.066 145.397 147.066 144.069V32.5624C147.066 31.2337 146.54 29.9594 145.604 29.0199C144.667 28.0803 143.397 27.5525 142.073 27.5525Z" fill="#E1680F"/>
<path opacity="0.1" d="M125.886 47.5603H94.2837V52.6682H125.886V47.5603Z" fill="black" stroke="#E1680F" stroke-miterlimit="10"/>
<path opacity="0.1" d="M101.919 82.4639C105.668 82.4639 108.707 79.4148 108.707 75.6535C108.707 71.8922 105.668 68.843 101.919 68.843C98.171 68.843 95.1323 71.8922 95.1323 75.6535C95.1323 79.4148 98.171 82.4639 101.919 82.4639Z" fill="black" stroke="#E1680F" stroke-miterlimit="10"/>
<path d="M100.01 74.3766V76.9305H101.707L103.828 79.1545V72.1504L101.707 74.3766H100.01Z" fill="white"/>
<path opacity="0.1" d="M119.947 82.4639C123.696 82.4639 126.734 79.4148 126.734 75.6535C126.734 71.8922 123.696 68.843 119.947 68.843C116.199 68.843 113.16 71.8922 113.16 75.6535C113.16 79.4148 116.199 82.4639 119.947 82.4639Z" fill="black" stroke="#E1680F" stroke-miterlimit="10"/>
<path d="M119.947 78.4968C119.787 78.496 119.63 78.543 119.496 78.6318C119.362 78.7206 119.258 78.8473 119.196 78.9958C119.134 79.1442 119.117 79.3078 119.148 79.4658C119.179 79.6238 119.256 79.7691 119.369 79.8832C119.482 79.9973 119.626 80.0752 119.784 80.1069C119.941 80.1386 120.104 80.1228 120.252 80.0613C120.401 79.9999 120.527 79.8957 120.617 79.762C120.706 79.6282 120.753 79.4708 120.753 79.3098C120.753 79.095 120.669 78.8888 120.518 78.7365C120.367 78.5841 120.162 78.498 119.947 78.4968ZM117.572 71.1841C117.411 71.1828 117.254 71.2294 117.12 71.318C116.986 71.4066 116.881 71.5331 116.819 71.6815C116.757 71.83 116.74 71.9936 116.77 72.1518C116.801 72.3099 116.877 72.4554 116.99 72.5697C117.103 72.684 117.248 72.7621 117.405 72.794C117.563 72.8259 117.726 72.8102 117.874 72.7488C118.023 72.6875 118.149 72.5833 118.239 72.4494C118.328 72.3156 118.376 72.1582 118.376 71.9971C118.376 71.7826 118.291 71.5768 118.141 71.4245C117.99 71.2722 117.786 71.1858 117.572 71.1841ZM117.572 73.6231C117.411 73.6218 117.254 73.6685 117.12 73.7572C116.986 73.8458 116.881 73.9725 116.819 74.121C116.756 74.2696 116.74 74.4334 116.77 74.5915C116.801 74.7497 116.878 74.8952 116.991 75.0094C117.104 75.1237 117.249 75.2016 117.406 75.2332C117.564 75.2649 117.727 75.2489 117.876 75.1872C118.024 75.1255 118.151 75.021 118.24 74.8869C118.329 74.7528 118.376 74.5951 118.376 74.434C118.376 74.2197 118.291 74.014 118.141 73.8621C117.99 73.7102 117.786 73.6242 117.572 73.6231ZM117.572 76.06C117.411 76.0587 117.254 76.1053 117.12 76.1939C116.986 76.2824 116.881 76.409 116.819 76.5574C116.757 76.7058 116.74 76.8695 116.77 77.0276C116.801 77.1858 116.877 77.3312 116.99 77.4456C117.103 77.5599 117.248 77.638 117.405 77.6699C117.563 77.7017 117.726 77.686 117.874 77.6247C118.023 77.5633 118.149 77.4591 118.239 77.3253C118.328 77.1915 118.376 77.034 118.376 76.873C118.376 76.6585 118.291 76.4526 118.141 76.3003C117.99 76.1481 117.786 76.0617 117.572 76.06ZM122.323 72.8101C122.483 72.811 122.64 72.764 122.774 72.6752C122.908 72.5863 123.012 72.4597 123.074 72.3112C123.136 72.1627 123.153 71.9991 123.122 71.8411C123.092 71.6831 123.015 71.5379 122.902 71.4238C122.788 71.3096 122.644 71.2318 122.487 71.2001C122.33 71.1683 122.166 71.1842 122.018 71.2456C121.87 71.307 121.743 71.4112 121.654 71.545C121.565 71.6788 121.517 71.8361 121.517 71.9971C121.517 72.1036 121.537 72.2091 121.578 72.3076C121.618 72.4061 121.677 72.4956 121.752 72.5711C121.827 72.6466 121.916 72.7066 122.014 72.7476C122.112 72.7886 122.217 72.8098 122.323 72.8101ZM119.947 76.06C119.787 76.0591 119.63 76.1061 119.496 76.1949C119.362 76.2837 119.258 76.4104 119.196 76.5589C119.134 76.7074 119.117 76.871 119.148 77.029C119.179 77.1869 119.256 77.3322 119.369 77.4463C119.482 77.5605 119.626 77.6383 119.784 77.67C119.941 77.7017 120.104 77.6859 120.252 77.6245C120.401 77.5631 120.527 77.4589 120.617 77.3251C120.706 77.1913 120.753 77.0339 120.753 76.873C120.753 76.6581 120.669 76.4519 120.518 76.2996C120.367 76.1473 120.162 76.0611 119.947 76.06ZM122.323 76.06C122.162 76.0591 122.005 76.1061 121.872 76.1949C121.738 76.2837 121.633 76.4104 121.571 76.5589C121.509 76.7074 121.493 76.871 121.524 77.029C121.554 77.1869 121.631 77.3322 121.744 77.4463C121.857 77.5605 122.002 77.6383 122.159 77.67C122.316 77.7017 122.479 77.6859 122.628 77.6245C122.776 77.5631 122.903 77.4589 122.992 77.3251C123.081 77.1913 123.129 77.0339 123.129 76.873C123.129 76.6581 123.044 76.4519 122.893 76.2996C122.742 76.1473 122.537 76.0611 122.323 76.06ZM122.323 73.6231C122.162 73.6223 122.005 73.6693 121.871 73.7582C121.738 73.8471 121.633 73.9739 121.571 74.1225C121.509 74.2711 121.493 74.4348 121.524 74.5929C121.555 74.7509 121.632 74.8962 121.745 75.0102C121.858 75.1243 122.003 75.2019 122.16 75.2334C122.318 75.2649 122.481 75.2487 122.629 75.187C122.777 75.1253 122.904 75.0207 122.993 74.8867C123.082 74.7526 123.129 74.595 123.129 74.434C123.129 74.2193 123.044 74.0134 122.893 73.8614C122.742 73.7093 122.537 73.6237 122.323 73.6231ZM119.947 73.6231C119.787 73.6223 119.63 73.6693 119.496 73.7582C119.362 73.8471 119.258 73.9739 119.196 74.1225C119.134 74.2711 119.117 74.4348 119.148 74.5929C119.179 74.7509 119.256 74.8962 119.37 75.0102C119.483 75.1243 119.627 75.2019 119.785 75.2334C119.942 75.2649 120.105 75.2487 120.254 75.187C120.402 75.1253 120.529 75.0207 120.618 74.8867C120.707 74.7526 120.754 74.595 120.753 74.434C120.753 74.2193 120.669 74.0134 120.517 73.8614C120.366 73.7093 120.161 73.6237 119.947 73.6231ZM119.947 71.1841C119.787 71.1833 119.63 71.2302 119.496 71.319C119.362 71.4079 119.258 71.5345 119.196 71.683C119.134 71.8315 119.117 71.9951 119.148 72.1531C119.179 72.3111 119.256 72.4563 119.369 72.5705C119.482 72.6846 119.626 72.7624 119.784 72.7942C119.941 72.8259 120.104 72.81 120.252 72.7486C120.401 72.6872 120.527 72.583 120.617 72.4492C120.706 72.3154 120.753 72.1581 120.753 71.9971C120.753 71.7822 120.669 71.5761 120.518 71.4237C120.367 71.2714 120.162 71.1852 119.947 71.1841Z" fill="white"/>
<g opacity="0.4">
<path opacity="0.1" d="M101.919 102.895C105.668 102.895 108.707 99.8462 108.707 96.0849C108.707 92.3236 105.668 89.2744 101.919 89.2744C98.171 89.2744 95.1323 92.3236 95.1323 96.0849C95.1323 99.8462 98.171 102.895 101.919 102.895Z" fill="black" stroke="#E1680F" stroke-miterlimit="10"/>
<path opacity="0.4" d="M105.101 96.5104H102.343V99.2771H101.495V96.5104H98.7378V95.6591H101.495V92.8923H102.343V95.6591H105.101V96.5104Z" fill="white"/>
</g>
<path opacity="0.1" d="M137.976 82.4639C141.724 82.4639 144.763 79.4148 144.763 75.6535C144.763 71.8922 141.724 68.843 137.976 68.843C134.227 68.843 131.188 71.8922 131.188 75.6535C131.188 79.4148 134.227 82.4639 137.976 82.4639Z" fill="black" stroke="#E1680F" stroke-miterlimit="10"/>
<path d="M137.976 71.5012C137.468 71.5079 136.966 71.6149 136.499 71.8162C136.032 72.0174 135.61 72.309 135.255 72.6742C134.901 73.0395 134.621 73.4712 134.433 73.9448C134.245 74.4183 134.151 74.9245 134.158 75.4343V78.4926C134.156 78.6625 134.187 78.8312 134.25 78.9891C134.312 79.1469 134.406 79.2908 134.524 79.4126C134.642 79.5343 134.783 79.6315 134.938 79.6986C135.094 79.7657 135.261 79.8014 135.431 79.8036H136.703V76.2898H135.006V75.4385C135.006 74.6483 135.319 73.8904 135.876 73.3316C136.433 72.7729 137.188 72.4589 137.976 72.4589C138.763 72.4589 139.519 72.7729 140.075 73.3316C140.632 73.8904 140.945 74.6483 140.945 75.4385V76.2898H139.248V79.8015H140.521C140.69 79.7995 140.858 79.764 141.014 79.697C141.169 79.6301 141.31 79.5329 141.429 79.4111C141.547 79.2893 141.64 79.1453 141.703 78.9873C141.765 78.8293 141.796 78.6605 141.794 78.4905V75.4343C141.8 74.9245 141.707 74.4183 141.519 73.9448C141.33 73.4712 141.051 73.0395 140.697 72.6742C140.342 72.309 139.919 72.0174 139.452 71.8162C138.986 71.6149 138.484 71.5079 137.976 71.5012Z" fill="white"/>
<g opacity="0.4">
<path opacity="0.1" d="M119.947 102.895C123.696 102.895 126.734 99.8462 126.734 96.0849C126.734 92.3236 123.696 89.2744 119.947 89.2744C116.199 89.2744 113.16 92.3236 113.16 96.0849C113.16 99.8462 116.199 102.895 119.947 102.895Z" fill="black" stroke="#E1680F" stroke-miterlimit="10"/>
<path opacity="0.4" d="M122.493 95.3549V93.6523C122.492 93.5877 122.478 93.524 122.453 93.4646C122.427 93.4053 122.391 93.3516 122.345 93.3065C122.298 93.2614 122.244 93.2259 122.184 93.202C122.124 93.1781 122.061 93.1662 121.996 93.167H115.985C115.856 93.1659 115.731 93.2163 115.638 93.3073C115.546 93.3982 115.493 93.5223 115.491 93.6523V98.5069C115.493 98.6367 115.547 98.7605 115.639 98.8513C115.732 98.9421 115.856 98.9927 115.985 98.9921H121.994C122.124 98.9933 122.249 98.9429 122.342 98.852C122.435 98.7611 122.488 98.6371 122.49 98.5069V96.8043L124.399 98.7452V93.4139L122.493 95.3549Z" fill="white"/>
</g>
<path opacity="0.1" d="M137.976 102.895C141.724 102.895 144.763 99.8462 144.763 96.0849C144.763 92.3236 141.724 89.2744 137.976 89.2744C134.227 89.2744 131.188 92.3236 131.188 96.0849C131.188 99.8462 134.227 102.895 137.976 102.895Z" fill="black" stroke="#E1680F" stroke-miterlimit="10"/>
<path d="M137.641 97.8387C137.276 98.0465 136.863 98.1558 136.444 98.1558C136.024 98.1558 135.611 98.0465 135.246 97.8387C134.309 98.126 133.734 99.0774 133.522 99.9138H139.365C139.153 99.0774 138.58 98.126 137.641 97.8387ZM136.445 93.3694C136.028 93.369 135.62 93.4926 135.274 93.7247C134.927 93.9567 134.657 94.2868 134.497 94.673C134.337 95.0593 134.296 95.4844 134.377 95.8945C134.458 96.3047 134.659 96.6814 134.953 96.9771C135.248 97.2728 135.623 97.4741 136.032 97.5556C136.441 97.6371 136.865 97.5951 137.25 97.4348C137.634 97.2746 137.963 97.0034 138.195 96.6555C138.426 96.3077 138.549 95.8988 138.549 95.4806C138.549 94.9207 138.327 94.3837 137.932 93.9877C137.538 93.5918 137.003 93.3694 136.445 93.3694ZM136.445 97.0896C136.128 97.0837 135.82 96.9851 135.559 96.8058C135.297 96.6266 135.093 96.3746 134.973 96.0808H137.915C137.794 96.3747 137.591 96.6269 137.33 96.8065C137.069 96.9861 136.761 97.0852 136.445 97.0917V97.0896Z" fill="white"/>
<path d="M139.299 98.6366H142.43C142.332 98.1948 142.122 97.7861 141.82 97.4503C141.517 97.1146 141.133 96.8633 140.705 96.7211C140.34 96.9289 139.927 97.0381 139.507 97.0382C139.225 97.0408 138.945 96.9932 138.68 96.8978C138.532 97.1582 138.345 97.3937 138.124 97.5958C138.609 97.819 139.018 98.181 139.299 98.6366ZM138.981 94.9653H140.979C140.858 95.2583 140.654 95.5094 140.392 95.6879C140.131 95.8663 139.823 95.9643 139.507 95.9699C139.335 95.9686 139.164 95.9383 139.002 95.8805C138.976 96.0511 138.933 96.2187 138.873 96.3806C139.163 96.4734 139.469 96.5021 139.771 96.4648C140.073 96.4274 140.363 96.3249 140.621 96.1643C140.88 96.0037 141.101 95.7888 141.269 95.5344C141.437 95.2799 141.548 94.992 141.594 94.6904C141.641 94.3888 141.622 94.0807 141.538 93.7872C141.455 93.4937 141.309 93.2219 141.111 92.9904C140.913 92.7588 140.667 92.5731 140.39 92.446C140.114 92.3189 139.813 92.2533 139.509 92.2539C139.155 92.2544 138.807 92.3444 138.497 92.5154C138.186 92.6865 137.924 92.9333 137.734 93.2329C138.052 93.4169 138.328 93.6664 138.542 93.965C138.757 94.2636 138.907 94.6045 138.981 94.9653Z" fill="white"/>
<path d="M119.947 130.137C123.696 130.137 126.734 127.088 126.734 123.327C126.734 119.566 123.696 116.516 119.947 116.516C116.199 116.516 113.16 119.566 113.16 123.327C113.16 127.088 116.199 130.137 119.947 130.137Z" fill="#FF6F61"/>
<path d="M116.463 125.008C116.834 124.656 117.257 124.363 117.716 124.14C117.787 124.108 117.848 124.056 117.89 123.99C117.931 123.924 117.953 123.847 117.952 123.769L117.988 122.445C119.285 122.059 120.671 122.096 121.946 122.552L121.91 123.876C121.908 123.953 121.928 124.028 121.965 124.096C122.002 124.163 122.056 124.219 122.122 124.259C122.582 124.499 123 124.816 123.356 125.195C123.394 125.236 123.44 125.269 123.491 125.292C123.542 125.314 123.597 125.327 123.653 125.329C123.708 125.33 123.764 125.321 123.816 125.301C123.868 125.281 123.916 125.251 123.956 125.212L125.034 124.186C125.115 124.109 125.162 124.002 125.166 123.89C125.169 123.777 125.127 123.668 125.051 123.586C124.399 122.896 123.619 122.342 122.754 121.954C121.889 121.567 120.957 121.355 120.01 121.329C119.063 121.303 118.121 121.465 117.236 121.805C116.352 122.145 115.543 122.656 114.855 123.31C114.815 123.348 114.782 123.394 114.76 123.445C114.737 123.497 114.725 123.552 114.723 123.608C114.722 123.664 114.732 123.719 114.752 123.771C114.772 123.824 114.802 123.871 114.84 123.912L115.861 124.993C115.899 125.034 115.945 125.066 115.996 125.089C116.047 125.112 116.102 125.124 116.158 125.125C116.213 125.127 116.269 125.117 116.321 125.097C116.373 125.077 116.42 125.047 116.461 125.008H116.463Z" fill="white"/>
<path opacity="0.1" d="M138.824 57.1377C141.752 57.1377 144.126 54.7555 144.126 51.817C144.126 48.8785 141.752 46.4963 138.824 46.4963C135.895 46.4963 133.521 48.8785 133.521 51.817C133.521 54.7555 135.895 57.1377 138.824 57.1377Z" fill="black" stroke="#E1680F" stroke-miterlimit="10"/>
<path d="M140.022 53.0109C139.657 53.2187 139.244 53.3279 138.824 53.3279C138.404 53.3279 137.991 53.2187 137.626 53.0109C136.688 53.2982 136.113 54.2495 135.901 55.088H141.747C141.535 54.2495 140.96 53.2982 140.022 53.0109ZM138.824 48.5415C138.407 48.5411 138 48.6647 137.653 48.8966C137.307 49.1286 137.036 49.4585 136.877 49.8446C136.717 50.2308 136.675 50.6558 136.756 51.0659C136.837 51.476 137.037 51.8527 137.332 52.1485C137.626 52.4443 138.002 52.6458 138.41 52.7275C138.819 52.8092 139.242 52.7675 139.627 52.6076C140.012 52.4477 140.341 52.1768 140.573 51.8292C140.804 51.4816 140.928 51.0729 140.928 50.6549C140.927 50.0949 140.706 49.558 140.311 49.1619C139.917 48.7657 139.382 48.5426 138.824 48.5415ZM138.824 52.2638C138.508 52.2574 138.2 52.1586 137.938 51.9794C137.677 51.8002 137.473 51.5485 137.352 51.255H140.296C140.175 51.5486 139.971 51.8005 139.71 51.98C139.448 52.1594 139.141 52.2588 138.824 52.266V52.2638Z" fill="white"/>
<path opacity="0.1" d="M85.8104 14.1296C85.3162 13.8423 84.6481 14.1168 84.3087 14.5787C83.9694 15.0405 83.8845 15.6428 83.7891 16.2025C83.6003 17.4603 83.4625 18.9054 84.3087 19.8546C82.9259 15.6471 78.949 12.4227 74.5522 11.9524" stroke="#E1680F" stroke-width="3" stroke-miterlimit="10"/>
<path opacity="0.1" d="M171.504 83.5643C171.186 83.3791 170.757 83.5643 170.539 83.8537C170.345 84.1692 170.23 84.527 170.204 84.8965C170.083 85.7074 169.992 86.6353 170.539 87.2376C170.073 85.8869 169.239 84.6946 168.131 83.7964C167.023 82.8983 165.685 82.3304 164.271 82.1575" stroke="#E1680F" stroke-width="3" stroke-miterlimit="10"/>
<path opacity="0.1" d="M63.4405 56.0502C63.1224 55.8671 62.6939 56.0502 62.4755 56.3396C62.2815 56.6558 62.1666 57.0143 62.1404 57.3846C62.0195 58.1933 61.9283 59.1213 62.4755 59.7257C62.0092 58.3752 61.1747 57.1831 60.0667 56.2851C58.9587 55.387 57.6218 54.8189 56.208 54.6455" stroke="#E1680F" stroke-width="3" stroke-miterlimit="10"/>
<path d="M147.8 155.57C148.012 155.972 148.411 156.219 148.795 156.438C151.462 157.973 154.272 159.242 157.185 160.229C157.258 160.271 157.339 160.296 157.423 160.303C157.506 160.309 157.59 160.297 157.669 160.266C157.747 160.236 157.817 160.188 157.874 160.127C157.932 160.065 157.975 159.992 158 159.912C158.335 159.345 158.702 158.422 158.615 157.675C158.891 157.507 159.091 157.238 159.173 156.926C159.288 156.545 159.462 156.186 159.69 155.861C160.087 155.261 160.566 154.659 160.63 153.929C160.624 153.669 160.649 153.409 160.704 153.154C160.817 152.818 161.116 152.597 161.34 152.329C161.69 151.903 161.858 151.354 162.017 150.82C162.679 148.6 163.341 146.38 163.892 144.126C164.07 143.396 164.236 142.664 164.48 141.955C164.692 141.334 164.963 140.738 165.232 140.142C166.196 137.982 167.317 135.897 168.586 133.902C168.784 134.572 169.024 135.229 169.305 135.869C169.449 136.198 169.604 136.524 169.75 136.854C170.304 138.097 170.204 139.693 170.885 140.861C171.168 141.341 171.446 141.82 171.721 142.298C171.876 142.532 171.997 142.788 172.079 143.058C172.124 143.245 172.128 143.441 172.16 143.63C172.304 144.482 172.993 145.082 173.375 145.842C173.725 146.535 173.799 147.331 174.011 148.095C174.514 149.862 175.748 151.396 175.873 153.237C175.889 153.734 175.877 154.232 175.837 154.727C175.806 155.595 175.863 156.464 176.009 157.319C176.021 157.406 176.044 157.49 176.077 157.57C174.99 159.193 173.317 160.327 171.411 160.733C171.05 160.805 170.637 160.882 170.448 161.214C170.221 161.61 170.478 162.155 170.872 162.368C171.267 162.58 171.721 162.559 172.145 162.521C175.188 162.265 178.198 161.708 181.131 160.857C181.28 160.826 181.415 160.752 181.522 160.644C181.626 160.488 181.672 160.3 181.651 160.114C181.649 159.426 181.49 158.748 181.184 158.132L181.396 158.058C181.515 157.207 181.078 156.383 180.739 155.593C180.149 154.216 179.827 152.729 179.36 151.296C178.461 148.53 177.008 145.948 176.658 143.054C176.563 142.258 176.325 141.449 176.274 140.649C176.172 139.018 176.062 137.38 175.708 135.792C175.411 134.485 174.942 133.238 174.647 131.916C174.353 130.595 174.257 129.205 174.69 127.941C174.813 127.579 174.978 127.236 175.091 126.877C175.515 125.47 175.11 123.946 174.698 122.533C174.568 122.086 174.44 121.64 174.312 121.196C174.141 120.611 173.971 120.024 173.784 119.443C173.81 119.419 173.833 119.396 173.858 119.368C174.232 118.942 174.228 118.291 174.495 117.783C174.626 117.521 174.826 117.306 174.966 117.05C175.23 116.498 175.298 115.872 175.159 115.275C175.046 114.68 174.821 114.113 174.652 113.532C174.191 111.938 174.156 110.25 174.55 108.637C174.722 107.95 174.974 107.275 175.01 106.567C175.022 106.093 174.979 105.619 174.881 105.156C174.552 103.368 173.907 101.555 172.599 100.373C171.901 99.7348 170.957 99.1751 170.883 98.2046C170.77 98.161 170.646 98.1566 170.531 98.1918C170.471 97.971 170.431 97.7452 170.412 97.5172H170.422C170.487 97.5245 170.553 97.5245 170.618 97.5172C170.673 97.5136 170.726 97.4984 170.775 97.4725C170.802 97.4561 170.828 97.4369 170.851 97.415C170.933 97.3302 171.005 97.235 171.063 97.132C171.15 96.9872 171.228 96.8319 171.294 96.7255C171.36 96.6191 171.466 96.4488 171.549 96.2998C171.796 95.8742 172.026 95.4414 172.238 95.0016V94.9845C172.259 94.9441 172.278 94.9015 172.297 94.8611L172.323 94.8036L172.361 94.7164C172.361 94.6951 172.38 94.6717 172.389 94.6504C172.397 94.6291 172.412 94.5972 172.423 94.5695L172.452 94.4993C172.463 94.4738 172.471 94.4482 172.482 94.4206C172.492 94.3969 172.502 94.3728 172.51 94.3482C172.52 94.3227 172.529 94.2971 172.537 94.2716C172.546 94.246 172.554 94.2226 172.565 94.1971C172.575 94.1715 172.58 94.146 172.588 94.1205L172.613 94.0438C172.613 94.0183 172.626 93.9949 172.635 93.9694L172.656 93.8906L172.675 93.8161L172.694 93.7353C172.694 93.7118 172.694 93.6884 172.709 93.6629C172.724 93.6373 172.709 93.6076 172.724 93.5799C172.739 93.5522 172.724 93.5331 172.724 93.5097L172.736 93.4267V93.3564C172.736 93.3266 172.736 93.299 172.736 93.2713C172.736 93.2436 172.736 93.2245 172.736 93.2011C172.736 93.1776 172.736 93.1436 172.736 93.1159V93.067C172.736 93.0372 172.736 93.0095 172.736 92.9797C172.736 92.9499 172.736 92.9372 172.736 92.9159C172.736 92.8946 172.736 92.8563 172.736 92.8265C172.736 92.7967 172.736 92.786 172.736 92.7669C172.726 92.6835 172.71 92.601 172.688 92.52C172.545 92.0243 172.255 91.5841 171.856 91.2579C171.471 90.9421 171.042 90.6834 170.584 90.4896C170.472 90.4465 170.37 90.3822 170.283 90.3002C170.181 90.1515 170.096 89.9915 170.03 89.8235C169.843 89.4957 169.47 89.3489 169.12 89.2616C168.77 89.1744 168.395 89.119 168.102 88.8956C168.076 88.873 168.046 88.8556 168.013 88.8445C167.968 88.8409 167.923 88.8505 167.884 88.8722L167.067 89.2361C167.059 89.1852 167.041 89.1365 167.014 89.0928C166.986 89.049 166.951 89.0111 166.909 88.9812C166.867 88.9513 166.82 88.9301 166.77 88.9186C166.72 88.9072 166.668 88.9059 166.617 88.9147C166.416 88.9637 166.233 89.0692 166.089 89.2191C166.064 89.1938 166.047 89.1623 166.038 89.1279C166.03 89.0934 166.03 89.0573 166.041 89.0233L165.404 89.4489C165.326 89.5 165.182 89.5128 165.192 89.4149C164.838 89.8028 164.531 90.2314 164.278 90.6918C164.199 90.8325 164.132 90.9799 164.079 91.1324C164.079 91.1643 164.06 91.1962 164.051 91.2282C164.05 91.2345 164.05 91.241 164.051 91.2473C164.051 91.275 164.038 91.3048 164.034 91.3346C164.033 91.343 164.033 91.3516 164.034 91.3601C164.034 91.3963 164.034 91.4346 164.034 91.4708C164.032 91.5119 164.032 91.5531 164.034 91.5942C164.041 91.7125 164.078 91.827 164.142 91.9263C164.207 92.0256 164.296 92.1063 164.401 92.1603C164.482 92.1906 164.569 92.2044 164.656 92.2008C164.838 92.1791 165.018 92.142 165.194 92.0901C165.251 92.076 165.31 92.0661 165.368 92.0603C165.396 92.0582 165.423 92.0582 165.451 92.0603C165.562 92.0577 165.67 92.0947 165.756 92.1646L165.769 92.1774C165.306 92.5118 164.929 92.9529 164.671 93.4636C164.413 93.9742 164.28 94.5396 164.284 95.1122C164.283 95.6757 164.411 96.2319 164.658 96.7382C164.573 96.7853 164.503 96.8554 164.456 96.9405C164.409 97.0255 164.387 97.1222 164.393 97.2192C164.337 97.056 164.308 96.8851 164.306 96.7127C163.958 96.6425 163.705 97.0511 163.58 97.4023C163.323 98.1961 163.124 99.0077 162.984 99.8306C162.876 100.378 162.772 100.925 162.662 101.472C162.552 102.018 162.45 102.606 162.369 103.174C162.182 104.649 162.249 106.146 162.566 107.599C162.545 107.646 162.526 107.695 162.507 107.741C162.443 107.912 162.263 108.056 162.242 108.237C162.127 109.321 162.81 110.297 163.455 111.147C163.508 111.233 163.581 111.306 163.667 111.359C163.762 111.399 163.865 111.412 163.966 111.398C164.223 111.385 164.48 111.36 164.734 111.321C164.749 111.466 164.766 111.608 164.783 111.747C164.965 113.275 165.277 114.803 165.275 116.342C165.273 117.88 164.982 119.44 165.57 120.811C165.667 121.045 165.856 121.237 165.875 121.479H165.911C165.552 122.214 165.258 122.979 165.033 123.765C164.8 124.689 164.751 125.659 164.49 126.574C164.267 127.351 163.896 128.064 163.597 128.822C163.11 130.053 162.824 131.354 162.749 132.676C162.741 133.283 162.618 133.883 162.388 134.445C162.045 135.118 161.745 135.813 161.489 136.524C161.065 137.788 160.35 138.986 160.216 140.325C160.142 141.083 160.25 141.892 159.934 142.577C159.811 142.845 159.629 143.077 159.485 143.33C159.274 143.736 159.11 144.164 158.995 144.607L156.895 151.594C156.815 151.978 156.639 152.335 156.382 152.631C156.187 152.818 155.93 152.92 155.745 153.114C155.448 153.416 155.374 153.859 155.372 154.31C155.147 154.351 154.929 154.422 154.723 154.523C153.835 154.904 152.879 155.1 151.914 155.1C150.948 155.1 149.993 154.904 149.105 154.523C148.765 154.376 148.379 154.201 148.044 154.37C147.652 154.574 147.588 155.168 147.8 155.57ZM164.528 102.644C164.654 102.066 164.89 101.517 165.224 101.029C165.699 100.243 166.2 99.4667 166.654 98.6643L166.783 98.5388C166.819 98.6409 166.853 98.7516 166.885 98.8473C166.963 99.1202 167.026 99.3973 167.073 99.6774C167.141 100.028 167.16 100.386 167.133 100.742L167.103 100.765C166.932 100.876 166.793 101.031 166.702 101.214C166.643 101.397 166.643 101.593 166.702 101.776L166.683 101.797L166.704 101.782C166.779 102.076 166.917 102.378 166.872 102.676C166.823 103.036 166.535 103.298 166.354 103.606C165.93 104.349 166.066 105.477 165.368 105.932L165.355 105.962C165.206 105.927 165.066 105.857 164.947 105.759C164.829 105.661 164.734 105.537 164.67 105.396C164.726 104.487 164.386 103.555 164.528 102.644Z" fill="url(#paint0_linear)"/>
<path d="M181.929 160.154C181.951 160.339 181.903 160.525 181.795 160.676C181.682 160.784 181.541 160.858 181.388 160.888C178.325 161.73 175.191 162.28 172.026 162.532C171.572 162.566 171.093 162.591 170.692 162.38C170.291 162.17 170.024 161.631 170.268 161.242C170.465 160.914 170.904 160.837 171.271 160.767C173.257 160.378 175.017 159.235 176.183 157.575C176.322 157.337 176.503 157.126 176.717 156.953C177.125 156.675 177.666 156.74 178.147 156.836C178.995 157.011 180.122 157.217 180.887 157.634C181.653 158.052 181.916 159.339 181.929 160.154Z" fill="#3F3D56"/>
<path opacity="0.1" d="M181.929 160.154C181.951 160.339 181.903 160.525 181.795 160.676C181.682 160.784 181.541 160.858 181.388 160.888C178.325 161.73 175.191 162.28 172.026 162.532C171.572 162.566 171.093 162.591 170.692 162.38C170.291 162.17 170.024 161.631 170.268 161.242C170.465 160.914 170.904 160.837 171.271 160.767C173.257 160.378 175.017 159.235 176.183 157.575C176.322 157.337 176.503 157.126 176.717 156.953C177.125 156.675 177.666 156.74 178.147 156.836C178.995 157.011 180.122 157.217 180.887 157.634C181.653 158.052 181.916 159.339 181.929 160.154Z" fill="black"/>
<path d="M157.281 159.948C157.198 160.115 157.057 160.245 156.884 160.314C156.732 160.34 156.575 160.321 156.432 160.261C153.408 159.292 150.481 158.04 147.69 156.521C147.291 156.308 146.875 156.062 146.653 155.67C146.43 155.278 146.498 154.676 146.907 154.478C147.251 154.312 147.654 154.478 148.006 154.629C149.884 155.389 151.982 155.389 153.86 154.629C154.106 154.505 154.373 154.427 154.647 154.399C155.137 154.389 155.559 154.736 155.919 155.083C156.539 155.693 157.368 156.483 157.784 157.249C158.199 158.015 157.711 159.256 157.281 159.948Z" fill="#3F3D56"/>
<path opacity="0.1" d="M157.281 159.948C157.198 160.115 157.057 160.245 156.884 160.314C156.732 160.34 156.575 160.321 156.432 160.261C153.408 159.292 150.481 158.04 147.69 156.521C147.291 156.308 146.875 156.062 146.653 155.67C146.43 155.278 146.498 154.676 146.907 154.478C147.251 154.312 147.654 154.478 148.006 154.629C149.884 155.389 151.982 155.389 153.86 154.629C154.106 154.505 154.373 154.427 154.647 154.399C155.137 154.389 155.559 154.736 155.919 155.083C156.539 155.693 157.368 156.483 157.784 157.249C158.199 158.015 157.711 159.256 157.281 159.948Z" fill="black"/>
<path d="M173.447 119.191C173.763 120.043 174.028 120.894 174.295 121.745L174.698 123.065C175.122 124.459 175.547 125.961 175.108 127.351C174.991 127.711 174.819 128.049 174.683 128.415C174.234 129.662 174.338 131.048 174.639 132.34C174.94 133.632 175.428 134.872 175.737 136.171C176.113 137.737 176.221 139.363 176.327 140.961C176.38 141.751 176.626 142.549 176.728 143.334C177.093 146.188 178.605 148.747 179.542 151.467C180.028 152.878 180.363 154.344 180.981 155.704C181.333 156.483 181.789 157.29 181.666 158.134C179.941 158.747 178.03 158.737 176.406 157.896C176.303 157.859 176.214 157.792 176.151 157.704C176.087 157.615 176.052 157.509 176.049 157.4C175.9 156.558 175.843 155.701 175.88 154.846C175.92 154.359 175.932 153.87 175.916 153.382C175.786 151.567 174.499 150.053 173.977 148.308C173.765 147.565 173.667 146.772 173.303 146.086C172.904 145.337 172.187 144.739 172.03 143.905C171.996 143.718 171.992 143.526 171.947 143.341C171.86 143.073 171.734 142.82 171.572 142.59L170.707 141.166C169.996 140.012 170.1 138.437 169.525 137.211C169.372 136.886 169.209 136.573 169.059 136.241C168.768 135.611 168.518 134.962 168.31 134.3C166.989 136.257 165.819 138.313 164.81 140.449C164.518 141.031 164.256 141.629 164.025 142.238C163.771 142.936 163.601 143.66 163.412 144.379C162.84 146.603 162.14 148.793 161.459 150.977C161.294 151.505 161.118 152.041 160.755 152.467C160.522 152.731 160.212 152.948 160.093 153.282C160.037 153.532 160.011 153.788 160.017 154.044C159.949 154.765 159.45 155.359 159.037 155.959C158.799 156.281 158.617 156.641 158.498 157.023C158.449 157.195 158.365 157.354 158.249 157.489C158.134 157.625 157.991 157.734 157.831 157.81C157.67 157.885 157.495 157.926 157.317 157.928C157.14 157.93 156.964 157.894 156.801 157.822H156.784C156.616 157.737 156.455 157.641 156.301 157.532C155.899 157.279 155.518 156.994 155.162 156.681C154.846 156.375 154.562 156.039 154.313 155.676C154.271 155.615 154.243 155.544 154.232 155.469C154.221 155.395 154.228 155.319 154.251 155.248C154.275 155.176 154.314 155.111 154.367 155.058C154.42 155.004 154.484 154.964 154.555 154.94C154.511 154.348 154.498 153.674 154.922 153.265C155.119 153.073 155.387 152.971 155.59 152.788C155.855 152.501 156.04 152.149 156.125 151.767C156.849 149.479 157.571 147.192 158.292 144.905C158.413 144.465 158.585 144.041 158.804 143.641C158.954 143.39 159.143 143.162 159.272 142.898C159.601 142.221 159.484 141.425 159.565 140.676C159.703 139.355 160.441 138.176 160.889 136.928C161.156 136.224 161.469 135.538 161.826 134.875C162.066 134.324 162.193 133.732 162.201 133.132C162.28 131.823 162.578 130.537 163.084 129.328C163.393 128.588 163.782 127.879 164.013 127.111C164.286 126.208 164.335 125.251 164.581 124.344C164.817 123.562 165.125 122.804 165.5 122.079C165.807 121.441 166.123 120.788 166.63 120.292C167.461 119.479 168.685 119.213 169.845 119.176C171.006 119.14 172.291 119.313 173.447 119.191Z" fill="#3F3D56"/>
<path d="M166.327 102.616C167.82 101.731 169.297 100.817 170.757 99.8753C170.408 99.4024 170.214 98.8316 170.204 98.2429C170.204 98.2195 170.204 98.1961 170.204 98.1727C170.183 97.6002 170.399 97.1085 169.68 97.183C168.989 97.2724 168.306 97.4147 167.637 97.6087C167.447 97.6576 165.792 98.2684 165.729 98.2067C166.097 98.6457 166.37 99.1576 166.528 99.7093C166.61 99.9784 166.675 100.252 166.725 100.529C166.87 101.261 166.876 102.121 166.327 102.616Z" fill="#A0616A"/>
<path d="M164.322 112.434C164.513 113.941 164.838 115.45 164.836 116.965C164.834 118.481 164.53 120.024 165.143 121.381C165.245 121.611 165.44 121.79 165.461 122.041C166.31 122.188 167.137 121.79 167.945 121.503C168.686 121.242 169.455 121.069 170.236 120.988C170.872 120.924 171.525 120.92 172.157 120.798C172.787 120.699 173.369 120.401 173.818 119.947C174.206 119.521 174.202 118.883 174.473 118.383C174.611 118.125 174.819 117.914 174.965 117.661C175.239 117.12 175.31 116.499 175.165 115.91C175.018 115.328 174.842 114.754 174.637 114.19C174.156 112.622 174.119 110.951 174.531 109.363C174.709 108.684 174.968 108.018 175.01 107.318C175.023 106.85 174.978 106.383 174.876 105.926C174.533 104.164 173.86 102.374 172.499 101.21C171.771 100.586 170.787 100.026 170.711 99.0814C170.397 98.958 170.06 99.1687 169.79 99.3688L166.766 101.606C166.586 101.712 166.439 101.866 166.342 102.05C166.153 102.504 166.588 103.002 166.518 103.491C166.467 103.847 166.166 104.104 165.979 104.411C165.533 105.141 165.678 106.254 164.95 106.703C164.884 106.839 164.823 106.979 164.768 107.128C164.508 107.872 164.334 108.643 164.248 109.427C164.147 110.429 164.172 111.439 164.322 112.434Z" fill="#3F3D56"/>
<path opacity="0.1" d="M165.737 98.2109C166.106 98.6499 166.379 99.1618 166.537 99.7135C166.778 99.7675 167.024 99.7946 167.271 99.7944C168.505 99.7944 169.332 98.3748 169.945 97.4001C169.926 96.8276 170.399 97.1127 169.68 97.1872C168.99 97.2766 168.307 97.4189 167.638 97.6129C167.447 97.6618 165.792 98.2727 165.737 98.2109Z" fill="black"/>
<path d="M167.271 99.5028C169.187 99.5028 170.741 97.9439 170.741 96.0209C170.741 94.0979 169.187 92.5391 167.271 92.5391C165.354 92.5391 163.801 94.0979 163.801 96.0209C163.801 97.9439 165.354 99.5028 167.271 99.5028Z" fill="#A0616A"/>
<path d="M164.616 98.4863L165.418 99.3682C165.681 99.6572 166.128 99.6777 166.416 99.4138L169.111 96.9459C169.399 96.682 169.419 96.2338 169.156 95.9447L168.354 95.0628C168.091 94.7738 167.644 94.7533 167.356 95.0172L164.662 97.4851C164.374 97.749 164.353 98.1972 164.616 98.4863Z" fill="#3F3D56"/>
<path opacity="0.1" d="M164.616 98.4863L165.418 99.3682C165.681 99.6572 166.128 99.6777 166.416 99.4138L169.111 96.9459C169.399 96.682 169.419 96.2338 169.156 95.9447L168.354 95.0628C168.091 94.7738 167.644 94.7533 167.356 95.0172L164.662 97.4851C164.374 97.749 164.353 98.1972 164.616 98.4863Z" fill="black"/>
<path d="M167.487 96.9639C167.646 96.9639 167.775 96.8343 167.775 96.6744C167.775 96.5146 167.646 96.385 167.487 96.385C167.327 96.385 167.198 96.5146 167.198 96.6744C167.198 96.8343 167.327 96.9639 167.487 96.9639Z" fill="white"/>
<path opacity="0.1" d="M164.322 112.434C166.999 112.038 169.43 110.425 171.29 108.424C171.637 108.095 171.906 107.692 172.077 107.243C172.17 106.869 172.202 106.481 172.172 106.096L172.127 104.56C172.108 103.887 172.081 103.189 171.756 102.602C171.432 102.014 170.709 101.591 170.085 101.835C168.445 102.474 167.379 103.934 166.441 105.428C166.173 105.893 165.881 106.345 165.565 106.779C165.406 106.981 165.19 107.188 164.929 107.16C164.874 107.155 164.82 107.141 164.77 107.118C164.51 107.862 164.336 108.633 164.25 109.416C164.147 110.421 164.171 111.435 164.322 112.434Z" fill="black"/>
<path d="M164.083 103.461C164.216 102.886 164.462 102.343 164.808 101.865C165.845 100.237 167.012 98.6472 167.565 96.7935C166.757 96.9403 166.63 98.3364 165.811 98.3982L165.875 97.3915C165.875 97.2212 165.875 97.0148 165.737 96.9254C165.599 96.836 165.353 96.9531 165.262 97.1212C165.171 97.2893 165.152 97.4937 165.067 97.666C164.982 97.8384 164.783 97.9917 164.607 97.9151L164.534 97.5809C164.459 97.565 164.38 97.5666 164.306 97.5856C164.231 97.6046 164.161 97.6405 164.102 97.6906C164.043 97.7406 163.996 97.8035 163.965 97.8745C163.933 97.9455 163.919 98.0227 163.922 98.1002C163.864 97.9397 163.833 97.7707 163.83 97.6001C163.468 97.532 163.205 97.9342 163.075 98.2811C162.807 99.062 162.598 99.8625 162.452 100.675L162.119 102.295C162.002 102.855 161.887 103.414 161.811 103.978C161.611 105.476 161.69 106.997 162.044 108.465C162.489 108.218 162.92 107.947 163.336 107.654C163.656 107.382 164.015 107.073 164.136 106.658C164.435 105.611 163.907 104.515 164.083 103.461Z" fill="#A0616A"/>
<path d="M170.085 101.401C170.709 101.157 171.432 101.58 171.756 102.167C172.081 102.755 172.109 103.444 172.128 104.125L172.17 105.666C172.202 106.051 172.17 106.439 172.077 106.813C171.906 107.261 171.638 107.664 171.292 107.995C169.235 110.206 166.484 111.94 163.472 112.087C163.366 112.101 163.259 112.088 163.16 112.049C163.075 111.995 163.002 111.922 162.948 111.836C162.276 110.998 161.565 110.033 161.675 108.965C161.695 108.786 161.888 108.642 161.951 108.476C162.355 107.508 163.096 106.721 164.036 106.262L164.218 106.177C164.289 106.318 164.389 106.441 164.513 106.539C164.637 106.636 164.78 106.704 164.933 106.739C165.188 106.764 165.406 106.56 165.57 106.358C165.885 105.923 166.177 105.471 166.446 105.004C167.379 103.495 168.448 102.042 170.085 101.401Z" fill="#3F3D56"/>
<path d="M169.871 98.2983C169.576 98.145 169.529 97.7513 169.5 97.4193C169.467 97.0327 169.408 96.6487 169.324 96.27C169.233 95.8444 169.082 95.4059 168.721 95.1803C168.595 95.1018 168.45 95.0567 168.302 95.0493C168.153 95.0419 168.005 95.0725 167.871 95.1382C167.737 95.2039 167.623 95.3026 167.537 95.425C167.452 95.5473 167.399 95.6894 167.383 95.838C167.387 95.9089 167.366 95.9791 167.324 96.0359C167.295 96.0627 167.26 96.0811 167.222 96.0891C167.055 96.1274 166.881 96.1019 166.732 96.0177C166.583 95.9334 166.471 95.7965 166.418 95.6337C166.356 95.4208 166.403 95.1463 166.253 94.9718C166.102 94.7973 165.924 94.8015 165.777 94.6866C165.689 94.5986 165.621 94.4916 165.58 94.3737C165.538 94.2557 165.524 94.1299 165.538 94.0055C165.538 93.6884 165.58 93.3096 165.326 93.1138C164.942 92.8137 164.365 93.2904 163.913 93.1138C163.788 93.0527 163.684 92.9554 163.615 92.8343C163.546 92.7132 163.514 92.5741 163.525 92.4349C163.551 92.1563 163.646 91.8886 163.801 91.6559C164.066 91.1996 164.386 90.7772 164.753 90.3981C164.753 90.4918 164.899 90.4811 164.98 90.4301L165.65 90.0214C165.639 90.0554 165.638 90.0919 165.647 90.1263C165.657 90.1608 165.676 90.1917 165.703 90.2151C165.855 90.0669 166.046 89.9638 166.253 89.9171C166.357 89.8977 166.464 89.9201 166.552 89.9794C166.639 90.0387 166.7 90.1303 166.721 90.2343L167.57 89.8661C167.604 89.8423 167.646 89.8316 167.687 89.8359C167.729 89.8402 167.768 89.8592 167.797 89.8895C168.102 90.1023 168.492 90.164 168.857 90.2492C169.222 90.3343 169.61 90.4811 169.805 90.8046C169.875 90.9706 169.964 91.1278 170.07 91.2729C170.164 91.3557 170.273 91.42 170.391 91.4623C170.869 91.6509 171.318 91.9052 171.727 92.2178C172.137 92.5343 172.44 92.9698 172.594 93.465C172.823 94.2929 172.492 95.1676 172.109 95.9316C171.816 96.5155 171.487 97.0806 171.124 97.6236C170.989 97.8364 170.802 98.2387 170.584 98.3621C170.346 98.4284 170.093 98.4057 169.871 98.2983Z" fill="#3F3D56"/>
<path opacity="0.1" d="M163.919 92.2456C164.371 92.4201 164.948 91.9434 165.332 92.2456C165.58 92.4414 165.544 92.8202 165.544 93.1373C165.53 93.2616 165.545 93.3875 165.586 93.5055C165.628 93.6234 165.695 93.7304 165.784 93.8184C165.93 93.9333 166.138 93.961 166.259 94.1036C166.38 94.2462 166.363 94.5441 166.424 94.7655C166.478 94.9282 166.59 95.0652 166.738 95.1494C166.887 95.2337 167.062 95.2592 167.228 95.2209C167.266 95.2129 167.302 95.1945 167.33 95.1677C167.372 95.1109 167.394 95.0407 167.389 94.9698C167.405 94.8212 167.458 94.6791 167.544 94.5567C167.629 94.4344 167.744 94.3357 167.878 94.27C168.011 94.2043 168.159 94.1737 168.308 94.1811C168.457 94.1885 168.601 94.2335 168.728 94.3121C169.088 94.5377 169.239 94.9847 169.33 95.4018C169.414 95.7805 169.473 96.1645 169.506 96.5511C169.536 96.8831 169.582 97.2768 169.877 97.43C170.103 97.5407 170.361 97.5635 170.603 97.4939C170.815 97.3704 171.008 96.9618 171.143 96.7554C171.506 96.2089 171.835 95.6403 172.128 95.0528C172.371 94.5986 172.547 94.111 172.649 93.6056C172.802 94.3888 172.488 95.2017 172.128 95.9232C171.835 96.5071 171.506 97.0722 171.143 97.6152C171.008 97.828 170.821 98.2303 170.603 98.3537C170.361 98.4233 170.103 98.4005 169.877 98.2898C169.582 98.1366 169.536 97.7429 169.506 97.4109C169.473 97.0243 169.414 96.6403 169.33 96.2616C169.239 95.836 169.088 95.3976 168.728 95.172C168.601 95.0934 168.457 95.0483 168.308 95.0409C168.159 95.0335 168.011 95.0641 167.878 95.1298C167.744 95.1955 167.629 95.2942 167.544 95.4166C167.458 95.5389 167.405 95.681 167.389 95.8296C167.394 95.9005 167.372 95.9707 167.33 96.0275C167.302 96.0543 167.266 96.0727 167.228 96.0807C167.062 96.119 166.887 96.0935 166.738 96.0093C166.59 95.925 166.478 95.7881 166.424 95.6253C166.363 95.4124 166.409 95.1379 166.259 94.9634C166.108 94.7889 165.93 94.7931 165.784 94.6782C165.695 94.5902 165.628 94.4832 165.586 94.3653C165.545 94.2473 165.53 94.1215 165.544 93.9972C165.544 93.68 165.587 93.3012 165.332 93.1054C164.948 92.8053 164.371 93.2821 163.919 93.1054C163.794 93.0444 163.69 92.947 163.621 92.8259C163.552 92.7048 163.521 92.5657 163.531 92.4265C163.539 92.2729 163.575 92.1221 163.637 91.9817C163.698 92.0996 163.798 92.1929 163.919 92.2456Z" fill="black"/>
</g>
<defs>
<linearGradient id="paint0_linear" x1="164.668" y1="162.546" x2="164.668" y2="88.8402" gradientUnits="userSpaceOnUse">
<stop stop-color="#808080" stop-opacity="0.25"/>
<stop offset="0.54" stop-color="#808080" stop-opacity="0.12"/>
<stop offset="1" stop-color="#808080" stop-opacity="0.1"/>
</linearGradient>
<clipPath id="clip0">
<rect width="243" height="164" fill="white"/>
</clipPath>
</defs>
</svg>
