<svg width="195" height="172" viewBox="0 0 195 172" fill="none" xmlns="http://www.w3.org/2000/svg">
<path opacity="0.1" d="M158.071 162.775C171.843 162.775 183.006 160.851 183.006 158.478C183.006 156.105 171.843 154.182 158.071 154.182C144.3 154.182 133.136 156.105 133.136 158.478C133.136 160.851 144.3 162.775 158.071 162.775Z" fill="#E1680F"/>
<path opacity="0.1" d="M82.5741 156.892C102.962 156.892 119.49 155.721 119.49 154.276C119.49 152.832 102.962 151.661 82.5741 151.661C62.186 151.661 45.6582 152.832 45.6582 154.276C45.6582 155.721 62.186 156.892 82.5741 156.892Z" fill="#E1680F"/>
<path opacity="0.1" d="M60.3301 6.72511C66.9414 0.823557 77.3198 -0.378182 86.7585 0.0924289C116.425 1.56309 143.204 15.9146 166.369 32.1402C174.759 38.0229 183.01 44.3446 188.453 52.4353C199.535 68.9025 196.248 91.723 180.84 105.28C175.596 109.902 169.243 113.434 162.717 116.571C151.118 122.149 138.596 126.626 125.436 127.899C116.048 128.809 106.542 128.069 97.2082 126.802C71.1322 123.26 45.5364 115.426 24.0874 102.024C14.6781 96.1412 5.80775 88.8384 1.92948 79.3337C-1.94879 69.829 0.534641 57.7738 10.1412 52.1454C14.1264 49.8175 18.8668 48.7671 23.519 47.7796C30.3652 46.3258 37.3226 44.8929 43.5018 41.939C49.8866 38.8842 57.4376 32.9827 56.1791 26.2303C54.8157 18.9799 53.7271 12.6182 60.3301 6.72511Z" fill="#E1680F"/>
<g opacity="0.1">
<path opacity="0.1" d="M85.2948 135.792C86.1002 137.164 87.3629 138.049 88.785 138.049C91.2139 138.049 93.1898 135.471 93.1898 132.288C93.1898 129.105 91.2076 126.548 88.785 126.548C87.6419 126.548 86.5994 127.12 85.8171 128.059C85.5204 128.418 85.2689 128.813 85.0683 129.233L85.0263 129.483C85.0263 129.483 84.0887 130.286 82.8114 129.548V110.888H64.6219C64.4748 110.695 64.3777 110.468 64.3392 110.229C64.3008 109.989 64.3223 109.743 64.4017 109.514C64.5375 109.087 64.8309 108.729 65.2218 108.512C66.5914 107.705 67.4766 106.44 67.4766 105.016C67.4766 102.583 64.9009 100.604 61.7252 100.604C58.5496 100.604 55.9739 102.577 55.9739 105.016C55.9739 106.161 56.5465 107.207 57.4841 107.991C57.8425 108.287 58.2355 108.538 58.6545 108.739L58.6797 108.781C58.9548 109.047 59.1372 109.395 59.2003 109.773C59.2633 110.151 59.2036 110.54 59.03 110.882H50.8267V145.438C50.8267 147.611 51.6885 149.695 53.2226 151.232C54.7567 152.768 56.8374 153.632 59.0069 153.632H82.8177V135.295C83.0117 135.11 83.253 134.983 83.5147 134.927C83.7765 134.872 84.0485 134.89 84.3006 134.979C84.7235 135.113 85.0792 135.404 85.2948 135.792Z" fill="black"/>
<path opacity="0.1" d="M54.6817 110.161H57.5301C56.8376 109.629 56.2754 108.945 55.8862 108.162C55.4969 107.379 55.2909 106.517 55.2837 105.642C55.2837 102.367 58.1363 99.7134 61.6538 99.7134C65.1713 99.7134 68.026 102.367 68.026 105.642C68.0188 106.517 67.8127 107.379 67.4235 108.162C67.0343 108.945 66.4721 109.629 65.7796 110.161H82.8532V91.7509C83.0484 91.5682 83.2896 91.4423 83.5509 91.3868C83.8122 91.3312 84.0837 91.3482 84.3361 91.4357C84.763 91.5708 85.1219 91.8648 85.3387 92.2572C86.1421 93.6291 87.4047 94.5136 88.8289 94.5136C91.2578 94.5136 93.2337 91.9357 93.2337 88.7549C93.2337 85.5741 91.2662 82.9941 88.8289 82.9941C87.6837 82.9941 86.6413 83.5677 85.8589 84.5047C85.5631 84.8646 85.3117 85.259 85.1101 85.6791L85.0702 85.7043C84.7891 85.9983 84.4164 86.1878 84.0135 86.2417C83.6106 86.2955 83.2015 86.2105 82.8532 86.0006V67.3442H65.3412C65.1941 67.1512 65.097 66.9247 65.0585 66.6849C65.0201 66.4452 65.0416 66.1996 65.121 65.9702C65.2559 65.5431 65.5495 65.1843 65.9411 64.968C67.3107 64.1634 68.1938 62.8965 68.1938 61.4721C68.1938 59.0392 65.6202 57.0601 62.4445 57.0601C59.2689 57.0601 56.6932 59.0329 56.6932 61.4721C56.6932 62.6192 57.2658 63.6634 58.2013 64.447C58.5607 64.7433 58.9543 64.9951 59.3738 65.197L59.399 65.237C59.6741 65.5036 59.8565 65.8515 59.9196 66.2296C59.9826 66.6078 59.9229 66.9962 59.7493 67.3379H54.6817V66.3925H58.4236C57.7325 65.8603 57.1713 65.1777 56.7825 64.3962C56.3936 63.6147 56.1874 62.7549 56.1793 61.8818C56.1793 58.6064 59.0319 55.9508 62.5515 55.9508C66.0711 55.9508 68.9216 58.6064 68.9216 61.8818C68.9133 62.7568 68.7058 63.6184 68.3151 64.4012C67.9244 65.1839 67.3607 65.8671 66.6668 66.3988H82.8385V47.7634C83.0331 47.5791 83.2748 47.4522 83.5368 47.3966C83.7988 47.341 84.071 47.3589 84.3235 47.4483C84.7496 47.584 85.1076 47.8779 85.324 48.2697C86.1274 49.6417 87.3922 50.5262 88.8143 50.5262C91.2432 50.5262 93.219 47.9483 93.219 44.7654C93.219 41.5824 91.2516 39.0067 88.8143 39.0067C87.669 39.0067 86.6266 39.5781 85.8442 40.5173C85.5475 40.8765 85.296 41.271 85.0954 41.6917L85.0555 41.9417C85.0555 41.9417 84.118 42.7443 82.8385 42.0068V24.6257H59.0382C56.8687 24.6257 54.788 25.489 53.2539 27.0256C51.7198 28.5622 50.858 30.6463 50.858 32.8194V41.6896H50.7342C50.6068 41.6896 50.4847 41.7403 50.3946 41.8305C50.3045 41.9207 50.2539 42.0431 50.2539 42.1707V46.3726C50.2544 46.5 50.3052 46.6221 50.3952 46.7122C50.4852 46.8023 50.607 46.8532 50.7342 46.8537H50.858V51.1438H50.6965C50.5689 51.1438 50.4465 51.1945 50.3561 51.2846C50.2657 51.3748 50.2146 51.4972 50.214 51.625V59.6484C50.2146 59.7762 50.2657 59.8986 50.3561 59.9888C50.4465 60.0789 50.5689 60.1296 50.6965 60.1296H50.858V63.281H50.7258C50.5984 63.281 50.4763 63.3317 50.3862 63.4219C50.2961 63.5121 50.2455 63.6345 50.2455 63.7621V66.3463H50.1406V71.7919C50.1404 71.8552 50.1526 71.9178 50.1766 71.9763C50.2007 72.0348 50.236 72.088 50.2807 72.1327C50.3254 72.1774 50.3784 72.2129 50.4368 72.237C50.4952 72.261 50.5578 72.2733 50.621 72.273H50.7636V110.161H54.6817Z" fill="black"/>
<path opacity="0.1" d="M116.921 54.3809C116.921 54.2531 116.87 54.1305 116.78 54.04C116.69 53.9494 116.568 53.8983 116.44 53.8977H116.151V53.3704H115.994V32.4134C115.994 31.3787 115.791 30.3541 115.396 29.3981C115 28.4421 114.421 27.5735 113.691 26.8419C112.96 26.1102 112.093 25.5299 111.138 25.1341C110.184 24.7382 109.161 24.5346 108.128 24.5349H84.5312V40.5021C85.0702 39.7856 85.767 39.2033 86.5674 38.8007C87.3678 38.398 88.2501 38.1858 89.1457 38.1805C92.4409 38.1805 95.1131 41.0399 95.1131 44.5653C95.1131 48.0907 92.4409 50.9501 89.1457 50.9501C88.25 50.9451 87.3676 50.733 86.5672 50.3304C85.7668 49.9277 85.07 49.3453 84.5312 48.6285V66.3458H103.618C102.927 65.8114 102.366 65.1265 101.977 64.3428C101.589 63.5592 101.383 62.6973 101.376 61.8225C101.376 58.5429 104.223 55.8852 107.736 55.8852C109.297 55.8765 110.811 56.4229 112.008 57.4273C112.666 57.9532 113.196 58.6204 113.561 59.3797C113.925 60.1389 114.115 60.9705 114.115 61.813C114.115 62.6555 113.925 63.4871 113.561 64.2463C113.196 65.0056 112.666 65.6728 112.008 66.1987V66.3395H116.151V66.3248H116.921V54.3809Z" fill="black"/>
<path opacity="0.1" d="M110.584 109.218V107.117C110.671 106.99 110.75 106.859 110.821 106.724C111.102 106.212 111.251 105.638 111.253 105.054C111.253 104.664 111.186 104.278 111.056 103.911C110.942 103.584 110.783 103.274 110.584 102.991C109.617 101.598 107.706 100.648 105.504 100.648C102.326 100.648 99.7527 102.621 99.7527 105.06C99.7527 106.207 100.325 107.251 101.261 108.035C101.62 108.331 102.014 108.583 102.433 108.785L102.459 108.825C102.733 109.092 102.916 109.44 102.979 109.818C103.042 110.196 102.982 110.584 102.809 110.926H84.3047V128.153C84.8361 127.441 85.5248 126.862 86.317 126.461C87.1092 126.06 87.9834 125.848 88.8709 125.842C92.1409 125.842 94.7901 128.7 94.7901 132.223C94.7901 135.746 92.1409 138.606 88.8709 138.606C87.9834 138.6 87.1092 138.388 86.317 137.987C85.5248 137.586 84.8361 137.007 84.3047 136.295V150.201H105.538C106.874 150.201 108.156 149.67 109.102 148.725C110.048 147.779 110.581 146.497 110.584 145.159V110.932V145.135C110.584 146.476 110.053 147.762 109.106 148.71C108.16 149.658 106.876 150.19 105.538 150.19H84.3047V153.552H106.328C108.498 153.552 110.579 152.689 112.113 151.152C113.647 149.615 114.509 147.531 114.509 145.358V110.932V110.029H110.584V109.218Z" fill="black"/>
</g>
<path d="M60.0076 149.419C58.6692 149.419 57.3856 148.886 56.4391 147.938C55.4927 146.991 54.961 145.705 54.961 144.364V110.047H51.0366V144.597C51.0366 146.77 51.8985 148.855 53.4326 150.391C54.9666 151.928 57.0473 152.791 59.2169 152.791H83.0276V149.43L60.0076 149.419Z" fill="#3A3768"/>
<path d="M84.4958 134.139C84.9224 134.273 85.2808 134.568 85.4963 134.96C86.3017 136.332 87.5644 137.217 88.9865 137.217C91.4154 137.217 93.3913 134.639 93.3913 131.456C93.3913 128.273 91.4175 125.708 88.9949 125.708C87.8518 125.708 86.8093 126.279 86.0269 127.218C85.7303 127.578 85.4788 127.972 85.2781 128.393L85.2362 128.643C85.2362 128.643 84.2986 129.445 83.0212 128.708V110.047H64.8318C64.6846 109.854 64.5875 109.628 64.5491 109.388C64.5107 109.148 64.5321 108.903 64.6115 108.673C64.7474 108.247 65.0407 107.888 65.4316 107.671C66.8013 106.864 67.6864 105.6 67.6864 104.175C67.6864 101.742 65.1107 99.7632 61.9351 99.7632C58.7595 99.7632 56.1838 101.736 56.1838 104.175C56.1838 105.32 56.7564 106.366 57.694 107.15C58.0523 107.446 58.4453 107.697 58.8644 107.898L58.8895 107.94C59.1646 108.207 59.3471 108.555 59.4101 108.933C59.4732 109.311 59.4135 109.699 59.2398 110.041H54.9609V144.364C54.9609 145.705 55.4926 146.99 56.439 147.938C57.3855 148.886 58.6691 149.419 60.0075 149.419H83.0275V134.454C83.2202 134.272 83.4589 134.147 83.7177 134.091C83.9766 134.036 84.2456 134.052 84.4958 134.139Z" fill="#E1680F"/>
<path d="M50.9672 65.4885H50.3442V66.5054H50.9672V65.4885Z" fill="#3A3768"/>
<path d="M54.8915 65.4885H51.4873V66.5054H54.8915V65.4885Z" fill="#3A3768"/>
<path d="M51.487 65.4885H50.9668V66.5054H51.487V65.4885Z" fill="#3A3768"/>
<path d="M50.8245 71.4152H50.9671V66.5032H50.3379V70.9341C50.3376 70.9978 50.35 71.0611 50.3745 71.12C50.3989 71.1789 50.4348 71.2323 50.4802 71.2771C50.5255 71.322 50.5793 71.3572 50.6384 71.381C50.6976 71.4047 50.7608 71.4163 50.8245 71.4152Z" fill="#3A3768"/>
<path d="M54.8912 66.5032H51.487V70.9341C51.487 70.9974 51.4745 71.0602 51.4502 71.1187C51.4259 71.1772 51.3904 71.2303 51.3456 71.275C51.3007 71.3197 51.2475 71.3551 51.189 71.3792C51.1305 71.4032 51.0678 71.4155 51.0046 71.4152H50.9668V109.32H54.8912V66.5032Z" fill="#3A3768"/>
<path d="M50.9668 71.4152H51.0046C51.0678 71.4155 51.1305 71.4032 51.189 71.3792C51.2475 71.3551 51.3007 71.3197 51.3456 71.275C51.3904 71.2303 51.426 71.1772 51.4502 71.1187C51.4745 71.0602 51.487 70.9974 51.487 70.9341V66.5032H50.9668V71.4152Z" fill="#3A3768"/>
<path d="M55.4931 104.793C55.4931 101.517 58.3457 98.8639 61.8632 98.8639C65.3807 98.8639 68.2354 101.517 68.2354 104.793C68.2295 105.669 68.024 106.532 67.6348 107.317C67.2455 108.101 66.6826 108.787 65.989 109.32H83.0626V90.9098C83.2578 90.7271 83.499 90.6012 83.7603 90.5457C84.0216 90.4901 84.2931 90.5071 84.5455 90.5946C84.9725 90.7297 85.3313 91.0237 85.5481 91.4161C86.3515 92.788 87.6142 93.6725 89.0383 93.6725C91.4673 93.6725 93.4431 91.0946 93.4431 87.9138C93.4431 84.733 91.4756 82.153 89.0383 82.153C87.8931 82.153 86.8507 82.7266 86.0683 83.6636C85.7725 84.0236 85.5211 84.4179 85.3195 84.838L85.2796 84.8633C84.9985 85.1573 84.6258 85.3467 84.2229 85.4006C83.82 85.4544 83.4109 85.3694 83.0626 85.1595V66.5031H65.5506C65.4035 66.3101 65.3064 66.0836 65.268 65.8438C65.2295 65.6041 65.251 65.3585 65.3304 65.1291C65.4653 64.702 65.7589 64.3432 66.1505 64.1269C67.5201 63.3223 68.4032 62.0554 68.4032 60.631C68.4032 58.1981 65.8296 56.219 62.6539 56.219C59.4783 56.219 56.9026 58.1918 56.9026 60.631C56.9026 61.7781 57.4752 62.8223 58.4107 63.6059C58.7701 63.9022 59.1637 64.154 59.5832 64.3559L59.6084 64.3959C59.8835 64.6625 60.0659 65.0104 60.129 65.3886C60.192 65.7667 60.1323 66.1551 59.9587 66.4968H54.8911V109.32H57.7395C57.0459 108.787 56.483 108.101 56.0937 107.317C55.7044 106.532 55.499 105.669 55.4931 104.793Z" fill="#E1680F"/>
<path d="M51.5919 62.8349C51.5919 62.7715 51.5795 62.7088 51.5552 62.6503C51.5309 62.5918 51.4953 62.5386 51.4505 62.4939C51.4057 62.4492 51.3525 62.4138 51.294 62.3898C51.2355 62.3657 51.1728 62.3535 51.1095 62.3538H51.0718V65.4883H51.5919V62.8349Z" fill="#3A3768"/>
<path d="M51.053 40.8445H50.9481C50.885 40.8445 50.8226 40.8569 50.7643 40.8811C50.706 40.9053 50.6531 40.9407 50.6085 40.9854C50.5639 41.0301 50.5285 41.0831 50.5043 41.1415C50.4802 41.1999 50.4678 41.2624 50.4678 41.3256V45.5275C50.4683 45.6549 50.5191 45.777 50.6091 45.8671C50.699 45.9572 50.8209 46.008 50.9481 46.0086H51.0718V40.8466L51.053 40.8445Z" fill="#3A3768"/>
<path d="M50.9107 50.2944C50.7831 50.2944 50.6607 50.3451 50.5703 50.4352C50.4798 50.5254 50.4288 50.6478 50.4282 50.7756V58.799C50.4288 58.9268 50.4798 59.0492 50.5703 59.1394C50.6607 59.2295 50.7831 59.2802 50.9107 59.2802H51.0722V50.2944H50.9107Z" fill="#3A3768"/>
<path d="M51.0722 62.4231H50.9359C50.8085 62.4231 50.6863 62.4738 50.5963 62.564C50.5062 62.6542 50.4556 62.7766 50.4556 62.9042V65.5577H51.0848L51.0722 62.4231Z" fill="#3A3768"/>
<path d="M51.0721 31.9765V40.8467C51.196 40.851 51.3133 40.9034 51.3994 40.9928C51.4855 41.0821 51.5336 41.2015 51.5335 41.3257V45.5276C51.5331 45.6516 51.4848 45.7707 51.3988 45.8599C51.3129 45.9492 51.1958 46.0017 51.0721 46.0066V50.2967H51.1455C51.2086 50.2967 51.271 50.3092 51.3293 50.3333C51.3876 50.3575 51.4405 50.393 51.4851 50.4376C51.5297 50.4823 51.5651 50.5353 51.5892 50.5937C51.6134 50.6521 51.6258 50.7147 51.6258 50.7778V58.8013C51.6258 58.9289 51.5752 59.0513 51.4851 59.1415C51.395 59.2318 51.2729 59.2824 51.1455 59.2824H51.0679V62.4339H51.1056C51.2332 62.4339 51.3556 62.4845 51.446 62.5747C51.5364 62.6648 51.5875 62.7872 51.588 62.915V65.558H54.9923V32.216C54.9923 30.8757 55.5237 29.5903 56.4697 28.6424C57.4156 27.6945 58.6987 27.1617 60.0368 27.1611H66.8767V28.0393C66.8767 29.1431 67.3145 30.2018 68.0937 30.9823C68.8729 31.7628 69.9298 32.2013 71.0318 32.2013H83.0652V29.4533H77.5257C77.3114 29.4522 77.1063 29.3667 76.9544 29.2154C76.8025 29.0641 76.7161 28.859 76.7139 28.6444V28.4679C76.7145 28.2524 76.8002 28.046 76.9523 27.8936C77.1044 27.7412 77.3106 27.6554 77.5257 27.6548H83.0547V23.7849H59.2481C57.0797 23.786 55.0004 24.6495 53.4673 26.1855C51.9341 27.7216 51.0726 29.8045 51.0721 31.9765Z" fill="#3A3768"/>
<path d="M51.5332 45.5254V41.3235C51.5333 41.1993 51.4852 41.08 51.3991 40.9906C51.3131 40.9012 51.1957 40.8488 51.0718 40.8445V46.0023C51.1951 45.9974 51.3119 45.9452 51.3978 45.8564C51.4838 45.7676 51.5323 45.649 51.5332 45.5254Z" fill="#3A3768"/>
<path d="M51.6297 58.7991V50.7756C51.6297 50.7124 51.6173 50.6498 51.5932 50.5914C51.569 50.5331 51.5336 50.48 51.489 50.4354C51.4444 50.3907 51.3915 50.3552 51.3332 50.3311C51.2749 50.3069 51.2125 50.2944 51.1494 50.2944H51.0718V59.2802H51.1452C51.2086 59.2807 51.2715 59.2687 51.3303 59.2448C51.3891 59.2208 51.4425 59.1855 51.4876 59.1407C51.5326 59.096 51.5684 59.0428 51.5928 58.9841C51.6172 58.9255 51.6297 58.8626 51.6297 58.7991Z" fill="#3A3768"/>
<path d="M56.3888 61.0409C56.3888 57.7655 59.2414 55.1099 62.761 55.1099C66.2806 55.1099 69.1311 57.7655 69.1311 61.0409C69.1228 61.916 68.9154 62.7776 68.5246 63.5603C68.1339 64.343 67.5702 65.0262 66.8763 65.5579H83.048V46.9226C83.2426 46.7383 83.4843 46.6113 83.7463 46.5557C84.0083 46.5001 84.2805 46.518 84.533 46.6074C84.9591 46.7431 85.3171 47.0371 85.5335 47.4289C86.3369 48.8008 87.6017 49.6853 89.0238 49.6853C91.4527 49.6853 93.4285 47.1074 93.4285 43.9245C93.4285 40.7416 91.4611 38.1658 89.0238 38.1658C87.8785 38.1658 86.8361 38.7373 86.0537 39.6764C85.757 40.0357 85.5055 40.4301 85.3049 40.8508L85.2651 41.1008C85.2651 41.1008 84.3275 41.9034 83.048 41.166V32.1949H71.021C69.9208 32.1922 68.8666 31.7524 68.0896 30.9722C67.3126 30.192 66.8763 29.135 66.8763 28.033V27.1548H60.0406C59.3775 27.1551 58.721 27.2862 58.1085 27.5408C57.4961 27.7953 56.9397 28.1683 56.4712 28.6383C56.0028 29.1083 55.6314 29.6662 55.3782 30.2801C55.1251 30.894 54.9953 31.5518 54.9961 32.216V65.5579H58.6332C57.9412 65.0251 57.3795 64.3415 56.9906 63.5588C56.6017 62.7762 56.3959 61.9151 56.3888 61.0409Z" fill="#E1680F"/>
<path d="M77.5256 27.6484C77.3105 27.649 77.1043 27.7348 76.9522 27.8872C76.8001 28.0395 76.7144 28.246 76.7139 28.4615V28.6443C76.7144 28.8599 76.8001 29.0666 76.9521 29.2193C77.1042 29.372 77.3103 29.4583 77.5256 29.4594H83.0546V27.6547L77.5256 27.6484Z" fill="#E6E8EC"/>
<path d="M114.945 53.0319V65.5031H116.361V52.5298H115.595C115.236 52.5298 114.945 52.7546 114.945 53.0319Z" fill="#3A3768"/>
<path d="M86.4192 23.6943H84.7412V27.476H86.4192V23.6943Z" fill="#3A3768"/>
<path d="M86.4192 29.3669H84.7412V32.0982H86.4192V29.3669Z" fill="#3A3768"/>
<path d="M86.4192 27.4761H84.7412V29.3669H86.4192V27.4761Z" fill="#E6E8EC"/>
<path d="M116.65 53.0571H116.256V65.4884H117.131V53.5403C117.131 53.4125 117.08 53.29 116.99 53.1994C116.9 53.1088 116.778 53.0577 116.65 53.0571Z" fill="#3A3768"/>
<path d="M86.4171 27.476C86.8639 27.5769 87.2561 28.392 87.2561 28.392V28.5685C87.2561 28.5685 86.8618 29.3816 86.4171 29.3669V32.0981H95.8957C96.9979 32.0975 98.0548 31.6586 98.834 30.8777C99.6131 30.0969 100.051 29.0381 100.051 27.934V27.0558H107.182C108.518 27.0586 109.799 27.5922 110.743 28.5395C111.686 29.4868 112.216 30.7704 112.216 32.1086V56.5867C112.873 57.1126 113.404 57.7799 113.769 58.5391C114.133 59.2983 114.322 60.1299 114.322 60.9724C114.322 61.8149 114.133 62.6465 113.769 63.4058C113.404 64.165 112.873 64.8322 112.216 65.3581V65.4989H115.153V53.1685C115.153 53.1603 115.154 53.1522 115.158 53.1446C115.161 53.1371 115.165 53.1303 115.171 53.1246C115.177 53.1189 115.184 53.1145 115.192 53.1116C115.199 53.1086 115.208 53.1073 115.216 53.1075H116.202V31.5729C116.202 30.5382 115.999 29.5136 115.603 28.5576C115.208 27.6016 114.629 26.7329 113.898 26.0013C113.168 25.2696 112.301 24.6893 111.346 24.2935C110.392 23.8977 109.369 23.6941 108.336 23.6943H86.2095V27.476H86.4171ZM89.5927 27.4571C89.7948 27.4571 89.9923 27.5171 90.1602 27.6296C90.3282 27.742 90.4592 27.9018 90.5365 28.0887C90.6138 28.2757 90.634 28.4814 90.5946 28.6799C90.5552 28.8784 90.4579 29.0607 90.315 29.2038C90.1722 29.3469 89.9902 29.4443 89.792 29.4838C89.5939 29.5233 89.3885 29.503 89.2018 29.4256C89.0152 29.3481 88.8556 29.217 88.7434 29.0487C88.6312 28.8805 88.5713 28.6826 88.5713 28.4803C88.5713 28.2089 88.6789 27.9487 88.8704 27.7568C89.062 27.5649 89.3218 27.4571 89.5927 27.4571Z" fill="#3A3768"/>
<path d="M89.345 37.3379C92.6401 37.3379 95.3123 40.1973 95.3123 43.7227C95.3123 47.2481 92.6401 50.1075 89.345 50.1075C88.4493 50.1025 87.5668 49.8904 86.7664 49.4877C85.966 49.0851 85.2692 48.5026 84.7305 47.7859V65.5032H103.818C103.126 64.9688 102.565 64.2838 102.176 63.5002C101.788 62.7166 101.582 61.8547 101.575 60.9798C101.575 57.7003 104.422 55.0426 107.935 55.0426C109.5 55.032 111.019 55.5793 112.218 56.5868V32.1087C112.218 30.7704 111.688 29.4868 110.744 28.5395C109.801 27.5923 108.52 27.0587 107.184 27.0559H100.053V27.9341C100.053 29.0381 99.615 30.0969 98.8358 30.8778C98.0566 31.6587 96.9997 32.0976 95.8975 32.0982H84.741V39.6616C85.2787 38.9461 85.9737 38.3643 86.7721 37.9613C87.5705 37.5584 88.4509 37.345 89.345 37.3379Z" fill="#E1680F"/>
<path d="M86.4168 29.3669C86.6322 29.3672 86.8395 29.2844 86.9957 29.1358C87.1519 28.9872 87.245 28.7841 87.2558 28.5686V28.3921C87.2315 28.1698 87.137 27.9612 86.9861 27.7964C86.8352 27.6317 86.6357 27.5195 86.4168 27.4761H86.207V29.3669H86.4168Z" fill="#E6E8EC"/>
<path d="M89.756 29.4858C90.3129 29.3953 90.691 28.8697 90.6006 28.312C90.5102 27.7542 89.9855 27.3754 89.4287 27.4659C88.8718 27.5565 88.4937 28.082 88.5841 28.6398C88.6745 29.1976 89.1992 29.5764 89.756 29.4858Z" fill="#E6E8EC"/>
<path d="M110.794 108.377V106.276C111.229 105.676 111.463 104.954 111.463 104.213C111.463 103.472 111.229 102.75 110.794 102.15V108.377Z" fill="#3A3768"/>
<path d="M114.718 109.188H110.794V110.092H114.718V109.188Z" fill="#3A3768"/>
<path d="M109.21 107.713C108.819 107.93 108.526 108.289 108.39 108.715C108.31 108.945 108.289 109.191 108.327 109.431C108.366 109.671 108.463 109.898 108.61 110.091H110.794V109.188H109.955C110.259 108.944 110.54 108.673 110.794 108.377V106.276C110.376 106.865 109.836 107.355 109.21 107.713Z" fill="#E1680F"/>
<path d="M109.951 109.188H110.79V108.377C110.536 108.673 110.255 108.944 109.951 109.188Z" fill="#E1680F"/>
<path d="M111.463 104.217C111.458 103.477 111.224 102.756 110.794 102.154V106.278C111.223 105.676 111.457 104.957 111.463 104.217Z" fill="#3A3768"/>
<path d="M114.718 110.092V144.528C114.718 146.701 113.856 148.785 112.322 150.322C110.788 151.859 108.707 152.722 106.538 152.722H84.5142V149.36H105.747C107.086 149.36 108.369 148.828 109.316 147.88C110.262 146.932 110.794 145.646 110.794 144.305V110.092H114.718Z" fill="#3A3768"/>
<path d="M108.39 108.715C108.525 108.289 108.819 107.93 109.21 107.713C109.836 107.356 110.376 106.866 110.794 106.278V102.154C109.827 100.761 107.916 99.8115 105.714 99.8115C102.536 99.8115 99.9622 101.784 99.9622 104.224C99.9622 105.371 100.535 106.415 101.47 107.198C101.83 107.495 102.223 107.747 102.643 107.948L102.668 107.988C102.943 108.255 103.125 108.603 103.188 108.981C103.251 109.359 103.192 109.748 103.018 110.089H84.5142V127.317C85.0455 126.605 85.7343 126.026 86.5265 125.625C87.3187 125.224 88.1928 125.012 89.0804 125.006C92.3504 125.006 94.9995 127.863 94.9995 131.387C94.9995 134.91 92.3504 137.769 89.0804 137.769C88.1928 137.763 87.3187 137.551 86.5265 137.151C85.7343 136.75 85.0455 136.17 84.5142 135.458V149.364H105.747C107.083 149.364 108.365 148.834 109.311 147.888C110.257 146.943 110.79 145.661 110.794 144.322V110.091H108.616C108.468 109.899 108.37 109.672 108.33 109.432C108.29 109.192 108.311 108.946 108.39 108.715Z" fill="#E1680F"/>
<path d="M148.297 56.5448C149.468 56.0174 150.334 55.1288 150.63 53.99C150.666 53.8519 150.692 53.7115 150.709 53.5699C150.762 53.4387 150.807 53.3048 150.844 53.1686C151.139 52.0257 150.814 50.8428 150.042 49.8323L148.509 55.7149L148.297 56.5448Z" fill="url(#paint0_linear)"/>
<path d="M183.69 54.3365C183.451 52.931 179.021 49.8867 179.021 49.8867C179.021 49.8867 177.064 48.8362 176.028 47.6219C175.365 46.8488 175.158 46.8572 175.095 46.9622C175.052 46.9348 175.003 46.9182 174.952 46.9139C174.91 46.8845 174.87 46.8572 174.832 46.8257C174.839 46.7663 174.826 46.7066 174.796 46.6549C174.766 46.6032 174.721 46.5623 174.667 46.5378C174.616 46.5084 174.566 46.4706 174.516 46.4349C174.18 45.8697 174.061 45.0693 174.021 44.3717C173.97 43.4915 172.972 43.7121 172.63 43.8108C172.395 43.3696 172.167 42.9116 171.95 42.4536C172.046 42.3049 172.125 42.1464 172.188 41.9809C172.804 40.6384 172.67 39.0984 172.938 37.6781C173.131 36.6508 173.534 35.5772 173.454 34.5772C173.454 34.554 173.454 34.5288 173.454 34.5036C173.454 34.5036 173.454 34.5141 173.454 34.5183C173.433 34.2678 173.375 34.0216 173.285 33.7872C173.106 33.3376 172.796 32.9468 172.655 32.4825C172.431 31.8039 172.573 31.056 172.387 30.369C172.154 29.4992 171.42 28.8269 170.589 28.4424C169.759 28.0579 168.834 27.9256 167.923 27.8121C165.648 27.5264 163.229 27.3562 161.153 28.3142C160.962 28.4272 160.745 28.4861 160.523 28.4844C160.318 28.4278 160.124 28.3376 159.949 28.2176C159.391 27.9403 158.69 28.1168 158.191 28.4865C157.692 28.8563 157.352 29.3899 157.023 29.9068C156.693 30.4236 156.333 30.9572 155.817 31.2955C155.21 31.701 154.409 31.8375 153.929 32.3838C153.715 32.6427 153.579 32.9577 153.539 33.2914C153.539 33.2914 153.539 33.2809 153.539 33.2767C153.537 33.3166 153.537 33.3565 153.539 33.3964C153.539 33.4279 153.539 33.4616 153.539 33.4931C153.539 33.5246 153.539 33.5456 153.539 33.5708C153.539 33.6611 153.539 33.7494 153.539 33.8376C153.606 34.3509 153.742 34.8526 153.943 35.3293C154.04 35.685 154.23 36.0084 154.493 36.2663C155.223 36.8609 156.381 36.2999 157.262 36.6319C157.339 36.6592 157.413 36.6949 157.486 36.7285C157.486 36.7621 157.463 36.7957 157.453 36.8315C157.264 37.4734 157.169 38.1393 157.169 38.8085C157.169 42.754 160.439 45.9517 164.473 45.9517C164.624 45.9517 164.773 45.9517 164.922 45.9348C164.943 46.0126 164.966 46.0924 164.985 46.1681C165.209 47.0399 165.28 47.9442 165.194 48.8405L165.15 48.4497C165.052 48.4027 164.951 48.364 164.846 48.3341C164.554 48.2368 164.248 48.1899 163.94 48.1955C162.948 48.1829 161.455 48.582 159.861 50.5191C159.861 50.5191 157.826 51.6515 157.228 51.9246C157.179 51.9543 157.14 51.9983 157.117 52.0507C157.117 52.0507 154.397 56.1664 154.115 57.7316C153.834 59.2969 153.486 61.0932 153.486 61.0932C153.486 61.0932 152.807 63.1227 152.368 64.0219C151.93 64.9211 151.529 65.7783 151.492 66.169C151.454 66.5598 151.651 67.417 150.812 67.9632C149.973 68.5095 149.763 69.9927 149.763 69.9927C149.763 69.9927 149.344 70.3877 148.75 70.8878H148.729L150.921 62.4693L151.313 62.568C151.407 62.5913 151.506 62.5871 151.597 62.5558C151.689 62.5245 151.769 62.4675 151.829 62.3915C151.87 62.3401 151.899 62.2807 151.915 62.2172L152.358 60.5112L152.536 59.8326L152.572 59.6939L152.83 58.7044L151.957 58.4943L150.936 58.2401L148.05 57.511L148.301 56.5446L148.511 55.7252L149.83 50.6536L150.04 49.8363C149.201 48.748 147.865 47.8635 146.223 47.4538C143.055 46.666 139.989 47.9476 139.372 50.3153C139.336 50.4534 139.308 50.5938 139.29 50.7355C139.237 50.8654 139.193 50.9987 139.158 51.1347C139.051 51.5458 139.023 51.9735 139.074 52.3952C139.083 52.4639 139.093 52.5339 139.106 52.6053C139.232 53.2595 139.506 53.8757 139.909 54.4058C140.192 54.7847 140.521 55.1269 140.889 55.4248L140.903 55.471C141.059 55.7259 141.153 56.0137 141.178 56.3114C141.178 56.3534 141.178 56.3975 141.178 56.4417C141.108 56.5684 141.023 56.6868 140.926 56.7946L121.575 51.9772L121.365 52.7944L117.007 69.5705C117.575 69.133 118.213 68.7955 118.894 68.5725C119.162 68.4838 119.435 68.4136 119.712 68.3624L119.811 68.3456C120.591 68.2187 121.389 68.2516 122.156 68.4422C124.602 69.0515 126.292 71.1378 126.607 73.5917C126.648 73.9016 126.665 74.2141 126.659 74.5266C126.653 74.9253 126.611 75.3226 126.533 75.7136C125.485 78.9028 122.263 80.8294 119.133 80.05C118.256 79.8284 117.442 79.4068 116.755 78.8183C116.067 78.2298 115.524 77.4901 115.169 76.6569L114.959 77.4763L110.462 94.6935L127.601 98.9626L127.786 98.137H127.813C127.305 97.5073 126.937 96.7766 126.733 95.9934C126.529 95.2102 126.494 94.3926 126.63 93.5947C126.63 93.5674 126.647 93.5422 126.657 93.5149C126.678 93.454 126.701 93.3951 126.724 93.3363C126.842 93.0489 126.982 92.7714 127.144 92.5064C127.228 92.3699 127.316 92.2375 127.41 92.1094C127.469 92.0295 127.53 91.9518 127.593 91.8762C127.894 91.5101 128.239 91.1815 128.618 90.8971L128.74 90.8089C128.878 90.7101 129.021 90.6156 129.159 90.5274C129.245 90.4769 129.334 90.4265 129.422 90.3803C130.437 89.8432 131.571 89.5721 132.719 89.5924C133.27 89.5998 133.819 89.6703 134.355 89.8025C136.009 90.2004 137.453 91.206 138.401 92.6199C138.526 92.8095 138.641 93.0058 138.745 93.2082C139.054 93.8084 139.255 94.4584 139.339 95.1284C139.404 95.6633 139.39 96.2049 139.297 96.7356C138.889 97.9106 138.11 98.9204 137.078 99.6118L136.868 100.402H136.891L136.859 100.425L136.65 101.213L140.564 102.188L146.107 80.9576C147.603 80.7832 148.368 80.1172 148.368 80.0205C148.368 79.9239 150.166 78.926 151.162 78.6528C151.657 78.5184 152.23 78.4217 152.685 78.3251C152.148 80.9954 151.636 83.5774 151.682 83.7287C151.697 83.7875 151.794 83.6951 151.94 83.4934C151.926 83.571 151.92 83.6498 151.922 83.7287C151.922 83.7686 151.978 83.7392 152.052 83.6573L152.041 83.7077C152.041 83.7077 148.928 89.7395 148.685 90.4307C148.442 91.1219 148.744 92.8909 149.702 93.4771C149.888 93.5948 150.054 93.7416 150.193 93.912L150.08 94.1368C149.723 94.8616 149.407 95.6684 149.463 96.1705C149.538 96.806 149.39 97.4478 149.044 97.9857C149.044 97.9857 146.348 106.329 146.409 108.73C146.47 111.131 145.451 116.4 145.451 116.4C145.451 116.4 144.343 119.796 145.002 120.762C145.66 121.728 146.409 125.945 146.409 125.945C146.409 125.945 146.919 126.911 146.888 127.731C146.856 128.55 147.368 130.042 147.368 130.042L149.046 136.101C149.046 136.101 148.865 137.712 149.495 138.853C150.124 139.994 150.063 139.643 149.763 141.635C149.463 143.627 150.124 145.469 151.2 146.047C151.619 146.274 151.64 146.62 151.51 146.959C151.236 146.852 151.007 147.421 150.871 147.881L150.732 148.013L150.825 148.036C150.766 148.247 150.732 148.423 150.732 148.423C150.732 148.423 147.919 150.766 147.739 151.614C147.559 152.463 145.583 152.902 145.583 152.902C145.583 152.902 142.59 153.722 141.807 154.131C141.583 154.233 141.39 154.392 141.245 154.591C141.1 154.79 141.009 155.023 140.981 155.268C140.946 155.654 140.983 156.043 141.09 156.415C141.388 157.615 145.579 157.732 147.592 157.411C149.606 157.089 153.757 155.917 153.757 155.917C153.757 155.917 158.128 155.497 159.42 154.98C160.712 154.463 159.689 153.106 159.689 153.106C159.689 153.106 159.689 153.062 159.689 152.98C159.72 152.49 159.81 150.715 159.5 150.249C159.267 149.887 159.273 148.988 159.307 148.417C160.181 146.841 158.304 142.114 158.304 142.114C158.304 142.114 158.663 137.492 158.424 136.815C158.185 136.139 157.165 130.403 157.165 130.403C157.165 130.403 156.536 127.798 156.777 127.359C157.018 126.92 156.626 125.659 156.626 125.659C156.626 125.659 155.601 124.258 155.693 123.817C155.785 123.376 155.393 122.588 155.393 122.588C155.393 122.588 158.447 118.02 158.176 117.172C157.906 116.323 158.298 114.947 158.298 114.947C158.298 114.947 158.682 114.3 159.137 113.524C159.703 112.575 160.395 111.438 160.622 111.083C160.916 110.631 161.622 108.709 162.017 107.602C162.185 107.131 162.298 106.808 162.298 106.808C162.298 106.808 162.776 115.421 163.196 116.293C163.615 117.165 164.244 124.111 164.244 124.111C164.477 124.727 164.579 125.386 164.544 126.044C164.486 127.126 165.503 131.84 165.503 131.84C165.503 131.84 165.952 135.177 165.652 136.055C165.352 136.933 165.593 143.408 165.593 143.408C165.593 143.408 163.946 144.669 163.527 145.633C163.107 146.597 163.586 149.234 163.586 149.234L163.779 149.324C163.624 149.691 163.51 150.072 163.437 150.463C163.378 151.02 162.478 153.539 162.568 153.89C162.659 154.241 162.18 155.325 162.12 155.879C162.059 156.434 161.312 157.255 161.251 157.55C161.157 157.813 161.047 158.07 160.922 158.321C160.759 158.705 160.629 159.103 160.534 159.51C160.234 160.741 163.795 160.945 163.795 160.945C169.064 161.911 170.023 157.959 170.023 157.959C170.023 157.959 170.682 154.446 170.921 154.178C170.95 154.128 170.969 154.072 170.975 154.015C170.982 153.957 170.977 153.899 170.96 153.843C170.824 153.246 170.565 152.683 170.201 152.19C170.033 151.995 170.023 151.493 170.05 151.043C170.203 151.028 170.354 151 170.501 150.959C172.626 150.345 171.76 146.801 171.76 146.801C171.76 146.801 173.196 144.461 173.196 143.553C173.196 142.645 173.706 139.864 173.706 139.864C175.533 136.584 174.814 128.622 175.114 127.977C175.413 127.332 174.484 124.932 173.735 123.848C172.987 122.764 173.287 119.838 173.735 118.989C174.184 118.14 173.287 115.207 173.287 115.207C173.287 115.207 174.155 109.535 174.126 108.648C174.096 107.761 174.874 105.165 174.874 105.165C174.874 105.165 175.653 103.818 175.472 103.408C175.292 102.999 176.07 101.938 175.862 101.475C175.655 101.013 176.041 99.5719 176.431 98.7231C176.63 98.2882 176.878 97.0907 177.06 96.0255C177.081 95.9079 177.102 95.7902 177.121 95.6747C177.993 96.2272 178.799 96.639 179.084 96.5276C179.619 96.3176 178.767 93.5863 178.184 91.8846C178.285 91.8089 178.327 91.7522 178.285 91.727C177.926 91.4917 178.325 90.437 178.325 90.437C180.441 89.1891 179.722 88.252 179.044 87.7058C178.367 87.1595 178.805 85.6049 178.604 84.9746C178.402 84.3443 178.845 81.5017 179.204 79.4323C179.278 78.9826 179.274 78.5235 179.193 78.0751C179.577 77.4889 179.973 76.8754 180.322 76.3082C181.517 74.3564 184.072 65.066 184.072 65.066L184.055 65.0177C184.305 64.524 184.491 64.1227 184.592 63.8559C185.366 61.839 183.929 55.7463 183.69 54.3365ZM165.09 48.9875L165.144 48.9623C165.144 48.977 165.144 48.9917 165.144 49.0064L165.09 48.9875ZM153.476 148.646C153.345 148.647 153.216 148.621 153.096 148.57L153.476 148.646Z" fill="url(#paint1_linear)"/>
<path d="M131.301 80.9346C133.028 81.5901 137.04 81.6616 138.823 81.6616C139.364 81.6616 139.7 81.6616 139.7 81.6616L140.843 79.3295L139.7 77.3861C139.7 77.3861 138.651 77.0962 137.258 76.8441C135.203 76.4743 132.39 76.1844 131.05 77.0164C128.801 78.4093 129.053 80.0795 131.301 80.9346Z" fill="#FEC2BE"/>
<path opacity="0.1" d="M138.82 81.6615C139.362 81.6615 139.697 81.6615 139.697 81.6615L140.84 79.3294L139.699 77.386C139.699 77.386 138.651 77.0961 137.258 76.844C138.388 77.676 141.107 79.487 138.82 81.6615Z" fill="black"/>
<path d="M157.755 53.0404L157.251 52.4563C157.251 52.4563 154.653 56.5741 154.38 58.1288C154.107 59.6835 153.751 61.4693 153.751 61.4693C153.751 61.4693 153.092 63.4905 152.664 64.3834C152.236 65.2763 151.85 66.1313 151.813 66.52C151.775 66.9087 151.968 67.7638 151.152 68.3079C150.336 68.8521 150.145 70.329 150.145 70.329C150.145 70.329 147.196 73.2031 145.644 73.2703C144.092 73.3376 139.632 74.1254 139.788 74.9028C139.943 75.6801 137.927 76.1444 137.111 76.3398C136.295 76.5352 142.355 78.861 138.819 81.8569C138.819 81.8569 141.067 82.3233 141.3 82.8654C141.533 83.4074 143.899 82.5565 143.899 82.5565C143.899 82.5565 144.404 81.3506 146.149 81.2728C147.894 81.1951 148.786 80.4178 148.786 80.3022C148.786 80.1867 150.531 79.2139 151.513 78.9429C152.494 78.6719 153.761 78.5542 153.801 78.2811C153.841 78.008 159.619 53.0299 159.619 53.0299L157.755 53.0404Z" fill="#4C4981"/>
<path opacity="0.05" d="M157.755 53.0404L157.251 52.4563C157.251 52.4563 154.653 56.5741 154.38 58.1288C154.107 59.6835 153.751 61.4693 153.751 61.4693C153.751 61.4693 153.092 63.4905 152.664 64.3834C152.236 65.2763 151.85 66.1313 151.813 66.52C151.775 66.9087 151.968 67.7638 151.152 68.3079C150.336 68.8521 150.145 70.329 150.145 70.329C150.145 70.329 147.196 73.2031 145.644 73.2703C144.092 73.3376 139.632 74.1254 139.788 74.9028C139.943 75.6801 137.927 76.1444 137.111 76.3398C136.295 76.5352 142.355 78.861 138.819 81.8569C138.819 81.8569 141.067 82.3233 141.3 82.8654C141.533 83.4074 143.899 82.5565 143.899 82.5565C143.899 82.5565 144.404 81.3506 146.149 81.2728C147.894 81.1951 148.786 80.4178 148.786 80.3022C148.786 80.1867 150.531 79.2139 151.513 78.9429C152.494 78.6719 153.761 78.5542 153.801 78.2811C153.841 78.008 159.619 53.0299 159.619 53.0299L157.755 53.0404Z" fill="black"/>
<path d="M163.796 160.85C168.916 161.813 169.847 157.878 169.847 157.878C169.847 157.878 170.487 154.382 170.719 154.119C170.748 154.069 170.767 154.014 170.774 153.957C170.781 153.9 170.776 153.842 170.759 153.787C170.625 153.194 170.374 152.634 170.021 152.14C169.702 151.762 169.962 150.188 169.962 150.188L164.028 148.673C164.028 148.673 163.504 149.867 163.447 150.421C163.391 150.976 162.516 153.48 162.608 153.831C162.701 154.182 162.231 155.258 162.172 155.812C162.113 156.367 161.388 157.182 161.333 157.472C161.242 157.735 161.135 157.991 161.012 158.241C160.855 158.624 160.728 159.02 160.635 159.424C160.335 160.647 163.796 160.85 163.796 160.85Z" fill="#CA8496"/>
<path opacity="0.1" d="M163.796 160.85C168.916 161.813 169.847 157.878 169.847 157.878C169.847 157.878 170.487 154.382 170.719 154.119C170.748 154.069 170.767 154.014 170.774 153.957C170.781 153.9 170.776 153.842 170.759 153.787L169.526 157.325C169.526 157.325 168.509 159.451 164.727 159.132C162.575 158.949 161.516 158.55 161.002 158.239C160.844 158.622 160.718 159.018 160.624 159.422C160.335 160.647 163.796 160.85 163.796 160.85Z" fill="black"/>
<path opacity="0.1" d="M167.781 155.314C167.781 155.314 166.501 155.344 166.413 154.295L167.781 155.314Z" fill="black"/>
<path d="M127.979 98.1287L128.791 98.3367L128.612 99.1623L127.859 98.9711L127.979 98.1287Z" fill="#E1680F"/>
<path opacity="0.1" d="M127.979 98.1287L128.791 98.3367L128.612 99.1623L127.859 98.9711L127.979 98.1287Z" fill="black"/>
<path d="M152.07 59.6857L151.819 60.6711L152.667 60.8872L152.917 59.9018L152.07 59.6857Z" fill="#3A3768"/>
<path d="M148.264 58.7145L148.014 59.7L150.825 60.4167L151.075 59.4312L148.264 58.7145Z" fill="#3A3768"/>
<path d="M151.074 59.4335L150.824 60.4189L151.818 60.6724L152.068 59.6869L151.074 59.4335Z" fill="#3A3768"/>
<path d="M148.308 58.5869C148.241 58.6184 148.175 58.652 148.11 58.6793L148.274 58.7213L148.022 59.7067L146.779 59.3894C146.684 59.166 146.647 58.9226 146.669 58.6811C146.691 58.4395 146.773 58.2072 146.906 58.0049C147.143 57.6222 147.519 57.3465 147.955 57.236C148.222 57.1593 148.482 57.0624 148.733 56.946L148.308 58.5869Z" fill="#E1680F"/>
<path d="M151.275 62.8413L151.655 62.94C151.716 62.9557 151.78 62.9592 151.843 62.9502C151.905 62.9412 151.966 62.9199 152.02 62.8874C152.074 62.855 152.122 62.8122 152.16 62.7614C152.197 62.7105 152.225 62.6527 152.24 62.5912L152.664 60.8937L151.825 60.6836L151.275 62.8413Z" fill="#3A3768"/>
<path d="M150.986 54.404C150.697 55.5385 149.856 56.423 148.719 56.9461L150.208 51.0845C150.963 52.0908 151.28 53.2695 150.986 54.404Z" fill="#3A3768"/>
<path d="M150.747 62.7069C150.624 62.6752 150.518 62.596 150.454 62.4865C150.389 62.377 150.37 62.2463 150.401 62.1229L150.833 60.4232L148.022 59.7068L139.45 93.4353C140.073 94.6507 140.232 96.0523 139.895 97.3764C139.559 98.7006 138.751 99.8558 137.623 100.625L137.424 101.411L141.227 102.387L151.276 62.8498L150.747 62.7069Z" fill="#3A3768"/>
<path d="M150.401 62.1228C150.37 62.2462 150.389 62.3769 150.454 62.4864C150.518 62.5959 150.624 62.6751 150.747 62.7068L151.276 62.8413L151.825 60.6773L150.833 60.4231L150.401 62.1228Z" fill="#3A3768"/>
<path d="M146.905 58.005C147.143 57.6234 147.518 57.3481 147.953 57.236C148.219 57.1588 148.478 57.0619 148.729 56.9461L150.221 51.0845C149.287 49.8967 147.979 49.0612 146.51 48.7146C143.433 47.9289 140.451 49.2041 139.853 51.5614C139.57 52.6728 139.868 53.8262 140.583 54.8179C140.857 55.1939 141.176 55.5347 141.533 55.8326L141.548 55.8788C141.75 56.2063 141.841 56.5902 141.809 56.9739C141.776 57.3575 141.622 57.7205 141.367 58.0092L122.561 53.2127L118.318 69.911C119.006 69.3528 119.814 68.9611 120.678 68.7665C121.542 68.5719 122.439 68.5796 123.299 68.7891C126.469 69.598 128.333 73.0225 127.465 76.4366C126.597 79.8506 123.333 81.9662 120.164 81.1679C119.305 80.9412 118.51 80.5184 117.842 79.9327C117.173 79.3469 116.649 78.6141 116.311 77.7917L111.954 94.9269L128.612 99.173C128.072 98.4859 127.695 97.6846 127.511 96.8298C127.326 95.975 127.338 95.0892 127.547 94.2399C128.354 91.0675 131.771 89.1977 135.182 90.0675C136.092 90.2907 136.944 90.7069 137.681 91.2878C138.417 91.8688 139.02 92.601 139.45 93.4353L148.023 59.7068L146.791 59.3895C146.695 59.1673 146.655 58.9246 146.675 58.683C146.694 58.4415 146.773 58.2086 146.905 58.005Z" fill="#E1680F"/>
<path d="M148.272 58.7214L148.308 58.5869C148.243 58.6184 148.177 58.652 148.11 58.6815L148.272 58.7214Z" fill="#E1680F"/>
<g opacity="0.1">
<path opacity="0.1" d="M152.075 59.6921L151.083 59.4378L148.274 58.7214L148.31 58.587L148.729 56.9461C148.478 57.0624 148.218 57.1594 147.951 57.2361C147.515 57.3465 147.139 57.6222 146.903 58.005C146.841 58.1107 146.789 58.2218 146.747 58.3369C146.788 58.2219 146.84 58.1108 146.9 58.005C147.139 57.6234 147.514 57.3481 147.949 57.2361C148.215 57.1588 148.474 57.0619 148.725 56.9461L150.217 51.0845C149.283 49.8967 147.975 49.0612 146.506 48.7146C143.429 47.9289 140.446 49.2041 139.849 51.5614C139.566 52.6728 139.863 53.8262 140.579 54.8179C140.853 55.1939 141.172 55.5347 141.529 55.8326L141.543 55.8788C141.746 56.2063 141.837 56.5902 141.805 56.9739C141.772 57.3575 141.617 57.7205 141.363 58.0092L122.557 53.2127L118.314 69.911C119.002 69.3521 119.811 68.9601 120.675 68.7655C121.54 68.5709 122.438 68.579 123.299 68.7891C126.469 69.598 128.333 73.0225 127.465 76.4366C126.597 79.8506 123.333 81.9663 120.164 81.1679C119.305 80.9412 118.51 80.5184 117.842 79.9327C117.173 79.347 116.649 78.6141 116.311 77.7917L111.954 94.927L128.612 99.173C128.072 98.486 127.695 97.6846 127.511 96.8298C127.326 95.975 127.338 95.0892 127.547 94.24C128.354 91.0675 131.771 89.1977 135.182 90.0675C136.092 90.2908 136.944 90.7069 137.681 91.2878C138.417 91.8688 139.02 92.6011 139.45 93.4353C140.074 94.6506 140.232 96.0523 139.895 97.3764C139.559 98.7005 138.751 99.8558 137.623 100.625L137.424 101.41L141.227 102.387L151.276 62.8498L151.656 62.9485C151.717 62.9643 151.781 62.9677 151.843 62.9587C151.906 62.9497 151.966 62.9284 152.02 62.896C152.075 62.8636 152.122 62.8207 152.16 62.7699C152.198 62.719 152.225 62.6612 152.241 62.5998L152.664 60.8938L152.914 59.9085L152.075 59.6921ZM148.207 58.6416C148.176 58.6563 148.144 58.6731 148.113 58.6857L148.207 58.6416ZM146.781 59.3958L148.025 59.7131L146.781 59.3958Z" fill="black"/>
<path opacity="0.1" d="M150.986 54.404C151.274 53.2695 150.957 52.0929 150.208 51.0845L148.719 56.9461C149.862 56.423 150.703 55.5364 150.986 54.404Z" fill="black"/>
</g>
<path d="M152.275 58.8732L152.025 59.8586L152.873 60.0747L153.123 59.0893L152.275 58.8732Z" fill="#3A3768"/>
<path d="M148.47 57.902L148.22 58.8875L151.031 59.6041L151.281 58.6187L148.47 57.902Z" fill="#3A3768"/>
<path d="M151.28 58.6168L151.03 59.6023L152.024 59.8557L152.274 58.8703L151.28 58.6168Z" fill="#3A3768"/>
<path d="M148.515 57.7717L148.318 57.8663L148.48 57.9062L148.23 58.8978L146.986 58.5806C146.89 58.3576 146.852 58.1141 146.874 57.8724C146.896 57.6306 146.978 57.3981 147.112 57.1961C147.35 56.8141 147.725 56.5386 148.161 56.4271C148.426 56.3504 148.686 56.2535 148.937 56.1372L148.515 57.7717Z" fill="#E1680F"/>
<path d="M151.481 62.0282L151.863 62.1248C151.924 62.1415 151.989 62.1457 152.052 62.1372C152.116 62.1286 152.177 62.1075 152.232 62.075C152.287 62.0425 152.335 61.9993 152.373 61.948C152.411 61.8967 152.439 61.8382 152.454 61.7761L152.886 60.0785L152.047 59.8684L151.481 62.0282Z" fill="#3A3768"/>
<path d="M151.196 53.5909C150.908 54.7233 150.067 55.6078 148.928 56.1309L150.42 50.2693C151.17 51.2756 151.487 52.4543 151.196 53.5909Z" fill="#3A3768"/>
<path d="M150.954 61.8937C150.893 61.878 150.836 61.8504 150.785 61.8124C150.735 61.7745 150.692 61.7269 150.66 61.6725C150.628 61.618 150.607 61.5578 150.598 61.4951C150.589 61.4325 150.593 61.3687 150.608 61.3075L151.028 59.6099L148.23 58.8977L139.659 92.6221C140.284 93.8368 140.443 95.2385 140.107 96.5627C139.77 97.8868 138.961 99.0417 137.833 99.8094L137.633 100.595L141.438 101.566L151.485 62.0281L150.954 61.8937Z" fill="#3A3768"/>
<path d="M150.608 61.3077C150.593 61.3689 150.589 61.4327 150.598 61.4953C150.607 61.5579 150.628 61.6182 150.66 61.6726C150.692 61.7271 150.735 61.7746 150.785 61.8126C150.836 61.8505 150.893 61.8782 150.955 61.8938L151.481 62.0283L152.035 59.8622L151.041 59.6101L150.608 61.3077Z" fill="#3A3768"/>
<path d="M147.112 57.1897C147.349 56.8077 147.725 56.5323 148.16 56.4208C148.426 56.3441 148.686 56.2471 148.937 56.1308L150.426 50.2692C149.493 49.0817 148.186 48.2462 146.717 47.8994C143.638 47.1157 140.658 48.3889 140.058 50.7482C139.777 51.8575 140.073 53.0109 140.79 54.0026C141.064 54.3793 141.383 54.7208 141.74 55.0194L141.755 55.0636C141.956 55.3913 142.047 55.775 142.015 56.1585C141.982 56.542 141.828 56.9049 141.574 57.1939L122.766 52.3996L118.517 69.0958C119.206 68.536 120.015 68.1436 120.881 67.9493C121.747 67.755 122.647 67.7642 123.509 67.976C126.676 68.7827 128.543 72.2073 127.674 75.6234C126.806 79.0395 123.54 81.151 120.362 80.3442C119.505 80.116 118.711 79.6924 118.044 79.1063C117.377 78.5203 116.854 77.7878 116.516 76.9659L112.161 94.1012L128.817 98.3493C128.277 97.6621 127.901 96.8606 127.717 96.0058C127.532 95.151 127.545 94.2654 127.754 93.4163C128.559 90.2417 131.978 88.374 135.389 89.2438C136.301 89.4671 137.154 89.8843 137.891 90.4673C138.628 91.0502 139.231 91.7851 139.659 92.6221L148.23 58.8978L146.986 58.5805C146.89 58.3564 146.851 58.112 146.873 57.8692C146.895 57.6264 146.977 57.3929 147.112 57.1897Z" fill="#E1680F"/>
<path d="M148.48 57.9083L148.513 57.7717C148.448 57.8032 148.383 57.8369 148.318 57.8663L148.48 57.9083Z" fill="#E1680F"/>
<path d="M145.533 120.876C146.162 121.836 146.9 126.033 146.9 126.033C146.9 126.033 147.395 126.994 147.366 127.811C147.337 128.628 147.832 130.122 147.832 130.122L149.461 136.154C149.461 136.154 149.285 137.757 149.898 138.885C150.51 140.013 150.449 139.671 150.16 141.652C149.87 143.633 150.508 145.469 151.555 146.064C152.601 146.658 151.089 148.016 151.089 148.016C151.089 148.016 157.78 149.822 159.177 148.715C160.574 147.608 158.449 142.129 158.449 142.129C158.449 142.129 158.799 137.526 158.567 136.855C158.334 136.185 157.344 130.475 157.344 130.475C157.344 130.475 156.733 127.88 156.966 127.443C157.199 127.006 156.821 125.762 156.821 125.762C156.821 125.762 155.831 124.363 155.919 123.926C156.008 123.489 155.628 122.703 155.628 122.703C155.628 122.703 158.59 118.144 158.327 117.289C158.065 116.434 158.443 115.075 158.443 115.075L159.269 113.659C159.821 112.713 160.488 111.581 160.712 111.228C160.998 110.778 161.685 108.867 162.069 107.764L162.342 106.974C162.342 106.974 162.808 115.541 163.215 116.415C163.621 117.289 164.232 124.189 164.232 124.189C164.458 124.803 164.557 125.457 164.523 126.111C164.465 127.189 165.455 131.88 165.455 131.88C165.455 131.88 165.891 135.202 165.599 136.082C165.308 136.963 165.541 143.398 165.541 143.398C165.541 143.398 163.94 144.658 163.533 145.612C163.126 146.566 163.592 149.184 163.592 149.184C163.592 149.184 168.246 151.516 170.304 150.904C172.362 150.293 171.525 146.766 171.525 146.766C171.525 146.766 172.922 144.436 172.922 143.532C172.922 142.629 173.429 139.87 173.429 139.87C175.204 136.607 174.505 128.683 174.797 128.042C175.088 127.401 174.184 125.01 173.459 123.932C172.733 122.855 173.022 119.941 173.459 119.1C173.895 118.26 173.01 115.338 173.01 115.338C173.01 115.338 173.849 109.684 173.824 108.81C173.799 107.936 174.552 105.343 174.552 105.343C174.552 105.343 175.307 104.003 175.133 103.593C174.958 103.184 175.714 102.137 175.51 101.671C175.307 101.205 175.686 99.7801 176.064 98.9397C176.257 98.5069 176.498 97.3136 176.693 96.2568C176.871 95.2504 177.003 94.3659 177.003 94.3659L172.202 90.4897L160.217 87.3383L155.71 85.8823L151.315 92.8154C151.005 93.321 150.72 93.842 150.462 94.3764C150.116 95.0971 149.807 95.8996 149.862 96.3996C149.935 97.0307 149.792 97.668 149.455 98.2065C149.455 98.2065 146.835 106.509 146.894 108.9C146.953 111.291 145.963 116.533 145.963 116.533C145.963 116.533 144.887 119.911 145.533 120.876Z" fill="#CEDDF9"/>
<path d="M163.248 53.3303C163.432 53.2547 176.087 48.0191 174.344 46.9792C173.31 46.3615 172.036 43.7437 171.164 41.6953C170.556 40.2646 170.142 39.1111 170.142 39.1111C170.142 39.1111 159.986 37.3043 163.621 43.5399C164.194 44.4965 164.626 45.531 164.903 46.6115C165.939 50.8596 163.332 53.2526 163.248 53.3303Z" fill="#FEC2BE"/>
<path opacity="0.1" d="M163.621 43.5399C164.194 44.4965 164.626 45.5311 164.903 46.6115C166.191 46.5217 167.431 46.0811 168.488 45.3372C169.545 44.5934 170.378 43.5746 170.9 42.3907C171 42.1639 171.089 41.9318 171.164 41.6953C170.556 40.2646 170.142 39.1111 170.142 39.1111C170.142 39.1111 159.986 37.3043 163.621 43.5399Z" fill="black"/>
<path d="M157.308 39.2856C157.309 41.0844 157.99 42.816 159.215 44.1313C160.44 45.4466 162.118 46.2478 163.909 46.3732C165.701 46.4987 167.473 45.9391 168.869 44.8073C170.264 43.6755 171.18 42.0557 171.43 40.2745C171.681 38.4933 171.248 36.6833 170.219 35.2093C169.189 33.7353 167.64 32.707 165.884 32.3319C164.128 31.9567 162.295 32.2625 160.754 33.1877C159.214 34.1128 158.082 35.5884 157.585 37.317C157.401 37.957 157.308 38.6197 157.308 39.2856Z" fill="#FEC2BE"/>
<path opacity="0.1" d="M150.462 94.3744C151.204 95.0509 151.49 96.3388 151.49 96.3388C151.49 96.3388 154.982 98.7276 154.749 97.2128C154.516 95.698 156.553 89.578 156.553 89.578L156.32 97.9124C156.32 97.9124 167.489 97.3872 168.305 96.572C169.121 95.7569 173.891 94.1938 173.891 94.1938C173.891 94.1938 175.359 95.3682 176.693 96.259C176.871 95.2526 177.004 94.3681 177.004 94.3681L172.202 90.4919L160.217 87.3405L155.71 85.8845L151.316 92.8176C151.005 93.3219 150.72 93.8415 150.462 94.3744Z" fill="black"/>
<path d="M150.095 93.7167C151.026 94.2986 151.374 95.8722 151.374 95.8722C151.374 95.8722 154.865 98.261 154.632 96.7462C154.399 95.2315 156.436 89.1114 156.436 89.1114L156.203 97.4459C156.203 97.4459 167.374 96.9248 168.186 96.1054C168.998 95.2861 173.771 93.7167 173.771 93.7167C173.771 93.7167 177.903 97.0383 178.659 96.7462C179.414 96.4542 177.32 90.8027 177.32 90.8027L175.17 57.7023C175.17 57.7023 175.751 47.8531 174.879 47.5022C174.744 47.4477 174.62 47.3702 174.512 47.2732C173.937 46.7564 173.765 45.7059 173.715 44.8235C173.658 43.7731 172.261 44.2983 172.261 44.2983L173.075 45.3488L165.866 49.7397L165.803 49.7776C165.522 49.6294 165.233 49.4983 164.937 49.3847C164.308 49.1389 163.45 48.9078 162.894 49.1368C162.583 49.295 162.32 49.5327 162.13 49.8259C161.719 50.4448 161.389 51.1142 161.149 51.8176L158.537 56.2443C158.537 56.2443 157.199 62.1269 157.199 62.3643C157.199 62.6017 156.792 67.9591 156.327 68.5411C155.861 69.123 155.395 72.0371 155.569 72.911C155.743 73.785 155.278 77.0499 155.278 77.0499C153.359 78.6235 152.371 83.983 152.371 83.983C152.371 83.983 149.338 89.9917 149.099 90.685C148.859 91.3783 149.164 93.1431 150.095 93.7167Z" fill="white"/>
<path opacity="0.1" d="M165.866 49.9709C166.573 51.0214 168.616 52.4921 168.616 52.4921L174.512 47.5023C173.937 46.9855 173.765 45.935 173.715 45.0505C173.658 44 172.261 44.5274 172.261 44.5274L172.431 44.7375C172.512 44.8422 172.57 44.9629 172.601 45.0916C172.632 45.2203 172.636 45.3542 172.612 45.4845C172.588 45.6148 172.537 45.7386 172.462 45.8477C172.387 45.9568 172.29 46.0489 172.177 46.1178L165.866 49.9709Z" fill="black"/>
<path d="M165.866 49.7377C166.573 50.7882 168.616 52.2588 168.616 52.2588L174.512 47.2691C173.937 46.7522 173.765 45.7018 173.715 44.8194C173.658 43.7689 172.261 44.2942 172.261 44.2942L172.431 44.5042C172.512 44.6088 172.57 44.7293 172.601 44.8579C172.632 44.9864 172.636 45.1202 172.612 45.2503C172.588 45.3804 172.537 45.504 172.462 45.6129C172.387 45.7219 172.29 45.8137 172.177 45.8825L165.866 49.7377Z" fill="white"/>
<path opacity="0.1" d="M163.139 50.5234C163.901 51.4352 164.981 52.4709 164.93 51.952C164.88 51.4331 165.574 50.2881 166.017 49.7754C165.326 49.556 164.581 49.5767 163.903 49.8343C163.591 49.9918 163.328 50.2297 163.139 50.5234Z" fill="black"/>
<path d="M163.024 50.1725C163.785 51.0864 164.863 52.1201 164.813 51.6032C164.763 51.0864 165.386 50.2439 165.828 49.7313C165.199 49.4855 164.343 49.2544 163.785 49.4855C163.475 49.6424 163.212 49.8796 163.024 50.1725Z" fill="white"/>
<path d="M164.93 55.0217C165.187 55.0217 165.396 54.8129 165.396 54.5553C165.396 54.2977 165.187 54.0889 164.93 54.0889C164.673 54.0889 164.464 54.2977 164.464 54.5553C164.464 54.8129 164.673 55.0217 164.93 55.0217Z" fill="#FF718D"/>
<path d="M161.4 67.6084C161.657 67.6084 161.866 67.3995 161.866 67.1419C161.866 66.8844 161.657 66.6755 161.4 66.6755C161.143 66.6755 160.935 66.8844 160.935 67.1419C160.935 67.3995 161.143 67.6084 161.4 67.6084Z" fill="#FF718D"/>
<path d="M157.407 80.3527C157.664 80.3527 157.872 80.1439 157.872 79.8863C157.872 79.6287 157.664 79.4199 157.407 79.4199C157.149 79.4199 156.941 79.6287 156.941 79.8863C156.941 80.1439 157.149 80.3527 157.407 80.3527Z" fill="#FF718D"/>
<path d="M157.289 94.2209C157.546 94.2209 157.755 94.0121 157.755 93.7545C157.755 93.4969 157.546 93.2881 157.289 93.2881C157.032 93.2881 156.823 93.4969 156.823 93.7545C156.823 94.0121 157.032 94.2209 157.289 94.2209Z" fill="#FF718D"/>
<path d="M162.875 60.965C163.132 60.965 163.34 60.7562 163.34 60.4986C163.34 60.241 163.132 60.0322 162.875 60.0322C162.618 60.0322 162.409 60.241 162.409 60.4986C162.409 60.7562 162.618 60.965 162.875 60.965Z" fill="#FF718D"/>
<path d="M159.733 73.9028C159.99 73.9028 160.198 73.694 160.198 73.4364C160.198 73.1788 159.99 72.97 159.733 72.97C159.476 72.97 159.267 73.1788 159.267 73.4364C159.267 73.694 159.476 73.9028 159.733 73.9028Z" fill="#FF718D"/>
<path d="M156.668 86.6071C156.925 86.6071 157.134 86.3983 157.134 86.1407C157.134 85.8831 156.925 85.6743 156.668 85.6743C156.411 85.6743 156.203 85.8831 156.203 86.1407C156.203 86.3983 156.411 86.6071 156.668 86.6071Z" fill="#FF718D"/>
<path d="M157.367 95.7758C157.624 95.7758 157.832 95.567 157.832 95.3094C157.832 95.0518 157.624 94.843 157.367 94.843C157.109 94.843 156.901 95.0518 156.901 95.3094C156.901 95.567 157.109 95.7758 157.367 95.7758Z" fill="#FF718D"/>
<path opacity="0.1" d="M174.512 47.5526C174.512 47.5526 174.434 46.853 175.441 48.059C176.448 49.2649 178.35 50.3112 178.35 50.3112C178.35 50.3112 182.656 53.3428 182.889 54.74C183.122 56.1371 184.517 62.2004 183.781 64.2194C183.044 66.2384 177.415 75.9154 177.415 75.9154C177.415 75.9154 178.883 77.6655 178.541 79.7244C178.199 81.7833 177.765 84.6196 177.958 85.2415C178.151 85.8634 177.725 87.4159 178.378 87.9601C179.03 88.5042 179.735 89.4307 177.679 90.6787C177.679 90.6787 177.291 91.7292 177.639 91.9624C177.987 92.1956 172.481 94.6033 170.298 93.3217C168.115 92.0401 164.215 81.7833 164.131 79.4912C164.047 77.1991 165.333 69.6168 166.032 67.8352C166.73 66.0536 168.826 59.0931 169.717 57.5405C170.608 55.9879 174.512 47.5526 174.512 47.5526Z" fill="black"/>
<path d="M174.742 47.5526C174.742 47.5526 174.665 46.853 175.674 48.059C176.683 49.2649 178.583 50.3112 178.583 50.3112C178.583 50.3112 182.889 53.3428 183.122 54.74C183.355 56.1371 184.75 62.2004 184.013 64.2194C183.277 66.2384 177.652 75.9154 177.652 75.9154C177.652 75.9154 179.12 77.6655 178.778 79.7244C178.436 81.7833 178.002 84.6196 178.195 85.2415C178.388 85.8634 177.962 87.4159 178.614 87.9601C179.267 88.5042 179.971 89.4307 177.916 90.6787C177.916 90.6787 177.528 91.7292 177.876 91.9624C178.224 92.1956 172.718 94.6033 170.535 93.3217C168.351 92.0401 164.452 81.7833 164.368 79.4912C164.284 77.1991 165.57 69.6168 166.269 67.8352C166.967 66.0536 169.062 59.0931 169.954 57.5405C170.845 55.9879 174.742 47.5526 174.742 47.5526Z" fill="#4C4981"/>
<path opacity="0.1" d="M176.294 54.1665C176.294 54.1665 172.959 57.8579 173.075 60.3055C173.075 60.3055 173.037 56.341 176.294 54.1665Z" fill="black"/>
<path opacity="0.1" d="M171.68 60.2278C171.68 60.3433 169.429 68.7345 169.547 69.785C169.664 70.8354 168.886 73.9406 168.886 73.9406L167.837 73.6696C167.837 73.6696 168.651 69.3564 168.806 67.7639C168.962 66.1714 171.68 60.2278 171.68 60.2278Z" fill="black"/>
<path opacity="0.1" d="M170.787 84.1594C170.864 84.275 176.102 90.2185 174.627 90.6471C173.153 91.0757 170.787 84.1594 170.787 84.1594Z" fill="black"/>
<path opacity="0.1" d="M175.093 82.6384C175.208 82.7162 177.19 86.9117 177.419 85.7898C177.648 84.6679 175.714 88.8593 175.403 85.752L175.093 82.6384Z" fill="black"/>
<path opacity="0.1" d="M165.039 48.8826C165.039 48.8826 162.877 47.5611 160.16 50.9415C160.16 50.9415 158.183 52.0676 157.602 52.3408C157.021 52.6139 156.36 59.839 156.36 59.839C156.36 59.839 155.08 62.9463 155.429 64.7342C155.777 66.5221 154.422 72.659 154.422 72.659C154.422 72.659 152.169 83.6889 152.245 84.0041C152.32 84.3192 154.533 80.5459 154.495 78.6803C154.457 76.8146 156.356 70.9887 156.628 70.6379C156.901 70.287 158.761 60.3054 158.761 60.3054C158.761 60.3054 160.274 56.0699 161.243 54.6707C162.212 53.2715 163.416 50.6306 163.919 50.1642C164.282 49.8501 164.686 49.5884 165.121 49.3868L165.039 48.8826Z" fill="black"/>
<path d="M165.067 48.8826C165.067 48.8826 162.642 47.5611 159.928 50.9415C159.928 50.9415 157.948 52.0676 157.367 52.3408C156.786 52.6139 156.125 59.839 156.125 59.839C156.125 59.839 154.846 62.9463 155.194 64.7342C155.542 66.5221 154.187 72.659 154.187 72.659C154.187 72.659 151.937 83.6931 152.014 84.0041C152.092 84.315 154.303 80.5459 154.265 78.6803C154.227 76.8146 156.125 70.9887 156.398 70.6379C156.671 70.287 158.537 60.3054 158.537 60.3054C158.537 60.3054 160.05 56.0699 161.019 54.6707C161.988 53.2715 163.192 50.6306 163.695 50.1642C164.199 49.6978 165.13 49.3868 165.13 49.3868L165.067 48.8826Z" fill="#4C4981"/>
<path d="M154.42 73.1632C154.42 73.1632 149.805 70.1337 147.574 71.6295C145.342 73.1254 141.701 75.2432 145.285 76.7769C148.87 78.3106 153.837 78.0164 153.837 78.0164L154.42 73.1632Z" fill="#FEC2BE"/>
<path opacity="0.1" d="M157.629 102.4C158.317 103.871 158.887 111.304 159.269 113.659C159.821 112.713 160.488 111.581 160.712 111.228C160.998 110.778 161.686 108.867 162.069 107.764C161.631 106.696 160.421 103.637 160.421 102.511C160.421 101.141 158.21 99.4229 158.21 99.4229C158.21 99.4229 156.815 100.652 157.629 102.4Z" fill="black"/>
<path opacity="0.1" d="M172.465 125.214C172.465 125.214 167.345 123.029 165.832 124.584C164.32 126.139 172.465 125.214 172.465 125.214Z" fill="black"/>
<path opacity="0.1" d="M169.585 126.088C169.585 126.088 174.764 129.002 172.989 129.49C171.215 129.977 169.585 126.088 169.585 126.088Z" fill="black"/>
<path opacity="0.1" d="M154.109 123.554C154.109 123.554 156.32 123.699 155.477 124.136C154.634 124.573 154.109 123.554 154.109 123.554Z" fill="black"/>
<path opacity="0.1" d="M151.345 124.225C151.374 124.37 157.774 126.439 156.523 127.376C155.273 128.313 151.345 124.225 151.345 124.225Z" fill="black"/>
<path opacity="0.1" d="M171.707 142.057C170.749 141.91 165.396 139.433 167.489 141.217C169.583 143.001 171.707 142.057 171.707 142.057Z" fill="black"/>
<path opacity="0.1" d="M169.06 144.009C169.06 144.009 168.594 145.816 166.82 145.583C165.045 145.35 169.06 144.009 169.06 144.009Z" fill="black"/>
<path opacity="0.1" d="M170.545 147.68C170.224 147.593 166.413 145.845 166.327 146.661C166.241 147.476 169.962 148.904 170.254 148.467C170.421 148.236 170.522 147.964 170.545 147.68Z" fill="black"/>
<path opacity="0.1" d="M158.21 145.583C157.744 145.553 153.386 144.154 152.509 145.406L158.21 145.583Z" fill="black"/>
<path opacity="0.1" d="M154.254 146.398C154.254 146.398 153.497 145.728 152.742 146.076C151.987 146.425 154.254 146.398 154.254 146.398Z" fill="black"/>
<path opacity="0.1" d="M163.913 153.625C163.864 153.873 163.744 154.101 163.569 154.282C163.393 154.463 163.169 154.588 162.923 154.644L163.913 153.625Z" fill="black"/>
<path d="M141.715 156.363C142.007 157.558 146.08 157.674 148.029 157.354C149.977 157.035 154.021 155.867 154.021 155.867C154.021 155.867 158.269 155.459 159.519 154.936C160.769 154.413 159.781 153.071 159.781 153.071C159.781 153.071 159.781 153.024 159.781 152.945C159.811 152.457 159.899 150.69 159.599 150.213C159.25 149.659 159.454 147.852 159.454 147.852C159.454 147.852 153.432 149.018 153.315 148.465C153.197 147.913 152.266 147.125 151.832 146.951C151.397 146.776 151.074 148.407 151.074 148.407C151.074 148.407 148.348 150.739 148.165 151.583C147.983 152.428 146.068 152.865 146.068 152.865C146.068 152.865 143.159 153.68 142.401 154.087C142.182 154.191 141.992 154.35 141.852 154.548C141.712 154.746 141.625 154.978 141.6 155.22C141.568 155.605 141.607 155.992 141.715 156.363Z" fill="#CA8496"/>
<path opacity="0.1" d="M141.715 156.363C142.007 157.558 146.08 157.674 148.029 157.354C149.977 157.035 154.021 155.867 154.021 155.867C154.021 155.867 158.269 155.459 159.519 154.936C160.769 154.413 159.781 153.071 159.781 153.071C159.781 153.071 159.781 153.024 159.781 152.945L153.698 154.295C153.698 154.295 150.701 155.577 148.782 155.577C147.104 155.577 143.349 156.264 141.608 155.222C141.574 155.606 141.61 155.992 141.715 156.363Z" fill="black"/>
<path opacity="0.1" d="M149.948 151.76C149.948 151.76 150.239 153.682 151.403 154.323L149.948 151.76Z" fill="black"/>
<path opacity="0.1" d="M157.585 37.317C157.696 37.3757 157.812 37.4242 157.931 37.462C158.476 37.6091 159.009 37.2393 159.494 36.9452C159.978 36.651 160.647 36.4325 161.067 36.8149C161.614 37.3128 161.218 38.3759 161.782 38.857C162.139 39.1617 162.705 39.0566 163.101 39.3066C163.498 39.5566 163.617 40.105 163.718 40.5777C163.819 41.0504 164.02 41.5903 164.482 41.729C164.943 41.8677 165.373 41.563 165.828 41.5798C165.923 41.5798 166.038 41.5945 166.097 41.5273C166.138 41.4658 166.154 41.3903 166.141 41.3172C166.084 40.7526 166.134 40.1823 166.29 39.6365C166.476 39.0986 166.919 38.6133 167.473 38.5272C168.288 38.4011 168.974 39.1175 169.455 39.7877C169.96 40.4974 170.419 41.2385 170.831 42.0063C170.857 42.056 170.88 42.1073 170.9 42.1597C171.294 41.2681 171.501 40.3049 171.507 39.3299C171.514 38.3549 171.32 37.3889 170.938 36.4921C170.556 35.5952 169.994 34.7867 169.287 34.1167C168.58 33.4466 167.743 32.9295 166.827 32.5973C165.912 32.2652 164.939 32.1252 163.967 32.1859C162.995 32.2467 162.047 32.507 161.18 32.9507C160.313 33.3943 159.547 34.0118 158.928 34.7648C158.31 35.5177 157.853 36.39 157.585 37.3275V37.317Z" fill="black"/>
<path d="M169.455 39.67C168.974 38.9935 168.289 38.2792 167.471 38.4094C166.91 38.4956 166.478 38.9809 166.29 39.5166C166.134 40.0624 166.084 40.6329 166.143 41.1974C166.154 41.2707 166.138 41.3458 166.097 41.4075C166.032 41.4768 165.923 41.4663 165.828 41.4621C165.373 41.4453 164.92 41.7415 164.482 41.6113C164.043 41.481 163.819 40.9327 163.718 40.46C163.617 39.9872 163.508 39.4473 163.101 39.1889C162.695 38.9305 162.139 39.0439 161.782 38.7372C161.218 38.2582 161.616 37.193 161.067 36.6951C160.647 36.3148 159.978 36.5333 159.494 36.8274C159.009 37.1216 158.476 37.4892 157.929 37.3422C157.744 37.2917 157.579 37.1867 157.398 37.1174C156.536 36.7875 155.418 37.3464 154.709 36.7539C154.452 36.4961 154.267 36.1751 154.172 35.8232C153.978 35.3472 153.846 34.8479 153.78 34.3378C153.717 33.8222 153.859 33.3025 154.174 32.8903C154.636 32.3461 155.416 32.2096 156.006 31.8083C156.507 31.4637 156.845 30.9406 157.176 30.4259C157.507 29.9111 157.828 29.3754 158.313 29.0119C158.797 28.6485 159.477 28.4678 160.018 28.743C160.189 28.8623 160.378 28.9524 160.578 29.0098C160.796 29.0126 161.011 28.9536 161.197 28.8396C163.215 27.8879 165.564 28.056 167.777 28.3396C168.662 28.4531 169.56 28.5854 170.367 28.9699C171.175 29.3544 171.888 30.0204 172.114 30.886C172.295 31.5709 172.156 32.3167 172.374 32.9869C172.521 33.4449 172.823 33.8273 173.004 34.2874C173.476 35.5164 172.911 36.8652 172.672 38.1594C172.412 39.5734 172.542 41.1007 171.942 42.4411C171.825 42.7038 171.693 43.1639 171.397 42.9916C171.187 42.8634 170.965 42.1176 170.839 41.8844C170.425 41.1174 169.963 40.3778 169.455 39.67Z" fill="#9A5E7F"/>
<path opacity="0.1" d="M182.239 62.4422L183.288 65.4339C183.288 65.4339 180.804 74.678 179.64 76.6214C178.476 78.5648 176.771 81.0502 176.771 81.0502C176.771 81.0502 173.901 82.4893 170.564 81.8275C167.227 81.1657 157.489 79.4199 157.489 79.4199C157.489 79.4199 156.673 79.5753 156.247 78.9534C155.821 78.3316 153.604 78.0164 153.604 78.0164C153.604 78.0164 151.045 74.2873 154.187 72.7326C154.187 72.7326 154.575 73.5876 156.243 73.0057C157.91 72.4237 158.414 73.47 158.414 73.47C158.414 73.47 161.14 74.0141 162.642 73.8209C164.144 73.6276 167.917 73.5477 168.305 73.2368C168.404 73.1504 168.532 73.1062 168.663 73.1137C168.793 73.1212 168.916 73.1797 169.004 73.2767C169.004 73.2767 169.933 72.9279 170.243 72.5771C170.554 72.2262 170.982 72.9658 170.982 72.9658C170.982 72.9658 171.525 72.6548 171.37 72.2662C171.215 71.8775 171.873 70.4026 171.873 70.4026C171.873 70.4026 172.184 69.4299 171.991 68.6525C171.798 67.8752 172.96 65.0809 172.96 65.0809C172.975 64.6095 172.923 64.1383 172.804 63.6817C172.609 62.9842 174.273 61.5808 174.273 61.5808C174.273 61.5808 175.9 53.6539 179.353 56.257C182.805 58.86 182.239 62.4422 182.239 62.4422Z" fill="black"/>
<path d="M182.461 62.4422L183.51 65.4339C183.51 65.4339 181.027 74.678 179.863 76.6214C178.699 78.5648 176.995 81.0502 176.995 81.0502C176.995 81.0502 174.126 82.4893 170.789 81.8275C167.452 81.1657 157.717 79.4199 157.717 79.4199C157.717 79.4199 156.903 79.5753 156.478 78.9534C156.052 78.3316 153.837 78.0164 153.837 78.0164C153.837 78.0164 151.278 74.2873 154.42 72.7326C154.42 72.7326 154.808 73.5876 156.476 73.0057C158.143 72.4237 158.646 73.47 158.646 73.47C158.646 73.47 161.373 74.0141 162.875 73.8209C164.377 73.6276 168.15 73.5477 168.538 73.2368C168.637 73.1504 168.765 73.1062 168.896 73.1137C169.026 73.1212 169.149 73.1797 169.237 73.2767C169.237 73.2767 170.166 72.9279 170.476 72.5771C170.787 72.2262 171.215 72.9658 171.215 72.9658C171.215 72.9658 171.758 72.6548 171.603 72.2662C171.447 71.8775 172.106 70.4026 172.106 70.4026C172.106 70.4026 172.417 69.4299 172.221 68.6525C172.026 67.8752 173.193 65.0809 173.193 65.0809C173.208 64.6095 173.155 64.1383 173.037 63.6817C172.842 62.9842 174.506 61.5808 174.506 61.5808C174.506 61.5808 176.133 53.6539 179.586 56.257C183.038 58.86 182.461 62.4422 182.461 62.4422Z" fill="#4C4981"/>
<path opacity="0.1" d="M157.251 74.9512C157.289 75.2243 158.143 76.3105 157.832 76.5059C157.522 76.7013 157.018 76.5836 157.484 77.2055C157.95 77.8274 157.904 78.7581 157.599 78.6425C157.295 78.527 156.786 77.1277 156.786 76.5836C156.786 76.0395 157.251 74.9512 157.251 74.9512Z" fill="black"/>
<path opacity="0.1" d="M168.771 74.3293C168.771 74.3293 169.004 77.0501 170.913 77.8274C172.821 78.6048 168.771 74.3293 168.771 74.3293Z" fill="black"/>
<path opacity="0.1" d="M172.727 73.3943C172.842 73.4342 175.441 74.8334 174.279 75.6486C173.117 76.4638 172.727 73.3943 172.727 73.3943Z" fill="black"/>
<path opacity="0.1" d="M172.882 71.4553C172.882 71.4553 176.682 72.2327 175.399 72.8924C174.115 73.5521 172.882 71.4553 172.882 71.4553Z" fill="black"/>
<g opacity="0.1">
<path opacity="0.1" d="M166.298 38.8507C166.487 38.3149 166.927 37.8296 167.479 37.7435C168.297 37.6174 168.983 38.3339 169.463 39.0041C169.968 39.7138 170.428 40.4548 170.839 41.2226C170.965 41.4559 171.179 42.1996 171.397 42.3277C171.693 42.5021 171.816 42.042 171.942 41.7794C172.542 40.4432 172.412 38.9116 172.672 37.4977C172.825 36.672 173.108 35.8169 173.171 34.9976C173.262 36.0144 172.863 37.0838 172.672 38.1175C172.412 39.5314 172.542 41.0588 171.942 42.4013C171.825 42.6639 171.693 43.124 171.397 42.9496C171.187 42.8215 170.965 42.0777 170.839 41.8445C170.428 41.0767 169.968 40.3356 169.463 39.6259C168.983 38.9515 168.297 38.2351 167.479 38.3654C166.919 38.4515 166.487 38.9368 166.298 39.4726C166.204 39.7549 166.152 40.0492 166.143 40.3466C166.101 39.8426 166.154 39.3353 166.298 38.8507Z" fill="black"/>
<path opacity="0.1" d="M154.172 35.1572C154.266 35.51 154.452 35.8318 154.709 36.09C155.418 36.6825 156.536 36.1237 157.398 36.4535C157.579 36.5207 157.744 36.6279 157.929 36.6783C158.476 36.8233 159.011 36.4556 159.494 36.1615C159.976 35.8673 160.649 35.6509 161.067 36.0312C161.616 36.5291 161.218 37.5922 161.782 38.0733C162.139 38.378 162.705 38.2834 163.101 38.525C163.498 38.7666 163.617 39.3213 163.718 39.7856C163.819 40.2499 164.018 40.7983 164.481 40.9369C164.945 41.0756 165.373 40.773 165.828 40.7899C165.922 40.7899 166.038 40.8046 166.097 40.7352C166.11 40.7176 166.121 40.6977 166.128 40.6764C166.128 40.834 166.128 40.9894 166.143 41.1449C166.154 41.2183 166.138 41.2932 166.097 41.355C166.032 41.4222 165.922 41.4117 165.828 41.4075C165.373 41.3928 164.92 41.687 164.481 41.5567C164.043 41.4264 163.819 40.8802 163.718 40.4054C163.617 39.9306 163.508 39.3927 163.101 39.1448C162.694 38.8969 162.139 38.9977 161.782 38.6931C161.218 38.212 161.616 37.1468 161.067 36.651C160.647 36.2686 159.978 36.4871 159.494 36.7813C159.009 37.0754 158.476 37.4431 157.929 37.2981C157.744 37.2477 157.579 37.1405 157.398 37.0733C156.536 36.7434 155.418 37.3023 154.709 36.7098C154.452 36.4512 154.267 36.1296 154.172 35.777C153.978 35.3017 153.846 34.8031 153.78 34.2937C153.765 34.1201 153.77 33.9454 153.793 33.7727C153.866 34.2473 153.993 34.7119 154.172 35.1572Z" fill="black"/>
</g>
<path d="M20.9287 152.65C20.9287 152.65 12.0605 152.115 13.1051 158.338C13.1051 158.338 12.8953 159.439 13.8937 159.939C13.8937 159.939 13.9084 159.476 14.804 159.632C15.122 159.685 15.4451 159.701 15.7668 159.68C16.2015 159.65 16.6145 159.479 16.9435 159.193C16.9435 159.193 19.4374 158.161 20.4064 154.079C20.4064 154.079 21.1238 153.19 21.0944 152.961L19.5989 153.592C19.5989 153.592 20.1107 154.674 19.708 155.573C19.708 155.573 19.6597 153.632 19.3724 153.682C19.3136 153.682 18.5942 154.056 18.5942 154.056C18.5942 154.056 19.4751 155.947 18.8039 157.31C18.8039 157.31 19.0557 154.989 18.3131 154.193L17.2644 154.808C17.2644 154.808 18.2922 156.754 17.5958 158.342C17.5958 158.342 17.7741 155.907 17.0421 154.959L16.0877 155.705C16.0877 155.705 17.0546 157.621 16.4652 158.939C16.4652 158.939 16.3876 156.104 15.8821 155.89C15.8821 155.89 15.0431 156.628 14.9194 156.941C14.9194 156.941 15.5801 158.334 15.169 159.069C15.169 159.069 14.9173 157.178 14.7117 157.178C14.7117 157.178 13.8727 158.428 13.793 159.279C13.793 159.279 13.8287 158.004 14.5104 157.05C14.0305 157.141 13.5879 157.371 13.2372 157.712C13.2372 157.712 13.3651 156.827 14.7159 156.749C14.7159 156.749 15.4039 155.8 15.5864 155.743C15.5864 155.743 14.244 155.63 13.4302 155.991C13.4302 155.991 14.1475 155.151 15.8339 155.537L16.7757 154.766C16.7757 154.766 15.0075 154.525 14.2587 154.791C14.2587 154.791 15.1208 154.054 17.0295 154.592L18.0551 153.976C18.0551 153.976 16.5491 153.651 15.6514 153.766C15.6514 153.766 16.5974 153.256 18.3572 153.81L19.0892 153.48C19.0892 153.48 17.9859 153.27 17.6629 153.228C17.3399 153.186 17.321 153.104 17.321 153.104C18.0205 152.987 18.7387 153.067 19.3954 153.335C19.3954 153.335 20.9539 152.747 20.9287 152.65Z" fill="#E1680F"/>
<path opacity="0.1" d="M14.8206 161.544C18.2866 161.544 21.0963 161.068 21.0963 160.481C21.0963 159.893 18.2866 159.417 14.8206 159.417C11.3547 159.417 8.54492 159.893 8.54492 160.481C8.54492 161.068 11.3547 161.544 14.8206 161.544Z" fill="#E1680F"/>
<path d="M37.9311 136.248C37.9311 136.248 32.9307 135.946 33.5263 139.456C33.4963 139.634 33.5231 139.817 33.6029 139.979C33.6828 140.141 33.8116 140.273 33.971 140.358C33.971 140.358 33.971 140.097 34.4849 140.185C34.6644 140.215 34.8466 140.224 35.0281 140.213C35.2728 140.194 35.5051 140.098 35.691 139.937C35.691 139.937 37.0921 139.364 37.6458 137.053C37.6458 137.053 38.0506 136.551 38.0339 136.423L37.1949 136.782C37.1949 136.782 37.4822 137.393 37.2557 137.9C37.2557 137.9 37.2284 136.805 37.0669 136.83C37.0333 136.83 36.6285 137.04 36.6285 137.04C36.6285 137.04 37.1235 138.091 36.7502 138.874C36.7502 138.874 36.8907 137.566 36.4733 137.116L35.8755 137.473C35.8755 137.473 36.4544 138.57 36.0622 139.465C36.0622 139.465 36.1629 138.091 35.7497 137.557L35.2127 137.977C35.2127 137.977 35.756 139.059 35.4225 139.801C35.4225 139.801 35.3784 138.202 35.0932 138.082C34.8894 138.255 34.7071 138.452 34.5499 138.669C34.5499 138.669 34.9233 139.454 34.6925 139.868C34.6925 139.868 34.5499 138.803 34.4346 138.799C34.4346 138.799 33.9647 139.503 33.9165 139.988C33.9382 139.54 34.0771 139.105 34.3192 138.727C34.049 138.78 33.7998 138.91 33.6018 139.101C33.6018 139.101 33.6753 138.601 34.4408 138.559C34.4408 138.559 34.8268 138.024 34.9317 137.992C34.9317 137.992 34.1745 137.927 33.7151 138.131C33.7151 138.131 34.1199 137.66 35.0701 137.874L35.6008 137.439C35.6008 137.439 34.6045 137.303 34.1829 137.454C34.1829 137.454 34.6695 137.034 35.7455 137.341L36.3223 136.996C35.8778 136.898 35.4222 136.858 34.9673 136.879C34.9673 136.879 35.5022 136.589 36.4922 136.902L36.9117 136.717C36.9117 136.717 36.2824 136.593 36.1084 136.574C35.9343 136.555 35.9154 136.505 35.9154 136.505C36.31 136.439 36.7152 136.484 37.0858 136.635C37.0858 136.635 37.9541 136.303 37.9311 136.248Z" fill="#E1680F"/>
<path opacity="0.1" d="M34.4955 141.261C36.4498 141.261 38.034 140.993 38.034 140.662C38.034 140.332 36.4498 140.063 34.4955 140.063C32.5413 140.063 30.957 140.332 30.957 140.662C30.957 140.993 32.5413 141.261 34.4955 141.261Z" fill="#E1680F"/>
<path d="M8.42993 139.295C8.42993 139.295 2.39333 138.929 3.11278 143.167C3.07625 143.382 3.10851 143.603 3.20496 143.798C3.3014 143.993 3.45708 144.153 3.64973 144.255C3.64973 144.255 3.64973 143.94 4.26849 144.045C4.48529 144.081 4.7057 144.092 4.92501 144.076C5.22118 144.057 5.50268 143.94 5.72626 143.744C5.72626 143.744 7.42313 143.043 8.08384 140.265C8.08384 140.265 8.57046 139.66 8.55158 139.505L7.51752 139.942C7.51752 139.942 7.8636 140.677 7.59093 141.288C7.59093 141.288 7.55737 139.969 7.3623 140C7.32245 140 6.83373 140.255 6.83373 140.255C6.83373 140.255 7.43152 141.536 6.98056 142.469C6.98056 142.469 7.15045 140.889 6.64496 140.347L5.92971 140.767C5.92971 140.767 6.62818 142.091 6.15414 143.171C6.15414 143.171 6.2758 141.513 5.77869 140.86L5.12847 141.368C5.12847 141.368 5.78499 142.673 5.38436 143.57C5.38436 143.57 5.33193 141.639 4.98794 141.494C4.98794 141.494 4.41951 141.996 4.33142 142.202C4.33142 142.202 4.78238 143.15 4.50342 143.65C4.50342 143.65 4.33142 142.364 4.19089 142.358C4.19089 142.358 3.62456 143.211 3.56164 143.795C3.58972 143.255 3.7582 142.732 4.05036 142.278C3.72314 142.339 3.42115 142.496 3.18199 142.727C3.18199 142.727 3.27009 142.125 4.19089 142.072C4.19089 142.072 4.65863 141.427 4.78238 141.387C4.78238 141.387 3.86997 141.309 3.31414 141.555C3.31414 141.555 3.80285 140.988 4.95018 141.246L5.59202 140.721C5.59202 140.721 4.38805 140.557 3.87836 140.74C3.87836 140.74 4.46566 140.236 5.76611 140.603L6.46457 140.183C6.46457 140.183 5.4389 139.961 4.82853 140.04C4.82853 140.04 5.47246 139.692 6.67013 140.07L7.16933 139.845C7.16933 139.845 6.41843 139.698 6.19819 139.675C5.97796 139.652 5.96537 139.591 5.96537 139.591C6.44118 139.51 6.93007 139.564 7.37698 139.746C7.37698 139.746 8.44881 139.364 8.42993 139.295Z" fill="#E1680F"/>
<path opacity="0.1" d="M4.2726 145.348C6.63229 145.348 8.5452 145.024 8.5452 144.625C8.5452 144.226 6.63229 143.902 4.2726 143.902C1.91291 143.902 0 144.226 0 144.625C0 145.024 1.91291 145.348 4.2726 145.348Z" fill="#E1680F"/>
<path opacity="0.1" d="M127.469 172C130.935 172 133.745 171.524 133.745 170.937C133.745 170.35 130.935 169.874 127.469 169.874C124.003 169.874 121.193 170.35 121.193 170.937C121.193 171.524 124.003 172 127.469 172Z" fill="#E1680F"/>
<path d="M123.255 166C123.255 166 126.836 165.888 127.914 165.119C128.992 164.35 133.42 163.439 133.688 164.666C133.957 165.893 139.068 170.802 135.027 170.836C130.985 170.87 125.636 170.206 124.558 169.548C123.48 168.891 123.255 166 123.255 166Z" fill="#A8A8A8"/>
<path opacity="0.2" d="M135.097 170.405C131.056 170.439 125.707 169.775 124.631 169.119C123.811 168.617 123.484 166.823 123.372 165.995H123.253C123.253 165.995 123.479 168.886 124.555 169.544C125.631 170.201 130.982 170.863 135.024 170.832C136.19 170.832 136.593 170.412 136.572 169.781C136.413 170.166 135.966 170.399 135.097 170.405Z" fill="black"/>
<defs>
<linearGradient id="paint0_linear" x1="149.625" y1="56.5448" x2="149.625" y2="49.8365" gradientUnits="userSpaceOnUse">
<stop stop-color="#808080" stop-opacity="0.25"/>
<stop offset="0.54" stop-color="#808080" stop-opacity="0.12"/>
<stop offset="1" stop-color="#808080" stop-opacity="0.1"/>
</linearGradient>
<linearGradient id="paint1_linear" x1="62500.7" y1="107828" x2="62500.7" y2="22983.1" gradientUnits="userSpaceOnUse">
<stop stop-color="#808080" stop-opacity="0.25"/>
<stop offset="0.54" stop-color="#808080" stop-opacity="0.12"/>
<stop offset="1" stop-color="#808080" stop-opacity="0.1"/>
</linearGradient>
</defs>
</svg>
