<svg width="227" height="157" viewBox="0 0 227 157" fill="none" xmlns="http://www.w3.org/2000/svg">
<g clip-path="url(#clip0)">
<path opacity="0.1" d="M117.297 26.7822C102.974 29.1877 88.6615 28.1093 74.8907 26.5517C61.1199 24.9941 47.3972 22.9675 33.0524 23.5328C23.831 23.9056 13.5601 25.7278 7.13828 31.0761C0.955249 36.2239 0.00602048 43.1878 0 49.4742C0 54.2051 0.401365 59.0963 3.73872 62.871C6.04857 65.489 9.60266 67.3693 12.2798 69.7848C21.5995 78.1901 18.8019 91.3763 12.7273 102.582C9.87759 107.838 6.38973 113.006 4.45314 118.382C2.51656 123.759 2.26972 129.534 5.76962 133.938C9.23742 138.302 15.9322 140.774 22.9079 142.063C37.0781 144.683 52.8517 143.115 68.1136 140.976C101.899 136.243 135.33 128.792 168.672 121.359C181.01 118.607 193.402 115.842 205.288 111.861C211.889 109.656 218.607 106.884 222.864 102.574C228.266 97.0995 228.391 89.6143 223.155 85.134C214.371 77.6027 194.534 79.2225 187.734 70.6227C183.992 65.8718 185.601 59.4571 188.555 53.8042C194.895 41.6603 207.179 29.6789 205.549 17.5531C204.429 9.22596 196.017 2.31812 184.76 0.513983C172.962 -1.39439 157.825 2.13169 151.046 10.4889C144.084 19.0866 129.944 24.6614 117.297 26.7822Z" fill="#E1680F"/>
<path d="M171.519 21.4672C171.277 22.2449 171.032 23.0227 170.717 23.7785C170.178 25.0918 169.498 26.3427 168.688 27.509C168.162 28.2766 167.596 29.0166 166.994 29.7261C166.239 30.6141 165.399 31.5082 165.132 32.6428C164.977 33.2983 165.029 33.9839 164.963 34.6474C164.897 35.3109 164.682 36.0265 164.138 36.4275C163.751 36.7141 163.255 36.8003 162.78 36.8765C162.439 36.9306 162.013 36.9467 161.834 36.652C161.774 36.5311 161.743 36.3981 161.742 36.2631L161.66 35.2828C161.642 35.0724 161.568 34.7997 161.355 34.7897C161.142 34.7797 161.036 35.0623 160.855 35.1906C160.614 35.359 160.253 35.1906 160.121 34.936C160.011 34.6612 160.003 34.3562 160.099 34.0761C160.245 33.5179 160.508 32.9971 160.871 32.5479C161.233 32.0987 161.687 31.7314 162.202 31.4701C162.559 31.3254 162.902 31.1469 163.225 30.9369C163.554 30.6516 163.826 30.3076 164.028 29.9226C165.89 26.8595 167.763 23.7805 169.075 20.4468C169.335 19.8521 169.511 19.2239 169.597 18.5805C169.661 17.923 169.559 17.2655 169.517 16.606C169.439 15.4257 169.548 14.2405 169.84 13.094C169.904 12.7921 170.018 12.5029 170.177 12.238C170.719 11.4181 171.983 11.2958 172.786 11.8631C173.082 12.0899 173.327 12.3759 173.506 12.7028C173.685 13.0297 173.794 13.3902 173.825 13.7615C173.883 14.425 173.5 15.1146 173.306 15.734C172.71 17.6477 172.115 19.5588 171.519 21.4672Z" fill="#A1616A"/>
<path opacity="0.05" d="M171.519 21.4672C171.277 22.2449 171.032 23.0227 170.717 23.7785C170.178 25.0918 169.498 26.3427 168.688 27.509C168.162 28.2766 167.596 29.0166 166.994 29.7261C166.239 30.6141 165.399 31.5082 165.132 32.6428C164.977 33.2983 165.029 33.9839 164.963 34.6474C164.897 35.3109 164.682 36.0265 164.138 36.4275C163.751 36.7141 163.255 36.8003 162.78 36.8765C162.439 36.9306 162.013 36.9467 161.834 36.652C161.774 36.5311 161.743 36.3981 161.742 36.2631L161.66 35.2828C161.642 35.0724 161.568 34.7997 161.355 34.7897C161.142 34.7797 161.036 35.0623 160.855 35.1906C160.614 35.359 160.253 35.1906 160.121 34.936C160.011 34.6612 160.003 34.3562 160.099 34.0761C160.245 33.5179 160.508 32.9971 160.871 32.5479C161.233 32.0987 161.687 31.7314 162.202 31.4701C162.559 31.3254 162.902 31.1469 163.225 30.9369C163.554 30.6516 163.826 30.3076 164.028 29.9226C165.89 26.8595 167.763 23.7805 169.075 20.4468C169.335 19.8521 169.511 19.2239 169.597 18.5805C169.661 17.923 169.559 17.2655 169.517 16.606C169.439 15.4257 169.548 14.2405 169.84 13.094C169.904 12.7921 170.018 12.5029 170.177 12.238C170.719 11.4181 171.983 11.2958 172.786 11.8631C173.082 12.0899 173.327 12.3759 173.506 12.7028C173.685 13.0297 173.794 13.3902 173.825 13.7615C173.883 14.425 173.5 15.1146 173.306 15.734C172.71 17.6477 172.115 19.5588 171.519 21.4672Z" fill="black"/>
<path d="M183.219 54.2184C182.856 54.3429 182.47 54.3887 182.087 54.3527C182.059 54.04 181.638 53.9698 181.325 53.9858C181.173 53.9809 181.023 54.0154 180.889 54.0861C180.811 54.1362 180.751 54.2104 180.674 54.2605C180.539 54.3357 180.386 54.375 180.231 54.3747L178.601 54.511C177.875 54.5732 177.118 54.6313 176.438 54.3707C176.302 54.3285 176.182 54.2477 176.091 54.1382C175.906 53.8736 176.091 53.4947 176.346 53.3043C176.601 53.1138 176.93 53.0236 177.187 52.8272C177.753 52.3962 177.831 51.5904 178.13 50.9469C178.341 50.5386 178.603 50.1587 178.91 49.8163C179.132 49.5223 179.39 49.2581 179.679 49.0305C180.331 48.5574 181.084 48.5674 181.852 48.4993C182.394 48.4512 182.904 48.4211 183.293 48.9002C183.773 49.5016 183.582 50.7043 183.552 51.4079C183.515 52.352 183.403 53.2916 183.219 54.2184Z" fill="#514E7F"/>
<path opacity="0.05" d="M183.219 54.2184C182.856 54.3429 182.47 54.3887 182.087 54.3527C182.059 54.04 181.638 53.9698 181.325 53.9858C181.173 53.9809 181.023 54.0154 180.889 54.0861C180.811 54.1362 180.751 54.2104 180.674 54.2605C180.539 54.3357 180.386 54.375 180.231 54.3747L178.601 54.511C177.875 54.5732 177.118 54.6313 176.438 54.3707C176.302 54.3285 176.182 54.2477 176.091 54.1382C175.906 53.8736 176.091 53.4947 176.346 53.3043C176.601 53.1138 176.93 53.0236 177.187 52.8272C177.753 52.3962 177.831 51.5904 178.13 50.9469C178.341 50.5386 178.603 50.1587 178.91 49.8163C179.132 49.5223 179.39 49.2581 179.679 49.0305C180.331 48.5574 181.084 48.5674 181.852 48.4993C182.394 48.4512 182.904 48.4211 183.293 48.9002C183.773 49.5016 183.582 50.7043 183.552 51.4079C183.515 52.352 183.403 53.2916 183.219 54.2184Z" fill="black"/>
<path d="M182.561 22.5537C183.059 22.714 183.275 23.3335 183.183 23.8507C183.091 24.3678 182.782 24.8088 182.527 25.2659C181.8 26.5629 181.487 28.0463 180.877 29.3994C180.422 30.4117 179.805 31.3458 179.354 32.3602C178.902 33.3745 178.627 34.5191 178.898 35.5936C179.033 36.1168 179.3 36.5959 179.46 37.1111C179.629 37.6694 179.739 38.2438 179.789 38.825C180.01 40.7991 180.05 42.7893 179.908 44.7706C179.907 45.0122 179.856 45.2509 179.759 45.4722C179.657 45.6727 179.48 45.8731 179.559 46.0736C179.593 46.1558 179.665 46.2159 179.703 46.2961C179.807 46.5206 179.599 46.7592 179.408 46.9196C179.442 46.98 179.488 47.0331 179.542 47.0754C179.597 47.1178 179.66 47.1487 179.727 47.1661C179.59 47.2534 179.485 47.3823 179.427 47.5339C179.368 47.6854 179.361 47.8517 179.404 48.0081C179.575 48.0321 179.585 48.2927 179.478 48.427C179.372 48.5613 179.203 48.6475 179.127 48.8019C179.082 48.9276 179.087 49.0657 179.141 49.188C179.195 49.3102 179.293 49.4073 179.416 49.4594C179.667 49.5567 179.94 49.5776 180.203 49.5195C180.652 49.459 181.097 49.3632 181.531 49.2329C181.675 49.1963 181.811 49.1346 181.933 49.0504C182.151 48.8386 182.281 48.5521 182.296 48.2486C182.395 47.4327 182.426 46.6099 182.386 45.789C182.314 41.8118 182.386 37.8307 182.559 33.8556C182.629 32.2519 183.111 30.6984 183.729 29.223C184.073 28.466 184.455 27.7267 184.873 27.0079C185.764 25.3782 186.548 23.574 186.348 21.7137C186.326 21.5133 186.251 21.2747 186.055 21.2427C185.977 21.2343 185.899 21.2475 185.828 21.2808C185.415 21.473 185.016 21.6933 184.634 21.9403C184.003 22.3089 183.291 22.5194 182.561 22.5537Z" fill="#464353"/>
<path opacity="0.05" d="M182.561 22.5537C183.059 22.714 183.275 23.3335 183.183 23.8507C183.091 24.3678 182.782 24.8088 182.527 25.2659C181.8 26.5629 181.487 28.0463 180.877 29.3994C180.422 30.4117 179.805 31.3458 179.354 32.3602C178.902 33.3745 178.627 34.5191 178.898 35.5936C179.033 36.1168 179.3 36.5959 179.46 37.1111C179.629 37.6694 179.739 38.2438 179.789 38.825C180.01 40.7991 180.05 42.7893 179.908 44.7706C179.907 45.0122 179.856 45.2509 179.759 45.4722C179.657 45.6727 179.48 45.8731 179.559 46.0736C179.593 46.1558 179.665 46.2159 179.703 46.2961C179.807 46.5206 179.599 46.7592 179.408 46.9196C179.442 46.98 179.488 47.0331 179.542 47.0754C179.597 47.1178 179.66 47.1487 179.727 47.1661C179.59 47.2534 179.485 47.3823 179.427 47.5339C179.368 47.6854 179.361 47.8517 179.404 48.0081C179.575 48.0321 179.585 48.2927 179.478 48.427C179.372 48.5613 179.203 48.6475 179.127 48.8019C179.082 48.9276 179.087 49.0657 179.141 49.188C179.195 49.3102 179.293 49.4073 179.416 49.4594C179.667 49.5567 179.94 49.5776 180.203 49.5195C180.652 49.459 181.097 49.3632 181.531 49.2329C181.675 49.1963 181.811 49.1346 181.933 49.0504C182.151 48.8386 182.281 48.5521 182.296 48.2486C182.395 47.4327 182.426 46.6099 182.386 45.789C182.314 41.8118 182.386 37.8307 182.559 33.8556C182.629 32.2519 183.111 30.6984 183.729 29.223C184.073 28.466 184.455 27.7267 184.873 27.0079C185.764 25.3782 186.548 23.574 186.348 21.7137C186.326 21.5133 186.251 21.2747 186.055 21.2427C185.977 21.2343 185.899 21.2475 185.828 21.2808C185.415 21.473 185.016 21.6933 184.634 21.9403C184.003 22.3089 183.291 22.5194 182.561 22.5537Z" fill="black"/>
<path d="M189.29 17.7207C189.549 17.5527 189.848 17.4578 190.157 17.446C190.514 17.4641 190.819 17.6986 191.098 17.9231C191.429 18.1765 191.742 18.4511 192.037 18.745C192.647 19.396 193.072 20.1977 193.268 21.0673C193.464 21.937 193.424 22.8431 193.153 23.6924C192.858 24.5764 192.318 25.3562 191.785 26.1199L190.701 27.6755C189.047 30.0469 187.394 32.4184 185.662 34.7337C185.661 34.7906 185.643 34.8459 185.609 34.8917C185.575 34.9375 185.527 34.9713 185.473 34.9883C185.409 35.0043 185.333 35.0023 185.294 35.0544C185.277 35.0871 185.27 35.1239 185.272 35.1607C185.276 35.3325 185.309 35.5026 185.369 35.6638C185.397 35.716 185.404 35.7769 185.389 35.8342C185.333 35.9645 185.096 35.8923 185.02 36.0126C184.969 36.0928 185.032 36.197 185.098 36.2652C185.164 36.3334 185.246 36.4095 185.234 36.5037C185.222 36.598 185.058 36.7042 185.064 36.8205C185.064 36.8886 185.124 36.9407 185.166 36.9949C185.225 37.0811 185.252 37.1853 185.242 37.2893C185.232 37.3933 185.186 37.4906 185.112 37.5642C184.997 38.6948 185.614 39.7692 185.736 40.8958C185.937 42.6759 185.124 44.4139 185.026 46.2C185.031 46.401 184.993 46.6008 184.913 46.7853C184.747 47.094 184.311 47.2805 184.333 47.6313C184.365 47.7752 184.405 47.9171 184.454 48.0562C184.488 48.2567 184.393 48.4571 184.389 48.6576C184.385 48.8581 184.562 49.1046 184.753 49.0265C184.611 49.4982 184.484 49.9746 184.373 50.4557L180.58 50.7684C180.54 50.4279 180.551 50.0832 180.615 49.7461C180.691 49.3813 180.857 49.0385 180.944 48.6756C181 48.4969 181.015 48.308 180.989 48.1225C180.963 47.937 180.896 47.7596 180.793 47.6032C180.892 47.6048 180.989 47.5713 181.066 47.5085C181.143 47.4458 181.195 47.3579 181.213 47.2604C181.248 47.0655 181.248 46.8659 181.213 46.6711C181.112 45.6828 181.528 44.7086 181.514 43.7163C181.504 42.9345 181.229 42.1848 181.09 41.415C180.793 39.7712 181.102 37.9891 180.37 36.4897C179.926 35.5836 179.312 34.5813 179.81 33.7053C180.055 33.2723 180.488 32.9757 180.771 32.5667C181.001 32.1808 181.174 31.7635 181.285 31.3279C181.869 29.5237 182.814 27.8459 183.643 26.132C183.868 25.7043 184.035 25.2486 184.141 24.7769C184.199 24.36 184.22 23.9386 184.203 23.518C184.204 22.7608 184.251 22.0044 184.343 21.2528C184.362 20.9238 184.456 20.6036 184.618 20.3166C184.782 20.0999 184.987 19.9168 185.22 19.7774C186.464 18.9134 187.953 18.4263 189.29 17.7207Z" fill="#464353"/>
<path d="M184.742 55.6055C184.378 55.73 183.991 55.7757 183.608 55.7398C183.58 55.4291 183.161 55.357 182.848 55.373C182.696 55.3682 182.545 55.4027 182.41 55.4732C182.334 55.5233 182.274 55.5975 182.195 55.6476C182.06 55.723 181.907 55.7623 181.752 55.7619L180.124 55.9002C179.396 55.9603 178.641 56.0185 177.959 55.7579C177.823 55.717 177.703 55.6359 177.614 55.5253C177.427 55.2607 177.614 54.8839 177.869 54.6914C178.124 54.499 178.453 54.4108 178.707 54.2163C179.273 53.7833 179.352 52.9795 179.653 52.334C179.863 51.9261 180.125 51.5468 180.431 51.2054C180.654 50.9117 180.912 50.6471 181.2 50.4176C181.854 49.9445 182.605 49.9546 183.373 49.8884C183.917 49.8383 184.427 49.8082 184.814 50.2893C185.296 50.8907 185.103 52.0935 185.075 52.7971C185.037 53.7405 184.926 54.6795 184.742 55.6055Z" fill="#514E7F"/>
<path d="M167.933 11.1576C170.008 11.1576 171.69 9.47746 171.69 7.40495C171.69 5.33244 170.008 3.65234 167.933 3.65234C165.858 3.65234 164.176 5.33244 164.176 7.40495C164.176 9.47746 165.858 11.1576 167.933 11.1576Z" fill="#A1616A"/>
<path d="M171.475 8.51958C172.015 8.98264 172.788 9.01872 173.494 9.09089C175.005 9.24368 176.475 9.66814 177.835 10.3438C178.024 10.4233 178.195 10.5407 178.337 10.6885C178.459 10.8468 178.546 11.0293 178.592 11.2238C178.72 11.6462 178.768 12.0887 178.734 12.5288C178.685 12.9562 178.562 13.3719 178.371 13.7576C177.849 14.8348 177.044 15.7505 176.043 16.4077C175.866 16.539 175.666 16.635 175.453 16.6903C174.959 16.7925 174.482 16.5079 173.994 16.3796C173.55 16.2638 173.082 16.2791 172.647 16.4237C172.246 16.558 171.806 16.8086 171.409 16.6422C171.155 16.4994 170.957 16.2736 170.849 16.0027C170.465 15.2764 170.123 14.5288 169.824 13.7636C169.717 13.4662 169.593 13.175 169.452 12.8916C169.017 12.0617 168.264 11.4222 167.889 10.5643C167.851 10.4985 167.827 10.4248 167.821 10.3489C167.815 10.2729 167.826 10.1965 167.853 10.1253C167.924 10.0331 168.02 9.96347 168.13 9.9248C168.685 9.60514 169.191 9.20601 169.631 8.74008C169.878 8.50554 170.331 7.86407 170.687 7.80995C171.096 7.73778 171.206 8.28704 171.475 8.51958Z" fill="#A1616A"/>
<path d="M171.389 16.1451C171.824 16.3456 172.336 16.2594 172.81 16.1611C174.026 15.9086 175.256 15.65 176.382 15.1248C176.734 14.9903 177.038 14.7562 177.259 14.4512C177.396 14.1905 177.479 13.9049 177.504 13.6113L177.704 12.2081C177.777 11.721 177.65 11.2699 177.64 10.7768C177.633 10.7221 177.636 10.6665 177.65 10.6132C177.664 10.5598 177.689 10.5098 177.723 10.4661C177.756 10.4376 177.795 10.416 177.837 10.4026C177.879 10.3892 177.923 10.3842 177.967 10.3879C178.533 10.3879 178.874 10.9893 179.27 11.3902C179.499 11.6206 179.772 11.8026 180.072 11.9254C180.432 12.0738 180.875 12.178 181.026 12.5388C181.086 12.6892 181.078 12.8596 181.142 13.0099C181.395 13.6113 182.473 13.4108 182.748 14.0122C182.824 14.1806 182.82 14.3911 182.948 14.5234C183.077 14.6557 183.318 14.6537 183.516 14.6858C184.299 14.8141 184.68 15.7201 185.35 16.1471C185.914 16.5059 186.641 16.4979 187.247 16.7786C187.586 16.9349 187.885 17.1795 188.25 17.2817C188.616 17.3839 189.011 17.3298 189.394 17.3398C189.435 17.336 189.476 17.3406 189.515 17.3534C189.554 17.3661 189.59 17.3868 189.621 17.414C189.645 17.4503 189.66 17.4913 189.667 17.5342C189.673 17.5771 189.671 17.6208 189.659 17.6626C189.473 18.8481 188.981 19.9648 188.231 20.9026C187.482 21.8404 186.501 22.567 185.385 23.0108C185.256 23.0524 185.134 23.1118 185.021 23.1873C184.68 23.4418 184.62 23.9891 184.233 24.1695C184.093 24.2186 183.942 24.2282 183.797 24.197C183.652 24.1659 183.519 24.0953 183.412 23.9931C183.198 23.7876 182.997 23.5693 182.81 23.3396C182.456 22.9706 181.992 22.7265 181.487 22.644C181.022 22.5698 180.5 22.624 180.125 22.3393C179.971 22.1966 179.827 22.0432 179.695 21.8803C179.415 21.62 179.082 21.4219 178.72 21.2989C177.731 20.9088 176.685 20.68 175.623 20.6214C174.636 20.5672 173.617 20.6554 172.683 20.3347C172.44 20.2602 172.216 20.1337 172.027 19.9639C171.825 19.7471 171.676 19.4873 171.59 19.2041C171.249 18.221 171.179 17.1643 171.389 16.1451Z" fill="#E1680F"/>
<path d="M176.229 10.6144C175.953 10.5904 175.676 10.6244 175.397 10.6144C175.07 10.6144 174.746 10.5342 174.419 10.5322C173.901 10.541 173.4 10.7147 172.988 11.028C172.575 11.3413 172.274 11.7779 172.128 12.2742C172.1 12.3535 172.095 12.4389 172.113 12.5208C172.124 12.5612 172.149 12.5964 172.184 12.62C172.219 12.6435 172.26 12.6539 172.302 12.6491C172.411 12.3532 172.553 12.0702 172.724 11.8051C173.036 11.3819 173.48 11.0733 173.986 10.9271C174.49 10.7854 175.022 10.7661 175.535 10.871C175.748 10.9111 175.959 10.9692 176.167 11.0254L177.171 11.302C177.355 11.3521 177.54 11.4022 177.721 11.4684C177.859 11.5205 178.096 11.7109 178.232 11.7189C178.417 11.7189 178.266 11.5586 178.184 11.4503C178.021 11.2273 177.792 11.0611 177.53 10.9752C177.113 10.8028 176.676 10.6817 176.229 10.6144Z" fill="#E1680F"/>
<path d="M173.705 21.8861C173.462 22.6639 173.219 23.4437 172.914 24.1994C172.369 25.5136 171.682 26.7646 170.865 27.93C170.339 28.6976 169.774 29.4376 169.171 30.147C168.417 31.0351 167.566 31.9291 167.309 33.0637C167.154 33.7192 167.207 34.4048 167.142 35.0683C167.078 35.7319 166.859 36.4475 166.318 36.8484C165.928 37.1351 165.433 37.2213 164.957 37.2954C164.618 37.3516 164.192 37.3676 164.014 37.0729C163.953 36.9522 163.921 36.8192 163.919 36.684L163.839 35.7038C163.821 35.5033 163.745 35.2207 163.534 35.2107C163.323 35.2006 163.213 35.4833 163.032 35.6116C162.792 35.78 162.43 35.6116 162.298 35.357C162.188 35.0814 162.181 34.7754 162.278 34.495C162.424 33.9372 162.687 33.4166 163.049 32.9674C163.411 32.5183 163.865 32.1508 164.379 31.889C164.737 31.7431 165.08 31.5646 165.405 31.3558C165.733 31.0706 166.005 30.7266 166.207 30.3415C168.07 27.2785 169.942 24.1994 171.256 20.8658C171.515 20.27 171.69 19.6413 171.776 18.9975C171.84 18.342 171.74 17.6825 171.696 17.025C171.618 15.8445 171.728 14.6591 172.021 13.5129C172.085 13.2107 172.199 12.9214 172.358 12.6569C172.898 11.8371 174.164 11.7148 174.967 12.2821C175.263 12.5091 175.508 12.7951 175.688 13.1219C175.867 13.4487 175.976 13.8092 176.009 14.1804C176.067 14.844 175.681 15.5335 175.489 16.153C174.892 18.0653 174.297 19.9764 173.705 21.8861Z" fill="#A1616A"/>
<path d="M162.467 4.75288C162.436 4.44016 162.717 4.1515 163.037 3.95104C163.373 3.77435 163.695 3.57335 164.002 3.34966C164.287 3.1031 164.441 2.78437 164.728 2.5358C165.051 2.2893 165.418 2.10693 165.81 1.99857C166.644 1.70554 167.519 1.54786 168.403 1.53149C169.298 1.53149 170.209 1.73195 170.883 2.187C171.047 2.28938 171.19 2.42205 171.305 2.57789C171.411 2.77033 171.479 2.98128 171.505 3.19932C171.665 3.8719 171.882 4.52975 172.153 5.16583C172.432 5.87345 172.729 6.60713 173.386 7.15439C174.088 7.73772 175.162 8.0745 175.625 8.78212C175.676 8.84467 175.712 8.91809 175.73 8.99667C175.747 9.07525 175.747 9.15687 175.728 9.23516C175.661 9.41557 175.449 9.53585 175.252 9.6481C174.11 10.3016 173.129 11.1495 172.621 12.1619C172.113 13.1742 172.131 14.3669 172.852 15.2991C173.117 15.6439 173.482 16.0528 173.223 16.3996C172.822 16.9268 171.479 16.6241 171.166 17.1834C171.068 17.3598 171.126 17.5643 171.124 17.7567C171.124 18.342 170.562 18.8612 169.878 19.1318C169.193 19.4025 168.401 19.4666 167.63 19.5007C167.426 19.0414 167.405 18.5211 167.574 18.0474C167.625 17.9458 167.645 17.8315 167.632 17.7186C167.576 17.5914 167.486 17.4814 167.373 17.3999C166.55 16.6241 166.723 15.4795 167.219 14.5554C167.714 13.6312 168.483 12.7873 168.77 11.8151C168.91 11.332 168.912 10.7887 168.527 10.3898C168.308 10.1963 168.071 10.0232 167.821 9.87262C167.371 9.56872 167.026 9.13515 166.829 8.62977C166.599 7.9903 166.629 7.22655 165.958 6.79757C165.314 6.39665 164.409 6.51091 163.697 6.23628C163.151 6.04184 162.513 5.20993 162.467 4.75288Z" fill="#464353"/>
<path d="M95.5108 21.6877C95.3603 23.3254 96.6005 24.9151 96.2393 26.5187C96.161 26.8615 96.0145 27.1863 95.9603 27.5331C95.8098 28.4852 96.3778 29.3853 96.9216 30.1831L101.583 37.0188C101.772 37.3186 101.995 37.5945 102.25 37.8407C103.143 38.6425 104.479 38.5483 105.649 38.7869C106.472 38.9526 107.249 39.2946 107.927 39.7892C107.942 39.8003 107.955 39.8143 107.965 39.8304C107.975 39.8465 107.981 39.8645 107.984 39.8831C107.987 39.9018 107.986 39.9208 107.981 39.9391C107.977 39.9574 107.968 39.9745 107.957 39.9896C107.765 40.2542 107.509 40.4662 107.213 40.6063C106.917 40.7464 106.59 40.8101 106.263 40.7915C106.141 40.9518 106.263 41.1924 106.432 41.3046C106.683 41.479 107.034 41.5251 107.078 41.9481C107.094 42.0959 107.064 42.2451 106.992 42.3751C106.804 42.662 106.512 42.8647 106.177 42.9404C104.572 43.4335 102.818 42.5675 101.61 41.3888C100.401 40.2101 99.5345 38.7227 98.3485 37.522C97.6922 36.8584 96.9437 36.2911 96.2694 35.6477C94.9208 34.3627 93.8712 32.8031 92.8578 31.2376C92.5264 30.7836 92.2766 30.2755 92.1193 29.7361C91.9949 29.2049 92.0511 28.6396 91.9066 28.1124C91.7179 27.4188 91.2122 26.8675 90.7888 26.2862C89.9619 25.1476 89.4101 23.7564 89.5184 22.3532C89.6268 20.95 90.4978 19.5648 91.8263 19.0937C92.2369 18.9302 92.6893 18.9028 93.1167 19.0155C93.6585 19.1819 94.0579 19.6309 94.4312 20.0599L95.3142 21.0823C95.5364 21.306 95.7118 21.5718 95.8299 21.8641C95.8867 22.0111 95.8998 22.1713 95.8678 22.3256C95.8358 22.4799 95.7599 22.6217 95.6493 22.7341" fill="#FBBEBE"/>
<path opacity="0.05" d="M95.5108 21.6877C95.3603 23.3254 96.6005 24.9151 96.2393 26.5187C96.161 26.8615 96.0145 27.1863 95.9603 27.5331C95.8098 28.4852 96.3778 29.3853 96.9216 30.1831L101.583 37.0188C101.772 37.3186 101.995 37.5945 102.25 37.8407C103.143 38.6425 104.479 38.5483 105.649 38.7869C106.472 38.9526 107.249 39.2946 107.927 39.7892C107.942 39.8003 107.955 39.8143 107.965 39.8304C107.975 39.8465 107.981 39.8645 107.984 39.8831C107.987 39.9018 107.986 39.9208 107.981 39.9391C107.977 39.9574 107.968 39.9745 107.957 39.9896C107.765 40.2542 107.509 40.4662 107.213 40.6063C106.917 40.7464 106.59 40.8101 106.263 40.7915C106.141 40.9518 106.263 41.1924 106.432 41.3046C106.683 41.479 107.034 41.5251 107.078 41.9481C107.094 42.0959 107.064 42.2451 106.992 42.3751C106.804 42.662 106.512 42.8647 106.177 42.9404C104.572 43.4335 102.818 42.5675 101.61 41.3888C100.401 40.2101 99.5345 38.7227 98.3485 37.522C97.6922 36.8584 96.9437 36.2911 96.2694 35.6477C94.9208 34.3627 93.8712 32.8031 92.8578 31.2376C92.5264 30.7836 92.2766 30.2755 92.1193 29.7361C91.9949 29.2049 92.0511 28.6396 91.9066 28.1124C91.7179 27.4188 91.2122 26.8675 90.7888 26.2862C89.9619 25.1476 89.4101 23.7564 89.5184 22.3532C89.6268 20.95 90.4978 19.5648 91.8263 19.0937C92.2369 18.9302 92.6893 18.9028 93.1167 19.0155C93.6585 19.1819 94.0579 19.6309 94.4312 20.0599L95.3142 21.0823C95.5364 21.306 95.7118 21.5718 95.8299 21.8641C95.8867 22.0111 95.8998 22.1713 95.8678 22.3256C95.8358 22.4799 95.7599 22.6217 95.6493 22.7341" fill="black"/>
<path d="M91.9829 63.8445C93.0004 64.4639 94.2687 64.502 95.4527 64.3577C95.6434 64.3336 95.8702 64.3196 95.9926 64.4659C96.1692 64.6804 95.9605 64.9932 95.7437 65.1656C95.0446 65.6893 94.2234 66.0267 93.3576 66.1458C92.5852 66.2545 91.8057 66.3061 91.0257 66.3002C88.8985 66.3362 86.7592 66.3723 84.652 66.0656C84.5305 66.0569 84.4122 66.0228 84.3048 65.9654C84.1708 65.8686 84.0772 65.7259 84.0419 65.5645C83.8974 65.0192 84.1764 64.4299 84.5958 64.051C85.0152 63.6721 85.5551 63.4496 86.0809 63.2492L87.9332 62.5295C88.3666 62.3611 89.063 61.9121 89.5386 61.9462C90.4076 62.0143 91.2464 63.4135 91.9829 63.8445Z" fill="#3F3D56"/>
<path opacity="0.05" d="M91.9829 63.8445C93.0004 64.4639 94.2687 64.502 95.4527 64.3577C95.6434 64.3336 95.8702 64.3196 95.9926 64.4659C96.1692 64.6804 95.9605 64.9932 95.7437 65.1656C95.0446 65.6893 94.2234 66.0267 93.3576 66.1458C92.5852 66.2545 91.8057 66.3061 91.0257 66.3002C88.8985 66.3362 86.7592 66.3723 84.652 66.0656C84.5305 66.0569 84.4122 66.0228 84.3048 65.9654C84.1708 65.8686 84.0772 65.7259 84.0419 65.5645C83.8974 65.0192 84.1764 64.4299 84.5958 64.051C85.0152 63.6721 85.5551 63.4496 86.0809 63.2492L87.9332 62.5295C88.3666 62.3611 89.063 61.9121 89.5386 61.9462C90.4076 62.0143 91.2464 63.4135 91.9829 63.8445Z" fill="black"/>
<path d="M90.6903 39.2962C91.4589 40.3206 92.2576 41.5013 92.067 42.7702C91.9646 43.4538 91.5813 44.0571 91.3004 44.6886C90.9489 45.5574 90.6887 46.4603 90.5237 47.3828C90.2347 48.7239 89.9458 50.0689 89.7692 51.4301C89.5685 52.9676 90.5137 57.4178 90.602 58.9653C90.6221 59.3382 90.6662 59.7431 90.9251 60.0117C91.0274 60.118 91.1639 60.2122 91.2081 60.3425C91.2359 60.4758 91.2146 60.6146 91.1479 60.7334C90.7124 61.7116 89.8233 62.4393 88.836 62.8563C87.8486 63.2732 85.4465 63.9909 84.3748 64.0269C84.2327 64.0436 84.0886 64.025 83.9554 63.9728C83.8112 63.8857 83.6977 63.7562 83.6303 63.602C82.8577 62.1226 83.6002 56.8625 83.5881 55.1947C83.5881 53.8015 83.249 52.4183 83.3112 51.0271C83.3594 49.9106 83.6584 48.8221 83.7688 47.7075C83.9474 45.8813 83.6102 44.0491 83.2751 42.245C83.0182 40.8638 82.7593 39.4807 82.4302 38.1135C82.2295 37.2816 81.9967 36.4397 81.5372 35.708C81.1739 35.1327 80.6802 34.6536 80.2668 34.1143C79.1153 32.6076 78.6035 30.7088 78.842 28.8282C78.8661 28.6418 81.5171 29.4978 81.7459 29.598C82.6965 30.0018 83.5713 30.5645 84.3327 31.2618C84.9347 31.8431 85.4284 32.6229 85.9642 33.2764C86.7228 34.1985 87.4713 35.1287 88.2099 36.0668C89.0487 37.1373 89.8755 38.2137 90.6903 39.2962Z" fill="#464353"/>
<path opacity="0.05" d="M90.6905 39.2339C91.4591 40.2602 92.2578 41.4389 92.0672 42.7099C91.9648 43.3934 91.5815 43.9948 91.3006 44.6262C90.9491 45.4951 90.6889 46.398 90.5239 47.3204C90.2349 48.6635 89.946 50.0066 89.7694 51.3677C89.5687 52.9072 90.5139 57.3554 90.6022 58.905C90.6223 59.2779 90.6664 59.6828 90.9253 59.9514C91.0276 60.0556 91.1641 60.1418 91.2083 60.2801C91.2361 60.4134 91.2148 60.5523 91.148 60.671C90.7126 61.6493 89.8235 62.379 88.8362 62.7959C87.8488 63.2129 85.4467 63.5978 84.375 63.6298C84.2329 63.6465 84.0888 63.6279 83.9556 63.5757C83.8115 63.4886 83.6979 63.3591 83.6305 63.2049C82.8579 61.7255 83.6004 56.8002 83.5883 55.1323C83.5883 53.7391 83.2492 52.358 83.3114 50.9648C83.3596 49.8482 83.6586 48.7597 83.769 47.6452C83.9476 45.821 83.6104 43.9868 83.2753 42.1847C83.0184 40.8015 82.7595 39.4183 82.4304 38.0532C82.2297 37.2193 81.9969 36.3773 81.5374 35.6477C81.1741 35.0743 80.6805 34.5932 80.2671 34.056C79.115 32.5488 78.6031 30.6491 78.8422 28.7679C78.8663 28.5835 81.5173 29.4394 81.7461 29.5397C82.6975 29.942 83.5725 30.5048 84.3329 31.2035C84.9349 31.7848 85.4286 32.5646 85.9644 33.2081C86.723 34.1302 87.4716 35.0603 88.2101 35.9985C89.0489 37.0703 89.8757 38.1487 90.6905 39.2339Z" fill="black"/>
<path d="M99.2577 16.7424C101.644 16.7424 103.578 14.8101 103.578 12.4265C103.578 10.0429 101.644 8.1106 99.2577 8.1106C96.8714 8.1106 94.937 10.0429 94.937 12.4265C94.937 14.8101 96.8714 16.7424 99.2577 16.7424Z" fill="#FBBEBE"/>
<path d="M95.3684 12.246C94.9701 12.8829 94.4475 13.4333 93.8317 13.8641C93.2159 14.295 92.5196 14.5975 91.7842 14.7537L92.1093 15.9304C92.6712 17.9611 93.3013 20.108 94.8727 21.5152C94.7001 20.8277 94.9228 20.09 95.3102 19.4966C95.7271 18.9218 96.2206 18.4065 96.7772 17.9651L99.2636 15.8041C99.3387 15.7505 99.4022 15.6824 99.4502 15.6037C99.5114 15.4519 99.5114 15.2824 99.4502 15.1306C99.1332 14.1463 98.2281 13.5269 97.4976 12.8674C97.128 12.5225 96.7975 12.138 96.5123 11.7208C96.0025 11.0112 95.6955 11.7188 95.3684 12.246Z" fill="#FBBEBE"/>
<path d="M104.951 8.08866L105.047 7.28682C104.365 7.46323 103.719 6.8859 103.283 6.28452C102.848 5.68314 102.443 4.97752 101.778 4.72895C100.976 4.42626 100.117 4.91137 99.346 5.31229C98.4822 5.79284 97.5337 6.10252 96.5525 6.22438C96.3961 6.23065 96.2411 6.25624 96.091 6.30056C95.5893 6.47897 95.3525 7.1024 95.2782 7.67772C95.204 8.25304 95.226 8.85442 94.9772 9.36358C94.7906 9.74847 94.4675 10.0371 94.2708 10.416C93.743 11.4363 94.2527 12.8315 93.6948 13.8338L95.0795 12.5669C95.208 12.4507 95.3866 12.3284 95.525 12.4266C95.6635 12.5248 95.6455 12.6732 95.6896 12.8095C95.8241 13.2104 96.3177 13.3207 96.677 13.1663C97.0362 13.012 97.2951 12.6712 97.556 12.3645C98.168 11.6428 98.8985 11.0094 99.7635 10.7006C100.139 10.5569 100.54 10.4949 100.941 10.5188C101.343 10.5426 101.734 10.6518 102.089 10.839C102.736 11.2038 103.209 12.0538 104.002 12.0838C105.088 12.1239 105.539 10.1053 106.041 9.30746C105.857 9.16882 105.728 8.97035 105.676 8.74657C105.624 8.52279 105.652 8.28786 105.756 8.08265C105.674 8.04857 104.965 7.96437 104.951 8.08866Z" fill="#464353"/>
<path d="M86.9435 63.8082C87.7961 64.571 88.9057 64.9842 90.0501 64.9649C90.3411 64.9649 90.7445 65.021 90.7465 65.3117C90.7397 65.3981 90.7099 65.4812 90.6602 65.5522C90.2988 66.1545 89.7268 66.6015 89.0547 66.8071C88.4306 66.9955 87.7663 66.9655 87.1161 66.9314L85.2197 66.8332C84.8604 66.8151 84.5012 66.7951 84.144 66.753C83.7868 66.7109 83.4015 66.6327 83.0302 66.5786C82.1153 66.448 81.19 66.4044 80.2668 66.4483C80.024 66.4583 79.739 66.4483 79.5885 66.2659C79.438 66.0834 79.5183 65.7467 79.5725 65.4801C79.6849 64.9308 79.5725 64.3555 79.6768 63.8042C79.8594 62.838 80.6923 62.0963 81.6134 61.7455C82.4663 61.4208 83.9795 61.0499 84.7862 61.5891C85.6572 62.1705 86.1769 63.1166 86.9435 63.8082Z" fill="#3F3D56"/>
<path d="M85.0651 31.4119C84.8965 32.2137 84.1259 32.8151 84.1038 33.6269C84.0857 34.2764 84.5493 34.8297 84.8825 35.379C85.2011 35.9564 85.4696 36.5599 85.6852 37.1831C86.3165 38.7975 87.0993 40.3486 88.0231 41.8157C88.4686 42.5193 88.9663 43.2851 88.864 44.113C88.7939 44.4993 88.6582 44.8709 88.4626 45.2115L87.1281 47.8596C86.8352 48.3883 86.6068 48.9503 86.4478 49.5334C86.3314 50.0366 86.3193 50.5578 86.2471 51.0709C86.0364 52.6947 85.2738 54.3304 85.7253 55.906C85.7634 56.0403 85.9059 56.2047 86.0103 56.1065C85.5708 56.9284 85.2076 57.7583 85.2497 58.6904C85.2678 59.1795 85.4183 59.6927 85.2357 60.1457C85.1335 60.3226 85.0654 60.5171 85.035 60.719C85.035 60.8534 85.0972 60.9796 85.1112 61.12C85.1494 61.4948 84.8042 61.8075 84.447 61.9218C84.0898 62.0361 83.6984 62.0341 83.3372 62.1403C82.6428 62.3408 82.1471 62.9422 81.5511 63.3591C80.9483 63.7772 80.2358 64.0093 79.5022 64.0266C79.3974 64.0377 79.2917 64.0168 79.1991 63.9665C79.1468 63.9206 79.1048 63.8642 79.0757 63.801C79.0467 63.7378 79.0313 63.6692 79.0305 63.5997C78.9989 63.2677 79.0493 62.9331 79.1774 62.6252C79.3055 62.3172 79.5072 62.0454 79.765 61.8336C79.8778 61.7622 79.9715 61.6645 80.038 61.549C80.0702 61.4459 80.0785 61.3369 80.0621 61.2302C79.9536 59.7736 79.9798 58.31 80.1403 56.8582C80.2127 56.3976 80.2362 55.9306 80.2106 55.465C80.1724 55.0781 80.056 54.6932 80.0982 54.3063C80.1403 53.9195 80.337 53.5707 80.4534 53.1978C80.6541 52.5363 80.6039 51.8267 80.624 51.1331C80.6601 49.9303 80.935 48.7516 81.21 47.5809C81.3183 47.1219 81.4387 46.6388 81.7638 46.298C82.0408 46.0093 82.4903 45.7327 82.386 45.3458C82.3278 45.2035 82.241 45.0745 82.1311 44.9669C82.0021 44.8051 81.9073 44.6188 81.8524 44.4193C81.7976 44.2198 81.7838 44.0112 81.812 43.8063C81.6946 43.8375 81.57 43.8264 81.46 43.7751C81.3499 43.7238 81.2614 43.6355 81.21 43.5256C79.0406 42.5053 77.2866 40.4606 76.514 38.1914C76.4706 38.0241 76.403 37.8641 76.3133 37.7163C76.1126 37.4357 75.7634 37.3154 75.4544 37.159C74.4831 36.6719 73.8108 35.7558 73.1947 34.8598C72.8375 34.3406 72.4783 33.8033 72.3237 33.1899C72.2393 32.7947 72.1989 32.3913 72.2033 31.9872L72.1491 29.8984C72.1383 29.7634 72.1518 29.6276 72.1893 29.4975C72.2411 29.3727 72.3183 29.2601 72.4161 29.1667C73.0066 28.5381 73.7842 28.1163 74.6336 27.9639C75.2015 27.8637 75.7835 27.8818 76.3595 27.8357C77.4773 27.7414 78.581 27.3966 79.7008 27.4768C81.4568 27.6071 83.0221 28.8219 83.8489 30.3755C84.1339 30.9287 84.4409 31.4018 85.0651 31.4119Z" fill="#464353"/>
<path d="M94.8186 17.8289C94.7937 18.1512 94.8375 18.475 94.947 18.7791C95.0815 19.0718 95.4266 19.2983 95.7277 19.18C95.6353 18.9796 95.8762 18.743 96.1009 18.7671C96.2107 18.7919 96.3129 18.843 96.3985 18.916C96.4842 18.9889 96.5508 19.0816 96.5926 19.1861C96.742 19.484 96.7926 19.8217 96.7371 20.1503C96.6648 20.5512 96.428 20.9521 96.4902 21.363C96.5404 21.7038 96.7913 22.0446 96.6568 22.3653C96.5704 22.5095 96.462 22.6393 96.3357 22.7502C96.1598 22.9665 96.0736 23.2419 96.0949 23.5197C96.1162 23.7975 96.2433 24.0567 96.4501 24.2436L93.0827 24.3118C93.2071 24.8731 92.9542 25.4484 92.6652 25.9476C91.8568 27.3197 90.7413 28.4862 89.406 29.3556C88.0708 30.2251 86.5521 30.7739 84.9691 30.959C85.0546 31.0091 85.128 31.0774 85.1839 31.1592C85.2398 31.2409 85.2769 31.334 85.2924 31.4318C85.3079 31.5296 85.3016 31.6296 85.2738 31.7246C85.246 31.8197 85.1974 31.9074 85.1316 31.9814C84.8567 32.252 84.3931 32.2199 84.0499 32.0415C83.7068 31.8631 83.4379 31.5745 83.1228 31.3499C82.5703 30.9576 81.8953 30.7762 81.2203 30.8388C80.7989 30.8789 80.3895 31.0132 79.9661 31.0392C78.7198 31.1054 77.6462 30.2093 76.4541 29.8365C75.5791 29.5679 74.5878 29.5699 73.8452 29.0246C73.5302 28.7901 73.2693 28.4032 73.3616 28.0223C73.4414 27.8028 73.5658 27.6022 73.7268 27.433C74.1483 26.8877 74.3971 26.2302 74.7002 25.6108C75.3039 24.3882 76.1316 23.2895 77.1405 22.3714C77.9 21.7072 78.7046 21.0963 79.5486 20.5432C79.7532 20.3897 79.9715 20.2555 80.2009 20.1422C80.5074 20.0425 80.8065 19.9213 81.0959 19.7794C81.4973 19.5308 81.72 19.0918 82.0251 18.737C82.6913 17.9592 83.7168 17.6024 84.5396 16.991C85.0915 16.5801 85.5791 16.0388 86.2374 15.8404C86.5565 15.7442 86.8996 15.7361 87.2187 15.6399C87.9472 15.4194 88.477 14.7739 89.1894 14.5133C89.7553 14.3129 90.3775 14.361 90.9755 14.2868C91.6333 14.2053 92.2618 13.9667 92.8077 13.5912C92.9893 13.4457 93.1924 13.3294 93.4098 13.2464C94.3108 12.9718 94.3851 14.6497 94.4694 15.233C94.5938 16.095 94.8186 16.9589 94.8186 17.8289Z" fill="#E1680F"/>
<path d="M93.9375 23.4619C93.787 25.0996 95.0252 26.6893 94.666 28.2929C94.5877 28.6357 94.4392 28.9605 94.385 29.3053C94.2365 30.2575 94.8045 31.1595 95.3483 31.9574L100.01 38.791C100.197 39.0916 100.421 39.3677 100.676 39.6129C101.569 40.4047 102.906 40.3225 104.076 40.5591C104.899 40.7257 105.675 41.0676 106.354 41.5614C106.383 41.5847 106.403 41.6184 106.408 41.6557C106.414 41.6929 106.405 41.7308 106.384 41.7618C106.191 42.0261 105.935 42.238 105.639 42.378C105.343 42.5181 105.017 42.5819 104.69 42.5637C104.568 42.724 104.69 42.9646 104.859 43.0768C105.11 43.2492 105.461 43.2953 105.503 43.7203C105.52 43.868 105.491 44.0174 105.419 44.1473C105.23 44.4338 104.938 44.6363 104.604 44.7126C102.998 45.2057 101.244 44.3397 100.036 43.161C98.8281 41.9823 97.9612 40.4949 96.7752 39.2942C96.1189 38.6307 95.3704 38.0613 94.6961 37.4179C93.3475 36.1349 92.2979 34.5733 91.2845 33.0078C90.9531 32.5538 90.7033 32.0457 90.546 31.5063C90.4216 30.9731 90.4778 30.4098 90.3333 29.8806C90.1446 29.189 89.6369 28.6377 89.2155 28.0564C88.3886 26.9178 87.8348 25.5266 87.9451 24.1234C88.0555 22.7202 88.9225 21.339 90.247 20.8619C90.6576 20.6986 91.1099 20.6712 91.5374 20.7837C92.0812 20.9501 92.4806 21.3991 92.8518 21.8281L93.7368 22.8485C93.9586 23.0734 94.1338 23.3397 94.2526 23.6323C94.3096 23.7794 94.3227 23.9399 94.2903 24.0943C94.2579 24.2487 94.1814 24.3904 94.07 24.5023" fill="#FBBEBE"/>
<path d="M91.5797 16.7324C92.1938 16.7685 92.8661 16.8306 93.2995 17.2656C93.4806 17.4667 93.627 17.6964 93.733 17.9452C94.1544 18.7992 94.5618 19.6932 94.5939 20.6454C94.618 21.4071 94.3933 22.1508 94.2809 22.9046C94.1846 23.53 94.4294 24.1695 94.4816 24.8009C93.721 24.5704 92.7176 24.2537 92.0292 23.8588C91.5762 23.5638 91.0949 23.3146 90.5923 23.1151C89.8618 22.8705 88.6297 23.2895 87.9393 23.6302C87.9012 23.1431 88.2684 22.2932 88.2303 21.804C88.2235 21.5992 88.1863 21.3966 88.1199 21.2027C88.0167 20.9968 87.8937 20.8014 87.7527 20.6193C87.4865 20.1891 87.3639 19.6855 87.4025 19.1812C87.4411 18.6769 87.6389 18.1978 87.9674 17.8129C88.5835 17.1193 89.5508 16.8587 90.4739 16.7525C91.0546 16.6846 91.6398 16.6639 92.2239 16.6903" fill="#E1680F"/>
<path d="M204.756 60.7794L200.743 100.871L62.4724 157L15.7134 113.099L12.3018 71.8047L144.15 33.3164L204.756 60.7794Z" fill="#DFE6F5"/>
<path opacity="0.1" d="M62.4724 157L15.7134 113.099L12.3018 71.8047L61.2683 111.696L62.4724 157Z" fill="black"/>
<path opacity="0.05" d="M204.757 60.7793L200.743 100.871L62.4726 157L61.2686 111.696L204.757 60.7793Z" fill="black"/>
<path d="M16.2153 74.9119L145.054 38.4282L198.435 63.0848L61.1682 111.596L16.2153 74.9119Z" fill="#A7ADB8"/>
<path d="M167.931 16.8967L166.348 17.0571L124.777 21.2347C122.795 21.4315 120.947 22.3211 119.559 23.7464L96.8817 47.0559L45.9565 99.3859L61.0679 111.696L97.5079 98.7664L113.396 93.1335L158.072 39.7171L172.154 22.8784C172.154 22.8784 172.519 18.0895 167.931 16.8967ZM125.471 42.7741C123.554 43.8866 121.457 43.8566 120.791 42.7079C120.34 41.9301 120.661 40.8376 121.509 39.8674C121.952 39.367 122.473 38.9418 123.053 38.6085C124.638 37.6884 126.342 37.5521 127.267 38.1815C127.459 38.3086 127.619 38.4771 127.737 38.6747C128.401 39.8293 127.387 41.6635 125.471 42.7741Z" fill="#454B69"/>
<path opacity="0.1" d="M167.931 16.8967L166.348 17.0571C168.289 19.0958 167.279 19.6831 167.279 19.6831L152.027 36.9748L97.5078 98.7665L113.396 93.1335L158.072 39.7171L172.154 22.8784C172.154 22.8784 172.519 18.0895 167.931 16.8967Z" fill="black"/>
<path d="M123.053 38.6085C122.474 38.94 121.952 39.3631 121.509 39.8614L127.263 38.1815C126.344 37.5581 124.638 37.6944 123.053 38.6085Z" fill="#DFE6F5"/>
<path d="M120.791 42.7079C121.459 43.8565 123.554 43.8866 125.471 42.774C127.387 41.6615 128.401 39.8293 127.733 38.6806C127.615 38.4831 127.455 38.3146 127.263 38.1875L121.509 39.8674C120.66 40.8376 120.339 41.9301 120.791 42.7079Z" fill="#DFE6F5"/>
<path opacity="0.1" d="M150.495 133.206C154.861 131.02 158.116 128.679 157.765 127.979C157.413 127.278 153.588 128.482 149.222 130.668C144.855 132.854 141.6 135.195 141.952 135.895C142.303 136.596 146.128 135.392 150.495 133.206Z" fill="#E1680F"/>
<path d="M149.908 131.981C150.329 131.981 150.67 131.534 150.67 130.982C150.67 130.431 150.329 129.984 149.908 129.984C149.486 129.984 149.145 130.431 149.145 130.982C149.145 131.534 149.486 131.981 149.908 131.981Z" fill="#3F3D56"/>
<path d="M149.908 130.76C150.329 130.76 150.67 130.313 150.67 129.761C150.67 129.21 150.329 128.763 149.908 128.763C149.486 128.763 149.145 129.21 149.145 129.761C149.145 130.313 149.486 130.76 149.908 130.76Z" fill="#3F3D56"/>
<path d="M149.908 129.541C150.329 129.541 150.67 129.094 150.67 128.543C150.67 127.991 150.329 127.544 149.908 127.544C149.486 127.544 149.145 127.991 149.145 128.543C149.145 129.094 149.486 129.541 149.908 129.541Z" fill="#3F3D56"/>
<path d="M149.908 128.322C150.329 128.322 150.67 127.875 150.67 127.324C150.67 126.773 150.329 126.326 149.908 126.326C149.486 126.326 149.145 126.773 149.145 127.324C149.145 127.875 149.486 128.322 149.908 128.322Z" fill="#3F3D56"/>
<path d="M149.908 127.103C150.329 127.103 150.67 126.656 150.67 126.105C150.67 125.554 150.329 125.107 149.908 125.107C149.486 125.107 149.145 125.554 149.145 126.105C149.145 126.656 149.486 127.103 149.908 127.103Z" fill="#3F3D56"/>
<path d="M149.908 125.885C150.329 125.885 150.67 125.438 150.67 124.886C150.67 124.335 150.329 123.888 149.908 123.888C149.486 123.888 149.145 124.335 149.145 124.886C149.145 125.438 149.486 125.885 149.908 125.885Z" fill="#3F3D56"/>
<path d="M149.908 124.666C150.329 124.666 150.67 124.219 150.67 123.667C150.67 123.116 150.329 122.669 149.908 122.669C149.486 122.669 149.145 123.116 149.145 123.667C149.145 124.219 149.486 124.666 149.908 124.666Z" fill="#3F3D56"/>
<path d="M152.764 115.324C152.867 115.191 152.962 115.051 153.047 114.905L151.04 114.577L153.209 114.593C153.417 114.141 153.53 113.651 153.541 113.154C153.553 112.657 153.463 112.163 153.277 111.702L150.37 113.208L153.053 111.239C152.8 110.808 152.461 110.434 152.058 110.139C151.654 109.844 151.195 109.634 150.707 109.524C150.219 109.414 149.714 109.404 149.223 109.497C148.731 109.589 148.264 109.782 147.85 110.062C147.436 110.342 147.084 110.704 146.816 111.125C146.548 111.547 146.369 112.019 146.29 112.512C146.212 113.005 146.236 113.51 146.36 113.993C146.485 114.477 146.707 114.93 147.014 115.324C146.857 115.53 146.722 115.752 146.613 115.986L149.222 117.335L146.448 116.405C146.254 116.98 146.205 117.595 146.308 118.193C146.411 118.792 146.661 119.355 147.036 119.833C146.612 120.371 146.349 121.018 146.276 121.699C146.202 122.38 146.322 123.068 146.622 123.684C146.922 124.3 147.389 124.82 147.97 125.183C148.551 125.547 149.223 125.739 149.909 125.739C150.595 125.739 151.267 125.547 151.848 125.183C152.429 124.82 152.896 124.3 153.196 123.684C153.496 123.068 153.616 122.38 153.543 121.699C153.469 121.018 153.206 120.371 152.782 119.833C153.287 119.189 153.562 118.395 153.562 117.577C153.562 116.758 153.287 115.964 152.782 115.32L152.764 115.324Z" fill="#E1680F"/>
<path opacity="0.1" d="M146.237 117.59C146.237 118.405 146.51 119.196 147.014 119.837C146.59 120.375 146.327 121.022 146.253 121.703C146.18 122.384 146.3 123.072 146.6 123.688C146.899 124.304 147.367 124.824 147.948 125.187C148.529 125.551 149.201 125.744 149.887 125.744C150.573 125.744 151.244 125.551 151.826 125.187C152.407 124.824 152.874 124.304 153.174 123.688C153.474 123.072 153.594 122.384 153.52 121.703C153.447 121.022 153.183 120.375 152.76 119.837C153.253 119.216 146.237 117.171 146.237 117.59Z" fill="black"/>
<path opacity="0.1" d="M196.429 119.36C199.283 117.931 201.411 116.401 201.181 115.943C200.951 115.484 198.451 116.271 195.596 117.701C192.741 119.13 190.614 120.66 190.844 121.118C191.074 121.576 193.574 120.789 196.429 119.36Z" fill="#E1680F"/>
<path d="M196.047 118.564C196.321 118.564 196.544 118.272 196.544 117.912C196.544 117.553 196.321 117.261 196.047 117.261C195.772 117.261 195.549 117.553 195.549 117.912C195.549 118.272 195.772 118.564 196.047 118.564Z" fill="#3F3D56"/>
<path d="M196.047 117.766C196.321 117.766 196.544 117.474 196.544 117.115C196.544 116.755 196.321 116.463 196.047 116.463C195.772 116.463 195.549 116.755 195.549 117.115C195.549 117.474 195.772 117.766 196.047 117.766Z" fill="#3F3D56"/>
<path d="M196.047 116.968C196.321 116.968 196.544 116.677 196.544 116.317C196.544 115.957 196.321 115.665 196.047 115.665C195.772 115.665 195.549 115.957 195.549 116.317C195.549 116.677 195.772 116.968 196.047 116.968Z" fill="#3F3D56"/>
<path d="M196.047 116.172C196.321 116.172 196.544 115.881 196.544 115.521C196.544 115.161 196.321 114.869 196.047 114.869C195.772 114.869 195.549 115.161 195.549 115.521C195.549 115.881 195.772 116.172 196.047 116.172Z" fill="#3F3D56"/>
<path d="M196.047 115.375C196.321 115.375 196.544 115.083 196.544 114.723C196.544 114.363 196.321 114.072 196.047 114.072C195.772 114.072 195.549 114.363 195.549 114.723C195.549 115.083 195.772 115.375 196.047 115.375Z" fill="#3F3D56"/>
<path d="M196.047 114.579C196.321 114.579 196.544 114.287 196.544 113.927C196.544 113.567 196.321 113.276 196.047 113.276C195.772 113.276 195.549 113.567 195.549 113.927C195.549 114.287 195.772 114.579 196.047 114.579Z" fill="#3F3D56"/>
<path d="M196.047 113.781C196.321 113.781 196.544 113.489 196.544 113.129C196.544 112.769 196.321 112.478 196.047 112.478C195.772 112.478 195.549 112.769 195.549 113.129C195.549 113.489 195.772 113.781 196.047 113.781Z" fill="#3F3D56"/>
<path d="M197.913 107.675C197.981 107.589 198.043 107.498 198.098 107.402L196.787 107.188H198.206C198.351 106.873 198.425 106.531 198.425 106.185C198.425 105.88 198.366 105.577 198.25 105.293L196.35 106.278L198.104 104.991C197.939 104.709 197.718 104.464 197.454 104.271C197.19 104.077 196.89 103.941 196.571 103.868C196.252 103.796 195.922 103.79 195.6 103.85C195.279 103.911 194.973 104.036 194.703 104.22C194.432 104.403 194.202 104.64 194.026 104.915C193.851 105.191 193.734 105.5 193.683 105.822C193.632 106.145 193.648 106.475 193.73 106.791C193.812 107.107 193.958 107.403 194.159 107.661C194.052 107.796 193.961 107.942 193.886 108.096L195.587 108.98L193.781 108.379C193.654 108.755 193.622 109.157 193.689 109.548C193.757 109.939 193.921 110.308 194.167 110.62C193.889 110.972 193.716 111.395 193.668 111.84C193.619 112.286 193.698 112.736 193.894 113.139C194.089 113.543 194.395 113.883 194.775 114.121C195.156 114.359 195.595 114.485 196.044 114.485C196.493 114.485 196.932 114.359 197.313 114.121C197.693 113.883 197.998 113.543 198.194 113.139C198.39 112.736 198.469 112.286 198.42 111.84C198.372 111.395 198.199 110.972 197.921 110.62C198.253 110.199 198.433 109.679 198.433 109.144C198.433 108.609 198.253 108.089 197.921 107.669L197.913 107.675Z" fill="#E1680F"/>
<path opacity="0.1" d="M193.647 109.15C193.645 109.685 193.826 110.205 194.158 110.625C193.881 110.978 193.708 111.401 193.659 111.846C193.611 112.292 193.689 112.742 193.885 113.145C194.081 113.549 194.387 113.889 194.767 114.126C195.147 114.364 195.587 114.491 196.036 114.491C196.484 114.491 196.924 114.364 197.304 114.126C197.685 113.889 197.99 113.549 198.186 113.145C198.382 112.742 198.46 112.292 198.412 111.846C198.364 111.401 198.191 110.978 197.913 110.625C198.232 110.219 193.647 108.881 193.647 109.15Z" fill="black"/>
<path opacity="0.1" d="M45.1056 156.505C45.9496 155.662 44.9719 153.318 42.9217 151.27C40.8715 149.222 38.5252 148.246 37.6811 149.089C36.8371 149.932 37.8148 152.275 39.865 154.323C41.9152 156.371 44.2615 157.348 45.1056 156.505Z" fill="#E1680F"/>
<path d="M41.7664 153.139C42.407 153.139 42.9263 152.46 42.9263 151.622C42.9263 150.784 42.407 150.104 41.7664 150.104C41.1258 150.104 40.6064 150.784 40.6064 151.622C40.6064 152.46 41.1258 153.139 41.7664 153.139Z" fill="#3F3D56"/>
<path d="M41.7664 151.285C42.407 151.285 42.9263 150.605 42.9263 149.767C42.9263 148.929 42.407 148.25 41.7664 148.25C41.1258 148.25 40.6064 148.929 40.6064 149.767C40.6064 150.605 41.1258 151.285 41.7664 151.285Z" fill="#3F3D56"/>
<path d="M41.7664 149.429C42.407 149.429 42.9263 148.749 42.9263 147.911C42.9263 147.073 42.407 146.394 41.7664 146.394C41.1258 146.394 40.6064 147.073 40.6064 147.911C40.6064 148.749 41.1258 149.429 41.7664 149.429Z" fill="#3F3D56"/>
<path d="M41.7664 147.572C42.407 147.572 42.9263 146.893 42.9263 146.055C42.9263 145.217 42.407 144.537 41.7664 144.537C41.1258 144.537 40.6064 145.217 40.6064 146.055C40.6064 146.893 41.1258 147.572 41.7664 147.572Z" fill="#3F3D56"/>
<path d="M41.7664 145.718C42.407 145.718 42.9263 145.039 42.9263 144.201C42.9263 143.362 42.407 142.683 41.7664 142.683C41.1258 142.683 40.6064 143.362 40.6064 144.201C40.6064 145.039 41.1258 145.718 41.7664 145.718Z" fill="#3F3D56"/>
<path d="M41.7664 143.862C42.407 143.862 42.9263 143.182 42.9263 142.344C42.9263 141.506 42.407 140.827 41.7664 140.827C41.1258 140.827 40.6064 141.506 40.6064 142.344C40.6064 143.182 41.1258 143.862 41.7664 143.862Z" fill="#3F3D56"/>
<path d="M41.7664 142.008C42.407 142.008 42.9263 141.328 42.9263 140.49C42.9263 139.652 42.407 138.973 41.7664 138.973C41.1258 138.973 40.6064 139.652 40.6064 140.49C40.6064 141.328 41.1258 142.008 41.7664 142.008Z" fill="#3F3D56"/>
<path d="M46.1128 127.793C46.2712 127.591 46.4153 127.379 46.5442 127.157L43.4938 126.656L46.7931 126.68C47.1114 125.991 47.285 125.245 47.3033 124.486C47.3216 123.728 47.1842 122.974 46.8994 122.27L42.4724 124.563L46.5543 121.557C46.1729 120.895 45.659 120.319 45.0446 119.864C44.4303 119.41 43.7287 119.086 42.9837 118.915C42.2388 118.743 41.4664 118.727 40.7149 118.867C39.9633 119.007 39.2488 119.301 38.6158 119.729C37.9829 120.157 37.4452 120.711 37.0362 121.356C36.6273 122.002 36.3559 122.724 36.2391 123.479C36.1223 124.234 36.1625 125.004 36.3573 125.743C36.552 126.481 36.8971 127.172 37.371 127.771C37.1235 128.084 36.9108 128.424 36.7369 128.783L40.6963 130.838L36.482 129.423C36.1866 130.297 36.1139 131.232 36.2706 132.142C36.4272 133.052 36.8081 133.909 37.3791 134.635C36.7339 135.454 36.3325 136.438 36.2209 137.475C36.1093 138.511 36.2919 139.558 36.7478 140.496C37.2038 141.433 37.9147 142.224 38.7992 142.777C39.6838 143.33 40.7063 143.623 41.7499 143.623C42.7935 143.623 43.816 143.33 44.7006 142.777C45.5852 142.224 46.2961 141.433 46.752 140.496C47.208 139.558 47.3906 138.511 47.2789 137.475C47.1673 136.438 46.766 135.454 46.1208 134.635C46.8916 133.656 47.3107 132.446 47.3107 131.201C47.3107 129.955 46.8916 128.746 46.1208 127.767L46.1128 127.793Z" fill="#E1680F"/>
<path opacity="0.1" d="M36.1812 131.221C36.1793 132.467 36.5987 133.677 37.3712 134.655C36.726 135.474 36.3247 136.458 36.2131 137.495C36.1014 138.531 36.284 139.578 36.74 140.516C37.1959 141.453 37.9068 142.244 38.7914 142.797C39.676 143.35 40.6985 143.643 41.7421 143.643C42.7857 143.643 43.8082 143.35 44.6928 142.797C45.5773 142.244 46.2882 141.453 46.7442 140.516C47.2001 139.578 47.3827 138.531 47.2711 137.495C47.1595 136.458 46.7581 135.474 46.1129 134.655C46.8575 133.716 36.1812 130.603 36.1812 131.221Z" fill="black"/>
</g>
<defs>
<clipPath id="clip0">
<rect width="227" height="157" fill="white"/>
</clipPath>
</defs>
</svg>
