<svg width="70" height="70" viewBox="0 0 70 70" fill="none" xmlns="http://www.w3.org/2000/svg">
<path d="M70 70H0.0825424C0.0825424 70 -2.41451 43.0494 20.059 20.0916C42.5324 -2.86633 70 0.128181 70 0.128181V70Z" fill="#E1680F"/>
<g clip-path="url(#clip0)">
<path d="M48.355 48.8531C48.0045 48.5045 47.5191 48.313 46.985 48.313C46.4227 48.313 45.8808 48.5321 45.498 48.9149L43.0767 51.3368L42.4223 50.9738C40.983 50.1757 39.0105 49.0811 36.9282 46.9958C34.8375 44.9076 33.7421 42.9308 32.9412 41.4854L32.5836 40.8493L35.0091 38.4241C35.8114 37.6191 35.8393 36.3379 35.0696 35.5671L30.5883 31.0864C30.24 30.7381 29.7538 30.5458 29.2207 30.5458C28.659 30.5458 28.1174 30.766 27.7334 31.1492L26.6329 32.256L26.5309 32.4261C26.1209 32.9515 25.7856 33.5419 25.535 34.1855C25.3019 34.7985 25.157 35.3811 25.0895 35.9656C24.512 40.7678 26.7259 45.1763 32.7337 51.1826C39.8537 58.3014 45.8036 58.8553 47.4579 58.8553C47.7418 58.8553 47.9128 58.8397 47.9602 58.8349C48.5717 58.7605 49.1562 58.6134 49.746 58.3854C50.3827 58.1376 50.972 57.8046 51.4966 57.3946L51.7462 57.1972L52.7765 56.1866C53.5777 55.3851 53.6034 54.1056 52.8341 53.3357L48.355 48.8531Z" fill="white"/>
<path d="M46.7551 37.4194C44.9447 35.6087 42.631 34.4272 40.0675 34.0034L39.1758 33.8536L39.3159 34.745C39.3571 35.0094 39.3933 35.2725 39.4236 35.5383L39.4806 36.0073L39.9526 36.1007C41.9958 36.4781 43.8405 37.4428 45.2868 38.8881C46.9472 40.5491 47.962 42.668 48.2187 45.0192L48.2734 45.5168L49.0277 45.6254C49.1489 45.635 49.2719 45.6338 49.4454 45.635L50.3539 45.6662L50.2819 44.9244C49.9992 42.0386 48.7786 39.4441 46.7551 37.4194Z" fill="white"/>
<path d="M50.1716 34.0035C47.2012 31.0337 43.2446 29.2646 39.0305 29.0237L38.2119 28.9726L38.3484 29.7788C38.3901 30.0413 38.4412 30.3099 38.4951 30.5896L38.5948 31.0787L39.0895 31.1092C42.726 31.3583 46.1403 32.9074 48.7044 35.471C51.2272 37.994 52.7688 41.3695 53.0449 44.9711L53.0923 45.612L53.7326 45.5742C53.8844 45.5664 54.0338 45.5532 54.2523 45.5341L55.1686 45.462L55.1181 44.8127C54.8049 40.7187 53.0485 36.8799 50.1716 34.0035Z" fill="white"/>
<path d="M59.9474 44.3531C59.5285 39.156 57.2716 34.2655 53.5912 30.5845C49.6643 26.6573 44.4369 24.3803 38.876 24.1711L38.2456 24.1446L38.1976 24.7783C38.1866 24.9553 38.1791 25.1303 38.1725 25.306L38.1338 26.226L38.7876 26.2494C43.8303 26.4361 48.5662 28.4976 52.1224 32.0538C55.4535 35.3849 57.4974 39.8141 57.879 44.5235L57.9324 45.1848L58.5978 45.12C58.8235 45.096 59.0521 45.0787 59.2826 45.0607L60.0003 45.0054L59.9474 44.3531Z" fill="white"/>
</g>
<defs>
<clipPath id="clip0">
<rect width="35" height="35" fill="white" transform="translate(25 24)"/>
</clipPath>
</defs>
</svg>
