<svg width="100" height="100" viewBox="0 0 100 100" fill="none" xmlns="http://www.w3.org/2000/svg">
<path d="M31.066 73.866V46.1207H25.247C23.7005 46.1224 22.447 47.3759 22.4453 48.9224V80.3315C22.447 81.878 23.7005 83.1315 25.247 83.1332H29.2552C29.7258 80.3778 31.4389 77.9928 33.9006 76.6677H33.8686C32.3212 76.6669 31.0677 75.4133 31.066 73.866Z" fill="white"/>
<path d="M47.1015 83.1332H63.2804V76.6677H42.4561C44.9168 77.9928 46.6309 80.3778 47.1015 83.1332Z" fill="white"/>
<path d="M33.9003 76.6677H42.4561C39.7849 75.2315 36.5706 75.2315 33.8994 76.6677H33.9003Z" fill="white"/>
<path d="M30.6034 82.7022H25.2154C23.6689 82.7006 22.4154 81.447 22.4137 79.9005V47.221C22.4137 46.3876 21.7386 45.7124 20.9051 45.7124C20.0717 45.7124 19.3965 46.3876 19.3965 47.221V79.9005C19.3999 83.1131 22.0029 85.7161 25.2154 85.7195H30.6034C31.4368 85.7195 32.112 85.0443 32.112 84.2109C32.112 83.3774 31.4368 82.7022 30.6034 82.7022Z" fill="#504C58"/>
<path d="M99.9943 60.4787C99.9926 60.4551 99.9901 60.4324 99.9876 60.4097C99.9842 60.3869 99.98 60.3583 99.9758 60.333C99.9708 60.3078 99.9665 60.2859 99.9615 60.2615C99.9564 60.2379 99.9497 60.2143 99.943 60.1908C99.9362 60.1672 99.9295 60.1428 99.9219 60.1201C99.9135 60.0965 99.9051 60.0738 99.8967 60.051C99.8874 60.0283 99.8781 60.0056 99.868 59.9828C99.8579 59.9609 99.847 59.9382 99.8361 59.9163C99.8259 59.8944 99.8142 59.8734 99.8015 59.8515C99.7889 59.8305 99.7771 59.8102 99.7636 59.79C99.751 59.769 99.7359 59.7463 99.7207 59.7252C99.7056 59.7033 99.6929 59.6873 99.6786 59.6688C99.6618 59.6478 99.645 59.6259 99.6273 59.6057C99.6189 59.5964 99.6113 59.5863 99.6029 59.5771L88.5003 47.4803C87.3967 46.2807 85.8426 45.5979 84.2127 45.5954H66.2667V29.9569C66.2633 26.7444 63.6603 24.1413 60.4477 24.1379H40.3407C39.5072 24.1379 38.832 24.8131 38.832 25.6466C38.832 26.48 39.5072 27.1552 40.3407 27.1552H60.4477C61.9942 27.1569 63.2478 28.4104 63.2495 29.9569V82.7022H45.6899C44.8564 82.7022 44.1812 83.3774 44.1812 84.2108C44.1812 85.0443 44.8564 85.7195 45.6899 85.7195H73.7071C74.5406 85.7195 75.2157 85.0443 75.2157 84.2108C75.2157 83.3774 74.5406 82.7022 73.7071 82.7022H66.2667V62.1069H96.983V79.9005C96.9813 81.447 95.7278 82.7005 94.1813 82.7022H88.7933C87.9599 82.7022 87.2847 83.3774 87.2847 84.2108C87.2847 85.0443 87.9599 85.7195 88.7933 85.7195H94.1813C97.3938 85.7161 99.9968 83.1131 100 79.9005V60.5982C100 60.5848 99.9985 60.573 99.9985 60.5604C99.9977 60.5334 99.996 60.5056 99.9943 60.4787V60.4787ZM66.2667 48.6143H84.2127C84.9973 48.6151 85.7458 48.9435 86.277 49.521L95.0593 59.0905H66.2659L66.2667 48.6143Z" fill="#504C58"/>
<path d="M29.2496 22.7657C28.7234 22.12 27.7738 22.0223 27.1273 22.5477L18.233 29.7852L14.8781 25.8579C14.3335 25.2366 13.3914 25.1684 12.7634 25.7047C12.1354 26.2401 12.0554 27.1821 12.5832 27.8169L16.8936 32.8639C17.4256 33.4869 18.3576 33.5719 18.9932 33.055L29.0316 24.8864C29.6764 24.361 29.7741 23.4123 29.2496 22.7657Z" fill="#E1680F"/>
<path d="M38.1464 93.2626C33.1475 93.2626 29.0947 89.2098 29.0947 84.2108C29.0947 79.2119 33.1475 75.1591 38.1464 75.1591C43.1454 75.1591 47.1982 79.2119 47.1982 84.2108C47.1923 89.2073 43.1429 93.2567 38.1464 93.2626ZM38.1464 78.1764C34.8135 78.1764 32.112 80.8779 32.112 84.2108C32.112 87.5438 34.8135 90.2453 38.1464 90.2453C41.4794 90.2453 44.1809 87.5438 44.1809 84.2108C44.1767 80.8796 41.4777 78.1797 38.1464 78.1764Z" fill="#E1680F"/>
<path d="M81.25 93.2626C76.251 93.2626 72.1982 89.2098 72.1982 84.2108C72.1982 79.2119 76.251 75.1591 81.25 75.1591C86.249 75.1591 90.3017 79.2119 90.3017 84.2108C90.2958 89.2073 86.2464 93.2567 81.25 93.2626ZM81.25 78.1764C77.917 78.1764 75.2155 80.8779 75.2155 84.2108C75.2155 87.5438 77.917 90.2453 81.25 90.2453C84.5829 90.2453 87.2845 87.5438 87.2845 84.2108C87.2802 80.8796 84.5812 78.1797 81.25 78.1764Z" fill="#E1680F"/>
<path d="M20.9052 48.7069C9.35985 48.7069 0 39.347 0 27.8017C0 16.2564 9.35985 6.89655 20.9052 6.89655C32.4505 6.89655 41.8103 16.2564 41.8103 27.8017C41.7969 39.342 32.4454 48.6934 20.9052 48.7069ZM20.9052 9.91379C11.0259 9.91379 3.01724 17.9224 3.01724 27.8017C3.01724 37.681 11.0259 45.6896 20.9052 45.6896C30.7844 45.6896 38.7931 37.681 38.7931 27.8017C38.7822 17.9275 30.7794 9.92473 20.9052 9.91379Z" fill="#E1680F"/>
</svg>
