<svg width="19" height="25" viewBox="0 0 19 25" fill="none" xmlns="http://www.w3.org/2000/svg">
<path d="M9.49985 0C4.50742 0 0.445801 4.06162 0.445801 9.054C0.445801 15.2497 8.54829 24.3454 8.89326 24.7295C9.21728 25.0904 9.78301 25.0898 10.1064 24.7295C10.4514 24.3454 18.5539 15.2497 18.5539 9.054C18.5538 4.06162 14.4922 0 9.49985 0ZM9.49985 13.6093C6.98804 13.6093 4.94458 11.5658 4.94458 9.054C4.94458 6.54219 6.98808 4.49873 9.49985 4.49873C12.0116 4.49873 14.0551 6.54224 14.0551 9.05405C14.0551 11.5659 12.0116 13.6093 9.49985 13.6093Z" fill="#FA8A37"/>
</svg>
