<svg width="52" height="62" viewBox="0 0 52 62" fill="none" xmlns="http://www.w3.org/2000/svg">
<path d="M26 2L1 16.5V45.5L26 60L51 45.5V16.5L26 2Z" fill="#C4C4C4"/>
<path d="M26 2L1 16.5V45.5L26 60L51 45.5V16.5L26 2Z" fill="url(#paint0_radial)"/>
<path d="M26 2L1 16.5V45.5L26 60L51 45.5V16.5L26 2Z" stroke="#FA8A37" stroke-width="2"/>
<path d="M18.1612 24.56C18.4545 24.56 18.6012 24.7067 18.6012 25V26.82C18.6012 27.1133 18.4545 27.26 18.1612 27.26C17.8678 27.26 17.7212 27.1133 17.7212 26.82V25.44H11.5412V32.9H14.4212V31.48C14.4212 31.1867 14.5678 31.04 14.8612 31.04C15.1545 31.04 15.3012 31.1867 15.3012 31.48V35.16C15.3012 35.4533 15.1545 35.6 14.8612 35.6C14.5678 35.6 14.4212 35.4533 14.4212 35.16V33.78H11.5412V38.12H13.0212C13.3145 38.12 13.4612 38.2667 13.4612 38.56C13.4612 38.8533 13.3145 39 13.0212 39H6.32117C6.02784 39 5.88117 38.8533 5.88117 38.56C5.88117 38.2667 6.02784 38.12 6.32117 38.12H7.70117V25.44H6.24117C5.94784 25.44 5.80117 25.2933 5.80117 25C5.80117 24.7067 5.94784 24.56 6.24117 24.56H18.1612ZM8.58117 25.44V32.9H10.6612V25.44H8.58117ZM8.58117 33.78V38.12H10.6612V33.78H8.58117ZM21.2652 24.58C21.6519 24.58 21.9852 24.72 22.2652 25C22.5452 25.28 22.6852 25.6133 22.6852 26C22.6852 26.4267 22.5452 26.7867 22.2652 27.08C21.9986 27.36 21.6652 27.5 21.2652 27.5C20.8652 27.5 20.5252 27.36 20.2452 27.08C19.9652 26.7867 19.8252 26.4267 19.8252 26C19.8252 25.6133 19.9652 25.28 20.2452 25C20.5386 24.72 20.8786 24.58 21.2652 24.58ZM21.8252 26C21.8252 25.8267 21.7786 25.6933 21.6852 25.6C21.5786 25.48 21.4386 25.42 21.2652 25.42C21.0786 25.42 20.9386 25.48 20.8452 25.6C20.7386 25.7467 20.6852 25.88 20.6852 26C20.6852 26.4267 20.8786 26.64 21.2652 26.64C21.6386 26.64 21.8252 26.4267 21.8252 26ZM23.2052 38.14C23.4852 38.14 23.6252 38.2867 23.6252 38.58C23.6252 38.6867 23.5852 38.78 23.5052 38.86C23.4119 38.9533 23.3119 39 23.2052 39H19.3652C19.2586 39 19.1586 38.9533 19.0652 38.86C18.9719 38.78 18.9252 38.6867 18.9252 38.58C18.9252 38.2867 19.0719 38.14 19.3652 38.14H19.9252V31.1H19.3652C19.0719 31.1 18.9252 30.9533 18.9252 30.66C18.9252 30.5533 18.9719 30.46 19.0652 30.38C19.1586 30.2867 19.2586 30.24 19.3652 30.24H22.2052C22.3119 30.24 22.4119 30.2867 22.5052 30.38C22.5852 30.46 22.6252 30.5533 22.6252 30.66V38.14H23.2052ZM21.7852 31.1H20.7852V38.14H21.7852V31.1ZM27.0855 24.58C27.4722 24.58 27.8055 24.72 28.0855 25C28.3655 25.28 28.5055 25.6133 28.5055 26C28.5055 26.4267 28.3655 26.7867 28.0855 27.08C27.8189 27.36 27.4855 27.5 27.0855 27.5C26.6855 27.5 26.3455 27.36 26.0655 27.08C25.7855 26.7867 25.6455 26.4267 25.6455 26C25.6455 25.6133 25.7855 25.28 26.0655 25C26.3589 24.72 26.6989 24.58 27.0855 24.58ZM27.6455 26C27.6455 25.8267 27.5989 25.6933 27.5055 25.6C27.3989 25.48 27.2589 25.42 27.0855 25.42C26.8989 25.42 26.7589 25.48 26.6655 25.6C26.5589 25.7467 26.5055 25.88 26.5055 26C26.5055 26.4267 26.6989 26.64 27.0855 26.64C27.4589 26.64 27.6455 26.4267 27.6455 26ZM29.0255 38.14C29.3055 38.14 29.4455 38.2867 29.4455 38.58C29.4455 38.6867 29.4055 38.78 29.3255 38.86C29.2322 38.9533 29.1322 39 29.0255 39H25.1855C25.0789 39 24.9789 38.9533 24.8855 38.86C24.7922 38.78 24.7455 38.6867 24.7455 38.58C24.7455 38.2867 24.8922 38.14 25.1855 38.14H25.7455V31.1H25.1855C24.8922 31.1 24.7455 30.9533 24.7455 30.66C24.7455 30.5533 24.7922 30.46 24.8855 30.38C24.9789 30.2867 25.0789 30.24 25.1855 30.24H28.0255C28.1322 30.24 28.2322 30.2867 28.3255 30.38C28.4055 30.46 28.4455 30.5533 28.4455 30.66V38.14H29.0255ZM27.6055 31.1H26.6055V38.14H27.6055V31.1ZM46.8059 38.1C47.0992 38.1 47.2459 38.2467 47.2459 38.54C47.2459 38.8467 47.0992 39 46.8059 39H38.9859C38.6792 39 38.5259 38.8467 38.5259 38.54C38.5259 38.2467 38.6792 38.1 38.9859 38.1H40.6059L37.5659 33.4L33.4859 38.1H35.0059C35.2992 38.1 35.4459 38.2467 35.4459 38.54C35.4459 38.8467 35.2992 39 35.0059 39H31.0259C30.7192 39 30.5659 38.8467 30.5659 38.54C30.5659 38.2467 30.7192 38.1 31.0259 38.1H32.3059L37.0659 32.64L32.4059 25.46H31.0259C30.7192 25.46 30.5659 25.3067 30.5659 25C30.5659 24.7067 30.7192 24.56 31.0259 24.56H38.8259C39.1192 24.56 39.2659 24.7067 39.2659 25C39.2659 25.3067 39.1192 25.46 38.8259 25.46H37.1259L39.7659 29.52L43.3059 25.46H41.8259C41.5192 25.46 41.3659 25.3067 41.3659 25C41.3659 24.7067 41.5192 24.56 41.8259 24.56H45.8259C46.1192 24.56 46.2659 24.7067 46.2659 25C46.2659 25.3067 46.1192 25.46 45.8259 25.46H44.4659L40.2659 30.3L45.3459 38.1H46.8059ZM39.1459 30.22L36.0659 25.46H33.4659L37.6659 31.92L39.1459 30.22ZM39.6659 31L38.1859 32.7L41.6859 38.1H44.2659L39.6659 31Z" fill="#FA8A37"/>
<defs>
<radialGradient id="paint0_radial" cx="0" cy="0" r="1" gradientUnits="userSpaceOnUse" gradientTransform="translate(26 21.0917) rotate(90) scale(22.9583 19.7917)">
<stop stop-color="#7C7A82"/>
<stop offset="1" stop-color="#504C58"/>
</radialGradient>
</defs>
</svg>
