<svg width="168" height="180" viewBox="0 0 168 180" fill="none" xmlns="http://www.w3.org/2000/svg">
<g filter="url(#filter0_d)">
<path d="M84 40L127.301 65V115L84 140L40.6987 115V65L84 40Z" fill="url(#paint0_radial)"/>
<path d="M41.6987 65.5774L84 41.1547L126.301 65.5774V114.423L84 138.845L41.6987 114.423V65.5774Z" stroke="#FA8A37" stroke-width="2"/>
</g>
<path d="M71.1579 76.896C71.6272 76.896 71.8619 77.1307 71.8619 77.6V80.512C71.8619 80.9813 71.6272 81.216 71.1579 81.216C70.6885 81.216 70.4539 80.9813 70.4539 80.512V78.304H60.5659V90.24H65.1739V87.968C65.1739 87.4987 65.4085 87.264 65.8779 87.264C66.3472 87.264 66.5819 87.4987 66.5819 87.968V93.856C66.5819 94.3253 66.3472 94.56 65.8779 94.56C65.4085 94.56 65.1739 94.3253 65.1739 93.856V91.648H60.5659V98.592H62.9339C63.4032 98.592 63.6379 98.8267 63.6379 99.296C63.6379 99.7653 63.4032 100 62.9339 100H52.2139C51.7445 100 51.5099 99.7653 51.5099 99.296C51.5099 98.8267 51.7445 98.592 52.2139 98.592H54.4219V78.304H52.0859C51.6165 78.304 51.3819 78.0693 51.3819 77.6C51.3819 77.1307 51.6165 76.896 52.0859 76.896H71.1579ZM55.8299 78.304V90.24H59.1579V78.304H55.8299ZM55.8299 91.648V98.592H59.1579V91.648H55.8299ZM76.1244 76.928C76.743 76.928 77.2764 77.152 77.7244 77.6C78.1724 78.048 78.3964 78.5813 78.3964 79.2C78.3964 79.8827 78.1724 80.4587 77.7244 80.928C77.2977 81.376 76.7644 81.6 76.1244 81.6C75.4844 81.6 74.9404 81.376 74.4924 80.928C74.0444 80.4587 73.8204 79.8827 73.8204 79.2C73.8204 78.5813 74.0444 78.048 74.4924 77.6C74.9617 77.152 75.5057 76.928 76.1244 76.928ZM77.0204 79.2C77.0204 78.9227 76.9457 78.7093 76.7964 78.56C76.6257 78.368 76.4017 78.272 76.1244 78.272C75.8257 78.272 75.6017 78.368 75.4524 78.56C75.2817 78.7947 75.1964 79.008 75.1964 79.2C75.1964 79.8827 75.5057 80.224 76.1244 80.224C76.7217 80.224 77.0204 79.8827 77.0204 79.2ZM79.2284 98.624C79.6764 98.624 79.9004 98.8587 79.9004 99.328C79.9004 99.4987 79.8364 99.648 79.7084 99.776C79.559 99.9253 79.399 100 79.2284 100H73.0844C72.9137 100 72.7537 99.9253 72.6044 99.776C72.455 99.648 72.3804 99.4987 72.3804 99.328C72.3804 98.8587 72.615 98.624 73.0844 98.624H73.9804V87.36H73.0844C72.615 87.36 72.3804 87.1253 72.3804 86.656C72.3804 86.4853 72.455 86.336 72.6044 86.208C72.7537 86.0587 72.9137 85.984 73.0844 85.984H77.6284C77.799 85.984 77.959 86.0587 78.1084 86.208C78.2364 86.336 78.3004 86.4853 78.3004 86.656V98.624H79.2284ZM76.9564 87.36H75.3564V98.624H76.9564V87.36ZM85.4369 76.928C86.0555 76.928 86.5889 77.152 87.0369 77.6C87.4849 78.048 87.7089 78.5813 87.7089 79.2C87.7089 79.8827 87.4849 80.4587 87.0369 80.928C86.6102 81.376 86.0769 81.6 85.4369 81.6C84.7969 81.6 84.2529 81.376 83.8049 80.928C83.3569 80.4587 83.1329 79.8827 83.1329 79.2C83.1329 78.5813 83.3569 78.048 83.8049 77.6C84.2742 77.152 84.8182 76.928 85.4369 76.928ZM86.3329 79.2C86.3329 78.9227 86.2582 78.7093 86.1089 78.56C85.9382 78.368 85.7142 78.272 85.4369 78.272C85.1382 78.272 84.9142 78.368 84.7649 78.56C84.5942 78.7947 84.5089 79.008 84.5089 79.2C84.5089 79.8827 84.8182 80.224 85.4369 80.224C86.0342 80.224 86.3329 79.8827 86.3329 79.2ZM88.5409 98.624C88.9889 98.624 89.2129 98.8587 89.2129 99.328C89.2129 99.4987 89.1489 99.648 89.0209 99.776C88.8715 99.9253 88.7115 100 88.5409 100H82.3969C82.2262 100 82.0662 99.9253 81.9169 99.776C81.7675 99.648 81.6929 99.4987 81.6929 99.328C81.6929 98.8587 81.9275 98.624 82.3969 98.624H83.2929V87.36H82.3969C81.9275 87.36 81.6929 87.1253 81.6929 86.656C81.6929 86.4853 81.7675 86.336 81.9169 86.208C82.0662 86.0587 82.2262 85.984 82.3969 85.984H86.9409C87.1115 85.984 87.2715 86.0587 87.4209 86.208C87.5489 86.336 87.6129 86.4853 87.6129 86.656V98.624H88.5409ZM86.2689 87.36H84.6689V98.624H86.2689V87.36ZM116.989 98.56C117.459 98.56 117.693 98.7947 117.693 99.264C117.693 99.7547 117.459 100 116.989 100H104.477C103.987 100 103.741 99.7547 103.741 99.264C103.741 98.7947 103.987 98.56 104.477 98.56H107.069L102.205 91.04L95.6774 98.56H98.1094C98.5787 98.56 98.8134 98.7947 98.8134 99.264C98.8134 99.7547 98.5787 100 98.1094 100H91.7414C91.2507 100 91.0054 99.7547 91.0054 99.264C91.0054 98.7947 91.2507 98.56 91.7414 98.56H93.7894L101.405 89.824L93.9494 78.336H91.7414C91.2507 78.336 91.0054 78.0907 91.0054 77.6C91.0054 77.1307 91.2507 76.896 91.7414 76.896H104.221C104.691 76.896 104.925 77.1307 104.925 77.6C104.925 78.0907 104.691 78.336 104.221 78.336H101.501L105.725 84.832L111.389 78.336H109.021C108.531 78.336 108.285 78.0907 108.285 77.6C108.285 77.1307 108.531 76.896 109.021 76.896H115.421C115.891 76.896 116.125 77.1307 116.125 77.6C116.125 78.0907 115.891 78.336 115.421 78.336H113.245L106.525 86.08L114.653 98.56H116.989ZM104.733 85.952L99.8054 78.336H95.6454L102.365 88.672L104.733 85.952ZM105.565 87.2L103.197 89.92L108.797 98.56H112.925L105.565 87.2Z" fill="#FA8A37"/>
<defs>
<filter id="filter0_d" x="0.69873" y="0" width="166.603" height="180" filterUnits="userSpaceOnUse" color-interpolation-filters="sRGB">
<feFlood flood-opacity="0" result="BackgroundImageFix"/>
<feColorMatrix in="SourceAlpha" type="matrix" values="0 0 0 0 0 0 0 0 0 0 0 0 0 0 0 0 0 0 127 0"/>
<feOffset/>
<feGaussianBlur stdDeviation="20"/>
<feColorMatrix type="matrix" values="0 0 0 0 0 0 0 0 0 0 0 0 0 0 0 0 0 0 0.4 0"/>
<feBlend mode="normal" in2="BackgroundImageFix" result="effect1_dropShadow"/>
<feBlend mode="normal" in="SourceGraphic" in2="effect1_dropShadow" result="shape"/>
</filter>
<radialGradient id="paint0_radial" cx="0" cy="0" r="1" gradientUnits="userSpaceOnUse" gradientTransform="translate(84 72.9167) rotate(90) scale(39.5833)">
<stop stop-color="#7C7A82"/>
<stop offset="1" stop-color="#504C58"/>
</radialGradient>
</defs>
</svg>
