<svg width="100" height="100" viewBox="0 0 100 100" fill="none" xmlns="http://www.w3.org/2000/svg">
<g clip-path="url(#clip0)">
<path d="M81.8988 71.3428C81.4018 71.4773 80.9725 71.7895 80.6918 72.2199L75.9307 79.5085L86.577 76.6279L86.2542 70.1639L81.8988 71.3428Z" fill="white"/>
<path d="M59.7281 79.0313C59.2475 78.8488 58.7165 78.8488 58.2358 79.0313L45.0108 84.0696L37.2732 72.2199C36.9913 71.7896 36.5621 71.4773 36.065 71.3428L22.4049 67.6459L23.109 53.511C23.1347 52.9964 22.971 52.4911 22.6482 52.0911L13.7691 41.0695L22.6482 30.049C22.971 29.6479 23.1347 29.1438 23.109 28.6292L22.7265 20.9583L13.4229 23.4763L14.127 37.6112C14.1527 38.1258 13.989 38.6299 13.6662 39.031L4.78711 50.0515L13.6662 61.0731C13.989 61.4731 14.1527 61.9784 14.127 62.493L13.4229 76.6279L27.083 80.3248C27.5801 80.4593 28.0093 80.7715 28.2912 81.2019L36.0288 93.0516L49.2538 88.0133C49.7345 87.8308 50.2655 87.8308 50.7462 88.0133L63.9712 93.0516L70.4574 83.1188L59.7281 79.0313Z" fill="white"/>
<path d="M38.4137 45.8272C33.6198 45.8272 29.7334 41.942 29.7334 37.1481C29.7334 32.3541 33.6198 28.4678 38.4137 28.4678C43.2076 28.4678 47.0928 32.3541 47.0928 37.1481C47.0881 41.9397 43.2053 45.8225 38.4137 45.8272ZM38.4137 32.6594C35.9354 32.6594 33.925 34.6698 33.925 37.1481C33.925 39.6263 35.9354 41.6356 38.4137 41.6356C40.8919 41.6356 42.9012 39.6263 42.9012 37.1481C42.8989 34.6698 40.8908 32.6629 38.4137 32.6594Z" fill="#E1680F"/>
<path d="M61.06 72.1627C56.2672 72.1627 52.3809 68.2763 52.3809 63.4824C52.3809 58.6885 56.2672 54.8033 61.0612 54.8033C65.8539 54.8033 69.7403 58.6896 69.7403 63.4824C69.7344 68.274 65.8516 72.1568 61.06 72.1627ZM61.06 58.9949C58.5817 58.9949 56.5725 61.0041 56.5725 63.4836C56.5725 65.9618 58.5817 67.9711 61.0612 67.9711C63.5394 67.9711 65.5487 65.9618 65.5487 63.4824C65.5463 61.0053 63.5382 58.9972 61.06 58.9949Z" fill="#E1680F"/>
<path d="M9.90076 63.0812L9.15226 78.105C9.10431 79.0897 9.74755 79.9751 10.6984 80.2324L25.2193 84.162L33.4434 96.7578C33.9826 97.5835 35.0235 97.9215 35.945 97.5706L50.0005 92.2142L64.057 97.5695C64.9775 97.9203 66.0184 97.5823 66.5575 96.7578L74.7816 84.1631L89.3025 80.2335C90.2545 79.9762 90.8978 79.0909 90.8487 78.1061L90.1002 63.0824L99.5371 51.3683C100.156 50.6011 100.156 49.5053 99.5371 48.7381L90.1002 37.024L90.8487 22.0003C90.8966 21.0167 90.2534 20.1313 89.3025 19.874L74.7816 15.9444L66.5575 3.34507C66.0184 2.52055 64.9775 2.18256 64.0559 2.53342L50.0005 7.88987L35.9439 2.53459C35.0235 2.18373 33.9826 2.52172 33.4434 3.34507L25.2193 15.9409L10.6984 19.8705C9.74755 20.1278 9.10431 21.0132 9.15226 21.9967L9.90076 37.0205L0.464988 48.7369C-0.153694 49.5041 -0.153694 50.6 0.464988 51.3672L9.90076 63.0812ZM13.6666 39.031C13.9894 38.6298 14.1532 38.1257 14.1274 37.6112L13.4234 23.4762L27.0835 19.7793C27.5806 19.6448 28.0098 19.3326 28.2916 18.9022L36.0292 7.05248L49.2543 12.0908C49.735 12.2733 50.2659 12.2733 50.7466 12.0908L63.9717 7.05248L71.7105 18.9022C71.9911 19.3326 72.4204 19.6448 72.9174 19.7793L86.5787 23.4762L85.8735 37.6112C85.8477 38.1257 86.0115 38.6298 86.3343 39.031L95.2134 50.0514L86.3343 61.0731C86.0115 61.4731 85.8477 61.9783 85.8735 62.4929L86.5787 76.6279L72.9174 80.3248C72.4204 80.4592 71.9911 80.7715 71.7105 81.2019L63.9717 93.0516L50.7466 88.0132C50.2659 87.8308 49.735 87.8308 49.2543 88.0132L36.0292 93.0516L28.2916 81.2019C28.0098 80.7715 27.5806 80.4592 27.0835 80.3248L13.4234 76.6279L14.1274 62.4929C14.1532 61.9783 13.9894 61.4731 13.6666 61.0731L4.78757 50.0514L13.6666 39.031Z" fill="#504C58"/>
<path d="M34.0411 74.5219C35.0107 75.1546 36.31 74.8809 36.9416 73.9114L66.5683 28.4831C66.9788 27.8562 67.0232 27.0574 66.6852 26.3884C66.3461 25.7195 65.6759 25.2821 64.9274 25.2423C64.1789 25.2014 63.4655 25.5651 63.0573 26.1931L33.4306 71.6214C32.7979 72.591 33.0716 73.8891 34.0411 74.5219Z" fill="#E1680F"/>
</g>
<defs>
<clipPath id="clip0">
<rect width="100" height="100" fill="white"/>
</clipPath>
</defs>
</svg>
