<svg width="100" height="100" viewBox="0 0 100 100" fill="none" xmlns="http://www.w3.org/2000/svg">
<g clip-path="url(#clip0)">
<path d="M44.0711 61.5049C43.524 61.506 43.0029 61.2658 42.6479 60.8492L32.764 49.2747C32.0926 48.4885 32.1855 47.3076 32.9717 46.6362C33.758 45.9658 34.9389 46.0587 35.6103 46.8439L44.3071 57.0286L65.9075 39.4555C66.7095 38.8029 67.8883 38.924 68.5399 39.7259C69.1925 40.5279 69.0713 41.7067 68.2694 42.3583L45.25 61.0852C44.9179 61.3567 44.5013 61.5049 44.0711 61.5049Z" fill="#E1680F"/>
<path d="M43.4542 97.6336L48.5267 99.8441C49.0008 100.051 49.5406 100.052 50.0157 99.8462L55.7314 97.3778C75.8 88.9494 88.8562 69.3068 88.8582 47.5403V21.899C88.8582 21.2077 88.4771 20.5719 87.8673 20.2471L50.283 0.220228C49.7254 -0.0773561 49.0571 -0.0731797 48.5037 0.230669L11.9593 20.2576C11.36 20.5865 10.9883 21.2151 10.9883 21.899V48.0592C11.0102 69.5636 23.751 89.0183 43.4542 97.6336V97.6336ZM14.7305 23.0068L49.4153 3.99694L85.116 23.0204V47.5403C85.1118 67.8063 72.9526 86.0926 54.2664 93.9352L54.2529 93.9415L49.2764 96.0904L44.9515 94.2036C26.6109 86.1845 14.7504 68.0767 14.7295 48.0592L14.7305 23.0068Z" fill="#504C58"/>
<path d="M62.2856 83.2422L62.273 83.2474L57.2955 85.3973L52.9706 83.5116C34.6301 75.4925 22.7695 57.3847 22.7486 37.3672V18.6121L14.7295 23.0069V48.0594C14.7504 68.0769 26.6109 86.1846 44.9515 94.2037L49.2754 96.0895L54.2529 93.9395L54.2654 93.9343C64.6234 89.5729 73.2304 81.8816 78.7237 72.0781C74.0354 76.8478 68.4482 80.6422 62.2856 83.2422Z" fill="white"/>
</g>
<defs>
<clipPath id="clip0">
<rect width="100" height="100" fill="white"/>
</clipPath>
</defs>
</svg>
