<svg width="243" height="164" fill="none" xmlns="http://www.w3.org/2000/svg"><g clip-path="url(#clip0)"><path opacity=".1" d="M163.707 164c16.634 0 30.118-.953 30.118-2.128 0-1.176-13.484-2.129-30.118-2.129-16.633 0-30.118.953-30.118 2.129 0 1.175 13.485 2.128 30.118 2.128zM243 96.645a57.223 57.223 0 01-5.244 23.898 57.03 57.03 0 01-14.74 19.495 56.799 56.799 0 01-21.523 11.505 56.669 56.669 0 01-24.347 1.399h-90.08a76.977 76.977 0 01-17.971.357 76.395 76.395 0 01-49.272-24.838A76.9 76.9 0 010 76.831C0 34.396 34.281 0 76.567 0c34.057 0 62.915 22.313 72.86 53.164a56.482 56.482 0 0136.763-13.536c31.371 0 56.81 25.527 56.81 57.017z" fill="#E1680F"/><path opacity=".1" d="M221.173 141.566a56.836 56.836 0 01-20.833 10.291 56.718 56.718 0 01-23.194 1.084h-90.08a76.98 76.98 0 01-17.971.358 76.457 76.457 0 01-40.73-16.762 76.875 76.875 0 01-24.808-36.489c7.334-15.726 26.177-26.917 48.269-26.917 21.528 0 39.98 10.629 47.681 25.725a63.794 63.794 0 0111.494-1.037c22.313 0 41.31 11.423 48.483 27.385a62.476 62.476 0 0118.328-2.705c18.198.008 34.192 7.6 43.361 19.067z" fill="#E1680F"/><path d="M74.595 143.281c0 5.453-2.085 8.413-5.5 10.018a75.985 75.985 0 01-35.844-13.106 20.722 20.722 0 011.554-5.374l9.712 3.031-8.65-5.108a20.857 20.857 0 014.423-5.308l16.317 5.091-12.783-7.534a20.726 20.726 0 0124.802 3.659 20.876 20.876 0 014.74 7.559l.045.128a19.63 19.63 0 01.515 1.69c.03.125.062.238.09.357l.072.311c.015.064.03.128.042.191a16.472 16.472 0 01.225 1.224c.023.156.05.345.072.519.021.175.038.311.053.467 0 .048.01.095.015.144.015.136.025.273.036.409a.426.426 0 010 .053 20.845 20.845 0 01.05 1.058c.011.17.014.345.014.521z" fill="#E1680F"/><path opacity=".1" d="M74.595 143.281c0 5.453-2.085 8.413-5.5 10.018a75.813 75.813 0 01-24.06-6.436l.348-.232c1.571-1.045 3.196-2.113 5.045-2.469 1.627-.312 3.305-.049 4.957-.142a11.579 11.579 0 007.595-3.493c1.182-1.226 2.121-2.73 3.532-3.667 1.531-1.008 3.474-1.226 5.29-.974.527.077 1.05.184 1.565.321l.044.128a19.726 19.726 0 01.515 1.689c.03.126.062.239.09.358l.072.311c.015.064.03.127.042.191a16.472 16.472 0 01.225 1.224c.023.155.05.345.072.519.021.175.038.311.053.466 0 .049.01.096.015.145.015.136.025.273.036.409a.426.426 0 010 .053 20.361 20.361 0 01.05 1.058c.012.172.014.347.014.523z" fill="#000"/><path d="M198.417 146.821a7.83 7.83 0 01-.238 1.951c-.602 2.424-2.301 4.197-4.328 4.31h-.213c-2.144 0-3.957-1.856-4.555-4.412a7.963 7.963 0 01-.217-1.864c0-3.463 2.136-6.268 4.772-6.268 2.637 0 4.779 2.82 4.779 6.283z" fill="#3F3D56"/><path opacity=".1" d="M198.417 146.821a7.895 7.895 0 01-.237 1.951h-.212a9.53 9.53 0 01-1.561-.213 9.513 9.513 0 01-2.482.422h-.369a9.579 9.579 0 01-3.357-.598c-.363.121-.733.22-1.108.298a7.839 7.839 0 01-.216-1.865c0-3.462 2.136-6.267 4.772-6.267 2.637 0 4.77 2.809 4.77 6.272z" fill="#000"/><path d="M208.598 135.145a9.706 9.706 0 00-1.04-4.386l-5.612 1.751 4.927-2.905a9.694 9.694 0 00-7.287-4.169 9.891 9.891 0 00-.757-1.005l-8.06 2.518 6.611-3.901a9.681 9.681 0 00-9.017-1.497 9.69 9.69 0 00-3.961 2.558 9.738 9.738 0 00-2.293 4.13l6.904 7.974-7.49-5.435a9.734 9.734 0 00-3.805 5.605 9.763 9.763 0 00.766 6.738 9.706 9.706 0 004.966 4.601 9.67 9.67 0 006.755.231 9.704 9.704 0 006.21.172 9.672 9.672 0 008.162-1.926 9.762 9.762 0 003.624-7.587c0-.213 0-.426-.021-.639.278-.917.418-1.87.418-2.828z" fill="#E1680F"/><path opacity=".1" d="M208.43 136.95a25.751 25.751 0 00-8.98-.115c-3.37.56-6.815 1.79-10.111.892-1.934-.528-3.605-1.75-5.495-2.429a10.398 10.398 0 00-5.674-.34 9.773 9.773 0 001.842 10.382 9.68 9.68 0 0010.182 2.613 9.704 9.704 0 006.21.172 9.693 9.693 0 008.17-1.921 9.765 9.765 0 003.627-7.592c0-.213 0-.426-.021-.638.102-.337.185-.679.25-1.024z" fill="#000"/><path d="M151.336 53.296h-.908a.487.487 0 00-.486.487V68.35c0 .27.218.488.486.488h.908a.487.487 0 00.486-.488V53.783a.487.487 0 00-.486-.487zM88.061 41.12h-.083a.486.486 0 00-.485.488v4.141c0 .27.217.488.485.488h.083a.487.487 0 00.486-.488v-4.141a.487.487 0 00-.486-.488zm.095 9.369h-.216a.487.487 0 00-.486.487v7.93c0 .27.218.487.486.487h.216a.487.487 0 00.486-.487v-7.93a.487.487 0 00-.486-.487zm-.038 12.021h-.16a.487.487 0 00-.485.487v8.006c0 .27.218.488.486.488h.159a.487.487 0 00.486-.488v-8.006a.487.487 0 00-.486-.488z" fill="#3A3768"/><path d="M142.686 24.213H96.36c-4.567 0-8.27 3.716-8.27 8.298V144.12c0 4.583 3.703 8.298 8.27 8.298h46.326c4.568 0 8.27-3.715 8.27-8.298V32.511c0-4.582-3.702-8.298-8.27-8.298z" fill="#3F3D56"/><path d="M121.417 28.042h-7.137a.823.823 0 00-.821.824v.14c0 .455.368.824.821.824h7.137a.822.822 0 00.821-.824v-.14a.822.822 0 00-.821-.824zm3.158 1.909c.559 0 1.012-.454 1.012-1.015a1.013 1.013 0 10-2.024 0c0 .56.453 1.015 1.012 1.015z" fill="#E6E8EC"/><path d="M142.073 27.552h-7.19v.871a4.131 4.131 0 01-1.204 2.917 4.103 4.103 0 01-2.906 1.207h-22.945a4.105 4.105 0 01-2.907-1.207 4.135 4.135 0 01-1.204-2.917v-.87h-6.753a4.975 4.975 0 00-3.53 1.467 5.01 5.01 0 00-1.46 3.542V144.07a5.024 5.024 0 001.46 3.542 4.996 4.996 0 003.53 1.468h45.109a4.986 4.986 0 003.531-1.468 5.019 5.019 0 001.462-3.542V32.562a5.02 5.02 0 00-1.462-3.542 4.987 4.987 0 00-3.531-1.468z" fill="#E1680F"/><path opacity=".1" d="M125.886 47.56H94.284v5.108h31.602V47.56zm-23.967 34.904c3.749 0 6.788-3.05 6.788-6.81 0-3.762-3.039-6.811-6.788-6.811-3.748 0-6.787 3.05-6.787 6.81 0 3.762 3.039 6.81 6.787 6.81z" fill="#000" stroke="#E1680F" stroke-miterlimit="10"/><path d="M100.01 74.377v2.553h1.697l2.121 2.224V72.15l-2.121 2.227h-1.697z" fill="#fff"/><path opacity=".1" d="M119.947 82.464c3.749 0 6.787-3.05 6.787-6.81 0-3.762-3.038-6.811-6.787-6.811-3.748 0-6.787 3.05-6.787 6.81 0 3.762 3.039 6.81 6.787 6.81z" fill="#000" stroke="#E1680F" stroke-miterlimit="10"/><path d="M119.947 78.497a.81.81 0 00-.799.969.817.817 0 00.636.64.805.805 0 00.833-.344.816.816 0 00-.67-1.265zm-2.375-7.313a.807.807 0 00-.753.498.817.817 0 00.586 1.112.806.806 0 00.834-.345.817.817 0 00-.098-1.025.81.81 0 00-.569-.24zm0 2.44a.806.806 0 00-.753.497.815.815 0 00.587 1.112.81.81 0 00.97-.799.807.807 0 00-.804-.81zm0 2.436a.807.807 0 00-.753.497.817.817 0 00.586 1.112.808.808 0 00.834-.344.817.817 0 00-.098-1.025.81.81 0 00-.569-.24zm4.751-3.25a.808.808 0 00.751-.499.814.814 0 00-.587-1.11.808.808 0 00-.97.796.807.807 0 00.235.574.81.81 0 00.571.24zm-2.376 3.25a.808.808 0 00-.751.499.814.814 0 00.588 1.111.805.805 0 00.833-.345.816.816 0 00-.67-1.265zm2.376 0a.813.813 0 10.305 1.564.81.81 0 00.501-.751.815.815 0 00-.806-.813zm0-2.437a.81.81 0 00-.799.97.816.816 0 00.636.64.807.807 0 00.833-.346.818.818 0 00-.1-1.026.806.806 0 00-.57-.238zm-2.376 0a.809.809 0 00-.751.5.815.815 0 00.589 1.11.81.81 0 00.968-.799.808.808 0 00-.806-.81zm0-2.439a.81.81 0 00-.799.97.817.817 0 00.636.64.805.805 0 00.833-.345.816.816 0 00-.67-1.265z" fill="#fff"/><g opacity=".4"><path opacity=".1" d="M101.919 102.895c3.749 0 6.788-3.049 6.788-6.81 0-3.761-3.039-6.81-6.788-6.81-3.748 0-6.787 3.049-6.787 6.81 0 3.761 3.039 6.81 6.787 6.81z" fill="#000" stroke="#E1680F" stroke-miterlimit="10"/><path opacity=".4" d="M105.101 96.51h-2.758v2.767h-.848V96.51h-2.757v-.85h2.757v-2.768h.848v2.767h2.758v.851z" fill="#fff"/></g><path opacity=".1" d="M137.976 82.464c3.748 0 6.787-3.05 6.787-6.81 0-3.762-3.039-6.811-6.787-6.811-3.749 0-6.788 3.05-6.788 6.81 0 3.762 3.039 6.81 6.788 6.81z" fill="#000" stroke="#E1680F" stroke-miterlimit="10"/><path d="M137.976 71.501a3.86 3.86 0 00-2.721 1.173 3.889 3.889 0 00-1.097 2.76v3.059a1.298 1.298 0 00.78 1.206c.156.067.323.102.493.105h1.272V76.29h-1.697v-.852c0-.79.313-1.548.87-2.106a2.965 2.965 0 014.199 0c.557.558.87 1.316.87 2.107v.85h-1.697v3.513h1.273a1.29 1.29 0 001.273-1.312v-3.056a3.905 3.905 0 00-1.097-2.76 3.875 3.875 0 00-2.721-1.173z" fill="#fff"/><g opacity=".4"><path opacity=".1" d="M119.947 102.895c3.749 0 6.787-3.049 6.787-6.81 0-3.761-3.038-6.81-6.787-6.81-3.748 0-6.787 3.049-6.787 6.81 0 3.761 3.039 6.81 6.787 6.81z" fill="#000" stroke="#E1680F" stroke-miterlimit="10"/><path opacity=".4" d="M122.493 95.355v-1.703a.505.505 0 00-.148-.346.499.499 0 00-.349-.139h-6.011a.49.49 0 00-.494.485v4.855a.496.496 0 00.494.485h6.009a.491.491 0 00.496-.485v-1.703l1.909 1.941v-5.331l-1.906 1.94z" fill="#fff"/></g><path opacity=".1" d="M137.976 102.895c3.748 0 6.787-3.049 6.787-6.81 0-3.761-3.039-6.81-6.787-6.81-3.749 0-6.788 3.049-6.788 6.81 0 3.761 3.039 6.81 6.788 6.81z" fill="#000" stroke="#E1680F" stroke-miterlimit="10"/><path d="M137.641 97.839a2.42 2.42 0 01-2.395 0c-.937.287-1.512 1.238-1.724 2.075h5.843c-.212-.837-.785-1.788-1.724-2.075zm-1.196-4.47a2.112 2.112 0 00-2.068 2.525 2.105 2.105 0 004.172-.414c0-.56-.222-1.096-.617-1.492a2.098 2.098 0 00-1.487-.619zm0 3.72a1.622 1.622 0 01-1.472-1.009h2.942a1.62 1.62 0 01-1.47 1.01z" fill="#fff"/><path d="M139.299 98.637h3.131a2.612 2.612 0 00-1.725-1.915 2.423 2.423 0 01-1.198.316 2.377 2.377 0 01-.827-.14c-.148.26-.335.496-.556.698.485.223.894.585 1.175 1.04zm-.318-3.672h1.998a1.625 1.625 0 01-1.472 1.005 1.539 1.539 0 01-.505-.09 2.54 2.54 0 01-.129.5 2.1 2.1 0 002.396-.846 2.11 2.11 0 00.269-1.747 2.11 2.11 0 00-2.029-1.533 2.101 2.101 0 00-1.775.979 2.61 2.61 0 011.247 1.732z" fill="#fff"/><path d="M119.947 130.137c3.749 0 6.787-3.049 6.787-6.81 0-3.761-3.038-6.811-6.787-6.811-3.748 0-6.787 3.05-6.787 6.811s3.039 6.81 6.787 6.81z" fill="#FF6F61"/><path d="M116.463 125.008a4.989 4.989 0 011.253-.868.402.402 0 00.236-.371l.036-1.324a6.362 6.362 0 013.958.107l-.036 1.324a.436.436 0 00.212.383c.46.24.878.557 1.234.936a.419.419 0 00.6.017l1.078-1.026a.43.43 0 00.017-.6 7.2 7.2 0 00-7.815-1.781 7.215 7.215 0 00-2.381 1.505.44.44 0 00-.132.298.431.431 0 00.117.304l1.021 1.081a.416.416 0 00.297.132.415.415 0 00.303-.117h.002z" fill="#fff"/><path opacity=".1" d="M138.824 57.138c2.928 0 5.302-2.383 5.302-5.321 0-2.938-2.374-5.32-5.302-5.32-2.929 0-5.303 2.382-5.303 5.32s2.374 5.32 5.303 5.32z" fill="#000" stroke="#E1680F" stroke-miterlimit="10"/><path d="M140.022 53.01a2.422 2.422 0 01-2.396 0c-.938.288-1.513 1.24-1.725 2.078h5.846c-.212-.839-.787-1.79-1.725-2.077zm-1.198-4.468a2.103 2.103 0 00-1.947 1.303 2.119 2.119 0 00.455 2.303 2.103 2.103 0 003.596-1.493 2.119 2.119 0 00-.617-1.493 2.103 2.103 0 00-1.487-.62zm0 3.722a1.628 1.628 0 01-1.472-1.009h2.944a1.638 1.638 0 01-1.472 1.011v-.002z" fill="#fff"/><path opacity=".1" d="M85.81 14.13c-.494-.288-1.162-.013-1.501.449-.34.461-.424 1.064-.52 1.623-.189 1.258-.326 2.703.52 3.653-1.383-4.208-5.36-7.432-9.757-7.903m96.952 71.612c-.318-.185-.747 0-.965.29a2.3 2.3 0 00-.335 1.043c-.121.81-.212 1.738.335 2.34a7.634 7.634 0 00-2.408-3.44 7.595 7.595 0 00-3.86-1.64M63.44 56.05c-.318-.183-.746 0-.965.29a2.31 2.31 0 00-.335 1.045c-.12.808-.212 1.736.335 2.34a7.636 7.636 0 00-2.408-3.44 7.597 7.597 0 00-3.859-1.64" stroke="#E1680F" stroke-width="3" stroke-miterlimit="10"/><path d="M147.8 155.57c.212.402.611.649.995.868a47.15 47.15 0 008.39 3.791.562.562 0 00.815-.317c.335-.567.702-1.49.615-2.237.276-.168.476-.437.558-.749.115-.381.289-.74.517-1.065.397-.6.876-1.202.94-1.932-.006-.26.019-.52.074-.775.113-.336.412-.557.636-.825.35-.426.518-.975.677-1.509.662-2.22 1.324-4.44 1.875-6.694.178-.73.344-1.462.588-2.171.212-.621.483-1.217.752-1.813a48.307 48.307 0 013.354-6.24c.198.67.438 1.327.719 1.967.144.329.299.655.445.985.554 1.243.454 2.839 1.135 4.007.283.48.561.959.836 1.437.155.234.276.49.358.76.045.187.049.383.081.572.144.852.833 1.452 1.215 2.212.35.693.424 1.489.636 2.253.503 1.767 1.737 3.301 1.862 5.142.016.497.004.995-.036 1.49-.031.868.026 1.737.172 2.592.012.087.035.171.068.251a7.496 7.496 0 01-4.666 3.163c-.361.072-.774.149-.963.481-.227.396.03.941.424 1.154.395.212.849.191 1.273.153a46.122 46.122 0 008.986-1.664.77.77 0 00.391-.213.796.796 0 00.129-.53 4.483 4.483 0 00-.467-1.982l.212-.074c.119-.851-.318-1.675-.657-2.465-.59-1.377-.912-2.864-1.379-4.297-.899-2.766-2.352-5.348-2.702-8.242-.095-.796-.333-1.605-.384-2.405-.102-1.631-.212-3.269-.566-4.857-.297-1.307-.766-2.554-1.061-3.876-.294-1.321-.39-2.711.043-3.975.123-.362.288-.705.401-1.064.424-1.407.019-2.931-.393-4.344l-.386-1.337c-.171-.585-.341-1.172-.528-1.753.026-.024.049-.047.074-.075.374-.426.37-1.077.637-1.585.131-.262.331-.477.471-.733a2.697 2.697 0 00.193-1.775c-.113-.595-.338-1.162-.507-1.743a9.504 9.504 0 01-.102-4.895c.172-.687.424-1.362.46-2.07a6.074 6.074 0 00-.129-1.411c-.329-1.788-.974-3.601-2.282-4.783-.698-.638-1.642-1.198-1.716-2.168a.54.54 0 00-.352-.013c-.06-.221-.1-.447-.119-.675h.01a.88.88 0 00.196 0 .389.389 0 00.157-.044.447.447 0 00.076-.058 1.39 1.39 0 00.212-.283c.087-.145.165-.3.231-.407.066-.106.172-.276.255-.425.247-.426.477-.859.689-1.298v-.017c.021-.04.04-.084.059-.124l.026-.057.038-.088c0-.02.019-.044.028-.066l.034-.08.029-.07c.011-.026.019-.052.03-.08a.918.918 0 00.028-.072.977.977 0 00.027-.076c.009-.026.017-.05.028-.075.01-.026.015-.051.023-.076l.025-.077c0-.026.013-.05.022-.075l.021-.078.019-.075.019-.08c0-.024 0-.048.015-.073.015-.026 0-.055.015-.083.015-.028 0-.047 0-.07l.012-.083v-.661a1.726 1.726 0 00-.048-.246 2.538 2.538 0 00-.832-1.262 5.204 5.204 0 00-1.272-.768.92.92 0 01-.301-.19 2.384 2.384 0 01-.253-.477c-.187-.327-.56-.474-.91-.561-.35-.088-.725-.143-1.018-.366a.263.263 0 00-.089-.052.228.228 0 00-.129.028l-.817.364a.387.387 0 00-.45-.321 1.09 1.09 0 00-.528.304.196.196 0 01-.048-.196l-.637.426c-.078.051-.222.064-.212-.034a6.635 6.635 0 00-.914 1.277 2.72 2.72 0 00-.199.44c0 .032-.019.064-.028.096a.061.061 0 000 .02c0 .027-.013.057-.017.087a.109.109 0 000 .025v.11a1.27 1.27 0 000 .124.683.683 0 00.367.566.65.65 0 00.255.04c.182-.02.362-.058.538-.11.057-.014.116-.024.174-.03a.548.548 0 01.083 0 .466.466 0 01.305.105l.013.012a3.6 3.6 0 00-1.485 2.935c-.001.564.127 1.12.374 1.626a.517.517 0 00-.265.481 1.617 1.617 0 01-.087-.506c-.348-.07-.601.338-.726.69a17.308 17.308 0 00-.596 2.428c-.108.547-.212 1.094-.322 1.641-.11.546-.212 1.134-.293 1.702a13.058 13.058 0 00.197 4.425c-.021.047-.04.096-.059.142-.064.171-.244.315-.265.496-.115 1.084.568 2.06 1.213 2.91a.65.65 0 00.212.212c.095.04.198.053.299.039.257-.013.514-.038.768-.077.015.145.032.287.049.426.182 1.528.494 3.056.492 4.595-.002 1.538-.293 3.098.295 4.469.097.234.286.426.305.668h.036c-.359.735-.653 1.5-.878 2.286-.233.924-.282 1.894-.543 2.809-.223.777-.594 1.49-.893 2.248a12.382 12.382 0 00-.848 3.854 4.84 4.84 0 01-.361 1.769 18.031 18.031 0 00-.899 2.079c-.424 1.264-1.139 2.462-1.273 3.801-.074.758.034 1.567-.282 2.252-.123.268-.305.5-.449.753a6.08 6.08 0 00-.49 1.277l-2.1 6.987c-.08.384-.256.741-.513 1.037-.195.187-.452.289-.637.483-.297.302-.371.745-.373 1.196a2.483 2.483 0 00-.649.213 7.125 7.125 0 01-5.618 0c-.34-.147-.726-.322-1.061-.153-.392.204-.456.798-.244 1.2zm16.728-52.926a4.591 4.591 0 01.696-1.615c.475-.786.976-1.562 1.43-2.365l.129-.125c.036.102.07.213.102.308.078.273.141.55.188.83a4 4 0 01.06 1.065l-.03.023c-.171.111-.31.266-.401.449a.914.914 0 000 .562l-.019.021.021-.015c.075.294.213.596.168.894-.049.36-.337.622-.518.93-.424.743-.288 1.871-.986 2.326l-.013.03a1.005 1.005 0 01-.685-.566c.056-.909-.284-1.841-.142-2.752z" fill="url(#paint0_linear)"/><path d="M181.929 160.154a.746.746 0 01-.134.522.817.817 0 01-.407.212 50.411 50.411 0 01-9.362 1.644c-.454.034-.933.059-1.334-.152-.401-.21-.668-.749-.424-1.138.197-.328.636-.405 1.003-.475a7.846 7.846 0 004.912-3.192c.139-.238.32-.449.534-.622.408-.278.949-.213 1.43-.117.848.175 1.975.381 2.74.798.766.418 1.029 1.705 1.042 2.52z" fill="#3F3D56"/><path opacity=".1" d="M181.929 160.154a.746.746 0 01-.134.522.817.817 0 01-.407.212 50.411 50.411 0 01-9.362 1.644c-.454.034-.933.059-1.334-.152-.401-.21-.668-.749-.424-1.138.197-.328.636-.405 1.003-.475a7.846 7.846 0 004.912-3.192c.139-.238.32-.449.534-.622.408-.278.949-.213 1.43-.117.848.175 1.975.381 2.74.798.766.418 1.029 1.705 1.042 2.52z" fill="#000"/><path d="M157.281 159.948a.755.755 0 01-.397.366.815.815 0 01-.452-.053 50.566 50.566 0 01-8.742-3.74c-.399-.213-.815-.459-1.037-.851-.223-.392-.155-.994.254-1.192.344-.166.747 0 1.099.151a7.8 7.8 0 005.854 0 2.26 2.26 0 01.787-.23c.49-.01.912.337 1.272.684.62.61 1.449 1.4 1.865 2.166.415.766-.073 2.007-.503 2.699z" fill="#3F3D56"/><path opacity=".1" d="M157.281 159.948a.755.755 0 01-.397.366.815.815 0 01-.452-.053 50.566 50.566 0 01-8.742-3.74c-.399-.213-.815-.459-1.037-.851-.223-.392-.155-.994.254-1.192.344-.166.747 0 1.099.151a7.8 7.8 0 005.854 0 2.26 2.26 0 01.787-.23c.49-.01.912.337 1.272.684.62.61 1.449 1.4 1.865 2.166.415.766-.073 2.007-.503 2.699z" fill="#000"/><path d="M173.447 119.191c.316.852.581 1.703.848 2.554l.403 1.32c.424 1.394.849 2.896.41 4.286-.117.36-.289.698-.425 1.064-.449 1.247-.345 2.633-.044 3.925.301 1.292.789 2.532 1.098 3.831.376 1.566.484 3.192.59 4.79.053.79.299 1.588.401 2.373.365 2.854 1.877 5.413 2.814 8.133.486 1.411.821 2.877 1.439 4.237.352.779.808 1.586.685 2.43-1.725.613-3.636.603-5.26-.238a.536.536 0 01-.357-.496 11.747 11.747 0 01-.169-2.554c.04-.487.052-.976.036-1.464-.13-1.815-1.417-3.329-1.939-5.074-.212-.743-.31-1.536-.674-2.222-.399-.749-1.116-1.347-1.273-2.181-.034-.187-.038-.379-.083-.564a2.81 2.81 0 00-.375-.751l-.865-1.424c-.711-1.154-.607-2.729-1.182-3.955-.153-.325-.316-.638-.466-.97a16.236 16.236 0 01-.749-1.941 46.458 46.458 0 00-3.5 6.149c-.292.582-.554 1.18-.785 1.789-.254.698-.424 1.422-.613 2.141-.572 2.224-1.272 4.414-1.953 6.598-.165.528-.341 1.064-.704 1.49-.233.264-.543.481-.662.815a3.15 3.15 0 00-.076.762c-.068.721-.567 1.315-.98 1.915-.238.322-.42.682-.539 1.064a1.249 1.249 0 01-1.181.905 1.242 1.242 0 01-.516-.106h-.017a3.813 3.813 0 01-.483-.29 8.928 8.928 0 01-1.139-.851 6.575 6.575 0 01-.849-1.005.491.491 0 01.054-.618.476.476 0 01.188-.118c-.044-.592-.057-1.266.367-1.675.197-.192.465-.294.668-.477.265-.287.45-.639.535-1.021.724-2.288 1.446-4.575 2.167-6.862.121-.44.293-.864.512-1.264.15-.251.339-.479.468-.743.329-.677.212-1.473.293-2.222.138-1.321.876-2.5 1.324-3.748.267-.704.58-1.39.937-2.053.24-.551.367-1.143.375-1.743.079-1.309.377-2.595.883-3.804.309-.74.698-1.449.929-2.217.273-.903.322-1.86.568-2.767.236-.782.544-1.54.919-2.265.307-.638.623-1.291 1.13-1.787.831-.813 2.055-1.079 3.215-1.116 1.161-.036 2.446.137 3.602.015z" fill="#3F3D56"/><path d="M166.327 102.616c1.493-.885 2.97-1.799 4.43-2.74a2.831 2.831 0 01-.553-1.633v-.07c-.021-.573.195-1.064-.524-.99-.691.09-1.374.232-2.043.426-.19.049-1.845.66-1.908.598.368.439.641.95.799 1.502.082.27.147.543.197.82.145.732.151 1.592-.398 2.087z" fill="#A0616A"/><path d="M164.322 112.434c.191 1.507.516 3.016.514 4.531-.002 1.516-.306 3.059.307 4.416.102.23.297.409.318.66.849.147 1.676-.251 2.484-.538.741-.261 1.51-.434 2.291-.515.636-.064 1.289-.068 1.921-.19a2.988 2.988 0 001.661-.851c.388-.426.384-1.064.655-1.564.138-.258.346-.469.492-.722a2.534 2.534 0 00.2-1.751 17.78 17.78 0 00-.528-1.72 8.867 8.867 0 01-.106-4.827c.178-.679.437-1.345.479-2.045a5.664 5.664 0 00-.134-1.392c-.343-1.762-1.016-3.552-2.377-4.716-.728-.624-1.712-1.184-1.788-2.129-.314-.123-.651.088-.921.288l-3.024 2.237c-.18.106-.327.26-.424.444-.189.454.246.952.176 1.441-.051.356-.352.613-.539.92-.446.73-.301 1.843-1.029 2.292a4.68 4.68 0 00-.182.425c-.26.744-.434 1.515-.52 2.299a12.058 12.058 0 00.074 3.007z" fill="#3F3D56"/><path opacity=".1" d="M165.737 98.21c.369.44.642.952.8 1.504.241.053.487.08.734.08 1.234 0 2.061-1.42 2.674-2.394-.019-.572.454-.287-.265-.213-.69.09-1.373.232-2.042.426-.191.049-1.846.66-1.901.598z" fill="#000"/><path d="M167.271 99.503a3.476 3.476 0 003.47-3.482 3.476 3.476 0 00-3.47-3.482 3.476 3.476 0 00-3.47 3.482 3.476 3.476 0 003.47 3.482z" fill="#A0616A"/><path d="M164.616 98.486l.802.882c.263.29.71.31.998.046l2.695-2.468a.71.71 0 00.045-1.001l-.802-.882a.705.705 0 00-.998-.046l-2.694 2.468a.71.71 0 00-.046 1.001z" fill="#3F3D56"/><path opacity=".1" d="M164.616 98.486l.802.882c.263.29.71.31.998.046l2.695-2.468a.71.71 0 00.045-1.001l-.802-.882a.705.705 0 00-.998-.046l-2.694 2.468a.71.71 0 00-.046 1.001z" fill="#000"/><path d="M167.487 96.964a.289.289 0 10-.002-.578.289.289 0 00.002.578z" fill="#fff"/><path opacity=".1" d="M164.322 112.434c2.677-.396 5.108-2.009 6.968-4.01.347-.329.616-.732.787-1.181.093-.374.125-.762.095-1.147l-.045-1.536c-.019-.673-.046-1.371-.371-1.958-.324-.588-1.047-1.011-1.671-.767-1.64.639-2.706 2.099-3.644 3.593-.268.465-.56.917-.876 1.351-.159.202-.375.409-.636.381a.486.486 0 01-.159-.042 10.41 10.41 0 00-.52 2.298 12.004 12.004 0 00.072 3.018z" fill="#000"/><path d="M164.083 103.461a4.42 4.42 0 01.725-1.596c1.037-1.628 2.204-3.218 2.757-5.072-.808.147-.935 1.543-1.754 1.605l.064-1.007c0-.17 0-.376-.138-.466-.138-.089-.384.028-.475.196-.091.168-.11.373-.195.545-.085.172-.284.326-.46.25l-.073-.335a.503.503 0 00-.432.11.507.507 0 00-.18.41 1.552 1.552 0 01-.092-.5c-.362-.069-.625.333-.755.68a16.196 16.196 0 00-.623 2.394l-.333 1.62c-.117.56-.232 1.119-.308 1.683-.2 1.498-.121 3.019.233 4.487.445-.247.876-.518 1.292-.811.32-.272.679-.581.8-.996.299-1.047-.229-2.143-.053-3.197z" fill="#A0616A"/><path d="M170.085 101.401c.624-.244 1.347.179 1.671.766.325.588.353 1.277.372 1.958l.042 1.541c.032.385 0 .773-.093 1.147a3.228 3.228 0 01-.785 1.182c-2.057 2.211-4.808 3.945-7.82 4.092a.626.626 0 01-.312-.038.684.684 0 01-.212-.213c-.672-.838-1.383-1.803-1.273-2.871.02-.179.213-.323.276-.489a4.31 4.31 0 012.085-2.214l.182-.085a1.067 1.067 0 00.715.562c.255.025.473-.179.637-.381.315-.435.607-.887.876-1.354.933-1.509 2.002-2.962 3.639-3.603zm-.214-3.103c-.295-.153-.342-.547-.371-.879a8.741 8.741 0 00-.176-1.149c-.091-.426-.242-.864-.603-1.09a.877.877 0 00-1.338.658.304.304 0 01-.059.198.216.216 0 01-.102.053.683.683 0 01-.804-.455c-.062-.213-.015-.488-.165-.662-.151-.175-.329-.17-.476-.285a.829.829 0 01-.197-.313.823.823 0 01-.042-.368c0-.318.042-.696-.212-.892-.384-.3-.961.176-1.413 0a.693.693 0 01-.388-.68c.026-.278.121-.545.276-.778.265-.456.585-.879.952-1.258 0 .094.146.083.227.032l.67-.409a.187.187 0 00-.003.105c.01.035.029.066.056.09a1.14 1.14 0 01.55-.299.402.402 0 01.468.317l.849-.368a.177.177 0 01.227.023c.305.213.695.275 1.06.36.365.085.753.232.948.556.07.166.159.323.265.468a.992.992 0 00.321.19 5.56 5.56 0 011.336.755c.41.316.713.752.867 1.247.229.828-.102 1.703-.485 2.467a15.775 15.775 0 01-.985 1.692c-.135.212-.322.615-.54.738a1.012 1.012 0 01-.713-.064z" fill="#3F3D56"/><path opacity=".1" d="M163.919 92.246c.452.174 1.029-.303 1.413 0 .248.195.212.574.212.891a.837.837 0 00.24.681c.146.115.354.143.475.286.121.142.104.44.165.662a.684.684 0 00.804.455.211.211 0 00.102-.053.299.299 0 00.059-.198.882.882 0 011.339-.658c.36.226.511.673.602 1.09.084.379.143.763.176 1.15.03.331.076.725.371.878.226.11.484.133.726.064.212-.124.405-.532.54-.739.363-.546.692-1.115.985-1.702.243-.454.419-.942.521-1.447.153.783-.161 1.596-.521 2.317a15.775 15.775 0 01-.985 1.692c-.135.213-.322.615-.54.739-.242.07-.5.046-.726-.064-.295-.153-.341-.547-.371-.88a8.741 8.741 0 00-.176-1.148c-.091-.426-.242-.864-.602-1.09a.88.88 0 00-1.339.658.299.299 0 01-.059.198.211.211 0 01-.102.053.684.684 0 01-.804-.456c-.061-.213-.015-.487-.165-.662-.151-.174-.329-.17-.475-.285a.83.83 0 01-.24-.68c0-.318.043-.697-.212-.893-.384-.3-.961.177-1.413 0a.693.693 0 01-.388-.678c.008-.154.044-.305.106-.445a.578.578 0 00.282.264z" fill="#000"/></g><defs><linearGradient id="paint0_linear" x1="164.668" y1="162.546" x2="164.668" y2="88.84" gradientUnits="userSpaceOnUse"><stop stop-color="gray" stop-opacity=".25"/><stop offset=".54" stop-color="gray" stop-opacity=".12"/><stop offset="1" stop-color="gray" stop-opacity=".1"/></linearGradient><clipPath id="clip0"><path fill="#fff" d="M0 0h243v164H0z"/></clipPath></defs></svg>