<svg width="195" height="172" fill="none" xmlns="http://www.w3.org/2000/svg"><path opacity=".1" d="M158.071 162.775c13.772 0 24.935-1.924 24.935-4.297 0-2.373-11.163-4.296-24.935-4.296-13.771 0-24.935 1.923-24.935 4.296s11.164 4.297 24.935 4.297zm-75.497-5.883c20.388 0 36.916-1.171 36.916-2.616 0-1.444-16.528-2.615-36.916-2.615-20.388 0-36.916 1.171-36.916 2.615 0 1.445 16.528 2.616 36.916 2.616zM60.33 6.725C66.941.824 77.32-.378 86.758.092c29.667 1.471 56.446 15.823 79.611 32.048 8.39 5.883 16.641 12.205 22.084 20.295 11.082 16.468 7.795 39.288-7.613 52.845-5.244 4.622-11.597 8.154-18.123 11.291-11.599 5.578-24.121 10.055-37.281 11.328-9.388.91-18.894.17-28.228-1.097-26.076-3.542-51.672-11.376-73.12-24.778-9.41-5.883-18.28-13.186-22.159-22.69-3.878-9.505-1.394-21.56 8.212-27.189 3.985-2.328 8.726-3.378 13.378-4.365 6.846-1.454 13.804-2.887 19.983-5.841 6.385-3.055 13.936-8.956 12.677-15.709-1.363-7.25-2.452-13.612 4.151-19.505z" fill="#E1680F"/><g opacity=".1" fill="#000"><path opacity=".1" d="M85.295 135.792c.805 1.372 2.068 2.257 3.49 2.257 2.429 0 4.405-2.578 4.405-5.761 0-3.183-1.982-5.74-4.405-5.74-1.143 0-2.186.572-2.968 1.511a5.7 5.7 0 00-.749 1.174l-.042.25s-.937.803-2.215.065v-18.66h-18.19a1.475 1.475 0 01-.22-1.374c.136-.427.43-.785.82-1.002 1.37-.807 2.256-2.072 2.256-3.496 0-2.433-2.576-4.412-5.752-4.412-3.175 0-5.751 1.973-5.751 4.412 0 1.145.573 2.191 1.51 2.975.358.296.752.547 1.17.748l.026.042a1.79 1.79 0 01.35 2.101h-8.203v34.556c0 2.173.861 4.257 2.396 5.794a8.176 8.176 0 005.784 2.4h23.81v-18.337a1.449 1.449 0 011.484-.316c.422.134.778.425.994.813z"/><path opacity=".1" d="M54.682 110.161h2.848a5.768 5.768 0 01-2.246-4.519c0-3.275 2.852-5.929 6.37-5.929 3.517 0 6.372 2.654 6.372 5.929a5.769 5.769 0 01-2.246 4.519h17.073v-18.41a1.467 1.467 0 011.483-.315 1.75 1.75 0 011.003.821c.803 1.372 2.066 2.257 3.49 2.257 2.429 0 4.405-2.578 4.405-5.76 0-3.18-1.968-5.76-4.405-5.76-1.145 0-2.188.574-2.97 1.51-.296.36-.547.755-.749 1.175l-.04.025a1.79 1.79 0 01-2.217.297V67.344H65.341a1.473 1.473 0 01-.22-1.374c.135-.427.428-.786.82-1.002 1.37-.805 2.253-2.072 2.253-3.496 0-2.433-2.574-4.412-5.75-4.412-3.175 0-5.75 1.973-5.75 4.412 0 1.147.572 2.191 1.507 2.975.36.296.753.548 1.173.75l.025.04a1.793 1.793 0 01.35 2.1h-5.067v-.945h3.742a5.755 5.755 0 01-2.245-4.51c0-3.276 2.853-5.931 6.372-5.931 3.52 0 6.37 2.655 6.37 5.93a5.764 5.764 0 01-2.254 4.518h16.171V47.763a1.455 1.455 0 011.486-.315c.426.136.784.43 1 .822.803 1.372 2.068 2.256 3.49 2.256 2.43 0 4.405-2.578 4.405-5.76 0-3.184-1.967-5.76-4.405-5.76-1.145 0-2.187.572-2.97 1.511-.296.36-.548.754-.749 1.175l-.04.25s-.937.802-2.217.065V24.626h-23.8a8.17 8.17 0 00-5.784 2.4 8.2 8.2 0 00-2.396 5.793v8.87h-.124a.48.48 0 00-.48.482v4.202a.483.483 0 00.48.48h.124v4.29h-.161a.482.482 0 00-.483.482v8.023a.484.484 0 00.483.482h.161v3.151h-.132a.48.48 0 00-.48.481v2.584h-.105v5.446a.482.482 0 00.48.481h.143v37.888h3.918z"/><path opacity=".1" d="M116.921 54.38a.484.484 0 00-.481-.482h-.289v-.528h-.157V32.413a7.896 7.896 0 00-2.303-5.571 7.865 7.865 0 00-5.563-2.307H84.531v15.967a5.822 5.822 0 014.615-2.322c3.295 0 5.967 2.86 5.967 6.385 0 3.526-2.672 6.385-5.967 6.385a5.81 5.81 0 01-4.615-2.322v17.718h19.087a5.78 5.78 0 01-2.242-4.524c0-3.28 2.847-5.937 6.36-5.937a6.59 6.59 0 014.272 1.542 5.608 5.608 0 012.107 4.386 5.608 5.608 0 01-2.107 4.386v.14h4.143v-.014h.77V54.38zm-6.337 54.838v-2.101a3.94 3.94 0 00.237-.393 3.421 3.421 0 00.235-2.813 3.742 3.742 0 00-.472-.92c-.967-1.393-2.878-2.343-5.08-2.343-3.178 0-5.751 1.973-5.751 4.412 0 1.147.572 2.191 1.508 2.975.359.296.753.548 1.172.75l.026.04a1.801 1.801 0 01.35 2.101H84.305v17.227a5.753 5.753 0 014.566-2.311c3.27 0 5.92 2.858 5.92 6.381s-2.65 6.383-5.92 6.383a5.741 5.741 0 01-4.566-2.311v13.906h21.233a5.044 5.044 0 003.564-1.476 5.059 5.059 0 001.482-3.566v-34.227 34.203a5.057 5.057 0 01-1.478 3.575 5.04 5.04 0 01-3.568 1.48H84.305v3.362h22.023c2.17 0 4.251-.863 5.785-2.4a8.202 8.202 0 002.396-5.794v-35.329h-3.925v-.811z"/></g><path d="M60.008 149.419a5.043 5.043 0 01-3.569-1.481 5.056 5.056 0 01-1.478-3.574v-34.317h-3.924v34.55a8.2 8.2 0 002.396 5.794 8.172 8.172 0 005.784 2.4h23.81v-3.361l-23.02-.011z" fill="#3A3768"/><path d="M84.496 134.139c.426.134.785.429 1 .821.806 1.372 2.068 2.257 3.49 2.257 2.43 0 4.405-2.578 4.405-5.761 0-3.183-1.974-5.748-4.396-5.748-1.143 0-2.186.571-2.968 1.51-.297.36-.548.754-.749 1.175l-.042.25s-.937.802-2.215.065v-18.661h-18.19a1.468 1.468 0 01-.22-1.374 1.76 1.76 0 01.82-1.002c1.37-.807 2.255-2.071 2.255-3.496 0-2.433-2.575-4.412-5.75-4.412-3.176 0-5.752 1.973-5.752 4.412 0 1.145.572 2.191 1.51 2.975.358.296.751.547 1.17.748l.026.042a1.795 1.795 0 01.35 2.101h-4.28v34.323a5.06 5.06 0 001.479 3.574 5.043 5.043 0 003.569 1.481h23.02v-14.965a1.451 1.451 0 011.468-.315z" fill="#E1680F"/><path d="M50.967 65.489h-.623v1.016h.623V65.49zm3.925 0h-3.405v1.016h3.404V65.49zm-3.405 0h-.52v1.016h.52V65.49z" fill="#3A3768"/><path d="M50.825 71.415h.142v-4.912h-.63v4.431a.478.478 0 00.487.481z" fill="#3A3768"/><path d="M54.891 66.503h-3.404v4.431a.481.481 0 01-.482.481h-.038v37.905h3.924V66.503z" fill="#3A3768"/><path d="M50.967 71.415h.038a.48.48 0 00.482-.48v-4.432h-.52v4.912z" fill="#3A3768"/><path d="M55.493 104.793c0-3.276 2.853-5.93 6.37-5.93 3.518 0 6.372 2.654 6.372 5.93a5.77 5.77 0 01-2.246 4.527h17.074V90.91a1.467 1.467 0 011.483-.315 1.75 1.75 0 011.002.821c.803 1.372 2.066 2.257 3.49 2.257 2.43 0 4.405-2.578 4.405-5.76 0-3.18-1.967-5.76-4.405-5.76-1.145 0-2.187.574-2.97 1.51-.296.36-.547.755-.748 1.175l-.04.025a1.79 1.79 0 01-2.217.296V66.504H65.55a1.471 1.471 0 01-.22-1.374 1.74 1.74 0 01.82-1.002c1.37-.805 2.252-2.072 2.252-3.496 0-2.433-2.573-4.412-5.75-4.412-3.175 0-5.75 1.973-5.75 4.412 0 1.147.572 2.191 1.508 2.975.36.296.753.548 1.172.75l.025.04a1.793 1.793 0 01.35 2.1H54.89v42.824h2.849a5.753 5.753 0 01-2.247-4.527z" fill="#E1680F"/><path d="M51.592 62.835a.481.481 0 00-.483-.481h-.037v3.134h.52v-2.653zm-.539-21.991h-.105a.48.48 0 00-.48.482v4.202a.483.483 0 00.48.48h.124v-5.161l-.019-.003zm-.143 9.45a.482.482 0 00-.482.482v8.023a.484.484 0 00.483.481h.161v-8.986h-.161z" fill="#3A3768"/><path d="M51.072 62.423h-.136a.48.48 0 00-.48.481v2.654h.629l-.013-3.135z" fill="#3A3768"/><path d="M51.072 31.977v8.87a.477.477 0 01.461.479v4.202a.481.481 0 01-.46.479v4.29h.072a.481.481 0 01.48.48v8.024a.481.481 0 01-.48.481h-.077v3.152h.038a.482.482 0 01.482.481v2.643h3.404V32.216c0-1.34.532-2.626 1.478-3.574a5.042 5.042 0 013.567-1.48h6.84v.877c0 1.104.438 2.163 1.217 2.943a4.152 4.152 0 002.938 1.22h12.033v-2.749h-5.54a.815.815 0 01-.811-.809v-.176a.816.816 0 01.812-.813h5.529v-3.87H59.248a8.173 8.173 0 00-5.78 2.4 8.2 8.2 0 00-2.396 5.792z" fill="#3A3768"/><path d="M51.533 45.525v-4.201a.48.48 0 00-.461-.48v5.158a.48.48 0 00.461-.477zM51.63 58.8v-8.024a.483.483 0 00-.48-.482h-.078v8.986h.073a.481.481 0 00.485-.48z" fill="#3A3768"/><path d="M56.389 61.04c0-3.274 2.852-5.93 6.372-5.93s6.37 2.656 6.37 5.93a5.762 5.762 0 01-2.255 4.518h16.172V46.923a1.455 1.455 0 011.485-.316c.426.136.784.43 1 .822.804 1.372 2.069 2.256 3.49 2.256 2.43 0 4.406-2.578 4.406-5.76 0-3.183-1.968-5.76-4.405-5.76-1.145 0-2.188.572-2.97 1.511-.297.36-.549.754-.75 1.175l-.039.25s-.938.802-2.217.065v-8.971H71.021a4.152 4.152 0 01-2.931-1.223 4.165 4.165 0 01-1.214-2.939v-.878h-6.835a5.04 5.04 0 00-3.57 1.483 5.058 5.058 0 00-1.475 3.578v33.342h3.637a5.754 5.754 0 01-2.244-4.517z" fill="#E1680F"/><path d="M77.526 27.648a.813.813 0 00-.812.814v.182a.818.818 0 00.812.815h5.529v-1.804l-5.53-.007z" fill="#E6E8EC"/><path d="M114.945 53.032v12.471h1.416V52.53h-.766c-.359 0-.65.225-.65.502zM86.42 23.694h-1.68v3.782h1.678v-3.782zm0 5.673h-1.68v2.731h1.678v-2.731z" fill="#3A3768"/><path d="M86.42 27.476h-1.68v1.89h1.678v-1.89z" fill="#E6E8EC"/><path d="M116.65 53.057h-.394v12.431h.875V53.54a.484.484 0 00-.481-.483zM86.417 27.476c.447.1.84.916.84.916v.177s-.395.813-.84.798v2.731h9.479c1.102 0 2.159-.44 2.938-1.22a4.168 4.168 0 001.217-2.944v-.878h7.131a5.043 5.043 0 013.561 1.483 5.06 5.06 0 011.473 3.57v24.478a5.62 5.62 0 011.553 6.819 5.62 5.62 0 01-1.553 1.952v.14h2.937v-12.33a.05.05 0 01.005-.023.055.055 0 01.034-.033.06.06 0 01.024-.005h.986V31.574a7.878 7.878 0 00-7.866-7.879H86.21v3.782h.207zm3.176-.019a1.02 1.02 0 01.944.632 1.025 1.025 0 01-.745 1.395 1.02 1.02 0 01-1.22-1.004 1.024 1.024 0 011.02-1.023z" fill="#3A3768"/><path d="M89.345 37.338c3.295 0 5.967 2.86 5.967 6.385s-2.672 6.385-5.967 6.385a5.81 5.81 0 01-4.614-2.322v17.717h19.087a5.773 5.773 0 01-2.243-4.523c0-3.28 2.847-5.937 6.36-5.937a6.59 6.59 0 014.283 1.544V32.109c0-1.339-.53-2.622-1.474-3.57a5.039 5.039 0 00-3.56-1.483h-7.131v.878a4.168 4.168 0 01-1.217 2.944 4.154 4.154 0 01-2.939 1.22H84.741v7.564a5.823 5.823 0 014.604-2.324z" fill="#E1680F"/><path d="M86.417 29.367a.838.838 0 00.839-.798v-.177a1.051 1.051 0 00-.84-.916h-.209v1.89h.21zm3.339.119a1.023 1.023 0 00-.327-2.02 1.023 1.023 0 00.327 2.02z" fill="#E6E8EC"/><path d="M110.794 108.377v-2.101a3.514 3.514 0 000-4.126v6.227zm3.924.811h-3.924v.904h3.924v-.904z" fill="#3A3768"/><path d="M109.21 107.713a1.757 1.757 0 00-.82 1.002 1.476 1.476 0 00.22 1.376h2.184v-.903h-.839c.304-.244.585-.515.839-.811v-2.101a4.963 4.963 0 01-1.584 1.437z" fill="#E1680F"/><path d="M109.951 109.188h.839v-.811a6.305 6.305 0 01-.839.811z" fill="#E1680F"/><path d="M111.463 104.217a3.592 3.592 0 00-.669-2.063v4.124a3.601 3.601 0 00.669-2.061zm3.255 5.875v34.436a8.202 8.202 0 01-2.396 5.794 8.172 8.172 0 01-5.784 2.4H84.514v-3.362h21.233a5.043 5.043 0 003.569-1.48 5.062 5.062 0 001.478-3.575v-34.213h3.924z" fill="#3A3768"/><path d="M108.39 108.715c.135-.426.429-.785.82-1.002a4.957 4.957 0 001.584-1.435v-4.124c-.967-1.393-2.878-2.343-5.08-2.343-3.178 0-5.752 1.973-5.752 4.413 0 1.147.573 2.191 1.508 2.974.36.297.753.549 1.173.75l.025.04a1.795 1.795 0 01.35 2.101H84.514v17.228a5.752 5.752 0 014.566-2.311c3.27 0 5.92 2.857 5.92 6.381 0 3.523-2.65 6.382-5.92 6.382a5.753 5.753 0 01-2.553-.618 5.755 5.755 0 01-2.013-1.693v13.906h21.233a5.04 5.04 0 003.564-1.476 5.06 5.06 0 001.483-3.566v-34.231h-2.178a1.478 1.478 0 01-.226-1.376z" fill="#E1680F"/><path d="M148.297 56.545c1.171-.528 2.037-1.416 2.333-2.555a3.17 3.17 0 00.079-.42c.053-.131.098-.265.135-.401.295-1.143-.03-2.326-.802-3.337l-1.533 5.883-.212.83z" fill="url(#paint0_linear)"/><path d="M183.69 54.337c-.239-1.406-4.669-4.45-4.669-4.45s-1.957-1.05-2.993-2.265c-.663-.773-.87-.765-.933-.66a.315.315 0 00-.143-.048c-.042-.03-.082-.057-.12-.088a.286.286 0 00-.165-.288c-.051-.03-.101-.067-.151-.103-.336-.565-.455-1.366-.495-2.063-.051-.88-1.049-.66-1.391-.561-.235-.441-.463-.9-.68-1.357.096-.15.175-.308.238-.473.616-1.343.482-2.883.75-4.303.193-1.027.596-2.1.516-3.1v-.074.014a2.662 2.662 0 00-.169-.73c-.179-.45-.489-.841-.63-1.305-.224-.68-.082-1.427-.268-2.114-.233-.87-.967-1.542-1.798-1.927-.83-.384-1.755-.516-2.666-.63-2.275-.286-4.694-.456-6.77.502a1.217 1.217 0 01-.63.17 1.917 1.917 0 01-.574-.266c-.558-.278-1.259-.101-1.758.268-.499.37-.839.904-1.168 1.42-.33.518-.69 1.051-1.206 1.39-.607.405-1.408.541-1.888 1.088-.214.259-.35.574-.39.907v-.014a1.2 1.2 0 000 .12v.441c.067.513.203 1.015.404 1.491.097.356.287.68.55.937.73.595 1.888.034 2.769.366.077.027.151.063.224.096 0 .034-.023.068-.033.103a7 7 0 00-.284 1.977c0 3.946 3.27 7.144 7.304 7.144.151 0 .3 0 .449-.017.021.078.044.157.063.233a7.76 7.76 0 01.209 2.672l-.044-.39a1.912 1.912 0 00-.304-.116 2.708 2.708 0 00-.906-.139c-.992-.012-2.485.387-4.079 2.324 0 0-2.035 1.133-2.633 1.406a.279.279 0 00-.111.126s-2.72 4.115-3.002 5.68a293.054 293.054 0 01-.629 3.362s-.679 2.03-1.118 2.929c-.438.9-.839 1.756-.876 2.147-.038.39.159 1.248-.68 1.794-.839.547-1.049 2.03-1.049 2.03s-.419.395-1.013.895h-.021l2.192-8.419.392.099a.503.503 0 00.516-.176.459.459 0 00.086-.175l.443-1.706.178-.678.036-.14.258-.989-.873-.21-1.021-.254-2.886-.729.251-.966.21-.82 1.319-5.071.21-.818c-.839-1.088-2.175-1.972-3.817-2.382-3.168-.788-6.234.494-6.851 2.861a3.332 3.332 0 00-.082.42 3.39 3.39 0 00-.184 1.87c.126.655.4 1.27.803 1.8.283.38.612.722.98 1.02l.014.046c.156.255.25.543.275.84v.13c-.07.127-.155.246-.252.354l-19.351-4.818-.21.817-4.358 16.776a6.31 6.31 0 012.705-1.208l.099-.016a5.838 5.838 0 012.345.096c2.446.61 4.136 2.696 4.451 5.15a6.573 6.573 0 01-.074 2.122c-1.048 3.189-4.27 5.115-7.4 4.336a5.875 5.875 0 01-3.964-3.393l-.21.82-4.497 17.216 17.139 4.27.185-.826h.027a5.703 5.703 0 01-1.183-4.542c0-.028.017-.053.027-.08a4.73 4.73 0 01.067-.179 5.85 5.85 0 01.686-1.227 5.95 5.95 0 011.208-1.212l.122-.088c.138-.099.281-.193.419-.282a6.792 6.792 0 013.56-.935c.551.008 1.1.078 1.636.21a6.781 6.781 0 014.046 2.818c.125.19.24.386.344.588.309.6.51 1.25.594 1.92a5.481 5.481 0 01-.042 1.608 5.72 5.72 0 01-2.219 2.876l-.21.79h.023l-.032.023-.209.788 3.914.975 5.543-21.23c1.496-.175 2.261-.84 2.261-.938 0-.096 1.798-1.094 2.794-1.367.495-.135 1.068-.231 1.523-.328-.537 2.67-1.049 5.252-1.003 5.404.015.058.112-.034.258-.236a1.16 1.16 0 00-.018.236c0 .04.056.01.13-.072l-.011.05s-3.113 6.033-3.356 6.724c-.243.69.059 2.46 1.017 3.046.186.118.352.265.491.435l-.113.225c-.357.725-.673 1.531-.617 2.034a2.758 2.758 0 01-.419 1.815s-2.696 8.343-2.635 10.744c.061 2.401-.958 7.67-.958 7.67s-1.108 3.396-.449 4.362c.658.966 1.407 5.183 1.407 5.183s.51.966.479 1.786c-.032.819.48 2.311.48 2.311l1.678 6.059s-.181 1.611.449 2.752c.629 1.141.568.79.268 2.782-.3 1.992.361 3.834 1.437 4.412.419.227.44.573.31.912-.274-.107-.503.462-.639.922l-.139.132.093.023a5.435 5.435 0 00-.093.387s-2.813 2.343-2.993 3.191c-.18.849-2.156 1.288-2.156 1.288s-2.993.82-3.776 1.229a1.429 1.429 0 00-.826 1.137c-.035.386.002.775.109 1.147.298 1.2 4.489 1.317 6.502.996 2.014-.322 6.165-1.494 6.165-1.494s4.371-.42 5.663-.937c1.292-.517.269-1.874.269-1.874v-.126c.031-.49.121-2.265-.189-2.731-.233-.362-.227-1.261-.193-1.832.874-1.576-1.003-6.303-1.003-6.303s.359-4.622.12-5.299c-.239-.676-1.259-6.412-1.259-6.412s-.629-2.605-.388-3.044c.241-.439-.151-1.7-.151-1.7s-1.025-1.401-.933-1.842c.092-.441-.3-1.229-.3-1.229s3.054-4.568 2.783-5.416c-.27-.849.122-2.225.122-2.225s.384-.647.839-1.423c.566-.949 1.258-2.086 1.485-2.441.294-.452 1-2.374 1.395-3.481.168-.471.281-.794.281-.794s.478 8.613.898 9.485c.419.872 1.048 7.818 1.048 7.818.233.616.335 1.275.3 1.933-.058 1.082.959 5.796.959 5.796s.449 3.337.149 4.215c-.3.878-.059 7.353-.059 7.353s-1.647 1.261-2.066 2.225c-.42.964.059 3.601.059 3.601l.193.09a5.534 5.534 0 00-.342 1.139c-.059.557-.959 3.076-.869 3.427.091.351-.388 1.435-.448 1.989-.061.555-.808 1.376-.869 1.671-.094.263-.204.52-.329.771a7.278 7.278 0 00-.388 1.189c-.3 1.231 3.261 1.435 3.261 1.435 5.269.966 6.228-2.986 6.228-2.986s.659-3.513.898-3.781a.417.417 0 00.039-.335 4.448 4.448 0 00-.759-1.653c-.168-.195-.178-.697-.151-1.147.153-.015.304-.043.451-.084 2.125-.614 1.259-4.158 1.259-4.158s1.436-2.34 1.436-3.248c0-.908.51-3.689.51-3.689 1.827-3.28 1.108-11.242 1.408-11.887.299-.645-.63-3.045-1.379-4.129-.748-1.084-.448-4.01 0-4.859.449-.849-.448-3.782-.448-3.782s.868-5.672.839-6.559c-.03-.887.748-3.483.748-3.483s.779-1.347.598-1.757c-.18-.409.598-1.47.39-1.933-.207-.462.179-1.903.569-2.752.199-.435.447-1.632.629-2.698.021-.117.042-.235.061-.35.872.552 1.678.964 1.963.853.535-.21-.317-2.942-.9-4.643.101-.076.143-.133.101-.158-.359-.235.04-1.29.04-1.29 2.116-1.248 1.397-2.185.719-2.731-.677-.547-.239-2.101-.44-2.731-.202-.63.241-3.473.6-5.543a3.99 3.99 0 00-.011-1.357c.384-.586.78-1.2 1.129-1.767 1.195-1.952 3.75-11.242 3.75-11.242l-.017-.048c.25-.494.436-.895.537-1.162.774-2.017-.663-8.11-.902-9.52zm-18.6-5.35l.054-.025v.044l-.054-.019zm-11.614 99.659a.952.952 0 01-.38-.076l.38.076z" fill="url(#paint1_linear)"/><path d="M131.301 80.935c1.727.655 5.739.727 7.522.727h.877l1.143-2.333-1.143-1.943s-1.049-.29-2.442-.542c-2.055-.37-4.868-.66-6.208.172-2.249 1.393-1.997 3.063.251 3.919z" fill="#FEC2BE"/><path opacity=".1" d="M138.82 81.662h.877l1.143-2.333-1.141-1.943s-1.048-.29-2.441-.542c1.13.832 3.849 2.643 1.562 4.818z" fill="#000"/><path d="M157.755 53.04l-.504-.584s-2.598 4.118-2.871 5.673c-.273 1.555-.629 3.34-.629 3.34s-.659 2.021-1.087 2.914c-.428.893-.814 1.748-.851 2.137-.038.389.155 1.244-.661 1.788-.816.544-1.007 2.021-1.007 2.021s-2.949 2.874-4.501 2.941c-1.552.068-6.012.855-5.856 1.633.155.777-1.861 1.241-2.677 1.437-.816.195 5.244 2.521 1.708 5.517 0 0 2.248.466 2.481 1.008.233.542 2.599-.308 2.599-.308s.505-1.206 2.25-1.284c1.745-.078 2.637-.855 2.637-.97 0-.116 1.745-1.09 2.727-1.36.981-.271 2.248-.389 2.288-.662.04-.273 5.818-25.251 5.818-25.251l-1.864.01z" fill="#4C4981"/><path opacity=".05" d="M157.755 53.04l-.504-.584s-2.598 4.118-2.871 5.673c-.273 1.555-.629 3.34-.629 3.34s-.659 2.021-1.087 2.914c-.428.893-.814 1.748-.851 2.137-.038.389.155 1.244-.661 1.788-.816.544-1.007 2.021-1.007 2.021s-2.949 2.874-4.501 2.941c-1.552.068-6.012.855-5.856 1.633.155.777-1.861 1.241-2.677 1.437-.816.195 5.244 2.521 1.708 5.517 0 0 2.248.466 2.481 1.008.233.542 2.599-.308 2.599-.308s.505-1.206 2.25-1.284c1.745-.078 2.637-.855 2.637-.97 0-.116 1.745-1.09 2.727-1.36.981-.271 2.248-.389 2.288-.662.04-.273 5.818-25.251 5.818-25.251l-1.864.01z" fill="#000"/><path d="M163.796 160.85c5.12.963 6.051-2.972 6.051-2.972s.64-3.496.872-3.759a.427.427 0 00.04-.332 4.563 4.563 0 00-.738-1.647c-.319-.378-.059-1.952-.059-1.952l-5.934-1.515s-.524 1.194-.581 1.748c-.056.555-.931 3.059-.839 3.41.093.351-.377 1.427-.436 1.981-.059.555-.784 1.37-.839 1.66a6.708 6.708 0 01-.321.769 7.642 7.642 0 00-.377 1.183c-.3 1.223 3.161 1.426 3.161 1.426z" fill="#CA8496"/><path opacity=".1" d="M163.796 160.85c5.12.963 6.051-2.972 6.051-2.972s.64-3.496.872-3.759a.427.427 0 00.04-.332l-1.233 3.538s-1.017 2.126-4.799 1.807c-2.152-.183-3.211-.582-3.725-.893a7.646 7.646 0 00-.378 1.183c-.289 1.225 3.172 1.428 3.172 1.428z" fill="#000"/><path opacity=".1" d="M167.781 155.314s-1.28.03-1.368-1.019l1.368 1.019z" fill="#000"/><path d="M127.979 98.129l.812.208-.179.825-.753-.19.12-.843z" fill="#E1680F"/><path opacity=".1" d="M127.979 98.129l.812.208-.179.825-.753-.19.12-.843z" fill="#000"/><path d="M152.07 59.686l-.251.985.848.216.25-.985-.847-.216zm-3.806-.971l-.25.985 2.811.717.25-.986-2.811-.716z" fill="#3A3768"/><path d="M151.074 59.434l-.25.985.994.253.25-.985-.994-.253z" fill="#3A3768"/><path d="M148.308 58.587c-.067.031-.133.065-.198.092l.164.042-.252.986-1.243-.318a1.469 1.469 0 01.127-1.384 1.736 1.736 0 011.049-.769c.267-.077.527-.174.778-.29l-.425 1.64z" fill="#E1680F"/><path d="M151.275 62.841l.38.099a.482.482 0 00.585-.349l.424-1.697-.839-.21-.55 2.157zm-.289-8.437c-.289 1.134-1.13 2.019-2.267 2.542l1.489-5.861c.755 1.006 1.072 2.184.778 3.319zm-.239 8.303a.482.482 0 01-.346-.584l.432-1.7-2.811-.716-8.572 33.728a5.608 5.608 0 01-1.827 7.19l-.199.786 3.803.976 10.049-39.537-.529-.143z" fill="#3A3768"/><path d="M150.401 62.123a.482.482 0 00.346.584l.529.134.549-2.164-.992-.254-.432 1.7z" fill="#3A3768"/><path d="M146.905 58.005a1.75 1.75 0 011.048-.769c.266-.077.525-.174.776-.29l1.492-5.861a6.67 6.67 0 00-3.711-2.37c-3.077-.786-6.059.49-6.657 2.846-.283 1.112.015 2.265.73 3.257.274.376.593.717.95 1.015l.015.046a1.8 1.8 0 01-.181 2.13l-18.806-4.796-4.243 16.698a5.752 5.752 0 014.981-1.122c3.17.809 5.034 4.233 4.166 7.648-.868 3.414-4.132 5.53-7.301 4.73a5.747 5.747 0 01-3.853-3.375l-4.357 17.135 16.658 4.246a5.751 5.751 0 01-1.065-4.933c.807-3.172 4.224-5.042 7.635-4.172a6.563 6.563 0 014.268 3.367l8.573-33.728-1.232-.318a1.475 1.475 0 01.114-1.384z" fill="#E1680F"/><path d="M148.272 58.721l.036-.134c-.065.031-.131.065-.198.094l.162.04z" fill="#E1680F"/><g opacity=".1" fill="#000"><path opacity=".1" d="M152.075 59.692l-.992-.254-2.809-.717.036-.134.419-1.64a5.39 5.39 0 01-.778.29 1.73 1.73 0 00-1.048.768 2.033 2.033 0 00-.156.332c.041-.115.093-.226.153-.332a1.754 1.754 0 011.049-.769c.266-.077.525-.174.776-.29l1.492-5.861a6.67 6.67 0 00-3.711-2.37c-3.077-.786-6.06.49-6.657 2.846-.283 1.112.014 2.265.73 3.257.274.376.593.717.95 1.015l.014.046a1.794 1.794 0 01-.18 2.13l-18.806-4.796-4.243 16.698a5.75 5.75 0 014.985-1.122c3.17.809 5.034 4.233 4.166 7.648-.868 3.414-4.132 5.53-7.301 4.73a5.747 5.747 0 01-3.853-3.375l-4.357 17.135 16.658 4.246a5.75 5.75 0 01-1.101-2.343 5.749 5.749 0 01.036-2.59c.807-3.172 4.224-5.042 7.635-4.172a6.564 6.564 0 014.268 3.367 5.603 5.603 0 01-1.827 7.19l-.199.785 3.803.977 10.049-39.537.38.099a.476.476 0 00.504-.18.49.49 0 00.081-.17l.423-1.705.25-.986-.839-.216zm-3.868-1.05c-.031.014-.063.031-.094.044l.094-.044zm-1.426.754l1.244.317-1.244-.317z"/><path opacity=".1" d="M150.986 54.404c.288-1.135-.029-2.311-.778-3.32l-1.489 5.862c1.143-.523 1.984-1.41 2.267-2.542z"/></g><path d="M152.275 58.873l-.25.986.848.216.25-.986-.848-.216zm-3.805-.971l-.25.986 2.811.716.25-.985-2.811-.717z" fill="#3A3768"/><path d="M151.28 58.617l-.25.985.994.254.25-.986-.994-.253z" fill="#3A3768"/><path d="M148.515 57.772l-.197.094.162.04-.25.992-1.244-.317a1.457 1.457 0 01.126-1.385 1.745 1.745 0 011.049-.769c.265-.077.525-.173.776-.29l-.422 1.635z" fill="#E1680F"/><path d="M151.481 62.028l.382.097a.478.478 0 00.591-.349l.432-1.698-.839-.21-.566 2.16zm-.285-8.438c-.288 1.133-1.129 2.018-2.268 2.54l1.492-5.86c.75 1.006 1.067 2.184.776 3.32z" fill="#3A3768"/><path d="M150.954 61.894a.484.484 0 01-.356-.399.494.494 0 01.01-.188l.42-1.697-2.798-.712-8.571 33.724a5.597 5.597 0 01-1.826 7.187l-.2.786 3.805.971 10.047-39.538-.531-.134z" fill="#3A3768"/><path d="M150.608 61.308a.494.494 0 00.052.365.485.485 0 00.295.22l.526.135.554-2.166-.994-.252-.433 1.698z" fill="#3A3768"/><path d="M147.112 57.19a1.743 1.743 0 011.048-.77 5.26 5.26 0 00.777-.29l1.489-5.86a6.664 6.664 0 00-3.709-2.37c-3.079-.784-6.059.489-6.659 2.848-.281 1.11.015 2.263.732 3.255.274.376.593.718.95 1.016l.015.045a1.802 1.802 0 01-.181 2.13L122.766 52.4l-4.249 16.696a5.742 5.742 0 014.992-1.12c3.167.807 5.034 4.231 4.165 7.647-.868 3.416-4.134 5.528-7.312 4.721a5.757 5.757 0 01-3.846-3.378L112.161 94.1l16.656 4.248a5.751 5.751 0 01-1.063-4.933c.805-3.174 4.224-5.042 7.635-4.172a6.539 6.539 0 014.27 3.378l8.571-33.724-1.244-.318a1.47 1.47 0 01.126-1.39z" fill="#E1680F"/><path d="M148.48 57.908l.033-.136c-.065.031-.13.065-.195.094l.162.042z" fill="#E1680F"/><path d="M145.533 120.876c.629.96 1.367 5.157 1.367 5.157s.495.961.466 1.778c-.029.817.466 2.311.466 2.311l1.629 6.032s-.176 1.603.437 2.731c.612 1.128.551.786.262 2.767-.29 1.981.348 3.817 1.395 4.412 1.046.594-.466 1.952-.466 1.952s6.691 1.806 8.088.699c1.397-1.107-.728-6.586-.728-6.586s.35-4.603.118-5.274c-.233-.67-1.223-6.38-1.223-6.38s-.611-2.595-.378-3.032c.233-.437-.145-1.681-.145-1.681s-.99-1.399-.902-1.836c.089-.437-.291-1.223-.291-1.223s2.962-4.559 2.699-5.414c-.262-.855.116-2.214.116-2.214l.826-1.416c.552-.946 1.219-2.078 1.443-2.431.286-.45.973-2.361 1.357-3.464l.273-.79s.466 8.567.873 9.441c.406.874 1.017 7.774 1.017 7.774.226.614.325 1.268.291 1.922-.058 1.078.932 5.769.932 5.769s.436 3.322.144 4.202c-.291.881-.058 7.316-.058 7.316s-1.601 1.26-2.008 2.214c-.407.954.059 3.572.059 3.572s4.654 2.332 6.712 1.72c2.058-.611 1.221-4.138 1.221-4.138s1.397-2.33 1.397-3.234c0-.903.507-3.662.507-3.662 1.775-3.263 1.076-11.187 1.368-11.828.291-.641-.613-3.032-1.338-4.11-.726-1.077-.437-3.991 0-4.832.436-.84-.449-3.762-.449-3.762s.839-5.654.814-6.528c-.025-.874.728-3.467.728-3.467s.755-1.34.581-1.75c-.175-.409.581-1.456.377-1.922-.203-.466.176-1.89.554-2.731.193-.433.434-1.626.629-2.683.178-1.007.31-1.891.31-1.891l-4.801-3.876-11.985-3.152-4.507-1.456-4.395 6.933c-.31.506-.595 1.027-.853 1.561-.346.721-.655 1.524-.6 2.024a2.8 2.8 0 01-.407 1.806s-2.62 8.303-2.561 10.694c.059 2.391-.931 7.633-.931 7.633s-1.076 3.378-.43 4.343z" fill="#CEDDF9"/><path d="M163.248 53.33c.184-.075 12.839-5.31 11.096-6.35-1.034-.618-2.308-3.236-3.18-5.285-.608-1.43-1.022-2.584-1.022-2.584s-10.156-1.807-6.521 4.429a11.568 11.568 0 011.282 3.072c1.036 4.248-1.571 6.64-1.655 6.718z" fill="#FEC2BE"/><path opacity=".1" d="M163.621 43.54a11.57 11.57 0 011.282 3.072 7.086 7.086 0 005.997-4.221c.1-.227.189-.46.264-.696-.608-1.43-1.022-2.584-1.022-2.584s-10.156-1.807-6.521 4.429z" fill="#000"/><path d="M157.308 39.286a7.115 7.115 0 001.907 4.845 7.092 7.092 0 009.654.676 7.115 7.115 0 001.35-9.598 7.088 7.088 0 00-9.465-2.022 7.106 7.106 0 00-3.446 6.099z" fill="#FEC2BE"/><path opacity=".1" d="M150.462 94.374c.742.677 1.028 1.965 1.028 1.965s3.492 2.389 3.259.874c-.233-1.515 1.804-7.635 1.804-7.635l-.233 8.334s11.169-.525 11.985-1.34c.816-.815 5.586-2.378 5.586-2.378s1.468 1.174 2.802 2.065c.178-1.006.311-1.89.311-1.89l-4.802-3.877-11.985-3.151-4.507-1.456-4.394 6.933a17.463 17.463 0 00-.854 1.556z" fill="#000"/><path d="M150.095 93.717c.931.582 1.279 2.155 1.279 2.155s3.491 2.389 3.258.874c-.233-1.514 1.804-7.635 1.804-7.635l-.233 8.335s11.171-.521 11.983-1.34c.812-.82 5.585-2.39 5.585-2.39s4.132 3.322 4.888 3.03c.755-.292-1.339-5.943-1.339-5.943l-2.15-33.1s.581-9.85-.291-10.2a1.248 1.248 0 01-.367-.23c-.575-.517-.747-1.567-.797-2.45-.057-1.05-1.454-.525-1.454-.525l.814 1.05-7.209 4.392-.063.038a8.002 8.002 0 00-.866-.393c-.629-.246-1.487-.477-2.043-.248a1.98 1.98 0 00-.764.689 8.65 8.65 0 00-.981 1.992l-2.612 4.426s-1.338 5.883-1.338 6.12c0 .238-.407 5.595-.872 6.177-.466.582-.932 3.496-.758 4.37.174.874-.291 4.139-.291 4.139-1.919 1.574-2.907 6.933-2.907 6.933s-3.033 6.009-3.272 6.702c-.24.693.065 2.458.996 3.032z" fill="#fff"/><path opacity=".1" d="M165.866 49.97c.707 1.051 2.75 2.522 2.75 2.522l5.896-4.99c-.575-.517-.747-1.567-.797-2.452-.057-1.05-1.454-.523-1.454-.523l.17.21a.938.938 0 01.181.747.942.942 0 01-.435.634l-6.311 3.853z" fill="#000"/><path d="M165.866 49.738c.707 1.05 2.75 2.52 2.75 2.52l5.896-4.989c-.575-.517-.747-1.567-.797-2.45-.057-1.05-1.454-.525-1.454-.525l.17.21a.936.936 0 01.181.746.94.94 0 01-.435.633l-6.311 3.855z" fill="#fff"/><path opacity=".1" d="M163.139 50.523c.762.912 1.842 1.948 1.791 1.429-.05-.519.644-1.664 1.087-2.177a3.214 3.214 0 00-2.114.06 1.957 1.957 0 00-.764.688z" fill="#000"/><path d="M163.024 50.172c.761.914 1.839 1.948 1.789 1.431-.05-.517.573-1.36 1.015-1.872-.629-.245-1.485-.477-2.043-.245-.31.156-.573.394-.761.687z" fill="#fff"/><path d="M164.93 55.022a.466.466 0 100-.933.466.466 0 000 .933zm-3.53 12.586a.467.467 0 10-.001-.933.467.467 0 00.001.933zm-3.993 12.745a.466.466 0 10-.001-.931.466.466 0 00.001.93zm-.118 13.867a.466.466 0 100-.932.466.466 0 000 .933zm5.586-33.255a.466.466 0 10-.001-.931.466.466 0 00.001.931zm-3.142 12.938a.466.466 0 10-.001-.931.466.466 0 00.001.93zm-3.065 12.704a.466.466 0 100-.933.466.466 0 000 .933zm.699 9.169a.466.466 0 10-.001-.931.466.466 0 00.001.93z" fill="#FF718D"/><path opacity=".1" d="M174.512 47.553s-.078-.7.929.506c1.007 1.206 2.909 2.252 2.909 2.252s4.306 3.032 4.539 4.429c.233 1.397 1.628 7.46.892 9.48-.737 2.018-6.366 11.695-6.366 11.695s1.468 1.75 1.126 3.81c-.342 2.058-.776 4.895-.583 5.517.193.621-.233 2.174.42 2.718.652.544 1.357 1.47-.699 2.719 0 0-.388 1.05-.04 1.283.348.234-5.158 2.641-7.341 1.36-2.183-1.282-6.083-11.539-6.167-13.83-.084-2.293 1.202-9.875 1.901-11.657.698-1.781 2.794-8.742 3.685-10.294.891-1.553 4.795-9.988 4.795-9.988z" fill="#000"/><path d="M174.742 47.553s-.077-.7.932.506c1.009 1.206 2.909 2.252 2.909 2.252s4.306 3.032 4.539 4.429c.233 1.397 1.628 7.46.891 9.48-.736 2.018-6.361 11.695-6.361 11.695s1.468 1.75 1.126 3.81c-.342 2.058-.776 4.895-.583 5.517.193.621-.233 2.174.419 2.718.653.544 1.357 1.47-.698 2.719 0 0-.388 1.05-.04 1.283.348.234-5.158 2.641-7.341 1.36-2.184-1.282-6.083-11.539-6.167-13.83-.084-2.293 1.202-9.875 1.901-11.657.698-1.781 2.793-8.742 3.685-10.294.891-1.553 4.788-9.988 4.788-9.988z" fill="#4C4981"/><path opacity=".1" d="M176.294 54.166s-3.335 3.692-3.219 6.14c0 0-.038-3.965 3.219-6.14zm-4.614 6.062c0 .115-2.251 8.506-2.133 9.557.117 1.05-.661 4.156-.661 4.156l-1.049-.271s.814-4.314.969-5.906c.156-1.593 2.874-7.536 2.874-7.536zm-.893 23.932c.077.115 5.315 6.059 3.84 6.487-1.474.429-3.84-6.488-3.84-6.488zm4.306-1.522c.115.078 2.097 4.274 2.326 3.152.229-1.122-1.705 3.07-2.016-.038l-.31-3.114zm-10.054-33.755s-2.162-1.322-4.879 2.058c0 0-1.977 1.127-2.558 1.4-.581.273-1.242 7.498-1.242 7.498s-1.28 3.107-.931 4.895c.348 1.788-1.007 7.925-1.007 7.925s-2.253 11.03-2.177 11.345c.075.315 2.288-3.458 2.25-5.324-.038-1.865 1.861-7.691 2.133-8.042.273-.351 2.133-10.333 2.133-10.333s1.513-4.235 2.482-5.634c.969-1.4 2.173-4.04 2.676-4.507a5.139 5.139 0 011.202-.777l-.082-.504z" fill="#000"/><path d="M165.067 48.883s-2.425-1.322-5.139 2.058c0 0-1.98 1.127-2.561 1.4-.581.273-1.242 7.498-1.242 7.498s-1.279 3.107-.931 4.895c.348 1.788-1.007 7.925-1.007 7.925s-2.25 11.034-2.173 11.345c.078.311 2.289-3.458 2.251-5.324-.038-1.865 1.86-7.691 2.133-8.042.273-.351 2.139-10.333 2.139-10.333s1.513-4.235 2.482-5.634c.969-1.4 2.173-4.04 2.676-4.507.504-.466 1.435-.777 1.435-.777l-.063-.504z" fill="#4C4981"/><path d="M154.42 73.163s-4.615-3.03-6.846-1.534c-2.232 1.496-5.873 3.614-2.289 5.148 3.585 1.534 8.552 1.24 8.552 1.24l.583-4.854z" fill="#FEC2BE"/><path opacity=".1" d="M157.629 102.4c.688 1.471 1.258 8.904 1.64 11.259.552-.946 1.219-2.078 1.443-2.431.286-.45.974-2.361 1.357-3.464-.438-1.068-1.648-4.127-1.648-5.253 0-1.37-2.211-3.088-2.211-3.088s-1.395 1.229-.581 2.977zm14.836 22.814s-5.12-2.185-6.633-.63c-1.512 1.555 6.633.63 6.633.63zm-2.88.874s5.179 2.914 3.404 3.402c-1.774.487-3.404-3.402-3.404-3.402zm-15.476-2.534s2.211.145 1.368.582c-.843.437-1.368-.582-1.368-.582zm-2.764.671c.029.145 6.429 2.214 5.178 3.151-1.25.937-5.178-3.151-5.178-3.151zm20.362 17.832c-.958-.147-6.311-2.624-4.218-.84 2.094 1.784 4.218.84 4.218.84zm-2.647 1.952s-.466 1.807-2.24 1.574c-1.775-.233 2.24-1.574 2.24-1.574zm1.485 3.671c-.321-.087-4.132-1.835-4.218-1.019-.086.815 3.635 2.243 3.927 1.806.167-.231.268-.503.291-.787zm-12.335-2.097c-.466-.03-4.824-1.429-5.701-.177l5.701.177zm-3.956.815s-.757-.67-1.512-.322c-.755.349 1.512.322 1.512.322zm9.659 7.227a1.303 1.303 0 01-.99 1.019l.99-1.019z" fill="#000"/><path d="M141.715 156.363c.292 1.195 4.365 1.311 6.314.991 1.948-.319 5.992-1.487 5.992-1.487s4.248-.408 5.498-.931c1.25-.523.262-1.865.262-1.865v-.126c.03-.488.118-2.255-.182-2.732-.349-.554-.145-2.361-.145-2.361s-6.022 1.166-6.139.613c-.118-.552-1.049-1.34-1.483-1.514-.435-.175-.758 1.456-.758 1.456s-2.726 2.332-2.909 3.176c-.182.845-2.097 1.282-2.097 1.282s-2.909.815-3.667 1.222a1.418 1.418 0 00-.801 1.133c-.032.385.007.772.115 1.143z" fill="#CA8496"/><path opacity=".1" d="M141.715 156.363c.292 1.195 4.365 1.311 6.314.991 1.948-.319 5.992-1.487 5.992-1.487s4.248-.408 5.498-.931c1.25-.523.262-1.865.262-1.865v-.126l-6.083 1.35s-2.997 1.282-4.916 1.282c-1.678 0-5.433.687-7.174-.355-.034.384.002.77.107 1.141z" fill="#000"/><path opacity=".1" d="M149.948 151.76s.291 1.922 1.455 2.563l-1.455-2.563zm7.637-114.443c.111.059.227.107.346.145.545.147 1.078-.223 1.563-.517.484-.294 1.153-.513 1.573-.13.547.498.151 1.56.715 2.042.357.305.923.2 1.319.45.397.25.516.798.617 1.27.101.473.302 1.013.764 1.152.461.139.891-.166 1.346-.15.095 0 .21.015.269-.052a.288.288 0 00.044-.21 4.478 4.478 0 01.149-1.68c.186-.538.629-1.024 1.183-1.11.815-.126 1.501.59 1.982 1.26.505.71.964 1.452 1.376 2.22.026.049.049.1.069.153a7.11 7.11 0 00.038-5.668 7.112 7.112 0 00-4.111-3.895 7.086 7.086 0 00-7.899 2.168 7.126 7.126 0 00-1.343 2.563v-.011z" fill="#000"/><path d="M169.455 39.67c-.481-.677-1.166-1.39-1.984-1.26-.561.086-.993.57-1.181 1.107a4.437 4.437 0 00-.147 1.68.3.3 0 01-.046.21c-.065.07-.174.06-.269.055-.455-.017-.908.28-1.346.15-.439-.131-.663-.68-.764-1.152-.101-.473-.21-1.013-.617-1.271-.406-.258-.962-.145-1.319-.452-.564-.479-.166-1.544-.715-2.042-.42-.38-1.089-.162-1.573.132-.485.295-1.018.662-1.565.515-.185-.05-.35-.155-.531-.225-.862-.33-1.98.23-2.689-.363a2.09 2.09 0 01-.537-.93 5.964 5.964 0 01-.392-1.486 1.988 1.988 0 01.394-1.448c.462-.544 1.242-.68 1.832-1.082.501-.344.839-.867 1.17-1.382.331-.515.652-1.05 1.137-1.414.484-.364 1.164-.544 1.705-.269.171.12.36.21.56.267.218.003.433-.056.619-.17 2.018-.952 4.367-.784 6.58-.5.885.113 1.783.245 2.59.63.808.384 1.521 1.05 1.747 1.916.181.685.042 1.43.26 2.1.147.459.449.841.63 1.301.472 1.23-.093 2.578-.332 3.872-.26 1.414-.13 2.942-.73 4.282-.117.263-.249.723-.545.55-.21-.128-.432-.873-.558-1.107a20.482 20.482 0 00-1.384-2.214z" fill="#9A5E7F"/><path opacity=".1" d="M182.239 62.442l1.049 2.992s-2.484 9.244-3.648 11.187c-1.164 1.944-2.869 4.43-2.869 4.43s-2.87 1.438-6.207.776c-3.337-.661-13.075-2.407-13.075-2.407s-.816.155-1.242-.467c-.426-.621-2.643-.937-2.643-.937s-2.559-3.729.583-5.283c0 0 .388.855 2.056.273 1.667-.582 2.171.464 2.171.464s2.726.544 4.228.35c1.502-.192 5.275-.272 5.663-.583a.5.5 0 01.699.04s.929-.35 1.239-.7c.311-.35.739.389.739.389s.543-.311.388-.7c-.155-.389.503-1.863.503-1.863s.311-.973.118-1.75c-.193-.778.969-3.572.969-3.572a4.926 4.926 0 00-.156-1.4c-.195-.697 1.469-2.1 1.469-2.1s1.627-7.927 5.08-5.324c3.452 2.603 2.886 6.185 2.886 6.185z" fill="#000"/><path d="M182.461 62.442l1.049 2.992s-2.483 9.244-3.647 11.187c-1.164 1.944-2.868 4.43-2.868 4.43s-2.869 1.438-6.206.776c-3.337-.661-13.072-2.407-13.072-2.407s-.814.155-1.239-.467c-.426-.621-2.641-.937-2.641-.937s-2.559-3.729.583-5.283c0 0 .388.855 2.056.273 1.667-.582 2.17.464 2.17.464s2.727.544 4.229.35c1.502-.192 5.275-.272 5.663-.583a.5.5 0 01.699.04s.929-.35 1.239-.7c.311-.35.739.389.739.389s.543-.311.388-.7c-.156-.389.503-1.863.503-1.863s.311-.973.115-1.75c-.195-.778.972-3.572.972-3.572a4.962 4.962 0 00-.156-1.4c-.195-.697 1.469-2.1 1.469-2.1s1.627-7.927 5.08-5.324c3.452 2.603 2.875 6.185 2.875 6.185z" fill="#4C4981"/><path opacity=".1" d="M157.251 74.951c.038.273.892 1.36.581 1.555-.31.195-.814.078-.348.7.466.621.42 1.552.115 1.436-.304-.115-.813-1.514-.813-2.058 0-.544.465-1.633.465-1.633zm11.52-.621s.233 2.72 2.142 3.497c1.908.778-2.142-3.498-2.142-3.498zm3.956-.936c.115.04 2.714 1.44 1.552 2.255s-1.552-2.255-1.552-2.255zm.155-1.939s3.8.778 2.517 1.437c-1.284.66-2.517-1.437-2.517-1.437zm-6.584-32.605c.189-.535.629-1.02 1.181-1.107.818-.126 1.504.59 1.984 1.261.505.71.965 1.45 1.376 2.219.126.233.34.977.558 1.105.296.174.419-.286.545-.549.6-1.336.47-2.867.73-4.281.153-.826.436-1.681.499-2.5.091 1.016-.308 2.086-.499 3.12-.26 1.413-.13 2.94-.73 4.283-.117.263-.249.723-.545.549-.21-.129-.432-.872-.558-1.106a20.58 20.58 0 00-1.376-2.218c-.48-.674-1.166-1.39-1.984-1.26-.56.086-.992.57-1.181 1.107a3.058 3.058 0 00-.155.874 4.066 4.066 0 01.155-1.496zm-12.126-3.693c.094.353.28.675.537.933.709.592 1.827.034 2.689.363.181.068.346.175.531.225.547.145 1.082-.222 1.565-.517.482-.294 1.155-.51 1.573-.13.549.498.151 1.561.715 2.042.357.305.923.21 1.319.452.397.242.516.796.617 1.26.101.465.3 1.013.763 1.152.464.139.892-.164 1.347-.147.094 0 .21.015.269-.055a.21.21 0 00.031-.059c0 .158 0 .313.015.469a.3.3 0 01-.046.21c-.065.067-.175.057-.269.053-.455-.015-.908.279-1.347.149-.438-.13-.662-.677-.763-1.152-.101-.474-.21-1.012-.617-1.26-.407-.248-.962-.147-1.319-.452-.564-.481-.166-1.546-.715-2.042-.42-.382-1.089-.164-1.573.13-.485.294-1.018.662-1.565.517-.185-.05-.35-.157-.531-.225-.862-.33-1.98.23-2.689-.363a2.097 2.097 0 01-.537-.933 5.948 5.948 0 01-.392-1.483 2.389 2.389 0 01.013-.521c.073.474.2.939.379 1.384z" fill="#000"/><path d="M20.929 152.65s-8.868-.535-7.824 5.688c0 0-.21 1.101.789 1.601 0 0 .014-.463.91-.307.318.053.641.069.963.048.434-.03.848-.201 1.177-.487 0 0 2.493-1.032 3.462-5.114 0 0 .718-.889.688-1.118l-1.495.631s.512 1.082.109 1.981c0 0-.048-1.941-.336-1.891-.058 0-.778.374-.778.374s.881 1.891.21 3.254c0 0 .252-2.321-.49-3.117l-1.05.615s1.028 1.946.332 3.534c0 0 .178-2.435-.554-3.383l-.954.746s.967 1.916.377 3.234c0 0-.077-2.835-.583-3.049 0 0-.839.738-.963 1.051 0 0 .661 1.393.25 2.128 0 0-.252-1.891-.457-1.891 0 0-.84 1.25-.919 2.101 0 0 .036-1.275.717-2.229-.48.091-.922.321-1.273.662 0 0 .128-.885 1.479-.963 0 0 .688-.949.87-1.006 0 0-1.342-.113-2.156.248 0 0 .718-.84 2.404-.454l.942-.771s-1.768-.241-2.517.025c0 0 .862-.737 2.77-.199l1.026-.616s-1.506-.325-2.404-.21c0 0 .946-.51 2.706.044l.732-.33s-1.103-.21-1.426-.252c-.323-.042-.342-.124-.342-.124a3.821 3.821 0 012.074.231s1.559-.588 1.534-.685z" fill="#E1680F"/><path opacity=".1" d="M14.82 161.544c3.467 0 6.276-.476 6.276-1.063 0-.588-2.81-1.064-6.275-1.064-3.466 0-6.276.476-6.276 1.064 0 .587 2.81 1.063 6.276 1.063z" fill="#E1680F"/><path d="M37.931 136.248s-5-.302-4.405 3.208a.86.86 0 00.445.902s0-.261.514-.173c.18.03.362.039.543.028.245-.019.477-.115.663-.276 0 0 1.401-.573 1.955-2.884 0 0 .405-.502.388-.63l-.84.359s.288.611.062 1.118c0 0-.028-1.095-.19-1.07-.033 0-.438.21-.438.21s.495 1.051.122 1.834c0 0 .14-1.308-.277-1.758l-.597.357s.578 1.097.186 1.992c0 0 .1-1.374-.312-1.908l-.537.42s.543 1.082.21 1.824c0 0-.045-1.599-.33-1.719a3.34 3.34 0 00-.543.587s.373.785.143 1.199c0 0-.143-1.065-.258-1.069 0 0-.47.704-.519 1.189a2.57 2.57 0 01.403-1.261 1.43 1.43 0 00-.717.374s.073-.5.839-.542c0 0 .386-.535.49-.567 0 0-.756-.065-1.216.139 0 0 .405-.471 1.355-.257l.53-.435s-.995-.136-1.417.015c0 0 .486-.42 1.563-.113l.576-.345a5.184 5.184 0 00-1.355-.117s.535-.29 1.525.023l.42-.185s-.63-.124-.804-.143c-.174-.019-.193-.069-.193-.069.395-.066.8-.021 1.17.13 0 0 .87-.332.846-.387z" fill="#E1680F"/><path opacity=".1" d="M34.495 141.261c1.955 0 3.539-.268 3.539-.599 0-.33-1.584-.599-3.538-.599-1.955 0-3.539.269-3.539.599 0 .331 1.584.599 3.538.599z" fill="#E1680F"/><path d="M8.43 139.295s-6.037-.366-5.317 3.872a1.033 1.033 0 00.537 1.088s0-.315.618-.21c.217.036.438.047.657.031.296-.019.578-.136.801-.332 0 0 1.697-.701 2.358-3.479 0 0 .486-.605.468-.76l-1.034.437s.346.735.073 1.346c0 0-.034-1.319-.229-1.288-.04 0-.528.255-.528.255s.598 1.281.147 2.214c0 0 .17-1.58-.336-2.122l-.715.42s.698 1.324.224 2.404c0 0 .122-1.658-.375-2.311l-.65.508s.656 1.305.255 2.202c0 0-.052-1.931-.396-2.076 0 0-.568.502-.657.708 0 0 .451.948.172 1.448 0 0-.172-1.286-.312-1.292 0 0-.566.853-.63 1.437a3.1 3.1 0 01.49-1.517 1.7 1.7 0 00-.869.449s.088-.602 1.009-.655c0 0 .468-.645.591-.685 0 0-.912-.078-1.468.168 0 0 .489-.567 1.636-.309l.642-.525s-1.204-.164-1.714.019c0 0 .588-.504 1.888-.137l.699-.42s-1.026-.222-1.636-.143c0 0 .643-.348 1.841.03l.5-.225s-.752-.147-.972-.17c-.22-.023-.233-.084-.233-.084a2.59 2.59 0 011.412.155s1.072-.382 1.053-.451z" fill="#E1680F"/><path opacity=".1" d="M4.273 145.348c2.36 0 4.272-.324 4.272-.723 0-.399-1.913-.723-4.272-.723-2.36 0-4.273.324-4.273.723 0 .399 1.913.723 4.273.723zM127.469 172c3.466 0 6.276-.476 6.276-1.063s-2.81-1.063-6.276-1.063c-3.466 0-6.276.476-6.276 1.063s2.81 1.063 6.276 1.063z" fill="#E1680F"/><path d="M123.255 166s3.581-.112 4.659-.881c1.078-.769 5.506-1.68 5.774-.453.269 1.227 5.38 6.136 1.339 6.17-4.042.034-9.391-.63-10.469-1.288-1.078-.657-1.303-3.548-1.303-3.548z" fill="#A8A8A8"/><path opacity=".2" d="M135.097 170.405c-4.041.034-9.39-.63-10.466-1.286-.82-.502-1.147-2.296-1.259-3.124h-.119s.226 2.891 1.302 3.549c1.076.657 6.427 1.319 10.469 1.288 1.166 0 1.569-.42 1.548-1.051-.159.385-.606.618-1.475.624z" fill="#000"/><defs><linearGradient id="paint0_linear" x1="149.625" y1="56.545" x2="149.625" y2="49.837" gradientUnits="userSpaceOnUse"><stop stop-color="gray" stop-opacity=".25"/><stop offset=".54" stop-color="gray" stop-opacity=".12"/><stop offset="1" stop-color="gray" stop-opacity=".1"/></linearGradient><linearGradient id="paint1_linear" x1="62500.7" y1="107828" x2="62500.7" y2="22983.1" gradientUnits="userSpaceOnUse"><stop stop-color="gray" stop-opacity=".25"/><stop offset=".54" stop-color="gray" stop-opacity=".12"/><stop offset="1" stop-color="gray" stop-opacity=".1"/></linearGradient></defs></svg>