<svg width="227" height="157" fill="none" xmlns="http://www.w3.org/2000/svg"><g clip-path="url(#clip0)"><path opacity=".1" d="M117.297 26.782c-14.323 2.406-28.635 1.327-42.406-.23-13.771-1.558-27.494-3.584-41.839-3.02-9.221.374-19.492 2.196-25.914 7.544C.955 36.224.006 43.188 0 49.474c0 4.731.401 9.622 3.739 13.397 2.31 2.618 5.864 4.498 8.54 6.914 9.32 8.405 6.523 21.591.448 32.797-2.85 5.256-6.337 10.424-8.274 15.8-1.936 5.377-2.183 11.152 1.317 15.556 3.467 4.364 10.162 6.836 17.138 8.125 14.17 2.62 29.944 1.052 45.206-1.087 33.785-4.733 67.216-12.184 100.558-19.617 12.338-2.752 24.73-5.517 36.616-9.498 6.601-2.205 13.319-4.977 17.576-9.287 5.402-5.474 5.527-12.96.291-17.44-8.784-7.531-28.621-5.912-35.421-14.511-3.742-4.751-2.133-11.166.821-16.819 6.34-12.144 18.624-24.125 16.994-36.25-1.12-8.328-9.532-15.236-20.789-17.04-11.798-1.908-26.935 1.618-33.714 9.975-6.962 8.598-21.102 14.172-33.749 16.293z" fill="#E1680F"/><path d="M171.519 21.467c-.242.778-.487 1.556-.802 2.312a19.555 19.555 0 01-2.029 3.73 27.145 27.145 0 01-1.694 2.217c-.755.888-1.595 1.782-1.862 2.917-.155.655-.103 1.34-.169 2.004-.066.664-.281 1.38-.825 1.78-.387.287-.883.373-1.358.45-.341.054-.767.07-.946-.225a.889.889 0 01-.092-.389l-.082-.98c-.018-.21-.092-.483-.305-.493-.213-.01-.319.272-.5.4-.241.169-.602 0-.734-.254a1.236 1.236 0 01-.022-.86 4.08 4.08 0 012.103-2.606 6.04 6.04 0 001.023-.533c.329-.285.601-.63.803-1.014 1.862-3.063 3.735-6.142 5.047-9.476.26-.595.436-1.223.522-1.866.064-.658-.038-1.316-.08-1.975-.078-1.18.031-2.366.323-3.512.064-.302.178-.591.337-.856.542-.82 1.806-.942 2.609-.375a2.678 2.678 0 011.039 1.899c.058.663-.325 1.353-.519 1.972-.596 1.914-1.191 3.825-1.787 5.733z" fill="#A1616A"/><path opacity=".05" d="M171.519 21.467c-.242.778-.487 1.556-.802 2.312a19.555 19.555 0 01-2.029 3.73 27.145 27.145 0 01-1.694 2.217c-.755.888-1.595 1.782-1.862 2.917-.155.655-.103 1.34-.169 2.004-.066.664-.281 1.38-.825 1.78-.387.287-.883.373-1.358.45-.341.054-.767.07-.946-.225a.889.889 0 01-.092-.389l-.082-.98c-.018-.21-.092-.483-.305-.493-.213-.01-.319.272-.5.4-.241.169-.602 0-.734-.254a1.236 1.236 0 01-.022-.86 4.08 4.08 0 012.103-2.606 6.04 6.04 0 001.023-.533c.329-.285.601-.63.803-1.014 1.862-3.063 3.735-6.142 5.047-9.476.26-.595.436-1.223.522-1.866.064-.658-.038-1.316-.08-1.975-.078-1.18.031-2.366.323-3.512.064-.302.178-.591.337-.856.542-.82 1.806-.942 2.609-.375a2.678 2.678 0 011.039 1.899c.058.663-.325 1.353-.519 1.972-.596 1.914-1.191 3.825-1.787 5.733z" fill="#000"/><path d="M183.219 54.218c-.363.125-.749.17-1.132.135-.028-.313-.449-.383-.762-.367a.873.873 0 00-.436.1c-.078.05-.138.124-.215.175a.908.908 0 01-.443.114l-1.63.136c-.726.062-1.483.12-2.163-.14a.734.734 0 01-.347-.233c-.185-.264 0-.643.255-.834.255-.19.584-.28.841-.477.566-.43.644-1.237.943-1.88.211-.408.473-.788.78-1.13a4.29 4.29 0 01.769-.786c.652-.474 1.405-.464 2.173-.532.542-.048 1.052-.078 1.441.401.48.602.289 1.804.259 2.508a18.066 18.066 0 01-.333 2.81z" fill="#514E7F"/><path opacity=".05" d="M183.219 54.218c-.363.125-.749.17-1.132.135-.028-.313-.449-.383-.762-.367a.873.873 0 00-.436.1c-.078.05-.138.124-.215.175a.908.908 0 01-.443.114l-1.63.136c-.726.062-1.483.12-2.163-.14a.734.734 0 01-.347-.233c-.185-.264 0-.643.255-.834.255-.19.584-.28.841-.477.566-.43.644-1.237.943-1.88.211-.408.473-.788.78-1.13a4.29 4.29 0 01.769-.786c.652-.474 1.405-.464 2.173-.532.542-.048 1.052-.078 1.441.401.48.602.289 1.804.259 2.508a18.066 18.066 0 01-.333 2.81z" fill="#000"/><path d="M182.561 22.554c.498.16.714.78.622 1.297-.092.517-.401.958-.656 1.415-.727 1.297-1.04 2.78-1.65 4.133-.455 1.013-1.072 1.947-1.523 2.961-.452 1.014-.727 2.16-.456 3.234.135.523.402 1.002.562 1.517a8.4 8.4 0 01.329 1.714c.221 1.974.261 3.964.119 5.946-.001.241-.052.48-.149.701-.102.2-.279.401-.2.602.034.082.106.142.144.222.104.225-.104.463-.295.624a.527.527 0 00.319.246.756.756 0 00-.323.842c.171.024.181.285.074.419-.106.134-.275.22-.351.375a.52.52 0 00.289.657c.251.098.524.119.787.06.449-.06.894-.156 1.328-.286.144-.037.28-.098.402-.183.218-.211.348-.498.363-.801.099-.816.13-1.64.09-2.46-.072-3.977 0-7.958.173-11.933.07-1.604.552-3.158 1.17-4.633a24.92 24.92 0 011.144-2.215c.891-1.63 1.675-3.434 1.475-5.294-.022-.2-.097-.44-.293-.471a.426.426 0 00-.227.038 9.863 9.863 0 00-1.194.66 4.534 4.534 0 01-2.073.613z" fill="#464353"/><path opacity=".05" d="M182.561 22.554c.498.16.714.78.622 1.297-.092.517-.401.958-.656 1.415-.727 1.297-1.04 2.78-1.65 4.133-.455 1.013-1.072 1.947-1.523 2.961-.452 1.014-.727 2.16-.456 3.234.135.523.402 1.002.562 1.517a8.4 8.4 0 01.329 1.714c.221 1.974.261 3.964.119 5.946-.001.241-.052.48-.149.701-.102.2-.279.401-.2.602.034.082.106.142.144.222.104.225-.104.463-.295.624a.527.527 0 00.319.246.756.756 0 00-.323.842c.171.024.181.285.074.419-.106.134-.275.22-.351.375a.52.52 0 00.289.657c.251.098.524.119.787.06.449-.06.894-.156 1.328-.286.144-.037.28-.098.402-.183.218-.211.348-.498.363-.801.099-.816.13-1.64.09-2.46-.072-3.977 0-7.958.173-11.933.07-1.604.552-3.158 1.17-4.633a24.92 24.92 0 011.144-2.215c.891-1.63 1.675-3.434 1.475-5.294-.022-.2-.097-.44-.293-.471a.426.426 0 00-.227.038 9.863 9.863 0 00-1.194.66 4.534 4.534 0 01-2.073.613z" fill="#000"/><path d="M189.29 17.72c.259-.167.558-.262.867-.274.357.018.662.253.941.477.331.254.644.528.939.822a5.007 5.007 0 011.116 4.947c-.295.884-.835 1.664-1.368 2.428l-1.084 1.555c-1.654 2.372-3.307 4.743-5.039 7.059a.272.272 0 01-.189.254c-.064.016-.14.014-.179.066a.206.206 0 00-.022.107c.004.172.037.342.097.503a.235.235 0 01.02.17c-.056.13-.293.058-.369.179-.051.08.012.184.078.252s.148.145.136.239c-.012.094-.176.2-.17.317 0 .068.06.12.102.174a.446.446 0 01-.054.57c-.115 1.13.502 2.204.624 3.33.201 1.78-.612 3.519-.71 5.305.005.201-.033.4-.113.585-.166.309-.602.496-.58.846.032.144.072.286.121.425.034.2-.061.401-.065.602-.004.2.173.447.364.368a22.62 22.62 0 00-.38 1.43l-3.793.312a3.37 3.37 0 01.035-1.022c.076-.365.242-.708.329-1.07a1.263 1.263 0 00-.151-1.073.422.422 0 00.42-.343 1.667 1.667 0 000-.589c-.101-.988.315-1.962.301-2.955-.01-.782-.285-1.531-.424-2.301-.297-1.644.012-3.426-.72-4.925-.444-.906-1.058-1.909-.56-2.785.245-.433.678-.73.961-1.138.23-.386.403-.803.514-1.24.584-1.803 1.529-3.481 2.358-5.195a5.5 5.5 0 00.498-1.355c.058-.417.079-.838.062-1.259a18.84 18.84 0 01.14-2.265c.019-.33.113-.65.275-.936.164-.217.369-.4.602-.54 1.244-.864 2.733-1.35 4.07-2.056z" fill="#464353"/><path d="M184.742 55.605c-.364.125-.751.17-1.134.135-.028-.31-.447-.383-.76-.367a.886.886 0 00-.438.1c-.076.05-.136.124-.215.175a.905.905 0 01-.443.114l-1.628.138c-.728.06-1.483.119-2.165-.142a.702.702 0 01-.345-.233c-.187-.264 0-.641.255-.834.255-.192.584-.28.838-.475.566-.433.645-1.236.946-1.882a5.4 5.4 0 01.778-1.129 4.44 4.44 0 01.769-.787c.654-.474 1.405-.463 2.173-.53.544-.05 1.054-.08 1.441.401.482.602.289 1.804.261 2.508a18.16 18.16 0 01-.333 2.809z" fill="#514E7F"/><path d="M167.933 11.158a3.755 3.755 0 003.757-3.753 3.755 3.755 0 00-3.757-3.753 3.755 3.755 0 00-3.757 3.753 3.755 3.755 0 003.757 3.753z" fill="#A1616A"/><path d="M171.475 8.52c.54.463 1.313.499 2.019.57 1.511.154 2.981.578 4.341 1.254.189.08.36.197.502.345.122.158.209.34.255.535.128.422.176.865.142 1.305a3.725 3.725 0 01-.363 1.229 6.63 6.63 0 01-2.328 2.65 1.712 1.712 0 01-.59.282c-.494.102-.971-.182-1.459-.31a2.373 2.373 0 00-1.347.044c-.401.134-.841.385-1.238.218a1.276 1.276 0 01-.56-.64 21.642 21.642 0 01-1.025-2.238 8.155 8.155 0 00-.372-.872c-.435-.83-1.188-1.47-1.563-2.328a.513.513 0 01-.036-.439.6.6 0 01.277-.2 6.586 6.586 0 001.501-1.185c.247-.234.7-.876 1.056-.93.409-.072.519.477.788.71z" fill="#A1616A"/><path d="M171.389 16.145c.435.2.947.114 1.421.016 1.216-.252 2.446-.511 3.572-1.036a1.94 1.94 0 00.877-.674c.137-.26.22-.546.245-.84l.2-1.403c.073-.487-.054-.938-.064-1.431a.409.409 0 01.083-.31.326.326 0 01.244-.08c.566 0 .907.602 1.303 1.003.229.23.502.413.802.535.36.149.803.253.954.614.06.15.052.32.116.47.253.602 1.331.402 1.606 1.003.076.169.072.38.2.511.129.133.37.13.568.163.783.128 1.164 1.034 1.834 1.461.564.359 1.291.35 1.897.632.339.156.638.4 1.003.503.366.102.761.048 1.144.058a.299.299 0 01.227.074.306.306 0 01.038.249 6.91 6.91 0 01-4.274 5.348 1.462 1.462 0 00-.364.176c-.341.255-.401.802-.788.982a.806.806 0 01-.821-.176 7.265 7.265 0 01-.602-.653 2.36 2.36 0 00-1.323-.696c-.465-.074-.987-.02-1.362-.305a4.42 4.42 0 01-.43-.459 2.716 2.716 0 00-.975-.581 9.933 9.933 0 00-3.097-.678c-.987-.054-2.006.034-2.94-.286a1.749 1.749 0 01-.656-.371 1.941 1.941 0 01-.437-.76 5.777 5.777 0 01-.201-3.059z" fill="#E1680F"/><path d="M176.229 10.614c-.276-.024-.553.01-.832 0-.327 0-.651-.08-.978-.082a2.432 2.432 0 00-2.291 1.742.45.45 0 00-.015.247.175.175 0 00.189.128 4.3 4.3 0 01.422-.844 2.393 2.393 0 011.262-.878 3.292 3.292 0 011.549-.056c.213.04.424.098.632.154l1.004.277c.184.05.369.1.55.166.138.053.375.243.511.25.185 0 .034-.16-.048-.268a1.32 1.32 0 00-.654-.475 5.58 5.58 0 00-1.301-.36z" fill="#E1680F"/><path d="M173.705 21.886c-.243.778-.486 1.558-.791 2.313a19.535 19.535 0 01-2.049 3.731 26.903 26.903 0 01-1.694 2.217c-.754.888-1.605 1.782-1.862 2.917-.155.655-.102 1.34-.167 2.004-.064.664-.283 1.38-.824 1.78-.39.287-.885.373-1.361.447-.339.057-.765.073-.943-.222a.89.89 0 01-.095-.389l-.08-.98c-.018-.2-.094-.483-.305-.493-.211-.01-.321.272-.502.4-.24.169-.602 0-.734-.254a1.236 1.236 0 01-.02-.862 4.082 4.082 0 012.101-2.606 6.288 6.288 0 001.026-.533c.328-.285.6-.63.802-1.015 1.863-3.063 3.735-6.142 5.049-9.475a7.016 7.016 0 00.52-1.869c.064-.655-.036-1.314-.08-1.972a11.2 11.2 0 01.325-3.512 2.78 2.78 0 01.337-.856c.54-.82 1.806-.942 2.609-.375a2.697 2.697 0 011.042 1.898c.058.664-.328 1.354-.52 1.973-.597 1.912-1.192 3.823-1.784 5.733z" fill="#A1616A"/><path d="M162.467 4.753c-.031-.313.25-.601.57-.802.336-.177.658-.378.965-.601.285-.247.439-.566.726-.814a3.18 3.18 0 011.082-.537 8.283 8.283 0 012.593-.468c.895 0 1.806.201 2.48.656.164.102.307.235.422.39.106.193.174.404.2.622.16.673.377 1.33.648 1.967.279.707.576 1.441 1.233 1.988.702.584 1.776.92 2.239 1.628a.525.525 0 01.103.453c-.067.18-.279.3-.476.413-1.142.654-2.123 1.502-2.631 2.514-.508 1.012-.49 2.205.231 3.137.265.345.63.754.371 1.1-.401.528-1.744.225-2.057.784-.098.177-.04.381-.042.574 0 .585-.562 1.104-1.246 1.375-.685.27-1.477.335-2.248.369a1.959 1.959 0 01-.056-1.454.584.584 0 00.058-.328.783.783 0 00-.259-.32c-.823-.775-.65-1.92-.154-2.844.495-.924 1.264-1.768 1.551-2.74.14-.483.142-1.026-.243-1.425a4.832 4.832 0 00-.706-.517 2.667 2.667 0 01-.992-1.243c-.23-.64-.2-1.403-.871-1.832-.644-.401-1.549-.287-2.261-.562-.546-.194-1.184-1.026-1.23-1.483z" fill="#464353"/><path d="M95.51 21.688c-.15 1.637 1.09 3.227.73 4.83-.079.343-.225.668-.28 1.015-.15.952.418 1.852.962 2.65l4.661 6.836c.189.3.412.575.667.822.893.801 2.229.707 3.399.946.823.166 1.6.508 2.278 1.002a.142.142 0 01.03.2 1.95 1.95 0 01-1.694.803c-.122.16 0 .4.169.513.251.174.602.22.646.643a.721.721 0 01-.086.427 1.32 1.32 0 01-.815.565c-1.605.494-3.359-.372-4.567-1.551-1.209-1.179-2.076-2.666-3.261-3.867-.657-.664-1.405-1.23-2.08-1.874-1.348-1.285-2.398-2.845-3.411-4.41a4.85 4.85 0 01-.739-1.502c-.124-.531-.068-1.096-.212-1.624-.19-.693-.695-1.244-1.118-1.826-.827-1.138-1.379-2.53-1.27-3.933.108-1.403.979-2.788 2.307-3.26.41-.163.863-.19 1.29-.078.543.167.942.616 1.315 1.045l.883 1.022c.222.224.398.49.516.782a.819.819 0 01-.18.87" fill="#FBBEBE"/><path opacity=".05" d="M95.51 21.688c-.15 1.637 1.09 3.227.73 4.83-.079.343-.225.668-.28 1.015-.15.952.418 1.852.962 2.65l4.661 6.836c.189.3.412.575.667.822.893.801 2.229.707 3.399.946.823.166 1.6.508 2.278 1.002a.142.142 0 01.03.2 1.95 1.95 0 01-1.694.803c-.122.16 0 .4.169.513.251.174.602.22.646.643a.721.721 0 01-.086.427 1.32 1.32 0 01-.815.565c-1.605.494-3.359-.372-4.567-1.551-1.209-1.179-2.076-2.666-3.261-3.867-.657-.664-1.405-1.23-2.08-1.874-1.348-1.285-2.398-2.845-3.411-4.41a4.85 4.85 0 01-.739-1.502c-.124-.531-.068-1.096-.212-1.624-.19-.693-.695-1.244-1.118-1.826-.827-1.138-1.379-2.53-1.27-3.933.108-1.403.979-2.788 2.307-3.26.41-.163.863-.19 1.29-.078.543.167.942.616 1.315 1.045l.883 1.022c.222.224.398.49.516.782a.819.819 0 01-.18.87" fill="#000"/><path d="M91.983 63.844c1.017.62 2.286.658 3.47.514.19-.024.417-.038.54.108.176.214-.032.527-.25.7a5.15 5.15 0 01-2.385.98c-.773.108-1.552.16-2.332.154-2.127.036-4.267.072-6.374-.234a.868.868 0 01-.347-.1.672.672 0 01-.263-.401c-.145-.546.134-1.135.554-1.514.42-.379.96-.601 1.485-.802l1.852-.72c.434-.168 1.13-.617 1.606-.583.869.068 1.707 1.468 2.444 1.898z" fill="#3F3D56"/><path opacity=".05" d="M91.983 63.844c1.017.62 2.286.658 3.47.514.19-.024.417-.038.54.108.176.214-.032.527-.25.7a5.15 5.15 0 01-2.385.98c-.773.108-1.552.16-2.332.154-2.127.036-4.267.072-6.374-.234a.868.868 0 01-.347-.1.672.672 0 01-.263-.401c-.145-.546.134-1.135.554-1.514.42-.379.96-.601 1.485-.802l1.852-.72c.434-.168 1.13-.617 1.606-.583.869.068 1.707 1.468 2.444 1.898z" fill="#000"/><path d="M90.69 39.296c.769 1.025 1.568 2.205 1.377 3.474-.102.684-.486 1.287-.767 1.919a13.54 13.54 0 00-.776 2.694c-.29 1.34-.578 2.686-.755 4.047-.2 1.538.745 5.988.833 7.535.02.373.064.778.323 1.047.102.106.239.2.283.33a.563.563 0 01-.06.391c-.436.979-1.325 1.706-2.312 2.123-.987.417-3.39 1.135-4.461 1.17a.871.871 0 01-.42-.053.814.814 0 01-.325-.371c-.772-1.48-.03-6.74-.042-8.407 0-1.394-.339-2.777-.277-4.168.048-1.116.347-2.205.458-3.32.178-1.826-.159-3.658-.494-5.462-.257-1.381-.516-2.764-.845-4.131-.2-.832-.433-1.674-.893-2.406-.363-.575-.857-1.054-1.27-1.594a7.21 7.21 0 01-1.425-5.286c.024-.186 2.675.67 2.904.77.95.404 1.825.966 2.587 1.664.602.581 1.095 1.36 1.631 2.014a166.975 166.975 0 014.726 6.02z" fill="#464353"/><path opacity=".05" d="M90.69 39.234c.77 1.026 1.568 2.205 1.377 3.476-.102.683-.485 1.285-.766 1.916a13.543 13.543 0 00-.777 2.694c-.29 1.343-.578 2.687-.755 4.048-.2 1.54.745 5.987.833 7.537.02.373.064.778.323 1.046.103.105.24.19.283.33a.563.563 0 01-.06.39c-.435.978-1.325 1.708-2.312 2.125-.987.417-3.39.802-4.461.834a.871.871 0 01-.42-.054.815.815 0 01-.325-.371c-.772-1.48-.03-6.405-.042-8.073 0-1.393-.339-2.774-.277-4.167.049-1.117.348-2.205.458-3.32.179-1.824-.159-3.658-.494-5.46-.257-1.384-.516-2.767-.845-4.132-.2-.834-.433-1.676-.893-2.405-.363-.574-.857-1.055-1.27-1.592a7.21 7.21 0 01-1.425-5.288c.024-.184 2.675.671 2.904.772a9.009 9.009 0 012.587 1.663c.602.582 1.096 1.362 1.631 2.005.759.922 1.508 1.852 2.246 2.79.839 1.072 1.666 2.15 2.48 3.236z" fill="#000"/><path d="M99.258 16.742a4.318 4.318 0 004.32-4.316 4.318 4.318 0 00-4.32-4.315 4.318 4.318 0 00-4.321 4.316 4.318 4.318 0 004.32 4.315z" fill="#FBBEBE"/><path d="M95.368 12.246a5.596 5.596 0 01-3.584 2.508l.325 1.176c.562 2.031 1.192 4.178 2.764 5.585-.173-.687.05-1.425.437-2.018.417-.575.91-1.09 1.467-1.532l2.487-2.16a.684.684 0 00.186-.201.632.632 0 000-.473c-.317-.985-1.222-1.604-1.952-2.264-.37-.345-.7-.729-.986-1.146-.51-.71-.817-.002-1.144.525z" fill="#FBBEBE"/><path d="M104.951 8.089l.096-.802c-.682.176-1.328-.401-1.764-1.002-.435-.602-.84-1.307-1.505-1.556-.802-.303-1.661.182-2.432.583a7.71 7.71 0 01-2.794.912 1.898 1.898 0 00-.461.077c-.502.178-.738.801-.813 1.377-.074.575-.052 1.176-.3 1.686-.187.384-.51.673-.707 1.052-.528 1.02-.018 2.415-.576 3.418l1.385-1.267c.128-.116.307-.239.445-.14.138.098.12.246.165.383.134.4.628.51.987.356.36-.154.618-.495.879-.802.612-.721 1.343-1.355 2.207-1.663a2.823 2.823 0 012.326.138c.647.365 1.12 1.215 1.913 1.245 1.086.04 1.537-1.979 2.039-2.777a.98.98 0 01-.285-1.224c-.082-.034-.791-.119-.805.006z" fill="#464353"/><path d="M86.944 63.808a4.545 4.545 0 003.106 1.157c.291 0 .695.056.697.347a.486.486 0 01-.087.24 2.841 2.841 0 01-1.605 1.255c-.624.189-1.289.159-1.939.124l-1.896-.098c-.36-.018-.719-.038-1.076-.08-.357-.042-.743-.12-1.114-.174a14.509 14.509 0 00-2.763-.13c-.243.01-.528 0-.678-.183-.151-.183-.07-.52-.016-.786.112-.55 0-1.124.104-1.676.182-.966 1.015-1.708 1.936-2.059.853-.324 2.367-.695 3.173-.156.871.581 1.39 1.528 2.157 2.22z" fill="#3F3D56"/><path d="M85.065 31.412c-.168.802-.94 1.403-.961 2.215-.018.65.445 1.203.778 1.752.32.577.588 1.18.803 1.804a27.468 27.468 0 002.338 4.633c.446.703.943 1.47.841 2.297-.07.386-.206.758-.401 1.099l-1.335 2.648a7.556 7.556 0 00-.68 1.673c-.117.504-.129 1.025-.2 1.538-.212 1.624-.974 3.26-.523 4.835.038.134.18.299.285.2-.44.822-.802 1.652-.76 2.584.018.49.168 1.003-.014 1.456-.103.177-.17.371-.201.573 0 .134.062.26.076.401.038.375-.307.688-.664.802-.357.114-.749.112-1.11.218-.694.2-1.19.802-1.786 1.22a3.75 3.75 0 01-2.049.667.52.52 0 01-.303-.06.496.496 0 01-.168-.367 2.035 2.035 0 01.734-1.766.823.823 0 00.273-.285.708.708 0 00.024-.319 23.74 23.74 0 01.078-4.372c.073-.46.096-.927.07-1.393-.038-.387-.154-.772-.112-1.159.042-.386.239-.735.355-1.108.201-.662.15-1.371.171-2.065.036-1.203.311-2.381.586-3.552.108-.46.229-.942.554-1.283.277-.289.726-.565.622-.952a1.128 1.128 0 00-.255-.38 1.53 1.53 0 01-.319-1.16.518.518 0 01-.602-.28c-2.17-1.02-3.923-3.065-4.696-5.335a1.774 1.774 0 00-.2-.475c-.201-.28-.55-.4-.86-.557-.97-.487-1.643-1.403-2.26-2.3-.356-.518-.716-1.056-.87-1.67a5.474 5.474 0 01-.12-1.202l-.055-2.089c-.01-.135.003-.27.04-.4a.973.973 0 01.227-.331 4.015 4.015 0 012.218-1.203c.567-.1 1.15-.082 1.725-.128 1.118-.095 2.222-.44 3.342-.36 1.756.131 3.321 1.346 4.148 2.9.285.553.592 1.026 1.216 1.036z" fill="#464353"/><path d="M94.819 17.829a2.29 2.29 0 00.128.95c.135.293.48.52.78.401-.092-.2.15-.437.374-.413a.695.695 0 01.492.42c.149.297.2.635.144.963-.072.401-.309.802-.247 1.213.05.34.301.682.167 1.002a1.621 1.621 0 01-.321.385 1.088 1.088 0 00.114 1.494l-3.367.068c.124.561-.129 1.136-.418 1.636a10.315 10.315 0 01-7.696 5.011.67.67 0 01.163 1.022c-.275.271-.739.239-1.082.06-.343-.178-.612-.466-.927-.691a2.834 2.834 0 00-1.903-.511c-.421.04-.83.174-1.254.2-1.246.066-2.32-.83-3.512-1.203-.875-.268-1.866-.266-2.609-.811-.315-.235-.576-.622-.483-1.003.08-.22.204-.42.365-.589.421-.545.67-1.203.973-1.822a10.912 10.912 0 012.44-3.24 21.856 21.856 0 012.409-1.828c.204-.153.422-.287.652-.4.306-.1.606-.222.895-.364.401-.248.624-.687.93-1.042.665-.778 1.69-1.135 2.514-1.746.551-.41 1.04-.952 1.697-1.15.32-.097.663-.105.982-.201.728-.22 1.258-.866 1.97-1.127.566-.2 1.189-.152 1.787-.226a4.129 4.129 0 001.832-.696c.181-.145.384-.262.602-.345.9-.274.975 1.404 1.06 1.987.124.862.349 1.726.349 2.596z" fill="#E1680F"/><path d="M93.938 23.462c-.151 1.638 1.087 3.227.728 4.83-.078.344-.227.668-.281 1.013-.148.953.42 1.855.963 2.652l4.662 6.834c.187.3.411.577.666.822.893.792 2.23.71 3.4.946a5.842 5.842 0 012.278 1.002.147.147 0 01.054.095.148.148 0 01-.024.106 1.96 1.96 0 01-1.694.802c-.122.16 0 .4.169.513.251.172.602.218.644.643a.713.713 0 01-.084.427 1.332 1.332 0 01-.815.566c-1.606.493-3.36-.373-4.568-1.552-1.208-1.179-2.075-2.666-3.26-3.867-.657-.663-1.406-1.233-2.08-1.876-1.349-1.283-2.398-2.845-3.412-4.41a4.85 4.85 0 01-.738-1.502c-.124-.533-.068-1.096-.213-1.625-.188-.692-.696-1.243-1.117-1.825-.827-1.138-1.381-2.53-1.27-3.933.11-1.403.977-2.784 2.301-3.261.41-.163.863-.19 1.29-.078.544.166.944.615 1.315 1.044l.885 1.02c.222.225.397.492.516.784a.815.815 0 01-.183.87" fill="#FBBEBE"/><path d="M91.58 16.732c.614.037 1.286.099 1.72.534.18.2.327.43.433.68.421.853.829 1.747.86 2.7.025.761-.2 1.505-.312 2.259-.096.625.148 1.264.2 1.896-.76-.23-1.763-.547-2.452-.942a8.129 8.129 0 00-1.437-.744c-.73-.244-1.962.175-2.653.515-.038-.487.33-1.337.291-1.826a2.068 2.068 0 00-.11-.601 3.554 3.554 0 00-.367-.584 2.387 2.387 0 01.214-2.806c.617-.694 1.584-.954 2.507-1.06a10.85 10.85 0 011.75-.063" fill="#E1680F"/><path d="M204.756 60.78l-4.013 40.091L62.473 157l-46.76-43.901-3.411-41.294L144.15 33.316l60.606 27.463z" fill="#DFE6F5"/><path opacity=".1" d="M62.472 157l-46.759-43.901-3.411-41.294 48.966 39.891L62.472 157z" fill="#000"/><path opacity=".05" d="M204.757 60.78l-4.014 40.091L62.473 157l-1.204-45.304 143.488-50.917z" fill="#000"/><path d="M16.215 74.912l128.839-36.484 53.381 24.657-137.267 48.511-44.953-36.684z" fill="#A7ADB8"/><path d="M167.931 16.897l-1.583.16-41.571 4.178a8.448 8.448 0 00-5.218 2.511l-22.677 23.31-50.926 52.33 15.112 12.31 36.44-12.93 15.888-5.633 44.676-53.416 14.082-16.839s.365-4.788-4.223-5.981zm-42.46 25.877c-1.917 1.113-4.014 1.083-4.68-.066-.451-.778-.13-1.87.718-2.84a6.17 6.17 0 011.544-1.26c1.585-.92 3.289-1.056 4.214-.426.192.127.352.295.47.493.664 1.154-.35 2.989-2.266 4.1z" fill="#454B69"/><path opacity=".1" d="M167.931 16.897l-1.583.16c1.941 2.039.931 2.626.931 2.626l-15.252 17.292-54.52 61.791 15.889-5.633 44.676-53.416 14.082-16.839s.365-4.788-4.223-5.981z" fill="#000"/><path d="M123.053 38.608a6.164 6.164 0 00-1.544 1.253l5.754-1.68c-.919-.623-2.625-.487-4.21.428zm-2.262 4.1c.668 1.148 2.763 1.179 4.68.066 1.916-1.113 2.93-2.945 2.262-4.093a1.534 1.534 0 00-.47-.493l-5.754 1.68c-.849.97-1.17 2.062-.718 2.84z" fill="#DFE6F5"/><path opacity=".1" d="M150.495 133.206c4.366-2.186 7.621-4.527 7.27-5.227-.352-.701-4.177.503-8.543 2.689-4.367 2.186-7.622 4.527-7.27 5.227.351.701 4.176-.503 8.543-2.689z" fill="#E1680F"/><path d="M149.908 131.981c.421 0 .762-.447.762-.999 0-.551-.341-.998-.762-.998-.422 0-.763.447-.763.998 0 .552.341.999.763.999z" fill="#3F3D56"/><path d="M149.908 130.76c.421 0 .762-.447.762-.999 0-.551-.341-.998-.762-.998-.422 0-.763.447-.763.998 0 .552.341.999.763.999z" fill="#3F3D56"/><path d="M149.908 129.541c.421 0 .762-.447.762-.998 0-.552-.341-.999-.762-.999-.422 0-.763.447-.763.999 0 .551.341.998.763.998z" fill="#3F3D56"/><path d="M149.908 128.322c.421 0 .762-.447.762-.998 0-.551-.341-.998-.762-.998-.422 0-.763.447-.763.998 0 .551.341.998.763.998z" fill="#3F3D56"/><path d="M149.908 127.103c.421 0 .762-.447.762-.998 0-.551-.341-.998-.762-.998-.422 0-.763.447-.763.998 0 .551.341.998.763.998z" fill="#3F3D56"/><path d="M149.908 125.885c.421 0 .762-.447.762-.999 0-.551-.341-.998-.762-.998-.422 0-.763.447-.763.998 0 .552.341.999.763.999z" fill="#3F3D56"/><path d="M149.908 124.666c.421 0 .762-.447.762-.999 0-.551-.341-.998-.762-.998-.422 0-.763.447-.763.998 0 .552.341.999.763.999z" fill="#3F3D56"/><path d="M152.764 115.324c.103-.133.198-.273.283-.419l-2.007-.328 2.169.016a3.645 3.645 0 00.068-2.891l-2.907 1.506 2.683-1.969a3.66 3.66 0 00-5.203-1.177 3.65 3.65 0 00-.836 5.262 3.604 3.604 0 00-.401.662l2.609 1.349-2.774-.93a3.655 3.655 0 00.588 3.428 3.641 3.641 0 00-.76 1.866 3.654 3.654 0 005.572 3.484 3.654 3.654 0 001.695-3.484 3.651 3.651 0 00-.761-1.866 3.656 3.656 0 000-4.513l-.018.004z" fill="#E1680F"/><path opacity=".1" d="M146.237 117.59c0 .815.273 1.606.777 2.247a3.651 3.651 0 00-.414 3.851 3.652 3.652 0 006.574 0 3.65 3.65 0 00-.414-3.851c.493-.621-6.523-2.666-6.523-2.247z" fill="#000"/><path opacity=".1" d="M196.429 119.36c2.854-1.429 4.982-2.959 4.752-3.417-.23-.459-2.73.328-5.585 1.758-2.855 1.429-4.982 2.959-4.752 3.417.23.458 2.73-.329 5.585-1.758z" fill="#E1680F"/><path d="M196.047 118.564c.274 0 .497-.292.497-.652 0-.359-.223-.651-.497-.651-.275 0-.498.292-.498.651 0 .36.223.652.498.652z" fill="#3F3D56"/><path d="M196.047 117.766c.274 0 .497-.292.497-.651 0-.36-.223-.652-.497-.652-.275 0-.498.292-.498.652 0 .359.223.651.498.651z" fill="#3F3D56"/><path d="M196.047 116.968c.274 0 .497-.291.497-.651 0-.36-.223-.652-.497-.652-.275 0-.498.292-.498.652 0 .36.223.651.498.651z" fill="#3F3D56"/><path d="M196.047 116.172c.274 0 .497-.291.497-.651 0-.36-.223-.652-.497-.652-.275 0-.498.292-.498.652 0 .36.223.651.498.651z" fill="#3F3D56"/><path d="M196.047 115.375c.274 0 .497-.292.497-.652 0-.36-.223-.651-.497-.651-.275 0-.498.291-.498.651 0 .36.223.652.498.652z" fill="#3F3D56"/><path d="M196.047 114.579c.274 0 .497-.292.497-.652 0-.36-.223-.651-.497-.651-.275 0-.498.291-.498.651 0 .36.223.652.498.652z" fill="#3F3D56"/><path d="M196.047 113.781c.274 0 .497-.292.497-.652 0-.36-.223-.651-.497-.651-.275 0-.498.291-.498.651 0 .36.223.652.498.652z" fill="#3F3D56"/><path d="M197.913 107.675c.068-.086.13-.177.185-.273l-1.311-.214h1.419a2.397 2.397 0 00.044-1.895l-1.9.985 1.754-1.287a2.38 2.38 0 00-1.533-1.123 2.382 2.382 0 00-1.868.352c-.271.183-.501.42-.677.695a2.395 2.395 0 00-.296 1.876c.082.316.228.612.429.87a2.37 2.37 0 00-.273.435l1.701.884-1.806-.601a2.392 2.392 0 00-.092 1.169c.068.391.232.76.478 1.072a2.38 2.38 0 00-.273 2.519 2.38 2.38 0 002.15 1.346 2.393 2.393 0 002.15-1.346 2.376 2.376 0 00-.273-2.519 2.384 2.384 0 000-2.951l-.008.006z" fill="#E1680F"/><path opacity=".1" d="M193.647 109.15a2.366 2.366 0 00.511 1.475 2.385 2.385 0 00.609 3.501 2.392 2.392 0 003.419-.981 2.385 2.385 0 00-.273-2.52c.319-.406-4.266-1.744-4.266-1.475z" fill="#000"/><path opacity=".1" d="M45.106 156.505c.844-.843-.134-3.187-2.184-5.235-2.05-2.048-4.397-3.024-5.24-2.181-.845.843.133 3.186 2.183 5.234s4.396 3.025 5.24 2.182z" fill="#E1680F"/><path d="M41.766 153.139c.641 0 1.16-.679 1.16-1.517 0-.838-.519-1.518-1.16-1.518-.64 0-1.16.68-1.16 1.518s.52 1.517 1.16 1.517z" fill="#3F3D56"/><path d="M41.766 151.285c.641 0 1.16-.68 1.16-1.518s-.519-1.517-1.16-1.517c-.64 0-1.16.679-1.16 1.517 0 .838.52 1.518 1.16 1.518z" fill="#3F3D56"/><path d="M41.766 149.429c.641 0 1.16-.68 1.16-1.518s-.519-1.517-1.16-1.517c-.64 0-1.16.679-1.16 1.517 0 .838.52 1.518 1.16 1.518z" fill="#3F3D56"/><path d="M41.766 147.572c.641 0 1.16-.679 1.16-1.517 0-.838-.519-1.518-1.16-1.518-.64 0-1.16.68-1.16 1.518s.52 1.517 1.16 1.517z" fill="#3F3D56"/><path d="M41.766 145.718c.641 0 1.16-.679 1.16-1.517 0-.839-.519-1.518-1.16-1.518-.64 0-1.16.679-1.16 1.518 0 .838.52 1.517 1.16 1.517z" fill="#3F3D56"/><path d="M41.766 143.862c.641 0 1.16-.68 1.16-1.518s-.519-1.517-1.16-1.517c-.64 0-1.16.679-1.16 1.517 0 .838.52 1.518 1.16 1.518z" fill="#3F3D56"/><path d="M41.766 142.008c.641 0 1.16-.68 1.16-1.518s-.519-1.517-1.16-1.517c-.64 0-1.16.679-1.16 1.517 0 .838.52 1.518 1.16 1.518z" fill="#3F3D56"/><path d="M46.113 127.793a5.53 5.53 0 00.431-.636l-3.05-.501 3.3.024a5.548 5.548 0 00.105-4.41l-4.427 2.293 4.082-3.006a5.562 5.562 0 00-10.197 4.186c.195.738.54 1.429 1.014 2.028-.248.313-.46.653-.634 1.012l3.96 2.055-4.215-1.415a5.552 5.552 0 00.897 5.212 5.548 5.548 0 001.42 8.142 5.566 5.566 0 007.953-2.281 5.55 5.55 0 00-.631-5.861 5.552 5.552 0 000-6.868l-.008.026z" fill="#E1680F"/><path opacity=".1" d="M36.181 131.221a5.526 5.526 0 001.19 3.434 5.548 5.548 0 001.42 8.142 5.566 5.566 0 007.953-2.281 5.551 5.551 0 00-.631-5.861c.745-.939-9.932-4.052-9.932-3.434z" fill="#000"/></g><defs><clipPath id="clip0"><path fill="#fff" d="M0 0h227v157H0z"/></clipPath></defs></svg>