<svg width="70" height="70" fill="none" xmlns="http://www.w3.org/2000/svg"><path d="M70 70H.083s-2.498-26.95 19.976-49.908C42.532-2.866 70 .128 70 .128V70z" fill="#E1680F"/><g clip-path="url(#clip0)" fill="#fff"><path d="M48.355 48.853c-.35-.349-.836-.54-1.37-.54a2.11 2.11 0 00-1.487.602l-2.421 2.422-.655-.363c-1.439-.798-3.411-1.893-5.494-3.978-2.09-2.088-3.186-4.065-3.987-5.51l-.357-.637 2.425-2.425c.802-.805.83-2.086.06-2.857l-4.48-4.48c-.349-.349-.835-.541-1.368-.541-.562 0-1.104.22-1.488.603l-1.1 1.107-.102.17a6.954 6.954 0 00-.996 1.76 7.325 7.325 0 00-.445 1.78c-.578 4.802 1.636 9.21 7.644 15.217 7.12 7.118 13.07 7.672 14.724 7.672.284 0 .455-.015.502-.02a7.357 7.357 0 001.786-.45 6.905 6.905 0 001.75-.99l.25-.198 1.03-1.01c.802-.802.827-2.081.058-2.851l-4.479-4.483zm-1.6-11.433a12.21 12.21 0 00-6.688-3.417l-.891-.15.14.892c.041.264.077.528.108.793l.057.47.472.093a10.136 10.136 0 018.266 8.918l.054.498.755.108c.12.01.244.009.417.01l.909.031-.072-.742c-.283-2.885-1.503-5.48-3.527-7.505z"/><path d="M50.172 34.004a17.115 17.115 0 00-11.141-4.98l-.82-.051.137.806c.042.262.093.53.147.81l.1.49.495.03c3.636.25 7.05 1.798 9.614 4.362 2.523 2.523 4.065 5.899 4.34 9.5l.048.641.64-.038c.152-.008.302-.02.52-.04l.917-.072-.05-.65a17.13 17.13 0 00-4.947-10.808z"/><path d="M59.947 44.353a21.988 21.988 0 00-6.356-13.769 21.91 21.91 0 00-14.715-6.413l-.63-.026-.048.633a21.47 21.47 0 00-.026.528l-.038.92.654.023a19.834 19.834 0 0113.334 5.805 19.924 19.924 0 015.757 12.47l.053.66.666-.064c.226-.024.454-.041.685-.06l.717-.055-.053-.652z"/></g><defs><clipPath id="clip0"><path fill="#fff" transform="translate(25 24)" d="M0 0h35v35H0z"/></clipPath></defs></svg>