<svg width="100" height="100" fill="none" xmlns="http://www.w3.org/2000/svg"><path d="M31.066 73.866V46.121h-5.819a2.805 2.805 0 00-2.802 2.801v31.41a2.805 2.805 0 002.802 2.801h4.008a9.078 9.078 0 014.646-6.465h-.032a2.804 2.804 0 01-2.803-2.802zm16.036 9.267H63.28v-6.465H42.456a9.08 9.08 0 014.645 6.465z" fill="#fff"/><path d="M33.9 76.668h8.556a9.035 9.035 0 00-8.557 0h.001z" fill="#fff"/><path d="M30.603 82.702h-5.388a2.805 2.805 0 01-2.801-2.802V47.221a1.508 1.508 0 10-3.018 0v32.68a5.825 5.825 0 005.82 5.819h5.387a1.508 1.508 0 100-3.018zm69.391-22.223a1.814 1.814 0 00-.006-.07l-.012-.076-.014-.072a1.132 1.132 0 00-.019-.07c-.007-.024-.013-.048-.021-.07l-.025-.07a2.612 2.612 0 00-.06-.135.816.816 0 00-.035-.064l-.038-.062a.953.953 0 00-.043-.065c-.015-.022-.028-.038-.042-.056-.017-.021-.034-.043-.052-.063l-.024-.029L88.5 47.48a5.837 5.837 0 00-4.287-1.885H66.267V29.957a5.825 5.825 0 00-5.82-5.82H40.342a1.508 1.508 0 100 3.018h20.107a2.805 2.805 0 012.801 2.802v52.745H45.69a1.508 1.508 0 100 3.017h28.018a1.508 1.508 0 100-3.017h-7.44V62.107h30.716V79.9a2.805 2.805 0 01-2.802 2.802h-5.388a1.508 1.508 0 100 3.017h5.388A5.825 5.825 0 00100 79.9V60.598l-.001-.038-.005-.081zM66.267 48.614h17.946c.784.001 1.533.33 2.064.907l8.782 9.57H66.266V48.614z" fill="#504C58"/><path d="M29.25 22.766a1.51 1.51 0 00-2.123-.218l-8.894 7.237-3.355-3.927a1.509 1.509 0 00-2.295 1.959l4.31 5.047a1.51 1.51 0 002.1.191l10.039-8.169a1.51 1.51 0 00.218-2.12zm8.896 70.497a9.052 9.052 0 119.052-9.052 9.063 9.063 0 01-9.052 9.052zm0-15.087a6.034 6.034 0 100 12.069 6.034 6.034 0 000-12.069zM81.25 93.263a9.052 9.052 0 119.052-9.052 9.063 9.063 0 01-9.052 9.052zm0-15.087a6.034 6.034 0 100 12.069 6.034 6.034 0 000-12.069z" fill="#E1680F"/><path d="M20.905 48.707C9.36 48.707 0 39.347 0 27.802 0 16.256 9.36 6.897 20.905 6.897c11.545 0 20.905 9.36 20.905 20.905-.013 11.54-9.365 20.891-20.905 20.905zm0-38.793c-9.88 0-17.888 8.008-17.888 17.888 0 9.879 8.009 17.888 17.888 17.888 9.88 0 17.888-8.009 17.888-17.888-.01-9.875-8.014-17.877-17.888-17.888z" fill="#E1680F"/></svg>