<svg width="60" height="60" fill="none" xmlns="http://www.w3.org/2000/svg"><g clip-path="url(#clip0)" fill="#FA8A37"><path d="M54.95 25.149a2.424 2.424 0 00-2.424 2.424v2.44a23.684 23.684 0 01-6.992 16.854 23.683 23.683 0 01-16.847 6.972h-.014C15.528 53.832 4.84 43.132 4.847 29.986a23.684 23.684 0 016.993-16.853 23.684 23.684 0 0116.847-6.972h.014c3.36.001 6.62.696 9.689 2.063a2.424 2.424 0 101.972-4.427 28.505 28.505 0 00-11.659-2.484h-.017c-7.655 0-14.855 2.98-20.272 8.39C2.993 15.12.004 22.322 0 29.984c-.004 7.663 2.975 14.869 8.39 20.29 5.416 5.421 12.618 8.41 20.28 8.414h.017c7.656 0 14.856-2.98 20.273-8.39 5.421-5.416 8.41-12.618 8.414-20.282v-2.442a2.424 2.424 0 00-2.424-2.424z"/><path d="M59.29 4.664a2.424 2.424 0 00-3.428 0L28.687 31.84l-6.165-6.165a2.424 2.424 0 10-3.428 3.427l7.88 7.88a2.42 2.42 0 003.427 0l28.89-28.89a2.424 2.424 0 000-3.428z"/></g><defs><clipPath id="clip0"><path fill="#fff" d="M0 0h60v60H0z"/></clipPath></defs></svg>