<svg width="100" height="100" fill="none" xmlns="http://www.w3.org/2000/svg"><path d="M26.052 87.783a6.802 6.802 0 01-6.794-6.794v-36.67h-8.33v45a6.8 6.8 0 006.794 6.793h64.593a6.8 6.8 0 006.793-6.793v-1.537l-63.056.001zM13.088 34.879V23.388h-1.536a6.803 6.803 0 00-6.794 6.794v10.25h32.488v-5.553H13.088z" fill="#fff"/><path d="M50.083 23.392a1.944 1.944 0 01-1.374-3.319L65.816 2.966c3.954-3.953 10.363-3.953 14.317 0 3.953 3.954 3.953 10.363 0 14.317l-5.347 5.488a1.944 1.944 0 01-2.784-2.713l5.365-5.505a6.237 6.237 0 00-8.802-8.838L51.458 22.822c-.364.364-.859.57-1.375.57z" fill="#E1680F"/><path d="M27.169 23.265a1.939 1.939 0 01-1.375-.568L24.38 21.28c-3.93-3.958-3.919-10.349.025-14.293 3.944-3.943 10.335-3.954 14.292-.023l12.95 12.948a1.944 1.944 0 01-2.75 2.75L35.948 9.712a6.237 6.237 0 00-8.82 8.82l1.417 1.416a1.944 1.944 0 01-1.375 3.318v-.001zM56.119 80a1.25 1.25 0 01-.45-.083l-4.002-1.529-4.003 1.53a1.26 1.26 0 01-1.505-.491l-2.342-3.595-4.135-1.122a1.263 1.263 0 01-.929-1.283l.213-4.29-2.687-3.343a1.266 1.266 0 010-1.586l2.687-3.344-.213-4.29a1.264 1.264 0 01.93-1.282l4.134-1.122 2.342-3.596a1.26 1.26 0 011.505-.49l4.003 1.528 4.003-1.53a1.258 1.258 0 011.504.491l2.342 3.596 4.135 1.122c.572.155.96.689.93 1.283l-.214 4.289 2.688 3.344a1.268 1.268 0 010 1.586l-2.688 3.344.214 4.29a1.263 1.263 0 01-.93 1.282l-4.135 1.123-2.342 3.596a1.26 1.26 0 01-1.055.572zm-4.452-4.228c.153 0 .305.028.448.083l3.503 1.338 2.05-3.147c.17-.26.427-.448.726-.529l3.618-.981-.187-3.754c-.015-.31.083-.614.278-.856L64.454 65l-2.351-2.926a1.264 1.264 0 01-.278-.856l.187-3.754-3.618-.981a1.264 1.264 0 01-.727-.53l-2.049-3.146-3.503 1.339a1.26 1.26 0 01-.897 0l-3.503-1.339-2.05 3.147c-.168.26-.427.448-.725.529l-3.619.981.187 3.754a1.26 1.26 0 01-.278.856L38.88 65l2.352 2.926c.194.242.293.546.277.856l-.187 3.754 3.619.981c.298.081.557.27.726.53l2.05 3.146 3.502-1.338a1.25 1.25 0 01.449-.083z" fill="#E1680F"/><path d="M2.814 44.32H7.04v44.999c.006 5.896 4.785 10.674 10.681 10.68h64.593c5.897-.006 10.675-4.784 10.681-10.68v-45h4.227c1.074 0 1.944-.87 1.944-1.943V30.182c-.007-5.896-4.785-10.675-10.68-10.682H11.551C5.656 19.507.877 24.286.87 30.182v12.194c0 1.074.871 1.943 1.944 1.943zm86.295 44.999a6.8 6.8 0 01-6.794 6.793H17.722a6.8 6.8 0 01-6.794-6.793v-45h78.18v45zM63.347 23.388h25.14a6.802 6.802 0 016.792 6.794v10.25H63.347V23.388zm-22.214 0h18.326v17.044H41.133V23.388zM4.758 30.182a6.803 6.803 0 016.794-6.794h25.693v17.044H4.758v-10.25z" fill="#504C58"/></svg>