<svg width="100" height="100" fill="none" xmlns="http://www.w3.org/2000/svg"><g clip-path="url(#clip0)"><path d="M23.347 16.57h6.704v61.425h-6.704V16.57zM35.66 3.129h-6.704a5.615 5.615 0 00-5.61 5.61v4.703h6.705V8.738a5.615 5.615 0 015.609-5.61zm0 89.272a5.615 5.615 0 01-5.609-5.609v-5.669h-6.704v10.139a5.616 5.616 0 005.608 5.61h41.97a5.62 5.62 0 005.493-4.47H35.66z" fill="#fff"/><path d="M48.126 54.152c-.458 0-.894-.2-1.19-.548l-2.732-3.199a1.564 1.564 0 012.379-2.032l1.74 2.037 5.176-4.212a1.563 1.563 0 012.537.964 1.567 1.567 0 01-.562 1.464l-6.36 5.175c-.28.227-.628.351-.988.351z" fill="#E1680F"/><path d="M49.94 63.856c-7.652 0-13.855-6.203-13.855-13.856 0-7.652 6.203-13.856 13.856-13.856 7.652 0 13.855 6.204 13.855 13.856-.008 7.648-6.206 13.847-13.855 13.856zm0-24.583c-5.924 0-10.726 4.802-10.726 10.727 0 5.924 4.802 10.727 10.727 10.727 5.924 0 10.727-4.803 10.727-10.727-.007-5.922-4.806-10.72-10.727-10.727z" fill="#E1680F"/><path d="M70.925 0h-41.97a8.748 8.748 0 00-8.737 8.738v82.524A8.748 8.748 0 0028.955 100h41.97a8.748 8.748 0 008.739-8.738V8.738A8.748 8.748 0 0070.924 0zM23.347 16.57h53.188v61.425H23.347V16.57zm5.607-13.44h41.97a5.616 5.616 0 015.61 5.61v4.703H23.347V8.738a5.615 5.615 0 015.608-5.61zm41.97 93.742h-41.97a5.615 5.615 0 01-5.608-5.609v-10.14h53.188v10.139a5.616 5.616 0 01-5.61 5.609z" fill="#504C58"/><path d="M56.27 87.5H43.61a1.565 1.565 0 000 3.128h12.66a1.564 1.564 0 100-3.129z" fill="#504C58"/><path d="M70.836 48.436h-2.347a1.564 1.564 0 100 3.129h2.347a1.565 1.565 0 000-3.13zm-39.445 3.129a1.565 1.565 0 000-3.13h-2.346a1.564 1.564 0 100 3.13h2.346zm38.815 3.764L66.931 54.2a1.564 1.564 0 10-1.02 2.958l3.275 1.128a1.565 1.565 0 101.02-2.957zM33.97 42.842l-3.275-1.129a1.567 1.567 0 00-2.054 1.777c.109.55.502 1.002 1.034 1.182l3.274 1.127a1.565 1.565 0 101.02-2.957zm32.615 3.548c.158 0 .314-.024.465-.071l3.307-1.029a1.563 1.563 0 10-.928-2.987l-3.307 1.029a1.564 1.564 0 00.463 3.058zM32.83 53.68l-3.308 1.029a1.563 1.563 0 10.93 2.987l3.307-1.027a1.565 1.565 0 00-.929-2.988z" fill="#E1680F"/></g><defs><clipPath id="clip0"><path fill="#fff" d="M0 0h100v100H0z"/></clipPath></defs></svg>