<svg width="100" height="100" fill="none" xmlns="http://www.w3.org/2000/svg"><g clip-path="url(#clip0)"><path d="M23.347 16.57h6.704v61.424h-6.704V16.572zM35.66 3.129h-6.704a5.615 5.615 0 00-5.61 5.61v4.703h6.705V8.738a5.615 5.615 0 015.609-5.61zm0 89.272a5.615 5.615 0 01-5.609-5.609v-5.669h-6.704v10.139a5.616 5.616 0 005.608 5.61h41.97a5.62 5.62 0 005.493-4.47H35.66z" fill="#fff"/><path d="M70.925 0h-41.97a8.748 8.748 0 00-8.737 8.738v82.524A8.748 8.748 0 0028.955 100h41.97a8.748 8.748 0 008.739-8.738V8.738A8.748 8.748 0 0070.924 0zM23.347 16.57h53.188v61.425H23.347V16.57zm5.607-13.44h41.97a5.616 5.616 0 015.61 5.61v4.703H23.347V8.738a5.615 5.615 0 015.608-5.61zm41.97 93.742h-41.97a5.615 5.615 0 01-5.608-5.609v-10.14h53.188v10.139a5.616 5.616 0 01-5.61 5.609z" fill="#504C58"/><path d="M56.27 87.5H43.61a1.564 1.564 0 000 3.128h12.66a1.564 1.564 0 100-3.129z" fill="#504C58"/><path d="M67.308 45.792c.553.471 1.372.45 1.894-.071a1.38 1.38 0 00.123-1.822l-.02-.02a.222.222 0 00-.042-.052l-3.439-4.094a1.053 1.053 0 01-.246-.624l-.501-7.708a1.386 1.386 0 00-1.392-1.269c-.717 0-1.3.532-1.382 1.228v.01c0 .031 0 .062-.01.093l-.553 8.464c-.01.051-.01.113-.01.164v.092a1.939 1.939 0 00.829 1.628l4.75 3.981z" fill="#E1680F"/><path d="M63.808 23.684c-7.104 0-13.142 4.595-15.323 10.962a19.11 19.11 0 014.105.931c1.73-4.514 6.11-7.727 11.218-7.727 6.622 0 12.016 5.394 12.016 12.016 0 5.998-4.411 10.972-10.164 11.873.093.778.144 1.576.144 2.375 0 .614-.031 1.218-.082 1.822C73.746 54.983 80 48.145 80 39.865c-.01-8.925-7.267-16.182-16.192-16.182z" fill="#E1680F"/><path d="M61.023 51.729l-2.088-.01a13.012 13.012 0 00-2.006-4.862l1.484-1.474a1.371 1.371 0 00.01-1.935l-1.494-1.494a1.372 1.372 0 00-1.934-.01l-1.484 1.474a13.03 13.03 0 00-4.852-2.037l.01-2.088c0-.758-.603-1.372-1.36-1.372l-2.11-.01c-.757 0-1.371.604-1.371 1.361l-.01 2.078a12.96 12.96 0 00-4.893 1.996l-1.453-1.453a1.362 1.362 0 00-1.935 0l-1.494 1.494a1.371 1.371 0 00-.01 1.934l1.433 1.444a13.019 13.019 0 00-2.058 4.892l-2.026-.01c-.758 0-1.372.604-1.372 1.361L30 55.117c0 .757.604 1.371 1.361 1.371l2.017.01c.317 1.73.992 3.42 2.016 4.924l-1.423 1.412a1.372 1.372 0 00-.01 1.935l1.495 1.494a1.362 1.362 0 001.934 0l1.443-1.392a12.922 12.922 0 004.913 2.047l-.01 2.016c0 .758.604 1.372 1.361 1.372l2.109.01c.757 0 1.371-.604 1.371-1.361l.01-2.027a12.859 12.859 0 004.903-2.037l1.433 1.444a1.371 1.371 0 001.935.01l1.494-1.494a1.371 1.371 0 00.01-1.935l-1.453-1.453a12.728 12.728 0 002.016-4.883l2.078.01c.758 0 1.372-.603 1.372-1.36l.01-2.11a1.361 1.361 0 00-1.361-1.391zm-9.846 7.38a7.05 7.05 0 11.031-9.97 7.058 7.058 0 01-.03 9.97z" fill="#E1680F"/></g><defs><clipPath id="clip0"><path fill="#fff" d="M0 0h100v100H0z"/></clipPath></defs></svg>