<svg width="52" height="62" fill="none" xmlns="http://www.w3.org/2000/svg"><path d="M26 2L1 16.5v29L26 60l25-14.5v-29L26 2z" fill="#C4C4C4"/><path d="M26 2L1 16.5v29L26 60l25-14.5v-29L26 2z" fill="url(#paint0_radial)"/><path d="M26 2L1 16.5v29L26 60l25-14.5v-29L26 2z" stroke="#FA8A37" stroke-width="2"/><path d="M18.161 24.56c.293 0 .44.147.44.44v1.82c0 .293-.146.44-.44.44-.293 0-.44-.147-.44-.44v-1.38h-6.18v7.46h2.88v-1.42c0-.293.147-.44.44-.44.293 0 .44.147.44.44v3.68c0 .293-.146.44-.44.44-.293 0-.44-.147-.44-.44v-1.38h-2.88v4.34h1.48c.293 0 .44.147.44.44 0 .293-.146.44-.44.44h-6.7c-.293 0-.44-.147-.44-.44 0-.293.147-.44.44-.44h1.38V25.44h-1.46c-.293 0-.44-.147-.44-.44 0-.293.147-.44.44-.44h11.92zm-9.58.88v7.46h2.08v-7.46h-2.08zm0 8.34v4.34h2.08v-4.34h-2.08zm12.684-9.2c.387 0 .72.14 1 .42.28.28.42.613.42 1 0 .427-.14.787-.42 1.08-.266.28-.6.42-1 .42s-.74-.14-1.02-.42a1.505 1.505 0 01-.42-1.08c0-.387.14-.72.42-1 .294-.28.634-.42 1.02-.42zm.56 1.42c0-.173-.046-.307-.14-.4a.535.535 0 00-.42-.18c-.186 0-.326.06-.42.18-.106.147-.16.28-.16.4 0 .427.194.64.58.64.374 0 .56-.213.56-.64zm1.38 12.14c.28 0 .42.147.42.44 0 .107-.04.2-.12.28a.42.42 0 01-.3.14h-3.84a.42.42 0 01-.3-.14.36.36 0 01-.14-.28c0-.293.147-.44.44-.44h.56V31.1h-.56c-.293 0-.44-.147-.44-.44 0-.107.047-.2.14-.28a.42.42 0 01.3-.14h2.84a.42.42 0 01.3.14c.08.08.12.173.12.28v7.48h.58zm-1.42-7.04h-1v7.04h1V31.1zm5.3-6.52c.387 0 .72.14 1 .42.28.28.42.613.42 1 0 .427-.14.787-.42 1.08-.266.28-.6.42-1 .42s-.74-.14-1.02-.42a1.505 1.505 0 01-.42-1.08c0-.387.14-.72.42-1 .294-.28.634-.42 1.02-.42zm.56 1.42c0-.173-.046-.307-.14-.4a.535.535 0 00-.42-.18c-.186 0-.326.06-.42.18-.106.147-.16.28-.16.4 0 .427.194.64.58.64.374 0 .56-.213.56-.64zm1.38 12.14c.28 0 .42.147.42.44 0 .107-.04.2-.12.28a.42.42 0 01-.3.14h-3.84a.42.42 0 01-.3-.14.36.36 0 01-.14-.28c0-.293.147-.44.44-.44h.56V31.1h-.56c-.293 0-.44-.147-.44-.44 0-.107.047-.2.14-.28a.42.42 0 01.3-.14h2.84a.42.42 0 01.3.14c.08.08.12.173.12.28v7.48h.58zm-1.42-7.04h-1v7.04h1V31.1zm19.2 7c.294 0 .44.147.44.44 0 .307-.146.46-.44.46h-7.82c-.306 0-.46-.153-.46-.46 0-.293.154-.44.46-.44h1.62l-3.04-4.7-4.08 4.7h1.52c.294 0 .44.147.44.44 0 .307-.146.46-.44.46h-3.98c-.306 0-.46-.153-.46-.46 0-.293.154-.44.46-.44h1.28l4.76-5.46-4.66-7.18h-1.38c-.306 0-.46-.153-.46-.46 0-.293.154-.44.46-.44h7.8c.294 0 .44.147.44.44 0 .307-.146.46-.44.46h-1.7l2.64 4.06 3.54-4.06h-1.48c-.306 0-.46-.153-.46-.46 0-.293.154-.44.46-.44h4c.294 0 .44.147.44.44 0 .307-.146.46-.44.46h-1.36l-4.2 4.84 5.08 7.8h1.46zm-7.66-7.88l-3.08-4.76h-2.6l4.2 6.46 1.48-1.7zm.52.78l-1.48 1.7 3.5 5.4h2.58l-4.6-7.1z" fill="#FA8A37"/><defs><radialGradient id="paint0_radial" cx="0" cy="0" r="1" gradientUnits="userSpaceOnUse" gradientTransform="matrix(0 22.9583 -19.7917 0 26 21.092)"><stop stop-color="#7C7A82"/><stop offset="1" stop-color="#504C58"/></radialGradient></defs></svg>