<svg width="438" height="334" fill="none" xmlns="http://www.w3.org/2000/svg"><g clip-path="url(#clip0)"><path opacity=".1" d="M250.074 52.82c-27.593-.959-53.873-9.858-78.971-19.598-25.099-9.739-49.95-20.526-76.882-25.69-17.322-3.318-37.13-3.787-51.088 5.492-13.43 8.947-17.77 24.348-20.107 38.654-1.752 10.762-2.784 22.09 2.026 32.166 3.338 6.996 9.268 12.875 13.37 19.572 14.265 23.313 4.182 52.079-11.273 74.825-7.248 10.681-15.664 20.876-21.261 32.234-5.598 11.358-8.186 24.391-3.292 35.987 4.856 11.503 16.423 20.126 28.953 26.197 25.444 12.355 55.424 15.862 84.675 17.86 64.727 4.426 129.804 2.509 194.701.592 24.02-.711 48.142-1.431 71.774-5.142 13.119-2.058 26.668-5.33 36.192-13.207 12.091-10.025 15.088-26.998 6.988-39.571-13.592-21.084-51.161-26.32-60.672-48.947-5.232-12.457.14-26.329 7.738-37.883 16.303-24.779 43.627-46.52 45.068-74.842.989-19.453-12.146-38.936-32.457-48.142-21.292-9.646-50.811-8.432-66.509 7.536-16.193 16.424-44.621 22.76-68.973 21.907zm-2.887 268.48c87.352 0 158.164-5.261 158.164-11.75 0-6.49-70.812-11.75-158.164-11.75-87.351 0-158.163 5.26-158.163 11.75 0 6.489 70.812 11.75 158.163 11.75z" fill="#FA8A37"/><path d="M124.892 271.492s8.953-1.432 14.325 4.895c0 0-3.939 3.102-12.415-1.193l-1.91-3.702zm-.963-.115s-5.709 7.038-2.908 14.847c0 0 4.656-1.866 5.163-11.349l-2.255-3.498zm-5.117-11.576s3.581-6.56 17.906 2.625c0 0-1.91 4.414-8.237 4.056-6.326-.358-8.006-3.2-9.669-6.681zm-.933-.472s-7.431-.852-8.152 16.151c0 0 4.711.975 8.058-4.401 3.347-5.377 1.965-8.393.094-11.75zm-4.328-13.557s4.178-11.571 19.339-3.34c0 0-3.462 10.617-17.787 7.277l-1.552-3.937zm-4.66-17.297s7.883-11.695 21.85-.852c0 0-4.894 10.975-20.656 5.01l-1.194-4.158zm-1.671-16.466s9.196-10.736 23.044 0c0 0-8.715 9.424-23.044 2.743v-2.743zm-1.432-15.985s9.315-11.214 22.566-.597c0 0-10.505 9.901-22.566 3.221v-2.624zm.836-14.196s9.805-14.438 22.208-4.652c0 0-10.505 12.406-22.208 7.396v-2.744zm2.267-16.585s10.39-14.315 22.447-3.341c0 0-12.296 12.411-22.447 5.965v-2.624zm3.466-14.822s12.296-13.45 23.023-8.095c0 0-12.816 14.285-23.56 11.661l.537-3.566zm4.298-14.047s14.206-16.462 22.443-10.974c0 0-10.454 12.781-23.449 14.059l1.006-3.085zm6.203-16.295s12.42-13.455 21.492-10.115c0 0-10.624 13.957-23.159 14.315l1.667-4.2zm5.615-15.244s13.728-12.888 19.697-10.621c0 0-9.908 14.319-20.294 13.484l.597-2.863zm5.491-14.098s11.818-15.388 18.265-14.195c0 0-7.163 13.718-18.265 15.763v-1.568zm5.961-18.958s10.445-11.802 16.086-11.772c0 0-8.246 15.764-16.517 15.619l.431-3.847zm3.53-12.637l10.087-24.578s.507 22.218-11.371 29.137l1.284-4.559zm4.097-27.104s1.671-20.518.597-22.188c0 0 7.214 17.041-.67 31.254l.073-9.066zm-34.393 213.457s-10.463-6.48-17.237 9.373c0 0 9.311 6.173 18.465-5.33l-1.228-4.043zm-4.579-17.68s-12.833-5.85-19.061 10.702c0 0 9.916 6.816 20.229-6.519l-1.168-4.183zm-1.957-14.805s-9.192-10.736-23.022 0c0 0 8.715 9.424 23.022 2.744v-2.744zm-1.147-16.986s-9.31-11.214-22.566-.597c0 0 10.51 9.901 22.566 3.221v-2.624zm1.147-13.787s-6.531-16.189-20.729-9.215c0 0 7.675 14.336 20.154 11.895l.575-2.68z" fill="#FA8A37"/><path d="M109.714 165.162s-6.489-16.45-20.89-8.819c0 0 8.816 15.077 20.251 11.362l.639-2.543zm4.025-14.656s-2.558-18.034-14.496-19.649c0 0 2.528 19.018 12.884 22.9l1.612-3.251zm3.219-14.102s-.998-21.728-10.868-22.482c0 0 .333 16.492 9.755 25.562l1.113-3.08zm6.923-16.948s-2.946-18.068-12.363-20.279c0 0 1.168 17.502 11.434 24.71l.929-4.431zm5.709-14.493s-.102-18.818-5.853-21.588c0 0-3.573 17.042 4.186 23.99l1.667-2.402zm4.814-14.417s-.806-19.38-6.766-22.112c0 0-2.043 15.338 5.87 23.381l.896-1.27zm6.352-17.226s-.039-15.762-4.289-19.456c0 0-4.234 17.267 2.068 22.63l2.221-3.173z" fill="#FA8A37"/><path d="M142.952 58.358l-4.136-26.24s-5.623 21.499 4.336 30.97l-.2-4.73zm.81-26.068s-10.625-17.639-10.407-19.598c0 0 1.13 18.485 14.495 27.692l-4.088-8.095zm1.245-5.211S134.979 2.028 130.443-.01c0 0 14.325 7.277 15.399 26.364l-.835.724z" fill="#FA8A37"/><path d="M139.438 75.775l-.682-.213c8.463-27.573 10.574-45.16 5.944-49.565l.494-.52c4.907 4.652 2.916 22.043-5.756 50.298z" fill="#444053"/><path d="M116.139 140.324l-1.014-.358a197.042 197.042 0 012.882-7.618c8.833-22.013 16.35-42.463 21.172-58.18l.882-.425c-4.83 15.716-12.215 36.975-21.057 59.006a195.82 195.82 0 00-2.865 7.575z" fill="#444053"/><path d="M137.49 292.133c-.136-.153-13.856-15.584-23.414-41.939a155.155 155.155 0 01-9.252-48.044c-.652-20.505 3.65-43.404 11.03-64.199l.801.937c-16.559 46.677-9.98 86.677-1.253 110.761 9.46 26.112 23.022 41.377 23.154 41.53l-1.066.954z" fill="#444053"/><path d="M77.713 288.768s-16.222-.976-14.308 10.382c0 0-.38 2.007 1.441 2.919 0 0 .026-.852 1.663-.558a7.523 7.523 0 001.76.085 3.684 3.684 0 002.158-.886s4.557-1.883 6.331-9.331c0 0 1.313-1.623 1.258-2.04l-2.737 1.167s.938 1.973.2 3.613c0 0-.09-3.541-.614-3.46-.106 0-1.424.686-1.424.686s1.612 3.438.397 5.935c0 0 .46-4.235-.896-5.688l-1.927 1.125s1.88 3.549.606 6.446c0 0 .324-4.443-1.01-6.173l-1.749 1.363s1.765 3.498.69 5.901c0 0-.14-5.172-1.07-5.564 0 0-1.525 1.346-1.76 1.9 0 0 1.21 2.556.46 3.881 0 0-.46-3.447-.852-3.464 0 0-1.522 2.284-1.68 3.835a8.29 8.29 0 011.309-4.065 4.566 4.566 0 00-2.328 1.206s.234-1.615 2.703-1.755c0 0 1.279-1.734 1.594-1.841 0 0-2.455-.204-3.943.456 0 0 1.309-1.521 4.395-.852l1.706-1.406s-3.232-.426-4.605.047c0 0 1.578-1.346 5.07-.366l1.875-1.121s-2.754-.592-4.4-.379c0 0 1.736-.933 4.95.077l1.343-.601s-2.02-.396-2.609-.46c-.588-.064-.627-.226-.627-.226a6.993 6.993 0 013.795.426s2.882-1.035 2.835-1.214zm-47.153 5.27s-16.201-.976-14.304 10.382c0 0-.384 2.007 1.437 2.919 0 0 .03-.852 1.667-.558a7.313 7.313 0 001.76.085 3.656 3.656 0 002.154-.886s4.561-1.883 6.335-9.331c0 0 1.309-1.623 1.279-2.04l-2.737 1.167s.938 1.973.2 3.613c0 0-.09-3.541-.614-3.46-.106 0-1.424.686-1.424.686s1.612 3.438.397 5.935c0 0 .46-4.235-.9-5.688l-1.927 1.125s1.88 3.549.606 6.446c0 0 .328-4.443-1.01-6.173l-1.744 1.363s1.765 3.498.69 5.901c0 0-.14-5.172-1.07-5.564 0 0-1.526 1.346-1.76 1.9 0 0 1.21 2.556.46 3.881 0 0-.46-3.447-.853-3.464 0 0-1.518 2.284-1.68 3.835a8.316 8.316 0 011.313-4.065 4.597 4.597 0 00-2.332 1.206s.24-1.615 2.708-1.755c0 0 1.279-1.734 1.594-1.837 0 0-2.456-.208-3.944.452 0 0 1.31-1.521 4.396-.852l1.705-1.406s-3.231-.426-4.604.047c0 0 1.577-1.346 5.07-.366l1.875-1.121s-2.758-.592-4.4-.379c0 0 1.735-.933 4.95.077l1.343-.601s-2.02-.396-2.614-.46c-.592-.064-.622-.226-.622-.226a7.041 7.041 0 013.794.426s2.84-1.035 2.806-1.214zm26.28 12.372s-16.201-.976-14.308 10.382c0 0-.38 2.007 1.44 2.919 0 0 .03-.852 1.663-.558a7.506 7.506 0 001.766.085 3.672 3.672 0 002.153-.886s4.557-1.883 6.33-9.331c0 0 1.314-1.623 1.28-2.04l-2.737 1.167s.933 1.973.2 3.613c0 0-.09-3.54-.618-3.46-.107 0-1.42.686-1.42.686s1.607 3.434.392 5.935c0 0 .46-4.235-.895-5.687l-1.927 1.124s1.88 3.549.605 6.446c0 0 .329-4.443-1.01-6.173l-1.748 1.363s1.77 3.498.69 5.901c0 0-.14-5.172-1.065-5.564 0 0-1.53 1.346-1.761 1.9 0 0 1.21 2.556.456 3.881 0 0-.46-3.446-.852-3.464 0 0-1.522 2.284-1.68 3.835a8.29 8.29 0 011.309-4.065 4.566 4.566 0 00-2.328 1.206s.234-1.615 2.707-1.755c0 0 1.254-1.734 1.59-1.841 0 0-2.455-.204-3.943.456 0 0 1.313-1.521 4.395-.831l1.706-1.406s-3.232-.426-4.605.047c0 0 1.582-1.346 5.07-.366l1.88-1.121s-2.742-.579-4.388-.366c0 0 1.731-.933 4.95.077l1.339-.601s-2.017-.396-2.61-.46c-.592-.064-.622-.226-.622-.226a6.993 6.993 0 013.795.426s2.848-1.069 2.8-1.248z" fill="#FA8A37"/><path opacity=".1" d="M44.194 322.842c6.341 0 11.481-.868 11.481-1.938 0-1.071-5.14-1.939-11.48-1.939-6.342 0-11.482.868-11.482 1.939 0 1.07 5.14 1.938 11.481 1.938zm364.171 0c6.341 0 11.481-.868 11.481-1.938 0-1.071-5.14-1.939-11.481-1.939s-11.481.868-11.481 1.939c0 1.07 5.14 1.938 11.481 1.938zM298.416 334c6.341 0 11.482-.868 11.482-1.938 0-1.071-5.141-1.939-11.482-1.939-6.341 0-11.481.868-11.481 1.939 0 1.07 5.14 1.938 11.481 1.938zm128.107-27.961c6.341 0 11.481-.868 11.481-1.938 0-1.071-5.14-1.939-11.481-1.939s-11.481.868-11.481 1.939c0 1.07 5.14 1.938 11.481 1.938zm-359.984-1.21c6.34 0 11.481-.868 11.481-1.938 0-1.071-5.14-1.939-11.481-1.939s-11.481.868-11.481 1.939c0 1.07 5.14 1.938 11.48 1.938zm-47.166 5.441c6.34 0 11.481-.868 11.481-1.939 0-1.07-5.14-1.938-11.481-1.938s-11.481.868-11.481 1.938c0 1.071 5.14 1.939 11.48 1.939z" fill="#FA8A37"/><path d="M308.793 33.972H133.248a4.176 4.176 0 00-4.178 4.175v264.901a4.177 4.177 0 004.178 4.176h175.545a4.177 4.177 0 004.178-4.176v-264.9a4.176 4.176 0 00-4.178-4.176z" fill="#A3A0A8"/><path opacity=".1" d="M285.963 57.46H158.355c-6.878 0-12.453 5.571-12.453 12.444v28.83c0 6.873 5.575 12.445 12.453 12.445h127.608c6.878 0 12.453-5.572 12.453-12.445v-28.83c0-6.873-5.575-12.444-12.453-12.444z" fill="#000"/><path d="M292.737 58.508H151.231a4.347 4.347 0 00-4.349 4.345v43.264c0 2.4 1.947 4.346 4.349 4.346h141.506a4.348 4.348 0 004.349-4.346V62.853c0-2.4-1.947-4.345-4.349-4.345z" fill="#E0E0E0"/><path opacity=".8" d="M155.814 134.054h21.129a4.1 4.1 0 014.101 4.097v24.48a4.1 4.1 0 01-4.101 4.097h-21.129a4.099 4.099 0 01-4.1-4.097v-24.48a4.099 4.099 0 014.1-4.097zm37.071 0h21.129c2.265 0 4.1 1.835 4.1 4.097v24.48a4.099 4.099 0 01-4.1 4.097h-21.129a4.099 4.099 0 01-4.1-4.097v-24.48a4.099 4.099 0 014.1-4.097zm37.07 0h21.129c2.265 0 4.1 1.835 4.1 4.097v24.48a4.099 4.099 0 01-4.1 4.097h-21.129a4.1 4.1 0 01-4.101-4.097v-24.48a4.1 4.1 0 014.101-4.097z" fill="#C4C4C4" stroke="#F2F2F2"/><path opacity=".1" d="M280.459 134.27h-5.739c-6.79 0-12.295 5.501-12.295 12.287v9.1c0 6.786 5.505 12.287 12.295 12.287h5.739c6.791 0 12.296-5.501 12.296-12.287v-9.1c0-6.786-5.505-12.287-12.296-12.287z" fill="#000"/><path d="M288.154 133.554h-21.129a4.598 4.598 0 00-4.6 4.597v24.48a4.598 4.598 0 004.6 4.597h21.129a4.599 4.599 0 004.601-4.597v-24.48a4.599 4.599 0 00-4.601-4.597z" fill="#FA8A37"/><path opacity=".8" d="M155.814 171.098h21.129a4.1 4.1 0 014.101 4.097v24.48a4.1 4.1 0 01-4.101 4.097h-21.129a4.099 4.099 0 01-4.1-4.097v-24.48a4.099 4.099 0 014.1-4.097zm37.071 0h21.129c2.265 0 4.1 1.835 4.1 4.097v24.48a4.099 4.099 0 01-4.1 4.097h-21.129a4.099 4.099 0 01-4.1-4.097v-24.48a4.099 4.099 0 014.1-4.097zm37.07 0h21.129c2.265 0 4.1 1.834 4.1 4.097v24.48a4.099 4.099 0 01-4.1 4.097h-21.129a4.1 4.1 0 01-4.101-4.097v-24.48a4.099 4.099 0 014.101-4.097zm-74.141 40.891h21.129a4.099 4.099 0 014.101 4.097v24.48a4.1 4.1 0 01-4.101 4.097h-21.129a4.099 4.099 0 01-4.1-4.097v-24.48a4.098 4.098 0 014.1-4.097zm37.071 0h21.129c2.265 0 4.1 1.834 4.1 4.097v24.48a4.099 4.099 0 01-4.1 4.097h-21.129a4.099 4.099 0 01-4.1-4.097v-24.48a4.098 4.098 0 014.1-4.097zm37.07 0h21.129c2.265 0 4.1 1.834 4.1 4.097v24.48a4.099 4.099 0 01-4.1 4.097h-21.129a4.1 4.1 0 01-4.101-4.097v-24.48a4.099 4.099 0 014.101-4.097zm0 40.891h21.129c2.265 0 4.1 1.834 4.1 4.097v24.48a4.099 4.099 0 01-4.1 4.097h-21.129a4.1 4.1 0 01-4.101-4.097v-24.48a4.099 4.099 0 014.101-4.097z" fill="#C4C4C4" stroke="#F2F2F2"/><path opacity=".1" d="M280.459 171.314h-5.739c-6.79 0-12.295 5.501-12.295 12.286v9.101c0 6.785 5.505 12.287 12.295 12.287h5.739c6.791 0 12.296-5.502 12.296-12.287V183.6c0-6.785-5.505-12.286-12.296-12.286z" fill="#000"/><path d="M287.937 170.598h-20.695a4.816 4.816 0 00-4.817 4.814v24.046a4.816 4.816 0 004.817 4.814h20.695a4.816 4.816 0 004.818-4.814v-24.046a4.816 4.816 0 00-4.818-4.814z" fill="#E1680F"/><path opacity=".8" d="M155.494 252.88h58.839a3.778 3.778 0 013.781 3.777v25.119a3.78 3.78 0 01-3.781 3.778h-58.839a3.78 3.78 0 01-3.78-3.778v-25.119a3.778 3.778 0 013.78-3.777zm109.011-40.891h23.274c2.47 0 4.471 2 4.471 4.467v64.635a4.469 4.469 0 01-4.471 4.467h-23.274a4.47 4.47 0 01-4.471-4.467v-64.635a4.47 4.47 0 014.471-4.467z" fill="#C4C4C4" stroke="#F2F2F2"/><path d="M290.342 101.388h-13.277v1.436h13.277v-1.436zm-19.437 0h-13.277v1.436h13.277v-1.436zm-19.441 0h-13.276v1.436h13.276v-1.436zm-19.437 0H218.75v1.436h13.277v-1.436z" fill="#FA8A37"/><path d="M375.123 202.171c1.369-4.601 0-9.202 0-9.202v-4.341s1.565-8.487-5.418-13.932l-4.631-4.081s-2.596-2.228-3.351-2.369a3.588 3.588 0 00-.426-.064l-.136-.081a13.855 13.855 0 01-1.015-2.13 1.976 1.976 0 001.65-.562c.167-.193.299-.413.388-.652.268-.601.315-1.329.541-1.968.199-.519.487-.997.853-1.415-.047.077-.098.149-.141.23.657-.818 1.514-1.516 2.132-2.377.123-.171.235-.349.337-.533-.026.039-.06.073-.09.111.853-1.367 1.113-3.025 1.36-4.622a4.163 4.163 0 00.026-1.653 5.966 5.966 0 00-.461-1.048c-1.006-2.075-.989-4.687-2.596-6.344-1.211-1.24-3.044-1.619-4.771-1.832-1.726-.213-3.543-.337-5.026-1.24a5.298 5.298 0 00-1.36-.745 1.115 1.115 0 00-1.335.494.868.868 0 01-.179.362.574.574 0 01-.511.03l-2.298-.614.025.115h-.059l.085.362a.206.206 0 01.131.023c.04.023.07.058.086.101l-.371.571a5.78 5.78 0 01-2.072-.426.515.515 0 000 .111h-.034c-.042.647.695 1.069.921 1.678.091.267.091.556 0 .822a1.801 1.801 0 01-.426.657c-.815.805-1.859.647-2.797 1.154a.607.607 0 00-.341.379.278.278 0 00-.03.209.496.496 0 00.192.239c.273.22.572.406.891.553a6.047 6.047 0 00-.269.26 10.27 10.27 0 00-2.728 9.33 10.263 10.263 0 002.206 4.5 10.263 10.263 0 004.074 2.922c.034.179.059.362.085.554v.055l.026.247-3.096 1.317a2.47 2.47 0 01-2.217-1.427c-.72-1.487-3.265 0-3.265 0s-7.764-.58-10.659.852c0 0-4.634-1.943-5.286-2.075-.653-.132-1.629-.648-2.085-.516-.456.133-1.045-.852-1.373-.779-.328.072-.456-.648-1.501-.908-1.044-.26-1.437.069-2.609-1.099-1.172-1.167-10.705-5.768-10.705-5.768l-4.281-3.519-4.566-3.63-.081.149a9.442 9.442 0 01-.089-.337 43.749 43.749 0 00-1.706-5.321c-.294-.703-.426-1.589-.823-1.12-.243.281-.656-.337-1.279-.754a1.07 1.07 0 00-.915-.148 1.066 1.066 0 00-.692.616c-3.556 5.573-4.83 5.965-2.771 8.014 1.837 1.819 3.057 3.408 4.553 3.911l.179.055a.181.181 0 01-.098 0l8.68 10.37s6.263 5.445 10.574 7.192c4.31 1.746 3.977 2.27 3.977 2.27s13.055 6.608 15.076 6.48c2.021-.127 1.633 13.544.784 15.764-.848 2.219-2.217 18.145-2.217 18.145s-1.309 3.37.064 5.7c0 0 .303 4.465.03 5.538-1.189 1.832-2.886 4.942-3.163 8.142 0 .17-.034.328-.052.494a1.16 1.16 0 01-.306.252l.289-.086a16.365 16.365 0 01-.852 3.911 15.893 15.893 0 00-1.079 5.564v10.293l-.853 6.391s-1.044 4.836 0 5.965c.441.562.646 1.274.572 1.985-.044.825.19 1.641.665 2.318a1.73 1.73 0 01.426 1.486c-.345 1.121.512 13.046.512 13.046s-.252 3.284-.597 3.459c-.345.175.597 3.8.597 3.8s-3.526 2.94-2.626 4.495l.899 1.38-.239.235-.145.149a1.39 1.39 0 00-.899-.171 34.375 34.375 0 01-3.547 3.157c-1.591 1.146-5.918 2.808-5.918 2.808l-3.411.277h-.064s-1.632-.154-.716 2.373c.917 2.526 9.111 1.751 9.111 1.751l4.784-.754s8.526.042 10.969-.499c1.019-.225 1.279-.771 1.194-1.32l-.026-.026a3.396 3.396 0 00-.699-1.427.542.542 0 00-.059-.077l.153-1.747c3.62-2.083-1.023-6.181-1.023-6.181s1.59-3.456 2.404-4.576c.815-1.121.815-17.629.815-17.629s.426-5.965-.695-7.345a2.485 2.485 0 011.219-2.246c.806-.549 3.24-8.12 5.15-14.404l1.203 7.405s-.261 3.544.52 4.58a1.772 1.772 0 01.324 1.38 6.226 6.226 0 00.174 2.982c.092.414.315.788.636 1.065.695.345.737 1.577.997 1.836.26.26 1.872-.366 1.957.584.049.834.049 1.671 0 2.505l.525 15.38s-.853 1.278-1.045 4.687c-.072 1.452-.345 2.279-.627 2.752a1.409 1.409 0 00.128 1.653l.15.174-.644.495a1.418 1.418 0 00-.401 1.751 1.374 1.374 0 00-.396 1.491c.026.085.063.167.11.243a2.417 2.417 0 00-1.3.643 10.64 10.64 0 01-2.298 2.309 44.265 44.265 0 00-3.662 3.136 5.269 5.269 0 01-2.132 1.704 3.588 3.588 0 01-.644.192c-1.705.349-1.172 2.13.218 2.424 1.39.294 6.003 1.704 9.592.882 0 0 1.066.426 2.631-.367 1.565-.792 5.056-1.764 5.056-1.764s1.957 0 2.222-.775c.068-.247.106-.502.11-.758l.056-.056-.051-.047a10.393 10.393 0 00-.29-2.509c-.167-.647-.478-1.487-.61-1.84a.782.782 0 00.06-.09c.746-1.278-.495-4.311-.495-4.311a8.297 8.297 0 011.471-1.743c.695-.52 2.524-13.999 2.524-13.999s-.09-3.456.853-5.011c.942-1.555-1.305-10.97-1.305-10.97s-.959-2.16-.61-2.94c.35-.779-.349-3.63-.349-3.63v-3.408a3.757 3.757 0 00-.201-1.193c-.268-.801-.665-2.339-.234-3.442.61-1.555 2-11.145 2-11.145s-1.088-4.231.507-7.601c.124-.269.267-.529.426-.779 1.181-1.854.827-5.147.243-7.801a19.13 19.13 0 00-.281-1.18 13.269 13.269 0 00-.124-.469l.188-.077s0-.251.059-.681a4.79 4.79 0 003.138-2.169s3.982-4.473 7.504-6.352c3.521-1.879 3.786-4.601 3.786-4.601-.52-.908.933-4.601.933-4.601l-.132-3.997zm-11.485 5.965l-3.769 4.367v-.026c-.981-1.363.912-4.409.912-4.409l3.134-6.987c-.026.894-.137 1.704-.427 2.058-.852 1.167 1.569 3.114 1.569 3.114-1.291.004-1.419 1.883-1.419 1.883z" fill="url(#paint0_linear)"/><path d="M297.282 150.881l-2.059 3.992a8.084 8.084 0 01-1.914-.401 7.241 7.241 0 01-4.498-3.885c-1.837-4.056 1.202-6.676 2.618-7.451 1.415-.776 2.733-1.658 3.794.886a43.815 43.815 0 011.667 5.287c.248.933.392 1.572.392 1.572zm65.396 20.765l-3.287 4.891s-15.531 7.404-12.564-1.278c1.305-3.835 1.458-6.634 1.224-8.572v-.055c-.307-2.425-1.22-3.477-1.22-3.477s15.14-7.745 12.884-2.45a7.295 7.295 0 00-.533 3.485 11.874 11.874 0 001.629 4.836 16.126 16.126 0 001.867 2.62z" fill="#CC818C"/><path d="M357.95 268.531s2.234 9.373 1.279 10.902c-.955 1.53-.852 4.981-.852 4.981s-1.804 13.394-2.49 13.905a8.155 8.155 0 00-1.462 1.705s1.227 3.033.49 4.285a1.05 1.05 0 01-.49.427c-1.152.485-5.406-1.671-7.828-2.983a1.374 1.374 0 01-.71-1.06 1.376 1.376 0 01.463-1.189 1.406 1.406 0 01.392-1.738l.639-.495-.149-.174a1.41 1.41 0 01-.128-1.645c.277-.464.546-1.278.618-2.731.175-3.348 1.032-4.635 1.032-4.635l-.516-15.286c.049-.829.049-1.66 0-2.488-.085-.942-1.675-.32-1.931-.58-.256-.26-.303-1.478-.989-1.823a1.961 1.961 0 01-.623-1.061 6.127 6.127 0 01-.174-2.982 1.76 1.76 0 00-.32-1.372c-.772-1.031-.516-4.546-.516-4.546l-1.185-7.362c-1.889 6.246-4.289 13.77-5.086 14.315a2.471 2.471 0 00-1.203 2.228c1.117 1.376.687 7.303.687 7.303s0 16.393-.806 17.514c-.806 1.12-2.366 4.567-2.366 4.567s4.604 4.094.98 6.161h-.038c-3.696 2.062-11.341-3.69-11.341-3.69l.798-.797.234-.234-.904-1.346c-.887-1.547 2.592-4.465 2.592-4.465s-.929-3.609-.588-3.779c.341-.17.588-3.434.588-3.434s-.852-11.848-.503-12.964a1.74 1.74 0 00-.426-1.479 3.676 3.676 0 01-.657-2.3 2.732 2.732 0 00-.567-1.973c-1.031-1.116 0-5.922 0-5.922l.853-6.356v-10.093a16.087 16.087 0 011.079-5.696c.521-1.474.836-3.012.938-4.571.281-3.255 2.033-6.416 3.21-8.219.622-.954 1.087-1.525 1.087-1.525l27.491-1.073s.426 1.222.886 2.922c.094.371.188.763.277 1.172.576 2.641.921 5.913-.243 7.754-.157.249-.3.508-.426.775-1.573 3.349-.499 7.554-.499 7.554s-1.373 9.526-1.974 11.077c-.426 1.095-.034 2.624.235 3.408.125.384.19.785.192 1.189v3.395s.69 2.833.345 3.609c-.345.775.605 2.918.605 2.918z" fill="#444053"/><path opacity=".1" d="M359.217 234.878a6.51 6.51 0 00-.427.771l-1.547-.085c.149-.796-.904-8.265-.904-8.265l3.116-.174c.576 2.637.926 5.909-.238 7.753z" fill="#000"/><path d="M359.473 234.618c-.158.25-.301.509-.427.776l-1.547-.09c.149-.792-.904-8.265-.904-8.265l3.116-.174c.58 2.641.925 5.913-.238 7.753z" fill="#444053"/><path opacity=".05" d="M359.473 234.618c-.158.25-.301.509-.427.776l-1.547-.09c.149-.792-.904-8.265-.904-8.265l3.116-.174c.58 2.641.925 5.913-.238 7.753z" fill="#000"/><path opacity=".1" d="M354.919 304.327c-.114.19-.285.34-.49.426-1.151.485-5.406-1.67-7.828-2.983a1.39 1.39 0 01-.643-.767c1.381-.251 2.285 1.279 2.285 1.279a2.032 2.032 0 012.293.087c.219.161.403.365.542.599 1.181 1.738 3.713 1.005 3.713 1.005l.128.354z" fill="#000"/><path d="M355.631 309.588c-.256.776-2.191.776-2.191.776s-3.458.988-5.005 1.759c-1.548.771-2.597.366-2.597.366-3.543.814-8.1-.6-9.473-.881-1.373-.282-1.91-2.058-.213-2.403.217-.045.43-.111.635-.196a5.194 5.194 0 002.132-1.704 43.608 43.608 0 013.619-3.115 10.575 10.575 0 002.268-2.296c2.021-1.781 3.458.665 3.458.665a2.031 2.031 0 012.835.69c1.181 1.738 3.714 1.001 3.714 1.001s.456 1.163.669 1.998c.051.213.107.477.158.775.115.865.187 1.986-.009 2.565z" fill="#FF748F"/><path d="M349.722 304.16a.234.234 0 100-.469.234.234 0 000 .469zm-2.016 1.888a.235.235 0 10-.001-.469.235.235 0 00.001.469zm-2.051 1.695a.234.234 0 100-.469.234.234 0 000 .469zm1.061-.758a.235.235 0 10.001-.469.235.235 0 00-.001.469zm2.042-1.938a.235.235 0 100-.47.235.235 0 000 .47z" fill="#575988"/><path d="M355.631 309.588c-.256.776-2.191.776-2.191.776s-3.458.988-5.005 1.759c-1.548.771-2.597.366-2.597.366-3.543.814-8.1-.6-9.473-.881-1.373-.282-1.91-2.058-.213-2.403.217-.045.43-.111.635-.196 1.499.515 3.064.812 4.647.882 3.5.149 6.272 0 6.272 0l3.542-1.138a5.929 5.929 0 012.192-.792 5.733 5.733 0 002.178-.946c.137.873.209 1.994.013 2.573z" fill="#DCE6F2"/><path opacity=".5" d="M346.814 311.808a2.98 2.98 0 01-.588-.056l.051-.251a3.755 3.755 0 002.132-.298c.315-.124.631-.273.938-.426.307-.154.737-.345 1.121-.486l.35-.119c.192-.068.388-.132.575-.213a4.51 4.51 0 00.316-.145c.251-.132.518-.233.793-.303.141-.026.283-.044.426-.055.132-.009.263-.024.392-.047.258-.065.508-.158.746-.277a3.6 3.6 0 01.802-.298l.188-.03a.918.918 0 00.554-.204l.192.174a1.161 1.161 0 01-.704.286l-.179.03a3.483 3.483 0 00-.746.276 3.887 3.887 0 01-.801.294 2.929 2.929 0 01-.427.052 3.632 3.632 0 00-.401.051 3.418 3.418 0 00-.737.285l-.324.149c-.196.081-.401.149-.597.218l-.341.119c-.375.136-.742.311-1.1.477-.358.166-.631.298-.955.426a4.672 4.672 0 01-1.676.371z" fill="#575988"/><path opacity=".1" d="M347.642 269.153s1.782-2.556 4.834-2.556c3.053 0 4.357-.345 4.357-.345s-1.952 1.158-3.304 1.308c-1.351.149-5.887 1.593-5.887 1.593zm1.031.601s1.612-1.117 2.533-1.159c.921-.043 1.705-.128 1.705-.128a4.92 4.92 0 01-1.415.686c-.755.213-2.823.601-2.823.601zm.363.771s2.426.192 2.447.852l-2.447-.852zm-22.626-36.213c.128.021 2.298-2.254 2.447-3.153a2.204 2.204 0 01.943-1.389s1.398.558.153 2.271c-1.245 1.713-3.543 2.271-3.543 2.271zm33.284-73.615c-.494 1.167-.929 1.278-.852 2.39a8.533 8.533 0 01-1.966 1.546c-1.535.912-3.206 2.697-5.116 2.697a10.2 10.2 0 01-3.739-.707c-.307-2.424-1.219-3.476-1.219-3.476s15.143-7.746 12.892-2.45z" fill="#000"/><path d="M362.013 156.577a10.225 10.225 0 01-12.228 10.028 10.23 10.23 0 01-8.04-8.033 10.222 10.222 0 014.351-10.497 10.243 10.243 0 0112.92 1.272 10.221 10.221 0 012.997 7.23z" fill="#CC818C"/><path opacity=".1" d="M362.678 171.646l-3.287 4.891s-15.531 7.404-12.564-1.278c1.305-3.835 1.458-6.634 1.224-8.572h.025c.184.642.288 1.305.311 1.972.047 1.338.081 3.03 3.411 3.588 5.543.928 8.501-2.531 9.022-3.208a16.072 16.072 0 001.858 2.607zm-65.396-20.765l-2.059 3.992a8.074 8.074 0 01-1.914-.401l-.179-.213c.853.324 3.671-5.023 3.671-5.023l.089.073c.247.933.392 1.572.392 1.572zm62.156 74.812c-6.634 2.88-29.579.426-29.579.426.068-.244.107-.496.115-.75.622-.954 1.087-1.525 1.087-1.525l27.491-1.074s.447 1.223.886 2.923z" fill="#000"/><path d="M348.059 166.925l-3.061 1.308a2.427 2.427 0 01-2.187-1.418c-.712-1.479-3.223 0-3.223 0s-7.674-.58-10.505.852c0 0-4.575-1.934-5.219-2.062-.643-.128-1.611-.644-2.063-.516-.452.128-1.028-.852-1.352-.771-.324.081-.451-.643-1.483-.903s-1.416.064-2.558-1.095c-1.143-1.159-10.569-5.73-10.569-5.73l-4.264-3.477-4.51-3.604s-2.835 5.343-3.675 5.019l8.569 10.306s6.186 5.406 10.441 7.144c4.255 1.738 3.931 2.254 3.931 2.254s12.888 6.569 14.884 6.442c1.995-.128 1.62 13.441.767 15.631-.853 2.19-2.187 18.03-2.187 18.03s-1.279 3.348.064 5.666c0 0 .32 4.767 0 5.602 0 0 23.086 2.467 29.639-.451 0 0 .968-10.689 0-12.04-.968-1.35.904-4.363.904-4.363l4.122-9.206 10.054-10.11s1.543-8.436-5.351-13.842l-4.575-4.06s-2.558-2.211-3.308-2.352c-.75-.14-.473 0-.473 0s-2.985 4.35-9.107 3.319c-3.317-.558-3.351-2.25-3.411-3.583a8.317 8.317 0 00-.294-1.99z" fill="#67647E"/><path opacity=".1" d="M360.657 201.588s-14.18.579-17.011 5.031c0 0 3.676-1.742 6.958-1.227 3.283.516 10.053-3.804 10.053-3.804zm-15.658 15.516s6.702.452 8.121-.967c1.42-1.419 1.424-2.254 1.424-2.254l-9.545 3.221zm17.014-29.171s-5.674 6.698 1.224 9.595l-1.224-9.595zm-33.574-12.938s2.063 4.205 3.095 4.482l-3.095-4.482zm-6.958-1.807s5.155 4.64 6.123 5.087c0 0-5.351-5.087-6.123-5.087zm20.554-4.439s-4.962 7.404-1.739 11.929c0-.017-1.804-5.364 1.739-11.929z" fill="#000"/><path d="M354.544 224.832l-1.518 1.428-.213.195-1.756 1.662a8.712 8.712 0 01-.375.273c-7.15 5.112-8.583-2.659-8.583-2.659s-3.155 2.062-3.606.388c-.452-1.674 7.345-4.056 8.526-3.928.104.01.208.01.312 0a4.897 4.897 0 001.603-.567l.345-.183c.397-.223.783-.467 1.155-.728l4.11 4.119z" fill="#CC818C"/><path opacity=".1" d="M362.252 156.577a10.225 10.225 0 01-4.988 8.802 5.717 5.717 0 01-.375-.746c-.367-.852-.593-1.772-.964-2.628a8.08 8.08 0 00-1.705-2.505 1.084 1.084 0 00-.456-.316 1.239 1.239 0 00-.938.26 4.326 4.326 0 01-1.428.627 1.523 1.523 0 01-1.433-.426c-.401-.478-.345-1.176-.23-1.786.252-1.333.669-2.645.674-4 .004-1.355-.516-2.812-1.706-3.485-1.04-.592-2.332-.426-3.487-.758a3.913 3.913 0 01-.525-.179 10.238 10.238 0 0111.186-2.336 10.23 10.23 0 016.375 9.476z" fill="#000"/><path d="M343.992 147.801c-.183.098-.388.277-.332.481a.486.486 0 00.187.239 4.48 4.48 0 001.62.83c1.156.316 2.452.167 3.492.759 1.177.669 1.705 2.13 1.705 3.485s-.426 2.667-.669 3.996c-.115.613-.175 1.312.226 1.789a1.528 1.528 0 001.433.426c.51-.118.994-.328 1.428-.622a1.242 1.242 0 01.942-.264c.175.067.332.175.456.315a8.084 8.084 0 011.705 2.51c.376.852.597 1.768.964 2.628a4.262 4.262 0 001.705 2.131c.819.451 1.953.426 2.584-.273.631-.699.58-1.657.878-2.497.512-1.461 1.94-2.377 2.835-3.638 1.002-1.419 1.279-3.199 1.552-4.916.122-.541.13-1.101.026-1.645a5.875 5.875 0 00-.452-1.039c-.998-2.062-.976-4.657-2.558-6.302-1.194-1.235-3.006-1.61-4.711-1.823-1.705-.213-3.496-.332-4.958-1.231-.41-.31-.863-.56-1.343-.742a1.096 1.096 0 00-1.322.495.882.882 0 01-.175.358.563.563 0 01-.507.029l-2.268-.609.26 1.142a5.692 5.692 0 01-2.409-.426c-.043.647.686 1.065.912 1.67a1.542 1.542 0 01-.426 1.568c-.823.826-1.85.669-2.78 1.176z" fill="#585268"/><path opacity=".1" d="M334.8 301.651l-.093 1.027h-.039c-3.696 2.062-11.34-3.69-11.34-3.69l.797-.796a1.391 1.391 0 01.349 1.078l1.561.085 1.867 2.015s5.052.584 6.421.26l.477.021z" fill="#000"/><path d="M334.152 307.249c-2.404.537-10.825.499-10.825.499l-4.723.745s-8.101.776-9-1.738c-.9-2.514.707-2.356.707-2.356h.064l3.373-.273s4.263-1.653 5.845-2.79a33.9 33.9 0 003.5-3.136s1.407-.273 1.381 1.355l1.561.085 1.867 2.02s5.052.583 6.421.255h.477l-.217 2.493.06.072c.324.392 1.658 2.292-.491 2.769z" fill="#FF748F"/><path d="M325.434 301.238a.235.235 0 10-.001-.469.235.235 0 00.001.469zm-6.059 2.624a.235.235 0 10.001-.469.235.235 0 00-.001.469zm-3.12.946a.234.234 0 100-.469.234.234 0 000 .469zm4.71-1.449a.234.234 0 100-.468.234.234 0 000 .468zm-3.154.976a.234.234 0 100-.469.234.234 0 000 .469zm4.762-1.721a.234.234 0 100-.469.234.234 0 000 .469zm1.59-.69a.235.235 0 100-.47.235.235 0 000 .47z" fill="#575988"/><path d="M334.152 307.249c-2.404.537-10.825.499-10.825.499l-4.723.745s-8.101.776-9-1.738c-.9-2.514.707-2.356.707-2.356h.064c.516.669 1.552 1.427 3.586 1.465l5.824.235 6.032-.426s5.654-.166 6.574-.362a13.473 13.473 0 002.252-.827c.324.388 1.658 2.288-.491 2.765z" fill="#DCE6F2"/><path opacity=".5" d="M319.06 307.926a3.46 3.46 0 01-.955-.119l.068-.247c.795.171 1.62.134 2.396-.106.286-.077.567-.158.853-.243a13.307 13.307 0 011.573-.396 12.983 12.983 0 012.592-.077h.184c2.583.136 5.173.02 7.733-.345a2.897 2.897 0 001.655-.665l.183.183a3.14 3.14 0 01-1.795.737 40.06 40.06 0 01-7.785.345h-.188a12.868 12.868 0 00-2.558.077c-.52.097-1.034.227-1.539.388-.285.085-.571.17-.852.243a6.52 6.52 0 01-1.565.225z" fill="#575988"/><path opacity=".1" d="M354.544 224.832l-1.518 1.428-3.769-4.823a13.86 13.86 0 001.156-.729l4.131 4.124z" fill="#000"/><path d="M371.632 185.318l2.984 4.119v4.316s1.351 4.571 0 9.143l.145 3.992s-1.437 3.668-.921 4.571c0 0-.256 2.705-3.735 4.571-3.479 1.867-7.427 6.289-7.427 6.289s-1.483 2.833-5.478 2.19l-3.803 1.61-4.378-5.602 5.926-3.221s2.063-2.765 3.287-2.637l5.026-5.863s.128-1.866 1.416-1.866c0 0-2.384-1.93-1.548-3.088.836-1.159.132-6.314.132-6.314l8.374-12.21z" fill="#67647E"/><path opacity=".1" d="M366.089 204.097s6.766-.128 7.602 1.611c.836 1.738-5.559-2.578-7.602-1.611zm-13.246 22.022c.001.113-.009.226-.03.337a2.277 2.277 0 01-2.132 1.934h-.119a2.277 2.277 0 01-2.277-2.275c.001-.251.044-.501.128-.737-1.074-.852-1.134-2.42-1.104-3.196a4.864 4.864 0 001.603-.566c.28.805.657 1.573 1.121 2.288a2.292 2.292 0 012.142.603 2.27 2.27 0 01.668 1.612z" fill="#000"/><path d="M349.117 221.104s-1.527.346-1.527.623c0 .276-.345 2.79 1.331 3.834 1.675 1.044 1.505-1.44 1.505-1.44s-1.441-2.207-1.309-3.017z" fill="#575988"/><path d="M350.818 228.394a2.276 2.276 0 100-4.552 2.276 2.276 0 000 4.552z" fill="#E4AAB4"/><path d="M350.818 228.07a1.951 1.951 0 100-3.902 1.951 1.951 0 100 3.902z" fill="#DCE6F2"/><path opacity=".1" d="M341.95 227.001s4.813 3.988 10.995 1.457v1.934s-4.122 2.833-7.857 1.116c-3.735-1.717-3.138-4.507-3.138-4.507z" fill="#000"/><path opacity=".1" d="M341.95 226.485s4.813 3.992 10.995 1.457v1.935s-4.122 2.833-7.857 1.116c-3.735-1.717-3.138-4.508-3.138-4.508z" fill="#000"/><path d="M341.95 226.485s4.813 3.992 10.995 1.457v1.935s-4.122 2.833-7.857 1.116c-3.735-1.717-3.138-4.508-3.138-4.508z" fill="#444053"/><path opacity=".05" d="M342.078 226.485s4.813 3.992 11 1.457v1.935s-4.123 2.833-7.862 1.116-3.138-4.508-3.138-4.508z" fill="#000"/><path opacity=".1" d="M326.828 298.192s6.446 1.184 7.388 1.44c.942.255-.256.707-.256.707s-5.883-1.052-7.132-2.147zm-.15-3.413c.107 0 4.383-1.201 5.304-3.259l-5.304 3.259zm6.238-24.638s1.73 2.275 2.847 2.211c1.117-.063-1.833-2.296-2.847-2.211zm.959 3.792s.729 1.606 1.803 1.091l-1.803-1.091z" fill="#000"/><path opacity=".05" d="M337.951 238.572l4.57 12.044s.644-7.75-.716-10.067a4.027 4.027 0 00-3.854-1.977z" fill="#000"/><path opacity=".1" d="M349.181 143.14l-.039-.175-.733-.196.081.358c.23.017.461.021.691.013zm-2.017 2.905l.077-.068a1.539 1.539 0 00.426-1.568 2.073 2.073 0 00-.367-.583 5.988 5.988 0 01-1.057-.311c-.043.643.682 1.061.908 1.666.105.278.109.583.013.864zm12.189 19.798a4.256 4.256 0 01-1.727-2.13c-.362-.852-.588-1.772-.959-2.624a8.101 8.101 0 00-1.705-2.51 1.122 1.122 0 00-.456-.315 1.24 1.24 0 00-.938.26 4.3 4.3 0 01-1.429.626 1.52 1.52 0 01-1.432-.426c-.401-.477-.345-1.18-.23-1.789.251-1.329.669-2.646.673-3.996.005-1.351-.516-2.816-1.705-3.485-1.04-.593-2.332-.426-3.487-.759a4.494 4.494 0 01-1.625-.83.814.814 0 01-.085-.081 2.126 2.126 0 00-.282.132c-.187.098-.387.277-.336.481.038.097.105.18.192.239a4.44 4.44 0 001.62.83c1.155.316 2.447.167 3.487.759 1.177.669 1.705 2.13 1.705 3.485s-.426 2.667-.673 3.996c-.115.613-.171 1.312.23 1.789a1.53 1.53 0 001.433.426c.51-.118.994-.328 1.428-.622a1.23 1.23 0 01.938-.264c.176.066.332.174.456.315a8.177 8.177 0 011.705 2.51c.375.852.597 1.768.964 2.628a4.257 4.257 0 001.705 2.131c.814.451 1.953.426 2.558-.273.168-.19.298-.409.384-.648a2.197 2.197 0 01-2.409.145zm3.684-3.276c.643-.814 1.492-1.508 2.097-2.36.12-.171.23-.35.333-.529-.78.993-1.851 1.781-2.43 2.889z" fill="#000"/></g><defs><linearGradient id="paint0_linear" x1="331.504" y1="312.736" x2="331.504" y2="140.882" gradientUnits="userSpaceOnUse"><stop stop-color="gray" stop-opacity=".25"/><stop offset=".54" stop-color="gray" stop-opacity=".12"/><stop offset="1" stop-color="gray" stop-opacity=".1"/></linearGradient><clipPath id="clip0"><path fill="#fff" d="M0 0h438v334H0z"/></clipPath></defs></svg>