<svg width="100" height="100" fill="none" xmlns="http://www.w3.org/2000/svg"><g clip-path="url(#clip0)"><path d="M81.899 71.343a2.093 2.093 0 00-1.207.877l-4.761 7.288 10.646-2.88-.323-6.464-4.355 1.179zm-22.171 7.688a2.102 2.102 0 00-1.492 0L45.01 84.07l-7.738-11.85a2.1 2.1 0 00-1.208-.877l-13.66-3.697.704-14.135a2.094 2.094 0 00-.46-1.42l-8.88-11.022 8.88-11.02c.322-.401.486-.905.46-1.42l-.383-7.67-9.303 2.517.704 14.135a2.095 2.095 0 01-.46 1.42l-8.88 11.02 8.88 11.022c.322.4.486.905.46 1.42l-.704 14.135 13.66 3.697a2.1 2.1 0 011.208.877l7.738 11.85 13.225-5.039a2.102 2.102 0 011.492 0l13.225 5.039 6.486-9.933-10.729-4.088z" fill="#fff"/><path d="M38.414 45.827a8.68 8.68 0 118.68-8.68 8.687 8.687 0 01-8.68 8.68zm0-13.168a4.489 4.489 0 104.488 4.489 4.493 4.493 0 00-4.488-4.489zM61.06 72.163a8.68 8.68 0 118.68-8.68 8.69 8.69 0 01-8.68 8.68zm0-13.168a4.488 4.488 0 100 8.976 4.488 4.488 0 000-8.976z" fill="#E1680F"/><path d="M9.9 63.081l-.748 15.024a2.098 2.098 0 001.546 2.127l14.521 3.93 8.224 12.596a2.096 2.096 0 002.502.813l14.056-5.357 14.056 5.356c.92.35 1.961.012 2.5-.812l8.225-12.595 14.52-3.93a2.095 2.095 0 001.547-2.127L90.1 63.082l9.437-11.714a2.095 2.095 0 000-2.63L90.1 37.024 90.85 22a2.097 2.097 0 00-1.547-2.126l-14.52-3.93-8.224-12.599a2.097 2.097 0 00-2.502-.812L50 7.89 35.944 2.535a2.097 2.097 0 00-2.5.81l-8.225 12.596-14.52 3.93a2.097 2.097 0 00-1.547 2.126l.749 15.023L.465 48.737a2.096 2.096 0 000 2.63l9.436 11.714zm3.767-24.05c.322-.401.486-.905.46-1.42l-.704-14.135 13.66-3.697a2.099 2.099 0 001.209-.877l7.737-11.85 13.225 5.039a2.11 2.11 0 001.493 0l13.225-5.039 7.738 11.85c.281.43.71.743 1.207.877l13.662 3.697-.705 14.135a2.095 2.095 0 00.46 1.42l8.88 11.02-8.88 11.022a2.09 2.09 0 00-.46 1.42l.705 14.135-13.662 3.697a2.092 2.092 0 00-1.207.877l-7.738 11.85-13.225-5.039a2.103 2.103 0 00-1.493 0L36.03 93.052l-7.737-11.85a2.098 2.098 0 00-1.209-.877l-13.66-3.697.704-14.135a2.093 2.093 0 00-.46-1.42l-8.88-11.022 8.88-11.02z" fill="#504C58"/><path d="M34.041 74.522c.97.633 2.269.359 2.9-.61l29.627-45.429a2.098 2.098 0 00-1.64-3.24 2.096 2.096 0 00-1.87.95L33.43 71.621a2.096 2.096 0 00.61 2.9z" fill="#E1680F"/></g><defs><clipPath id="clip0"><path fill="#fff" d="M0 0h100v100H0z"/></clipPath></defs></svg>