<svg width="100" height="100" fill="none" xmlns="http://www.w3.org/2000/svg"><g clip-path="url(#clip0)"><path d="M44.071 61.505a1.866 1.866 0 01-1.423-.656l-9.884-11.574a1.871 1.871 0 112.846-2.431l8.697 10.185 21.6-17.574a1.87 1.87 0 112.362 2.903L45.25 61.085a1.86 1.86 0 01-1.179.42z" fill="#E1680F"/><path d="M43.454 97.634l5.073 2.21a1.868 1.868 0 001.489.002l5.715-2.468A54.06 54.06 0 0088.858 47.54V21.9c0-.691-.38-1.327-.99-1.652L50.282.22a1.867 1.867 0 00-1.78.01L11.96 20.259a1.87 1.87 0 00-.97 1.641v26.16a54.166 54.166 0 0032.465 49.575zM14.73 23.007l34.685-19.01L85.116 23.02v24.52a50.327 50.327 0 01-30.85 46.395l-.013.007-4.977 2.148-4.325-1.886A50.42 50.42 0 0114.73 48.059V23.007z" fill="#504C58"/><path d="M62.286 83.242l-.013.005-4.978 2.15-4.324-1.885a50.42 50.42 0 01-30.222-46.145V18.612l-8.02 4.395v25.052a50.42 50.42 0 0030.223 46.145l4.323 1.886 4.978-2.15.012-.006a50.5 50.5 0 0024.459-21.856 50.666 50.666 0 01-16.438 11.164z" fill="#fff"/></g><defs><clipPath id="clip0"><path fill="#fff" d="M0 0h100v100H0z"/></clipPath></defs></svg>